<svg width="629" height="30" viewBox="0 0 629 30" fill="none" xmlns="http://www.w3.org/2000/svg">
<path d="M0.148438 29V0.5625H10.3633C14.0221 0.5625 16.8021 1.23307 18.7031 2.57422C20.6172 3.91536 21.5742 5.86198 21.5742 8.41406C21.5742 9.88542 21.2357 11.1419 20.5586 12.1836C19.8815 13.2253 18.8854 13.9935 17.5703 14.4883C19.0547 14.8789 20.194 15.6081 20.9883 16.6758C21.7826 17.7435 22.1797 19.0456 22.1797 20.582C22.1797 23.3685 21.2943 25.4648 19.5234 26.8711C17.7656 28.2643 15.1549 28.974 11.6914 29H0.148438ZM7.00391 16.9102V23.7266H11.4961C12.7331 23.7266 13.6836 23.4466 14.3477 22.8867C15.0117 22.3138 15.3438 21.513 15.3438 20.4844C15.3438 18.1146 14.1654 16.9232 11.8086 16.9102H7.00391ZM7.00391 12.418H10.5781C12.0755 12.4049 13.1432 12.1315 13.7812 11.5977C14.4193 11.0638 14.7383 10.276 14.7383 9.23438C14.7383 8.03646 14.3932 7.17708 13.7031 6.65625C13.013 6.1224 11.8997 5.85547 10.3633 5.85547H7.00391V12.418ZM43.6055 16.9492H32.8242V23.7266H45.5586V29H25.9688V0.5625H45.5977V5.85547H32.8242V11.8516H43.6055V16.9492ZM72.1016 29H65.2852L55.207 11.3047V29H48.3516V0.5625H55.207L65.2656 18.2578V0.5625H72.1016V29ZM94.0742 16.9492H83.293V23.7266H96.0273V29H76.4375V0.5625H96.0664V5.85547H83.293V11.8516H94.0742V16.9492ZM116.73 17.6719H105.676V29H98.8203V0.5625H117.844V5.85547H105.676V12.3984H116.73V17.6719ZM128 29H121.164V0.5625H128V29ZM154.504 5.85547H145.969V29H139.113V5.85547H130.734V0.5625H154.504V5.85547ZM171.77 21.4414C171.77 20.4388 171.411 19.6576 170.695 19.0977C169.992 18.5378 168.749 17.9583 166.965 17.3594C165.181 16.7604 163.723 16.181 162.59 15.6211C158.905 13.8112 157.062 11.3242 157.062 8.16016C157.062 6.58464 157.518 5.19792 158.43 4C159.354 2.78906 160.656 1.85156 162.336 1.1875C164.016 0.510417 165.904 0.171875 168 0.171875C170.044 0.171875 171.874 0.536458 173.488 1.26562C175.116 1.99479 176.379 3.03646 177.277 4.39062C178.176 5.73177 178.625 7.26823 178.625 9H171.789C171.789 7.84115 171.431 6.94271 170.715 6.30469C170.012 5.66667 169.055 5.34766 167.844 5.34766C166.62 5.34766 165.65 5.62109 164.934 6.16797C164.23 6.70182 163.879 7.38542 163.879 8.21875C163.879 8.94792 164.27 9.61198 165.051 10.2109C165.832 10.7969 167.206 11.4089 169.172 12.0469C171.138 12.6719 172.753 13.349 174.016 14.0781C177.089 15.849 178.625 18.2904 178.625 21.4023C178.625 23.8893 177.688 25.8424 175.812 27.2617C173.938 28.681 171.366 29.3906 168.098 29.3906C165.793 29.3906 163.703 28.9805 161.828 28.1602C159.966 27.3268 158.56 26.194 157.609 24.7617C156.672 23.3164 156.203 21.6562 156.203 19.7812H163.078C163.078 21.3047 163.469 22.431 164.25 23.1602C165.044 23.8763 166.327 24.2344 168.098 24.2344C169.23 24.2344 170.122 23.9935 170.773 23.5117C171.438 23.0169 171.77 22.3268 171.77 21.4414ZM216.184 15.3672C216.184 18.1406 215.669 20.5951 214.641 22.7305C213.612 24.8659 212.147 26.513 210.246 27.6719C208.358 28.8177 206.203 29.3906 203.781 29.3906C201.359 29.3906 199.211 28.8372 197.336 27.7305C195.461 26.6107 193.996 25.0156 192.941 22.9453C191.9 20.875 191.353 18.4987 191.301 15.8164V14.2148C191.301 11.4284 191.809 8.97396 192.824 6.85156C193.853 4.71615 195.318 3.06901 197.219 1.91016C199.133 0.751302 201.307 0.171875 203.742 0.171875C206.151 0.171875 208.299 0.744792 210.188 1.89062C212.076 3.03646 213.54 4.67057 214.582 6.79297C215.637 8.90234 216.171 11.3242 216.184 14.0586V15.3672ZM209.211 14.1758C209.211 11.3503 208.736 9.20833 207.785 7.75C206.848 6.27865 205.5 5.54297 203.742 5.54297C200.305 5.54297 198.488 8.12109 198.293 13.2773L198.273 15.3672C198.273 18.1536 198.736 20.2956 199.66 21.793C200.585 23.2904 201.958 24.0391 203.781 24.0391C205.513 24.0391 206.848 23.3034 207.785 21.832C208.723 20.3607 209.198 18.2448 209.211 15.4844V14.1758ZM237.629 17.6719H226.574V29H219.719V0.5625H238.742V5.85547H226.574V12.3984H237.629V17.6719ZM274.562 19.3711C274.471 21.3503 273.938 23.1016 272.961 24.625C271.984 26.1354 270.611 27.3073 268.84 28.1406C267.082 28.974 265.07 29.3906 262.805 29.3906C259.068 29.3906 256.125 28.1732 253.977 25.7383C251.828 23.3034 250.754 19.8659 250.754 15.4258V14.0195C250.754 11.2331 251.236 8.79818 252.199 6.71484C253.176 4.61849 254.576 3.00391 256.398 1.87109C258.221 0.72526 260.331 0.152344 262.727 0.152344C266.177 0.152344 268.951 1.0638 271.047 2.88672C273.143 4.69661 274.335 7.19661 274.621 10.3867H267.785C267.733 8.65495 267.297 7.41146 266.477 6.65625C265.656 5.90104 264.406 5.52344 262.727 5.52344C261.021 5.52344 259.771 6.16146 258.977 7.4375C258.182 8.71354 257.766 10.7513 257.727 13.5508V15.5625C257.727 18.5964 258.104 20.7643 258.859 22.0664C259.628 23.3685 260.943 24.0195 262.805 24.0195C264.38 24.0195 265.585 23.6484 266.418 22.9062C267.251 22.1641 267.694 20.9857 267.746 19.3711H274.562ZM301.887 15.3672C301.887 18.1406 301.372 20.5951 300.344 22.7305C299.315 24.8659 297.85 26.513 295.949 27.6719C294.061 28.8177 291.906 29.3906 289.484 29.3906C287.062 29.3906 284.914 28.8372 283.039 27.7305C281.164 26.6107 279.699 25.0156 278.645 22.9453C277.603 20.875 277.056 18.4987 277.004 15.8164V14.2148C277.004 11.4284 277.512 8.97396 278.527 6.85156C279.556 4.71615 281.021 3.06901 282.922 1.91016C284.836 0.751302 287.01 0.171875 289.445 0.171875C291.854 0.171875 294.003 0.744792 295.891 1.89062C297.779 3.03646 299.243 4.67057 300.285 6.79297C301.34 8.90234 301.874 11.3242 301.887 14.0586V15.3672ZM294.914 14.1758C294.914 11.3503 294.439 9.20833 293.488 7.75C292.551 6.27865 291.203 5.54297 289.445 5.54297C286.008 5.54297 284.191 8.12109 283.996 13.2773L283.977 15.3672C283.977 18.1536 284.439 20.2956 285.363 21.793C286.288 23.2904 287.661 24.0391 289.484 24.0391C291.216 24.0391 292.551 23.3034 293.488 21.832C294.426 20.3607 294.901 18.2448 294.914 15.4844V14.1758ZM312.277 23.7266H324.211V29H305.422V0.5625H312.277V23.7266ZM327.102 29V0.5625H336.262C338.775 0.5625 341.034 1.13542 343.039 2.28125C345.044 3.41406 346.607 5.02214 347.727 7.10547C348.859 9.17578 349.432 11.5 349.445 14.0781V15.3867C349.445 17.9909 348.892 20.3281 347.785 22.3984C346.691 24.4557 345.142 26.0703 343.137 27.2422C341.145 28.401 338.918 28.987 336.457 29H327.102ZM333.957 5.85547V23.7266H336.34C338.306 23.7266 339.816 23.0299 340.871 21.6367C341.926 20.2305 342.453 18.1471 342.453 15.3867V14.1562C342.453 11.4089 341.926 9.33854 340.871 7.94531C339.816 6.55208 338.28 5.85547 336.262 5.85547H333.957ZM369.777 19.3516V29H362.922V0.5625H374.27C376.444 0.5625 378.365 0.966146 380.031 1.77344C381.711 2.56771 383.007 3.70703 383.918 5.19141C384.842 6.66276 385.305 8.33594 385.305 10.2109C385.305 12.9844 384.309 15.2044 382.316 16.8711C380.337 18.5247 377.616 19.3516 374.152 19.3516H369.777ZM369.777 14.0586H374.27C375.598 14.0586 376.607 13.7266 377.297 13.0625C378 12.3984 378.352 11.4609 378.352 10.25C378.352 8.92188 377.993 7.86068 377.277 7.06641C376.561 6.27214 375.585 5.86849 374.348 5.85547H369.777V14.0586ZM399.543 18.9609H395.832V29H388.977V0.5625H400.168C403.54 0.5625 406.177 1.3112 408.078 2.80859C409.979 4.30599 410.93 6.42188 410.93 9.15625C410.93 11.1354 410.526 12.776 409.719 14.0781C408.924 15.3802 407.674 16.4349 405.969 17.2422L411.906 28.707V29H404.562L399.543 18.9609ZM395.832 13.668H400.168C401.47 13.668 402.447 13.3294 403.098 12.6523C403.762 11.9622 404.094 11.0052 404.094 9.78125C404.094 8.55729 403.762 7.60026 403.098 6.91016C402.434 6.20703 401.457 5.85547 400.168 5.85547H395.832V13.668ZM432.707 16.9492H421.926V23.7266H434.66V29H415.07V0.5625H434.699V5.85547H421.926V11.8516H432.707V16.9492ZM452.121 21.4414C452.121 20.4388 451.763 19.6576 451.047 19.0977C450.344 18.5378 449.1 17.9583 447.316 17.3594C445.533 16.7604 444.074 16.181 442.941 15.6211C439.257 13.8112 437.414 11.3242 437.414 8.16016C437.414 6.58464 437.87 5.19792 438.781 4C439.706 2.78906 441.008 1.85156 442.688 1.1875C444.367 0.510417 446.255 0.171875 448.352 0.171875C450.396 0.171875 452.225 0.536458 453.84 1.26562C455.467 1.99479 456.73 3.03646 457.629 4.39062C458.527 5.73177 458.977 7.26823 458.977 9H452.141C452.141 7.84115 451.783 6.94271 451.066 6.30469C450.363 5.66667 449.406 5.34766 448.195 5.34766C446.971 5.34766 446.001 5.62109 445.285 6.16797C444.582 6.70182 444.23 7.38542 444.23 8.21875C444.23 8.94792 444.621 9.61198 445.402 10.2109C446.184 10.7969 447.557 11.4089 449.523 12.0469C451.49 12.6719 453.104 13.349 454.367 14.0781C457.44 15.849 458.977 18.2904 458.977 21.4023C458.977 23.8893 458.039 25.8424 456.164 27.2617C454.289 28.681 451.717 29.3906 448.449 29.3906C446.145 29.3906 444.055 28.9805 442.18 28.1602C440.318 27.3268 438.911 26.194 437.961 24.7617C437.023 23.3164 436.555 21.6562 436.555 19.7812H443.43C443.43 21.3047 443.82 22.431 444.602 23.1602C445.396 23.8763 446.678 24.2344 448.449 24.2344C449.582 24.2344 450.474 23.9935 451.125 23.5117C451.789 23.0169 452.121 22.3268 452.121 21.4414ZM477.16 21.4414C477.16 20.4388 476.802 19.6576 476.086 19.0977C475.383 18.5378 474.139 17.9583 472.355 17.3594C470.572 16.7604 469.113 16.181 467.98 15.6211C464.296 13.8112 462.453 11.3242 462.453 8.16016C462.453 6.58464 462.909 5.19792 463.82 4C464.745 2.78906 466.047 1.85156 467.727 1.1875C469.406 0.510417 471.294 0.171875 473.391 0.171875C475.435 0.171875 477.264 0.536458 478.879 1.26562C480.507 1.99479 481.77 3.03646 482.668 4.39062C483.566 5.73177 484.016 7.26823 484.016 9H477.18C477.18 7.84115 476.822 6.94271 476.105 6.30469C475.402 5.66667 474.445 5.34766 473.234 5.34766C472.01 5.34766 471.04 5.62109 470.324 6.16797C469.621 6.70182 469.27 7.38542 469.27 8.21875C469.27 8.94792 469.66 9.61198 470.441 10.2109C471.223 10.7969 472.596 11.4089 474.562 12.0469C476.529 12.6719 478.143 13.349 479.406 14.0781C482.479 15.849 484.016 18.2904 484.016 21.4023C484.016 23.8893 483.078 25.8424 481.203 27.2617C479.328 28.681 476.757 29.3906 473.488 29.3906C471.184 29.3906 469.094 28.9805 467.219 28.1602C465.357 27.3268 463.951 26.194 463 24.7617C462.062 23.3164 461.594 21.6562 461.594 19.7812H468.469C468.469 21.3047 468.859 22.431 469.641 23.1602C470.435 23.8763 471.717 24.2344 473.488 24.2344C474.621 24.2344 475.513 23.9935 476.164 23.5117C476.828 23.0169 477.16 22.3268 477.16 21.4414ZM505.168 16.9492H494.387V23.7266H507.121V29H487.531V0.5625H507.16V5.85547H494.387V11.8516H505.168V16.9492ZM509.914 29V0.5625H519.074C521.587 0.5625 523.846 1.13542 525.852 2.28125C527.857 3.41406 529.419 5.02214 530.539 7.10547C531.672 9.17578 532.245 11.5 532.258 14.0781V15.3867C532.258 17.9909 531.704 20.3281 530.598 22.3984C529.504 24.4557 527.954 26.0703 525.949 27.2422C523.957 28.401 521.73 28.987 519.27 29H509.914ZM516.77 5.85547V23.7266H519.152C521.118 23.7266 522.629 23.0299 523.684 21.6367C524.738 20.2305 525.266 18.1471 525.266 15.3867V14.1562C525.266 11.4089 524.738 9.33854 523.684 7.94531C522.629 6.55208 521.092 5.85547 519.074 5.85547H516.77ZM569.816 15.3672C569.816 18.1406 569.302 20.5951 568.273 22.7305C567.245 24.8659 565.78 26.513 563.879 27.6719C561.991 28.8177 559.836 29.3906 557.414 29.3906C554.992 29.3906 552.844 28.8372 550.969 27.7305C549.094 26.6107 547.629 25.0156 546.574 22.9453C545.533 20.875 544.986 18.4987 544.934 15.8164V14.2148C544.934 11.4284 545.441 8.97396 546.457 6.85156C547.486 4.71615 548.951 3.06901 550.852 1.91016C552.766 0.751302 554.94 0.171875 557.375 0.171875C559.784 0.171875 561.932 0.744792 563.82 1.89062C565.708 3.03646 567.173 4.67057 568.215 6.79297C569.27 8.90234 569.803 11.3242 569.816 14.0586V15.3672ZM562.844 14.1758C562.844 11.3503 562.368 9.20833 561.418 7.75C560.48 6.27865 559.133 5.54297 557.375 5.54297C553.938 5.54297 552.121 8.12109 551.926 13.2773L551.906 15.3672C551.906 18.1536 552.368 20.2956 553.293 21.793C554.217 23.2904 555.591 24.0391 557.414 24.0391C559.146 24.0391 560.48 23.3034 561.418 21.832C562.355 20.3607 562.831 18.2448 562.844 15.4844V14.1758ZM580.656 29H573.82V0.5625H580.656V29ZM592.277 23.7266H604.211V29H585.422V0.5625H592.277V23.7266ZM621.77 21.4414C621.77 20.4388 621.411 19.6576 620.695 19.0977C619.992 18.5378 618.749 17.9583 616.965 17.3594C615.181 16.7604 613.723 16.181 612.59 15.6211C608.905 13.8112 607.062 11.3242 607.062 8.16016C607.062 6.58464 607.518 5.19792 608.43 4C609.354 2.78906 610.656 1.85156 612.336 1.1875C614.016 0.510417 615.904 0.171875 618 0.171875C620.044 0.171875 621.874 0.536458 623.488 1.26562C625.116 1.99479 626.379 3.03646 627.277 4.39062C628.176 5.73177 628.625 7.26823 628.625 9H621.789C621.789 7.84115 621.431 6.94271 620.715 6.30469C620.012 5.66667 619.055 5.34766 617.844 5.34766C616.62 5.34766 615.65 5.62109 614.934 6.16797C614.23 6.70182 613.879 7.38542 613.879 8.21875C613.879 8.94792 614.27 9.61198 615.051 10.2109C615.832 10.7969 617.206 11.4089 619.172 12.0469C621.138 12.6719 622.753 13.349 624.016 14.0781C627.089 15.849 628.625 18.2904 628.625 21.4023C628.625 23.8893 627.688 25.8424 625.812 27.2617C623.938 28.681 621.366 29.3906 618.098 29.3906C615.793 29.3906 613.703 28.9805 611.828 28.1602C609.966 27.3268 608.56 26.194 607.609 24.7617C606.672 23.3164 606.203 21.6562 606.203 19.7812H613.078C613.078 21.3047 613.469 22.431 614.25 23.1602C615.044 23.8763 616.327 24.2344 618.098 24.2344C619.23 24.2344 620.122 23.9935 620.773 23.5117C621.438 23.0169 621.77 22.3268 621.77 21.4414Z" fill="#673C13"/>
</svg>
