<svg width="1053" height="283" viewBox="0 0 1053 283" fill="none" xmlns="http://www.w3.org/2000/svg">
<path d="M287.892 243.66C275.717 243.66 265.812 239.676 258.175 231.707C250.538 223.683 246.72 212.975 246.72 199.583V196.761C246.72 187.851 248.408 179.91 251.783 172.938C255.214 165.91 259.973 160.431 266.061 156.502C272.203 152.518 278.844 150.525 285.982 150.525C297.659 150.525 306.734 154.371 313.209 162.063C319.684 169.756 322.921 180.768 322.921 195.101V201.492H262.076C262.298 210.346 264.871 217.513 269.796 222.991C274.776 228.414 281.085 231.126 288.722 231.126C294.145 231.126 298.738 230.019 302.501 227.806C306.264 225.592 309.557 222.659 312.379 219.007L321.759 226.312C314.233 237.877 302.944 243.66 287.892 243.66ZM285.982 163.143C279.785 163.143 274.583 165.411 270.377 169.949C266.171 174.432 263.57 180.74 262.574 188.875H307.564V187.713C307.122 179.91 305.019 173.878 301.256 169.617C297.493 165.301 292.402 163.143 285.982 163.143Z" fill="#673C13"/>
<path d="M145.525 52.5385H137.826C136.94 52.5385 136.523 52.278 136.784 51.3401C138.686 43.4456 140.692 35.7073 144.73 28.4642C151.244 16.9482 161.21 9.92651 174.393 6.98236C179.506 5.90216 184.71 5.31345 189.935 5.22387C191.237 5.22387 192.67 4.96307 194.012 4.96307C195.354 4.96307 195.615 5.13267 195.315 6.51355C194.638 9.52284 194.012 12.5581 193.152 15.5152C191.828 21.1963 189.687 26.6551 186.795 31.721C181.824 39.848 174.282 46.0833 165.365 49.4382C159.019 51.7613 152.278 52.8146 145.525 52.5385Z" fill="#75C111"/>
<path d="M127.131 52.682C120.317 47.2105 113.387 41.8434 109.817 33.5711C107.149 27.3072 106.248 20.4317 107.212 13.6916C107.796 9.61625 108.623 5.5793 109.687 1.60232C109.819 1.05542 109.993 0.519693 110.208 0C111.687 0.723005 113.014 1.72238 114.116 2.94416C119.175 6.91006 123.466 11.7664 126.779 17.2741C130.548 23.7603 131.987 31.3399 130.857 38.756C130.193 42.7777 129.297 46.7576 128.173 50.6757C127.951 51.288 127.951 52.1218 127.131 52.682Z" fill="#75C111"/>
<path d="M91.7002 37.4532C98.8912 38.5866 105.249 40.5926 108.701 47.4319C109.448 49.1125 109.919 50.9031 110.095 52.7341C108.247 53.062 106.352 52.9996 104.53 52.5509C102.708 52.1022 101 51.277 99.5165 50.1286C96.505 47.9024 94.235 44.8197 93.0029 41.2831C92.358 40.0881 91.9177 38.7936 91.7002 37.4532Z" fill="#75C111"/>
<path d="M106.225 185.494H209.101L202.795 210.142L186.225 230.399L169.811 236.704L117.311 237.994L105.951 237.434L106.225 185.494Z" fill="#F7CE09"/>
<path d="M142.351 72.7307V58.7786C142.283 58.3395 142.308 57.8912 142.425 57.4625C142.542 57.0338 142.747 56.6345 143.028 56.2905C143.375 56.0069 143.775 55.7949 144.204 55.6674C144.634 55.5399 145.084 55.4994 145.53 55.5478C147.041 55.5478 149.242 55.2872 150.402 56.4466C151.561 57.6061 151.392 59.5471 151.392 61.0062V87.2823C151.402 87.6446 151.336 88.005 151.199 88.3404C151.061 88.6758 150.855 88.9786 150.594 89.23C150.333 89.4813 150.022 89.6755 149.682 89.7999C149.341 89.9244 148.979 89.9763 148.617 89.9526C147.51 89.9526 146.389 89.8875 145.282 89.9526C144.88 90.0154 144.47 89.9834 144.083 89.8591C143.696 89.7348 143.344 89.5218 143.054 89.237C142.764 88.9522 142.545 88.6036 142.414 88.2189C142.282 87.8342 142.243 87.424 142.299 87.0215C142.325 82.2665 142.351 77.4986 142.351 72.7307Z" fill="#673C13"/>
<path d="M111.344 225.892C111.344 225.983 111.343 226.087 111.409 226.165C111.474 226.243 111.409 226.165 111.409 226.243V226.387C111.422 226.42 111.422 226.457 111.409 226.491V226.673C111.252 228.611 111.252 230.559 111.409 232.497C111.422 232.539 111.422 232.584 111.409 232.627V232.692C111.407 232.758 111.418 232.824 111.443 232.885C111.467 232.947 111.503 233.003 111.549 233.05C111.595 233.098 111.65 233.135 111.711 233.161C111.772 233.187 111.838 233.2 111.904 233.2C127.536 233.2 143.091 233.395 158.658 233.135C170.696 233.098 182.259 228.434 190.953 220.108C199.645 212.066 204.829 200.93 205.387 189.101C205.945 177.273 201.833 165.698 193.936 156.874C187.432 149.413 178.721 144.216 169.067 142.035C165.587 141.186 162.019 140.749 158.437 140.733H106.419C106.046 140.713 105.672 140.713 105.299 140.733C103.254 140.928 101.821 139.834 102.016 137.671C102.029 137.433 102.029 137.194 102.016 136.955C101.862 135.468 101.964 133.966 102.316 132.513L102.524 131.874C102.555 131.785 102.608 131.706 102.679 131.644C102.75 131.582 102.836 131.541 102.928 131.523L103.592 131.418C105.187 131.232 106.796 131.188 108.4 131.288C124.618 131.288 140.811 131.288 157.004 131.288C162.766 131.265 168.502 132.055 174.043 133.633C182.189 135.95 189.718 140.048 196.085 145.631C204.512 152.731 210.491 162.302 213.177 172.988C217.633 191.226 213.959 208.07 201.726 222.491C192.619 233.26 179.811 240.23 165.823 242.032C162.346 242.466 158.839 242.628 155.337 242.514C138.922 242.436 122.508 242.514 106.081 242.514H103.228C103.142 242.514 103.058 242.492 102.983 242.451C102.909 242.41 102.845 242.351 102.798 242.28L102.472 241.746C101.991 240.873 101.817 239.864 101.977 238.88V187.839C101.921 187.443 101.961 187.04 102.094 186.662C102.226 186.285 102.447 185.945 102.738 185.671C103.029 185.396 103.381 185.196 103.766 185.086C104.15 184.976 104.555 184.959 104.947 185.038C106.172 185.155 107.435 184.869 108.712 185.038C109.445 185.096 110.161 185.291 110.822 185.612L112.125 186.224C112.193 186.257 112.253 186.304 112.301 186.363C112.349 186.422 112.382 186.491 112.4 186.565C112.417 186.638 112.418 186.715 112.402 186.789C112.386 186.863 112.354 186.932 112.308 186.992L111.5 188.008C111.44 188.078 111.403 188.165 111.396 188.256C111.385 188.43 111.385 188.604 111.396 188.777V225.944L111.344 225.892Z" fill="#673C13"/>
<path d="M105.208 55.6131L106.224 55.5348C106.871 55.3727 107.547 55.3553 108.202 55.4836C108.857 55.6119 109.476 55.8829 110.015 56.2775C110.26 56.4876 110.467 56.739 110.627 57.0201C111.077 57.9886 111.196 59.0777 110.966 60.1204C110.966 60.4331 110.887 60.7848 110.887 61.0975V96.0626C110.961 99.3231 110.354 102.563 109.104 105.575C107.855 108.588 105.991 111.307 103.631 113.558C101.276 115.891 98.4685 117.717 95.3814 118.924C92.2943 120.132 88.9925 120.695 85.6797 120.58C80.7428 120.451 75.8027 120.59 70.8809 120.997C60.7292 121.893 50.904 125.035 42.1168 130.197C33.3295 135.359 25.8004 142.411 20.0748 150.842C14.9166 158.504 11.4647 167.185 9.95265 176.297C9.04195 181.53 8.80549 186.858 9.24913 192.151C10.279 205.328 15.3671 217.862 23.8135 228.028C35.069 241.733 49.6464 249.692 67.1289 252.506C69.8947 252.949 72.6916 253.171 75.4926 253.171H210.715C211.758 253.047 212.816 253.127 213.828 253.405L214.923 253.783V261.99H211.015C167.308 261.99 123.602 261.912 79.8957 261.99C69.2979 262.16 58.7616 260.353 48.826 256.662C39.6765 253.163 31.2765 247.955 24.0743 241.316C17.7368 235.483 12.4489 228.604 8.44161 220.98C2.99367 210.44 0.101921 198.766 0 186.901C0.0301708 176.412 2.28557 166.049 6.61761 156.496C12.3304 144.259 21.1444 133.73 32.1845 125.954C43.2246 118.177 56.1068 113.423 69.5521 112.164C75.1349 111.749 80.7348 111.614 86.331 111.76C90.0437 111.764 93.6354 110.44 96.457 108.027C99.2786 105.614 101.144 102.271 101.716 98.6029C101.879 97.1452 101.958 95.6792 101.951 94.2125V58.7786C101.893 58.3138 101.933 57.842 102.067 57.3935C102.202 56.9449 102.428 56.5294 102.732 56.1731C103.083 55.9119 103.484 55.727 103.911 55.6305C104.337 55.5341 104.779 55.5282 105.208 55.6131Z" fill="#673C13"/>
<path d="M413.255 221.165L435.501 152.186H451.189L418.982 242H407.278L374.739 152.186H390.428L413.255 221.165Z" fill="#673C13"/>
<path d="M564.07 242C563.185 240.229 562.465 237.075 561.912 232.537C554.773 239.952 546.251 243.66 536.346 243.66C527.492 243.66 520.215 241.17 514.515 236.189C508.87 231.154 506.048 224.79 506.048 217.098C506.048 207.745 509.59 200.496 516.673 195.35C523.812 190.148 533.828 187.547 546.722 187.547H561.663V180.491C561.663 175.123 560.058 170.862 556.849 167.708C553.639 164.498 548.908 162.894 542.654 162.894C537.176 162.894 532.583 164.277 528.875 167.044C525.167 169.811 523.313 173.159 523.313 177.088H507.874C507.874 172.605 509.451 168.289 512.605 164.139C515.815 159.933 520.132 156.613 525.555 154.178C531.033 151.743 537.037 150.525 543.567 150.525C553.916 150.525 562.023 153.126 567.889 158.328C573.755 163.475 576.798 170.586 577.02 179.661V220.999C577.02 229.244 578.071 235.802 580.174 240.672V242H564.07ZM538.587 230.296C543.401 230.296 547.967 229.051 552.283 226.561C556.6 224.07 559.726 220.833 561.663 216.849V198.421H549.627C530.812 198.421 521.404 203.927 521.404 214.939C521.404 219.754 523.009 223.517 526.219 226.229C529.428 228.94 533.551 230.296 538.587 230.296Z" fill="#673C13"/>
<path d="M668.689 200.413L659.061 210.457V242H643.704V114.5H659.061V191.614L667.278 181.736L695.252 152.186H713.929L678.982 189.705L717.996 242H699.983L668.689 200.413Z" fill="#673C13"/>
<path d="M816.034 165.965C813.71 165.577 811.192 165.384 808.48 165.384C798.409 165.384 791.575 169.673 787.978 178.25V242H772.621V152.186H787.562L787.812 162.562C792.847 154.537 799.986 150.525 809.228 150.525C812.216 150.525 814.485 150.913 816.034 151.688V165.965Z" fill="#673C13"/>
<path d="M928.07 233.118C922.094 240.146 913.323 243.66 901.757 243.66C892.183 243.66 884.879 240.893 879.843 235.359C874.862 229.77 872.344 221.525 872.289 210.623V152.186H887.646V210.208C887.646 223.821 893.179 230.628 904.247 230.628C915.979 230.628 923.782 226.256 927.655 217.513V152.186H943.012V242H928.402L928.07 233.118Z" fill="#673C13"/>
<path d="M1029.46 130.438V152.186H1046.22V164.056H1029.46V219.754C1029.46 223.351 1030.2 226.062 1031.7 227.889C1033.19 229.66 1035.74 230.545 1039.33 230.545C1041.1 230.545 1043.54 230.213 1046.64 229.549V242C1042.6 243.107 1038.67 243.66 1034.85 243.66C1027.99 243.66 1022.82 241.585 1019.33 237.435C1015.84 233.284 1014.1 227.391 1014.1 219.754V164.056H997.747V152.186H1014.1V130.438H1029.46Z" fill="#673C13"/>
</svg>
