<svg width="341" height="219" viewBox="0 0 341 219" fill="none" xmlns="http://www.w3.org/2000/svg">
<path d="M162.096 121.778C162.027 123.263 161.627 124.576 160.895 125.719C160.162 126.852 159.132 127.73 157.804 128.355C156.485 128.98 154.977 129.293 153.277 129.293C150.475 129.293 148.268 128.38 146.656 126.554C145.045 124.728 144.239 122.149 144.239 118.819V117.765C144.239 115.675 144.601 113.849 145.323 112.286C146.056 110.714 147.105 109.503 148.473 108.653C149.84 107.794 151.422 107.364 153.219 107.364C155.807 107.364 157.887 108.048 159.459 109.415C161.031 110.772 161.925 112.647 162.14 115.04H157.013C156.974 113.741 156.646 112.809 156.031 112.242C155.416 111.676 154.479 111.393 153.219 111.393C151.939 111.393 151.002 111.871 150.406 112.828C149.811 113.785 149.498 115.313 149.469 117.413V118.922C149.469 121.197 149.752 122.823 150.318 123.8C150.895 124.776 151.881 125.265 153.277 125.265C154.459 125.265 155.362 124.986 155.987 124.43C156.612 123.873 156.944 122.989 156.983 121.778H162.096ZM169.127 114.85C170.182 113.521 171.529 112.857 173.17 112.857C174.918 112.857 176.236 113.375 177.125 114.41C178.014 115.445 178.468 116.974 178.487 118.995V129H173.536V119.112C173.536 118.272 173.365 117.657 173.023 117.267C172.682 116.866 172.101 116.666 171.28 116.666C170.265 116.666 169.547 116.988 169.127 117.633V129H164.19V106.5H169.127V114.85ZM188.902 129.293C186.471 129.293 184.503 128.57 182.999 127.125C181.495 125.67 180.743 123.78 180.743 121.456V121.046C180.743 119.425 181.041 117.994 181.637 116.754C182.242 115.514 183.121 114.557 184.273 113.883C185.426 113.199 186.793 112.857 188.375 112.857C190.602 112.857 192.359 113.551 193.648 114.938C194.938 116.314 195.582 118.238 195.582 120.709V122.628H185.768C185.943 123.517 186.329 124.215 186.925 124.723C187.521 125.23 188.292 125.484 189.239 125.484C190.802 125.484 192.022 124.938 192.901 123.844L195.157 126.51C194.542 127.359 193.668 128.038 192.535 128.546C191.412 129.044 190.201 129.293 188.902 129.293ZM188.346 116.666C186.9 116.666 186.041 117.623 185.768 119.537H190.748V119.156C190.768 118.365 190.567 117.755 190.147 117.325C189.728 116.886 189.127 116.666 188.346 116.666ZM202.247 113.15L202.408 115.011C203.531 113.575 205.04 112.857 206.935 112.857C208.937 112.857 210.289 113.653 210.992 115.245C212.066 113.653 213.619 112.857 215.65 112.857C218.863 112.857 220.514 114.801 220.602 118.688V129H215.65V118.995C215.65 118.185 215.514 117.594 215.24 117.223C214.967 116.852 214.469 116.666 213.746 116.666C212.77 116.666 212.042 117.101 211.563 117.97L211.578 118.175V129H206.627V119.024C206.627 118.194 206.495 117.594 206.231 117.223C205.968 116.852 205.465 116.666 204.723 116.666C203.775 116.666 203.053 117.101 202.555 117.97V129H197.618V113.15H202.247ZM228.629 129H223.678V113.15H228.629V129ZM223.385 109.063C223.385 108.36 223.639 107.784 224.146 107.335C224.654 106.886 225.313 106.661 226.124 106.661C226.935 106.661 227.594 106.886 228.102 107.335C228.609 107.784 228.863 108.36 228.863 109.063C228.863 109.767 228.609 110.343 228.102 110.792C227.594 111.241 226.935 111.466 226.124 111.466C225.313 111.466 224.654 111.241 224.146 110.792C223.639 110.343 223.385 109.767 223.385 109.063ZM238.385 125.484C239.078 125.484 239.615 125.299 239.996 124.928C240.377 124.547 240.562 124.02 240.553 123.346H245.182C245.182 125.084 244.557 126.51 243.307 127.623C242.066 128.736 240.465 129.293 238.502 129.293C236.197 129.293 234.381 128.57 233.053 127.125C231.725 125.68 231.061 123.678 231.061 121.119V120.914C231.061 119.312 231.354 117.901 231.939 116.681C232.535 115.45 233.39 114.508 234.503 113.854C235.616 113.189 236.935 112.857 238.458 112.857C240.519 112.857 242.154 113.429 243.365 114.571C244.576 115.714 245.182 117.262 245.182 119.215H240.553C240.553 118.395 240.353 117.765 239.952 117.325C239.552 116.886 239.015 116.666 238.341 116.666C237.062 116.666 236.314 117.481 236.1 119.112C236.031 119.63 235.997 120.343 235.997 121.251C235.997 122.843 236.188 123.946 236.568 124.562C236.949 125.177 237.555 125.484 238.385 125.484ZM256.197 129C256.021 128.678 255.865 128.204 255.729 127.579C254.82 128.722 253.551 129.293 251.92 129.293C250.426 129.293 249.156 128.844 248.111 127.945C247.066 127.037 246.544 125.899 246.544 124.532C246.544 122.813 247.179 121.515 248.448 120.636C249.718 119.757 251.563 119.317 253.985 119.317H255.509V118.482C255.509 117.027 254.879 116.3 253.619 116.3C252.447 116.3 251.861 116.876 251.861 118.028H246.925C246.925 116.495 247.574 115.25 248.873 114.293C250.182 113.336 251.847 112.857 253.868 112.857C255.89 112.857 257.486 113.351 258.658 114.337C259.83 115.323 260.431 116.676 260.46 118.395V125.411C260.479 126.866 260.704 127.979 261.134 128.751V129H256.197ZM253.106 125.777C253.722 125.777 254.229 125.646 254.63 125.382C255.04 125.118 255.333 124.82 255.509 124.488V121.954H254.073C252.354 121.954 251.495 122.726 251.495 124.269C251.495 124.718 251.646 125.084 251.949 125.367C252.252 125.641 252.638 125.777 253.106 125.777ZM268.414 129H263.463V106.5H268.414V129ZM287.867 129C287.691 128.678 287.535 128.204 287.398 127.579C286.49 128.722 285.221 129.293 283.59 129.293C282.096 129.293 280.826 128.844 279.781 127.945C278.736 127.037 278.214 125.899 278.214 124.532C278.214 122.813 278.849 121.515 280.118 120.636C281.388 119.757 283.233 119.317 285.655 119.317H287.179V118.482C287.179 117.027 286.549 116.3 285.289 116.3C284.117 116.3 283.531 116.876 283.531 118.028H278.595C278.595 116.495 279.244 115.25 280.543 114.293C281.852 113.336 283.517 112.857 285.538 112.857C287.56 112.857 289.156 113.351 290.328 114.337C291.5 115.323 292.101 116.676 292.13 118.395V125.411C292.149 126.866 292.374 127.979 292.804 128.751V129H287.867ZM284.776 125.777C285.392 125.777 285.899 125.646 286.3 125.382C286.71 125.118 287.003 124.82 287.179 124.488V121.954H285.743C284.024 121.954 283.165 122.726 283.165 124.269C283.165 124.718 283.316 125.084 283.619 125.367C283.922 125.641 284.308 125.777 284.776 125.777ZM299.41 113.15L299.571 115.011C300.665 113.575 302.174 112.857 304.098 112.857C305.748 112.857 306.979 113.351 307.789 114.337C308.609 115.323 309.034 116.808 309.063 118.79V129H304.112V118.995C304.112 118.194 303.951 117.608 303.629 117.237C303.307 116.856 302.721 116.666 301.871 116.666C300.904 116.666 300.187 117.047 299.718 117.809V129H294.781V113.15H299.41ZM311.188 120.958C311.188 118.448 311.729 116.471 312.813 115.025C313.897 113.58 315.411 112.857 317.354 112.857C318.771 112.857 319.962 113.414 320.929 114.527V106.5H325.88V129H321.441L321.192 127.301C320.177 128.629 318.888 129.293 317.325 129.293C315.44 129.293 313.946 128.57 312.843 127.125C311.739 125.68 311.188 123.624 311.188 120.958ZM316.124 121.266C316.124 124.078 316.944 125.484 318.585 125.484C319.679 125.484 320.46 125.025 320.929 124.107V118.072C320.479 117.135 319.708 116.666 318.614 116.666C317.091 116.666 316.266 117.896 316.139 120.357L316.124 121.266ZM144.195 156.764V164H139.054V142.672H147.564C149.195 142.672 150.636 142.975 151.886 143.58C153.146 144.176 154.117 145.03 154.801 146.144C155.494 147.247 155.841 148.502 155.841 149.908C155.841 151.988 155.094 153.653 153.6 154.903C152.115 156.144 150.074 156.764 147.477 156.764H144.195ZM144.195 152.794H147.564C148.561 152.794 149.317 152.545 149.835 152.047C150.362 151.549 150.626 150.846 150.626 149.938C150.626 148.941 150.357 148.146 149.82 147.55C149.283 146.954 148.551 146.651 147.623 146.642H144.195V152.794ZM167.955 152.618L166.329 152.501C164.776 152.501 163.78 152.989 163.341 153.966V164H158.404V148.15H163.033L163.194 150.187C164.024 148.634 165.182 147.857 166.666 147.857C167.193 147.857 167.652 147.916 168.043 148.033L167.955 152.618ZM177.11 164.293C174.679 164.293 172.711 163.57 171.207 162.125C169.703 160.67 168.951 158.78 168.951 156.456V156.046C168.951 154.425 169.249 152.994 169.845 151.754C170.45 150.514 171.329 149.557 172.481 148.883C173.634 148.199 175.001 147.857 176.583 147.857C178.81 147.857 180.567 148.551 181.856 149.938C183.146 151.314 183.79 153.238 183.79 155.709V157.628H173.976C174.151 158.517 174.537 159.215 175.133 159.723C175.729 160.23 176.5 160.484 177.447 160.484C179.01 160.484 180.23 159.938 181.109 158.844L183.365 161.51C182.75 162.359 181.876 163.038 180.743 163.546C179.62 164.044 178.409 164.293 177.11 164.293ZM176.554 151.666C175.108 151.666 174.249 152.623 173.976 154.537H178.956V154.156C178.976 153.365 178.775 152.755 178.355 152.325C177.936 151.886 177.335 151.666 176.554 151.666ZM194.088 159.547C194.088 159.127 193.868 158.79 193.429 158.536C192.989 158.282 192.154 158.019 190.924 157.745C189.693 157.472 188.678 157.115 187.877 156.676C187.076 156.227 186.466 155.685 186.046 155.05C185.626 154.415 185.416 153.688 185.416 152.867C185.416 151.412 186.017 150.216 187.218 149.278C188.419 148.331 189.991 147.857 191.935 147.857C194.024 147.857 195.704 148.331 196.974 149.278C198.243 150.226 198.878 151.471 198.878 153.014H193.927C193.927 151.744 193.258 151.109 191.92 151.109C191.402 151.109 190.968 151.256 190.616 151.549C190.265 151.832 190.089 152.188 190.089 152.618C190.089 153.058 190.304 153.414 190.733 153.688C191.163 153.961 191.847 154.186 192.784 154.361C193.731 154.537 194.562 154.747 195.274 154.991C197.657 155.812 198.849 157.281 198.849 159.4C198.849 160.846 198.204 162.022 196.915 162.931C195.636 163.839 193.976 164.293 191.935 164.293C190.577 164.293 189.366 164.049 188.302 163.561C187.237 163.072 186.407 162.408 185.812 161.568C185.216 160.729 184.918 159.845 184.918 158.917H189.532C189.552 159.649 189.796 160.187 190.265 160.528C190.733 160.86 191.334 161.026 192.066 161.026C192.74 161.026 193.243 160.89 193.575 160.616C193.917 160.343 194.088 159.986 194.088 159.547ZM208.839 164.293C206.407 164.293 204.439 163.57 202.936 162.125C201.432 160.67 200.68 158.78 200.68 156.456V156.046C200.68 154.425 200.978 152.994 201.573 151.754C202.179 150.514 203.058 149.557 204.21 148.883C205.362 148.199 206.729 147.857 208.312 147.857C210.538 147.857 212.296 148.551 213.585 149.938C214.874 151.314 215.519 153.238 215.519 155.709V157.628H205.704C205.88 158.517 206.266 159.215 206.861 159.723C207.457 160.23 208.229 160.484 209.176 160.484C210.738 160.484 211.959 159.938 212.838 158.844L215.094 161.51C214.479 162.359 213.604 163.038 212.472 163.546C211.349 164.044 210.138 164.293 208.839 164.293ZM208.282 151.666C206.837 151.666 205.978 152.623 205.704 154.537H210.685V154.156C210.704 153.365 210.504 152.755 210.084 152.325C209.664 151.886 209.063 151.666 208.282 151.666ZM227.105 152.618L225.479 152.501C223.927 152.501 222.931 152.989 222.491 153.966V164H217.555V148.15H222.184L222.345 150.187C223.175 148.634 224.332 147.857 225.816 147.857C226.344 147.857 226.803 147.916 227.193 148.033L227.105 152.618ZM235.367 144.21V148.15H237.975V151.578H235.367V158.829C235.367 159.425 235.475 159.84 235.689 160.074C235.904 160.309 236.329 160.426 236.964 160.426C237.452 160.426 237.862 160.396 238.194 160.338V163.868C237.306 164.151 236.378 164.293 235.411 164.293C233.712 164.293 232.457 163.893 231.646 163.092C230.836 162.291 230.431 161.075 230.431 159.444V151.578H228.409V148.15H230.431V144.21H235.367ZM245.138 164H240.187V148.15H245.138V164ZM239.894 144.063C239.894 143.36 240.147 142.784 240.655 142.335C241.163 141.886 241.822 141.661 242.633 141.661C243.443 141.661 244.103 141.886 244.61 142.335C245.118 142.784 245.372 143.36 245.372 144.063C245.372 144.767 245.118 145.343 244.61 145.792C244.103 146.241 243.443 146.466 242.633 146.466C241.822 146.466 241.163 146.241 240.655 145.792C240.147 145.343 239.894 144.767 239.894 144.063ZM254.513 158.126L257.018 148.15H262.218L257.047 164H252.008L246.837 148.15H252.052L254.513 158.126ZM271.153 164.293C268.722 164.293 266.754 163.57 265.25 162.125C263.746 160.67 262.994 158.78 262.994 156.456V156.046C262.994 154.425 263.292 152.994 263.888 151.754C264.493 150.514 265.372 149.557 266.524 148.883C267.677 148.199 269.044 147.857 270.626 147.857C272.853 147.857 274.61 148.551 275.899 149.938C277.188 151.314 277.833 153.238 277.833 155.709V157.628H268.019C268.194 158.517 268.58 159.215 269.176 159.723C269.771 160.23 270.543 160.484 271.49 160.484C273.053 160.484 274.273 159.938 275.152 158.844L277.408 161.51C276.793 162.359 275.919 163.038 274.786 163.546C273.663 164.044 272.452 164.293 271.153 164.293ZM270.597 151.666C269.151 151.666 268.292 152.623 268.019 154.537H272.999V154.156C273.019 153.365 272.818 152.755 272.398 152.325C271.979 151.886 271.378 151.666 270.597 151.666ZM288.395 164V151.578H286.095V148.15H288.395V146.891C288.395 145.084 288.927 143.683 289.991 142.687C291.056 141.69 292.55 141.192 294.474 141.192C295.177 141.192 295.948 141.295 296.788 141.5L296.803 145.133C296.5 145.045 296.095 145.001 295.587 145.001C294.093 145.001 293.346 145.646 293.346 146.935V148.15H296.437V151.578H293.346V164H288.395ZM307.76 152.618L306.134 152.501C304.581 152.501 303.585 152.989 303.146 153.966V164H298.209V148.15H302.838L302.999 150.187C303.829 148.634 304.986 147.857 306.471 147.857C306.998 147.857 307.457 147.916 307.848 148.033L307.76 152.618ZM316.915 164.293C314.483 164.293 312.516 163.57 311.012 162.125C309.508 160.67 308.756 158.78 308.756 156.456V156.046C308.756 154.425 309.054 152.994 309.649 151.754C310.255 150.514 311.134 149.557 312.286 148.883C313.438 148.199 314.806 147.857 316.388 147.857C318.614 147.857 320.372 148.551 321.661 149.938C322.95 151.314 323.595 153.238 323.595 155.709V157.628H313.78C313.956 158.517 314.342 159.215 314.938 159.723C315.533 160.23 316.305 160.484 317.252 160.484C318.814 160.484 320.035 159.938 320.914 158.844L323.17 161.51C322.555 162.359 321.681 163.038 320.548 163.546C319.425 164.044 318.214 164.293 316.915 164.293ZM316.358 151.666C314.913 151.666 314.054 152.623 313.78 154.537H318.761V154.156C318.78 153.365 318.58 152.755 318.16 152.325C317.74 151.886 317.14 151.666 316.358 151.666ZM333.263 164.293C330.831 164.293 328.863 163.57 327.359 162.125C325.855 160.67 325.104 158.78 325.104 156.456V156.046C325.104 154.425 325.401 152.994 325.997 151.754C326.603 150.514 327.481 149.557 328.634 148.883C329.786 148.199 331.153 147.857 332.735 147.857C334.962 147.857 336.72 148.551 338.009 149.938C339.298 151.314 339.942 153.238 339.942 155.709V157.628H330.128C330.304 158.517 330.689 159.215 331.285 159.723C331.881 160.23 332.652 160.484 333.6 160.484C335.162 160.484 336.383 159.938 337.262 158.844L339.518 161.51C338.902 162.359 338.028 163.038 336.896 163.546C335.772 164.044 334.562 164.293 333.263 164.293ZM332.706 151.666C331.261 151.666 330.401 152.623 330.128 154.537H335.108V154.156C335.128 153.365 334.928 152.755 334.508 152.325C334.088 151.886 333.487 151.666 332.706 151.666ZM186.837 199V177.672H194.498C197.242 177.672 199.327 178.175 200.753 179.181C202.188 180.187 202.906 181.646 202.906 183.561C202.906 184.664 202.652 185.606 202.145 186.388C201.637 187.169 200.89 187.745 199.903 188.116C201.017 188.409 201.871 188.956 202.467 189.757C203.062 190.558 203.36 191.534 203.36 192.687C203.36 194.776 202.696 196.349 201.368 197.403C200.05 198.448 198.092 198.98 195.494 199H186.837ZM191.979 189.933V195.045H195.348C196.275 195.045 196.988 194.835 197.486 194.415C197.984 193.985 198.233 193.385 198.233 192.613C198.233 190.836 197.35 189.942 195.582 189.933H191.979ZM191.979 186.563H194.659C195.782 186.554 196.583 186.349 197.062 185.948C197.54 185.548 197.779 184.957 197.779 184.176C197.779 183.277 197.521 182.633 197.003 182.242C196.485 181.842 195.65 181.642 194.498 181.642H191.979V186.563ZM205.353 190.929C205.353 189.347 205.66 187.94 206.275 186.71C206.891 185.47 207.774 184.518 208.927 183.854C210.079 183.189 211.432 182.857 212.984 182.857C215.357 182.857 217.228 183.595 218.595 185.069C219.962 186.534 220.646 188.531 220.646 191.061V191.236C220.646 193.707 219.957 195.67 218.58 197.125C217.213 198.57 215.357 199.293 213.014 199.293C210.758 199.293 208.946 198.619 207.579 197.271C206.212 195.914 205.475 194.078 205.367 191.764L205.353 190.929ZM210.289 191.236C210.289 192.701 210.519 193.775 210.978 194.459C211.437 195.143 212.115 195.484 213.014 195.484C214.771 195.484 215.67 194.132 215.709 191.427V190.929C215.709 188.087 214.801 186.666 212.984 186.666C211.334 186.666 210.44 187.892 210.304 190.343L210.289 191.236ZM228.57 179.21V183.15H231.178V186.578H228.57V193.829C228.57 194.425 228.678 194.84 228.893 195.074C229.107 195.309 229.532 195.426 230.167 195.426C230.655 195.426 231.065 195.396 231.397 195.338V198.868C230.509 199.151 229.581 199.293 228.614 199.293C226.915 199.293 225.66 198.893 224.85 198.092C224.039 197.291 223.634 196.075 223.634 194.444V186.578H221.612V183.15H223.634V179.21H228.57ZM238.883 179.21V183.15H241.49V186.578H238.883V193.829C238.883 194.425 238.99 194.84 239.205 195.074C239.42 195.309 239.845 195.426 240.479 195.426C240.968 195.426 241.378 195.396 241.71 195.338V198.868C240.821 199.151 239.894 199.293 238.927 199.293C237.228 199.293 235.973 198.893 235.162 198.092C234.352 197.291 233.946 196.075 233.946 194.444V186.578H231.925V183.15H233.946V179.21H238.883ZM248.653 199H243.702V176.5H248.653V199ZM256.915 199H251.964V183.15H256.915V199ZM251.671 179.063C251.671 178.36 251.925 177.784 252.433 177.335C252.94 176.886 253.6 176.661 254.41 176.661C255.221 176.661 255.88 176.886 256.388 177.335C256.896 177.784 257.149 178.36 257.149 179.063C257.149 179.767 256.896 180.343 256.388 180.792C255.88 181.241 255.221 181.466 254.41 181.466C253.6 181.466 252.94 181.241 252.433 180.792C251.925 180.343 251.671 179.767 251.671 179.063ZM264.503 183.15L264.664 185.011C265.758 183.575 267.267 182.857 269.19 182.857C270.841 182.857 272.071 183.351 272.882 184.337C273.702 185.323 274.127 186.808 274.156 188.79V199H269.205V188.995C269.205 188.194 269.044 187.608 268.722 187.237C268.399 186.856 267.813 186.666 266.964 186.666C265.997 186.666 265.279 187.047 264.811 187.809V199H259.874V183.15H264.503ZM276.324 190.958C276.324 189.356 276.588 187.94 277.115 186.71C277.643 185.479 278.399 184.532 279.386 183.868C280.372 183.194 281.52 182.857 282.828 182.857C284.479 182.857 285.768 183.414 286.695 184.527L286.871 183.15H291.354V198.399C291.354 199.796 291.026 201.007 290.372 202.032C289.728 203.067 288.79 203.858 287.56 204.405C286.329 204.962 284.903 205.24 283.282 205.24C282.12 205.24 280.992 205.021 279.898 204.581C278.814 204.142 277.984 203.57 277.408 202.867L279.474 199.967C280.392 201.051 281.603 201.593 283.106 201.593C285.294 201.593 286.388 200.47 286.388 198.224V197.726C285.44 198.771 284.244 199.293 282.799 199.293C280.865 199.293 279.303 198.556 278.111 197.081C276.92 195.597 276.324 193.614 276.324 191.134V190.958ZM281.275 191.266C281.275 192.564 281.52 193.595 282.008 194.356C282.496 195.108 283.18 195.484 284.059 195.484C285.123 195.484 285.899 195.128 286.388 194.415V187.75C285.909 187.027 285.143 186.666 284.088 186.666C283.209 186.666 282.521 187.062 282.022 187.853C281.524 188.634 281.275 189.771 281.275 191.266Z" fill="#673C13"/>
<path d="M94.6 139.3C97.4667 139.3 99.5 138.9 100.7 138.1C101.967 137.233 102.6 135.867 102.6 134V120H77.2V115.2L109 66H113.8V115H114.8C116.333 115 117.433 114.533 118.1 113.6C118.767 112.667 119.1 111.133 119.1 109H122.8V126H119.1C119.1 123.867 118.767 122.333 118.1 121.4C117.433 120.467 116.333 120 114.8 120H113.8V134C113.8 135.867 114.4 137.233 115.6 138.1C116.867 138.9 118.933 139.3 121.8 139.3V143H94.6V139.3ZM84.2 115H102.6V85.8L84.2 115Z" fill="#F7CE09"/>
<path d="M54.105 69.9216H1V197.374H54.105V69.9216Z" fill="#673C13"/>
<path d="M32.8275 0H22.275C17.8567 0 14.275 3.58172 14.275 7.99999V14.7114C14.275 16.0654 13.7674 17.3703 12.8524 18.3684C9.6704 21.8397 12.1329 27.4376 16.842 27.4376H37.4136C42.1022 27.4376 44.7786 22.0848 41.9654 18.3339C41.2268 17.349 40.8275 16.1511 40.8275 14.92V8C40.8275 3.58172 37.2457 0 32.8275 0Z" fill="#1A1A18"/>
<path d="M11.4263 46.6439H16.2942V9.1341C16.2942 7.94938 16.7636 6.81293 17.5997 5.97355C18.4358 5.13417 19.5703 4.66026 20.7551 4.65558H34.7571C35.9418 4.66026 37.0764 5.13417 37.9124 5.97355C38.7485 6.81293 39.2179 7.94938 39.2179 9.1341V46.6439H44.0858C46.8482 46.6533 49.4947 47.7547 51.448 49.708C53.4013 51.6613 54.5028 54.3079 54.5121 57.0702V207.853C54.5168 209.227 54.2508 210.588 53.7293 211.859C53.2079 213.13 52.4412 214.286 51.473 215.261C50.5048 216.236 49.3542 217.01 48.0867 217.54C46.8192 218.07 45.4597 218.345 44.0858 218.35H11.4263C8.66393 218.341 6.01738 217.239 4.0641 215.286C2.11081 213.333 1.00933 210.686 1 207.924V57.0702C1.00933 54.3079 2.11081 51.6613 4.0641 49.708C6.01738 47.7547 8.66393 46.6533 11.4263 46.6439Z" stroke="#673C13" stroke-width="0.57" stroke-miterlimit="22.93"/>
<path d="M13.3045 161.988V163.245C13.3045 163.404 13.3045 163.457 13.1098 163.422C11.7974 163.165 10.528 162.724 9.33931 162.112C8.42374 161.607 7.63142 160.905 7.01929 160.057C6.40716 159.209 5.9904 158.236 5.79898 157.208C5.60927 156.36 5.50842 155.494 5.49805 154.624C5.49805 154.394 5.49805 154.164 5.49805 153.951C5.49805 153.739 5.49805 153.686 5.76357 153.721C6.25922 153.845 6.75486 153.951 7.25051 154.093C8.18759 154.309 9.08807 154.661 9.92346 155.137C11.2631 155.96 12.2907 157.206 12.8442 158.678C13.2395 159.728 13.4142 160.849 13.3576 161.97" fill="white"/>
<path d="M13.3381 165.015C12.542 166.211 11.4666 167.195 10.2049 167.882C9.17095 168.314 8.04008 168.461 6.93012 168.307C6.24467 168.209 5.5651 168.073 4.89443 167.9H4.62891C4.74869 167.661 4.91059 167.445 5.10685 167.263C5.76204 166.426 6.56623 165.718 7.47887 165.174C8.54648 164.549 9.79495 164.306 11.0192 164.484C11.6783 164.591 12.329 164.745 12.9664 164.944C13.0991 164.955 13.224 165.011 13.3204 165.103" fill="white"/>
<path d="M10.8086 170.874C10.8286 170.303 10.9913 169.747 11.282 169.255C11.5727 168.763 11.982 168.352 12.4726 168.06C12.7507 167.946 13.0422 167.869 13.3399 167.829C13.3965 168.138 13.3879 168.455 13.3147 168.759C13.2415 169.064 13.1054 169.351 12.9151 169.6C12.5487 170.095 12.0436 170.471 11.4636 170.679C11.2578 170.784 11.0367 170.856 10.8086 170.892" fill="white"/>
<path d="M35.2715 168.467V151.473L39.3606 152.517L42.7062 155.243L43.7506 157.952L43.963 166.626L43.8568 168.502L35.2715 168.467Z" fill="white"/>
<path d="M36.4934 91.2166H40.7241C41.6977 91.2166 42.0163 90.5617 41.7154 89.6766C41.7154 89.5173 41.5738 89.3757 41.503 89.2164V89.1101C41.5075 89.0248 41.5367 88.9426 41.587 88.8735C41.6372 88.8044 41.7064 88.7514 41.7862 88.7207C41.9151 88.6274 42.0613 88.5605 42.2163 88.5241C42.3713 88.4876 42.5319 88.4822 42.689 88.5083C43.0076 88.6322 43.1138 89.0039 43.22 89.2872C43.4438 89.9494 43.4745 90.6616 43.3085 91.3406C43.1916 91.8476 42.905 92.2995 42.4961 92.6214C42.0873 92.9433 41.5808 93.116 41.0604 93.1107C40.2992 93.1107 39.5204 93.1107 38.7415 93.1107H36.4934V94.4383H36.1748C35.8384 94.4383 35.3605 94.5623 35.095 94.2967C34.8294 94.0312 34.8825 93.6595 34.8825 93.3408V93.0222H33.8027C33.7196 93.0329 33.635 93.025 33.5553 92.9991C33.4755 92.9731 33.4025 92.9298 33.3416 92.8722C33.2806 92.8146 33.2332 92.7442 33.2027 92.6661C33.1723 92.5879 33.1596 92.504 33.1655 92.4204C33.1655 92.1194 33.1655 91.6769 33.3248 91.4291C33.4841 91.1812 33.9798 91.2166 34.2807 91.2166H34.617C34.7166 91.2342 34.8184 91.2342 34.9179 91.2166C34.9513 91.1128 34.975 91.0062 34.9888 90.898C34.9794 90.7802 34.9794 90.6618 34.9888 90.544V89.3934C34.9888 88.9685 35.2012 88.6853 35.6614 88.7384H35.8738C35.9741 88.725 36.0761 88.7323 36.1735 88.7596C36.2709 88.787 36.3617 88.834 36.4403 88.8977C36.5054 88.979 36.5531 89.0728 36.5805 89.1733C36.6079 89.2738 36.6144 89.3788 36.5996 89.4819C36.5996 90.0306 36.5996 90.5794 36.5996 91.1458" fill="white"/>
<path d="M38.2974 146.658V141.861C37.7276 142.015 37.2335 142.371 36.9076 142.863C36.5817 143.356 36.4465 143.95 36.5272 144.534C36.5578 145.031 36.746 145.504 37.0643 145.886C37.3827 146.268 37.8147 146.539 38.2974 146.658ZM39.802 146.658C40.2855 146.573 40.7273 146.33 41.0588 145.968C41.5044 145.43 41.7598 144.76 41.7854 144.063C41.811 143.365 41.6054 142.678 41.2004 142.109C41.0942 141.985 40.9703 141.861 40.8641 141.72L40.6517 141.472L40.8995 141.242L41.165 140.976C41.3597 140.799 41.5722 140.569 41.8554 140.587C42.1386 140.604 42.3333 140.888 42.5104 141.1C42.9428 141.651 43.2289 142.303 43.3423 142.994C43.5725 144.145 43.3973 145.339 42.8467 146.375C42.5266 146.975 42.0602 147.484 41.4908 147.855C40.9214 148.227 40.2675 148.448 39.5896 148.499C38.7341 148.6 37.8678 148.452 37.0936 148.075C36.4512 147.753 35.9025 147.271 35.5005 146.676C34.8945 145.732 34.6728 144.592 34.8809 143.49C35.0091 142.609 35.4263 141.795 36.0671 141.176C36.7079 140.558 37.536 140.17 38.4213 140.073C38.657 140.056 38.8936 140.056 39.1293 140.073C39.2104 140.065 39.2923 140.075 39.3691 140.102C39.4459 140.13 39.5157 140.174 39.5733 140.231C39.631 140.289 39.675 140.359 39.7023 140.435C39.7297 140.512 39.7395 140.594 39.7312 140.675V146.658H39.802Z" fill="white"/>
<path d="M43.3604 134.993V135.152C43.3968 135.344 43.3632 135.542 43.2658 135.711C43.1683 135.88 43.0135 136.008 42.8294 136.073L35.4655 139.436L35.1469 139.578L34.9876 139.259C34.934 139.172 34.8979 139.076 34.8813 138.976C34.8159 138.606 34.8589 138.224 35.0053 137.878C35.2314 137.607 35.5335 137.41 35.8726 137.312L40.953 134.993L35.5363 132.515C35.3087 132.448 35.1146 132.298 34.993 132.095C34.8715 131.891 34.8316 131.649 34.8813 131.417V131.24C34.8546 131.1 34.8546 130.956 34.8813 130.815V130.674H35.0584H35.3593H35.5717L42.5285 133.842C42.7445 133.912 42.9272 134.059 43.0416 134.255C43.1559 134.451 43.1938 134.682 43.148 134.904" fill="white"/>
<path d="M39.8017 124.142V126.425C39.8049 126.681 39.8345 126.936 39.8902 127.186C39.903 127.316 39.9444 127.441 40.0113 127.553C40.0783 127.665 40.1691 127.761 40.2774 127.834C40.3856 127.907 40.5086 127.954 40.6375 127.974C40.7664 127.994 40.8981 127.985 41.0231 127.948C41.225 127.911 41.4098 127.81 41.5501 127.66C41.6903 127.511 41.7787 127.32 41.802 127.116C41.9608 126.578 41.9608 126.007 41.802 125.469C41.7272 125.09 41.5212 124.749 41.2202 124.506C40.9192 124.263 40.5423 124.134 40.1557 124.142H39.8017ZM42.7578 124.142C43.0588 124.543 43.2592 125.01 43.342 125.505C43.5173 126.359 43.4624 127.245 43.1827 128.071C42.9834 128.694 42.5459 129.213 41.9656 129.515C41.3854 129.817 40.7093 129.877 40.0849 129.682C39.7087 129.57 39.3677 129.363 39.0948 129.081C38.822 128.799 38.6265 128.451 38.5272 128.071C38.3706 127.585 38.2929 127.077 38.297 126.567V124.159H37.8191C37.4854 124.183 37.1708 124.324 36.931 124.557C36.6912 124.79 36.5418 125.101 36.5092 125.434C36.3443 126.407 36.5529 127.405 37.0933 128.231C37.1659 128.301 37.2212 128.387 37.255 128.482C37.2888 128.578 37.3001 128.679 37.288 128.78C37.2565 128.874 37.2056 128.96 37.1385 129.033C37.0714 129.107 36.9897 129.165 36.8986 129.204C36.7935 129.299 36.6703 129.371 36.5364 129.417C36.4025 129.463 36.2608 129.481 36.1197 129.47C35.8365 129.47 35.6949 129.098 35.5533 128.85C34.8528 127.596 34.6506 126.123 34.9868 124.726C35.1105 124.07 35.4593 123.477 35.9731 123.05C36.487 122.624 37.1336 122.39 37.8014 122.389C38.474 122.389 39.1467 122.389 39.8194 122.389H42.7224C42.8152 122.377 42.9095 122.387 42.9979 122.417C43.0863 122.448 43.1663 122.499 43.2316 122.566C43.2969 122.633 43.3457 122.714 43.3741 122.803C43.4025 122.893 43.4097 122.987 43.3951 123.08V123.575C43.3953 123.661 43.3782 123.746 43.3447 123.825C43.3113 123.904 43.2622 123.976 43.2004 124.036C43.138 124.083 43.0664 124.117 42.9903 124.135C42.9141 124.153 42.8349 124.156 42.7578 124.142Z" fill="white"/>
<path d="M38.5294 115.804L40.5828 114.14L42.6184 112.476L42.8663 112.317L43.4327 111.963V113.733C43.4328 113.854 43.3957 113.971 43.3265 114.07C43.238 114.211 43.1318 114.247 43.0256 114.335L39.6977 117.097C39.8747 117.327 40.1048 117.539 40.2818 117.752C40.4982 118.056 40.7542 118.329 41.043 118.566C41.2361 118.601 41.434 118.601 41.6271 118.566C41.7686 118.557 41.9105 118.557 42.052 118.566C42.1757 118.557 42.3 118.557 42.4237 118.566H42.5476C42.8486 118.566 43.1318 118.566 43.2911 118.831C43.4365 119.178 43.4675 119.563 43.3796 119.929C43.3774 119.996 43.3618 120.061 43.3336 120.122C43.3055 120.182 43.2654 120.236 43.2158 120.281C43.1662 120.325 43.1081 120.36 43.045 120.381C42.9819 120.403 42.9151 120.412 42.8486 120.407H32.5993C32.471 120.431 32.3393 120.429 32.2117 120.401C32.0841 120.374 31.9632 120.322 31.8558 120.248C31.6611 120.053 31.6965 119.716 31.6965 119.469V119.221C31.6848 119.134 31.6933 119.046 31.7211 118.964C31.749 118.881 31.7956 118.806 31.8573 118.744C31.919 118.683 31.9941 118.636 32.0767 118.608C32.1594 118.58 32.2473 118.572 32.3338 118.584C32.4339 118.592 32.5346 118.592 32.6347 118.584H38.6533L35.2723 114.795C35.1295 114.656 35.0191 114.487 34.9488 114.301C34.8784 114.114 34.8499 113.914 34.8651 113.716C34.8651 113.415 34.8651 113.131 34.8651 112.831V111.963L35.4847 112.636L37.4673 114.76C37.7859 115.114 38.1222 115.45 38.4231 115.804" fill="white"/>
<path d="M35.6957 108.493C35.1334 107.824 34.8261 106.978 34.8283 106.104C34.814 106.022 34.8189 105.939 34.8426 105.859C34.8663 105.78 34.9082 105.708 34.965 105.647C35.0217 105.587 35.0917 105.541 35.1694 105.513C35.2471 105.484 35.3304 105.475 35.4125 105.484H36.333L36.4392 105.661C36.5066 105.781 36.5488 105.914 36.5631 106.051V106.281C36.5584 106.557 36.6084 106.831 36.7102 107.087C36.8119 107.343 36.9635 107.577 37.156 107.774C37.3486 107.972 37.5783 108.129 37.8321 108.238C38.0858 108.346 38.3584 108.403 38.6342 108.405C39.1122 108.405 39.5901 108.405 40.068 108.405H42.6702C42.7656 108.386 42.8641 108.391 42.9572 108.419C43.0503 108.447 43.1353 108.497 43.2048 108.565C43.2744 108.633 43.3265 108.716 43.3567 108.809C43.3869 108.901 43.3943 108.999 43.3783 109.095C43.3783 109.272 43.3783 109.449 43.3783 109.626C43.3855 109.714 43.3734 109.802 43.3428 109.885C43.3122 109.968 43.2639 110.042 43.2012 110.104C43.0735 110.198 42.9163 110.242 42.7587 110.228H35.678C35.4881 110.289 35.2838 110.289 35.0939 110.228C35.0074 110.134 34.9434 110.021 34.9066 109.899C34.8698 109.776 34.8612 109.647 34.8815 109.52C34.8815 109.272 34.8815 108.954 35.0408 108.759C35.2335 108.631 35.4674 108.581 35.6957 108.617" fill="white"/>
<path d="M42.5997 97.7661C42.9698 98.251 43.2241 98.8141 43.3432 99.4123C43.5057 100.183 43.463 100.982 43.2193 101.731C43.0539 102.307 42.7251 102.823 42.2726 103.215C41.8202 103.608 41.2636 103.861 40.6703 103.944C40.4523 103.96 40.2333 103.96 40.0153 103.944H34.988V103.678C34.9173 103.274 34.9173 102.861 34.988 102.457V102.138H39.7321C40.0008 102.186 40.2769 102.171 40.5387 102.094C40.8006 102.017 41.0412 101.881 41.2417 101.696C41.4423 101.511 41.5973 101.282 41.6947 101.027C41.7921 100.772 41.8292 100.498 41.8032 100.227C41.8403 99.9427 41.8205 99.6542 41.7451 99.3779C41.6697 99.1017 41.54 98.8432 41.3638 98.6175C41.1875 98.3919 40.9681 98.2035 40.7184 98.0634C40.4687 97.9233 40.1936 97.8343 39.9091 97.8015C39.6321 97.7838 39.3542 97.7838 39.0771 97.8015C37.9088 97.8015 36.7405 97.8015 35.5368 97.8015C35.445 97.8124 35.352 97.8027 35.2644 97.773C35.1769 97.7434 35.0971 97.6945 35.0309 97.63C34.9647 97.5655 34.9138 97.487 34.8819 97.4003C34.85 97.3136 34.8378 97.2208 34.8464 97.1288C34.8464 96.8279 34.8464 96.4207 35.0234 96.1906C35.2925 96.0062 35.6213 95.9303 35.9439 95.9782H42.8122C42.9352 95.9725 43.056 96.0129 43.1509 96.0915C43.2458 96.17 43.308 96.2811 43.3255 96.403C43.3432 96.6801 43.3432 96.958 43.3255 97.235C43.3203 97.2976 43.3019 97.3585 43.2713 97.4134C43.2408 97.4683 43.1989 97.5161 43.1485 97.5536C43.0332 97.6447 42.8878 97.6889 42.7414 97.6776H42.5997" fill="white"/>
<path d="M16.6492 162.501H14.3302C14.1859 162.519 14.0402 162.481 13.9231 162.395C13.8209 162.283 13.7587 162.139 13.7461 161.988C13.7461 161.722 13.7461 161.368 13.9054 161.174C14.1257 161.032 14.3899 160.976 14.6489 161.014H19.0566C19.117 161.012 19.1772 161.022 19.2333 161.044C19.2895 161.067 19.3402 161.101 19.382 161.144C19.4239 161.188 19.456 161.24 19.4762 161.297C19.4964 161.354 19.5042 161.414 19.4991 161.475C19.4991 161.652 19.4991 161.829 19.4991 162.023C19.5078 162.091 19.501 162.159 19.4791 162.223C19.4573 162.287 19.4211 162.345 19.3732 162.393C19.3253 162.441 19.2671 162.477 19.203 162.499C19.1389 162.521 19.0706 162.528 19.0035 162.519H16.6492" fill="white"/>
<path d="M41.9445 167.617H43.0597C43.0597 165.032 43.0597 162.466 43.0597 159.881C43.0429 157.901 42.2705 156.001 40.9001 154.571C39.5696 153.133 37.7275 152.275 35.7707 152.183C33.8138 152.09 31.8989 152.77 30.4384 154.075C29.2535 155.162 28.4367 156.591 28.1018 158.164C27.9664 158.744 27.901 159.339 27.9071 159.934V168.431C27.8983 168.496 27.8983 168.561 27.9071 168.626C27.9219 168.698 27.9192 168.773 27.8993 168.844C27.8793 168.914 27.8427 168.979 27.7924 169.033C27.7421 169.087 27.6797 169.128 27.6103 169.152C27.5409 169.177 27.4667 169.185 27.3937 169.175H27.2875C27.041 169.21 26.7906 169.21 26.5441 169.175H26.4378V169.068C26.4113 168.804 26.4113 168.537 26.4378 168.272C26.4378 165.581 26.4378 162.961 26.4378 160.235C26.4342 159.283 26.5654 158.336 26.8273 157.421C27.2087 156.073 27.886 154.827 28.8099 153.774C29.9265 152.341 31.4701 151.299 33.2176 150.8C34.631 150.415 36.1181 150.386 37.5455 150.716C38.9729 151.047 40.2959 151.727 41.3958 152.694C43.1707 154.201 44.3196 156.316 44.6175 158.625C44.6638 159.214 44.6638 159.806 44.6175 160.395C44.6175 163.103 44.6175 165.811 44.6175 168.52V168.998H44.5289C44.3796 169.048 44.2181 169.048 44.0687 168.998H35.6604C35.5952 169.004 35.5295 168.995 35.4682 168.972C35.407 168.949 35.352 168.912 35.3074 168.864C35.2628 168.816 35.23 168.758 35.2114 168.696C35.1928 168.633 35.1889 168.567 35.2002 168.502C35.2002 168.307 35.2002 168.095 35.2002 167.882C35.2025 167.759 35.2328 167.638 35.2887 167.528L35.3949 167.316H35.5188L35.6781 167.44H41.9445" fill="white"/>
<path d="M13.7473 168.644C13.7561 168.585 13.7561 168.525 13.7473 168.467C13.7236 168.361 13.7223 168.25 13.7436 168.144C13.765 168.037 13.8085 167.936 13.8712 167.847L13.9952 167.741C14.1622 167.688 14.3415 167.688 14.5085 167.741H20.4563C20.9943 167.731 21.5284 167.833 22.025 168.041C22.5217 168.248 22.9699 168.556 23.3416 168.945C23.7266 169.332 24.0274 169.794 24.2254 170.303C24.4234 170.811 24.5143 171.355 24.4922 171.901C24.448 172.715 24.448 173.53 24.4922 174.344C24.6362 176.025 25.1545 177.652 26.009 179.107C26.8636 180.562 28.0328 181.808 29.431 182.752C31.4434 184.082 33.8409 184.705 36.2461 184.522C38.4233 184.348 40.4941 183.508 42.1762 182.115C44.3639 180.343 45.8098 177.817 46.2299 175.034C46.3013 174.577 46.3368 174.116 46.3361 173.653V151.208C46.3008 151.038 46.3008 150.864 46.3361 150.694V150.517H47.6814V151.084C47.6814 158.306 47.6814 165.528 47.6814 172.75C47.7064 174.502 47.4063 176.242 46.7963 177.884C46.2124 179.386 45.354 180.767 44.265 181.955C43.307 183.011 42.1679 183.886 40.9017 184.54C39.7144 185.174 38.427 185.599 37.0958 185.797C36.5108 185.893 35.9186 185.941 35.3257 185.938C33.5925 185.937 31.8792 185.569 30.2984 184.858C28.2739 183.915 26.5319 182.458 25.2461 180.631C23.9602 178.805 23.1754 176.674 22.9699 174.45C22.8814 173.529 22.9699 172.68 22.9699 171.671C22.9685 171.058 22.7484 170.467 22.3491 170.003C21.9498 169.538 21.3978 169.232 20.7926 169.139C20.551 169.121 20.3084 169.121 20.0668 169.139H14.3315C14.1899 169.139 14.0306 169.139 13.9066 168.998C13.8147 168.901 13.7585 168.776 13.7473 168.644Z" fill="white"/>
<path d="M47.3793 147.03C46.8129 147.03 46.2995 147.03 45.7862 147.03C45.6446 147.03 45.3967 147.118 45.3967 146.888C45.3967 146.658 45.6268 146.729 45.7685 146.729C46.4411 146.729 47.0961 146.729 47.7687 146.729C47.875 146.729 48.0343 146.729 48.0697 146.853C48.1051 146.977 47.9812 147.065 47.8927 147.154L46.4234 148.358C46.3172 148.446 46.1756 148.499 46.1225 148.729H47.6094C47.7687 148.729 48.052 148.623 48.0697 148.871C48.0874 149.119 47.7687 149.048 47.6094 149.048C47.0253 149.048 46.4234 149.048 45.8393 149.048C45.68 149.048 45.4852 149.136 45.3967 148.942C45.3082 148.747 45.5383 148.676 45.6623 148.57L47.0961 147.402C47.2289 147.312 47.3285 147.182 47.3793 147.03Z" fill="white"/>
<path d="M46.2636 132.833C46.2705 132.975 46.3189 133.112 46.4028 133.227C46.4866 133.341 46.6022 133.429 46.7353 133.478C46.8684 133.528 47.0131 133.537 47.1514 133.505C47.2898 133.473 47.4158 133.402 47.5138 133.299C47.6118 133.196 47.6775 133.067 47.7027 132.927C47.728 132.787 47.7117 132.643 47.6559 132.513C47.6 132.382 47.5071 132.271 47.3887 132.193C47.2702 132.114 47.1314 132.072 46.9894 132.072C46.8895 132.067 46.7896 132.083 46.6966 132.119C46.6036 132.156 46.5196 132.213 46.4506 132.285C46.3816 132.358 46.3291 132.444 46.2968 132.539C46.2645 132.633 46.2532 132.734 46.2636 132.833ZM47.0779 131.754C47.3257 131.754 47.5912 131.754 47.8391 131.754C47.9899 131.746 48.1405 131.773 48.2785 131.835C48.4165 131.896 48.538 131.99 48.633 132.107C48.728 132.225 48.7938 132.363 48.8251 132.511C48.8563 132.658 48.852 132.812 48.8127 132.957C48.8075 133.197 48.7338 133.431 48.6002 133.63C48.6002 133.63 48.5117 133.754 48.4232 133.63C48.3983 133.604 48.3844 133.569 48.3844 133.533C48.3844 133.496 48.3983 133.462 48.4232 133.435C48.5606 133.174 48.622 132.88 48.6002 132.586C48.5957 132.475 48.5601 132.369 48.4975 132.278C48.4348 132.187 48.3477 132.116 48.2462 132.072C48.2462 132.072 48.0338 132.072 47.9453 132.072C47.8568 132.072 47.9453 132.285 47.9453 132.373C48.0345 132.619 48.0345 132.888 47.9453 133.134C47.9105 133.26 47.8513 133.377 47.7711 133.48C47.6908 133.583 47.5912 133.669 47.4777 133.733C47.3643 133.797 47.2393 133.838 47.1099 133.854C46.9806 133.87 46.8494 133.86 46.7239 133.825C46.4676 133.747 46.2519 133.572 46.1229 133.337C45.9939 133.102 45.9618 132.826 46.0335 132.568C46.0682 132.442 46.1219 132.323 46.1928 132.214C46.1928 132.09 46.1928 132.019 46.1928 132.001C46.1739 131.997 46.156 131.989 46.1403 131.978C46.1246 131.967 46.1114 131.953 46.1014 131.936C46.0915 131.919 46.085 131.901 46.0825 131.882C46.0799 131.863 46.0813 131.843 46.0866 131.824C46.1032 131.792 46.1286 131.765 46.1599 131.746C46.1912 131.727 46.2271 131.718 46.2636 131.718L47.0779 131.754Z" fill="white"/>
<path d="M46.2643 106.228C46.248 106.331 46.2543 106.437 46.2828 106.538C46.3113 106.639 46.3614 106.733 46.4295 106.812C46.4976 106.892 46.5822 106.956 46.6775 107C46.7727 107.044 46.8763 107.067 46.9812 107.067C47.0861 107.067 47.1897 107.044 47.2849 107C47.3802 106.956 47.4648 106.892 47.5329 106.812C47.601 106.733 47.6511 106.639 47.6796 106.538C47.7081 106.437 47.7144 106.331 47.6981 106.228C47.7144 106.124 47.7081 106.018 47.6796 105.917C47.6511 105.816 47.601 105.723 47.5329 105.643C47.4648 105.564 47.3802 105.5 47.2849 105.456C47.1897 105.412 47.0861 105.389 46.9812 105.389C46.8763 105.389 46.7727 105.412 46.6775 105.456C46.5822 105.5 46.4976 105.564 46.4295 105.643C46.3614 105.723 46.3113 105.816 46.2828 105.917C46.2543 106.018 46.248 106.124 46.2643 106.228ZM47.114 105.166C47.3618 105.166 47.6096 105.166 47.8574 105.166C48.0064 105.158 48.1549 105.186 48.2912 105.247C48.4275 105.307 48.5477 105.399 48.6424 105.514C48.737 105.629 48.8033 105.765 48.8361 105.91C48.8688 106.056 48.8671 106.207 48.831 106.352C48.8206 106.588 48.7538 106.819 48.6363 107.024C48.6363 107.024 48.5124 107.184 48.4239 107.024C48.3978 106.995 48.3833 106.957 48.3833 106.918C48.3833 106.879 48.3978 106.841 48.4239 106.812C48.5777 106.557 48.6402 106.257 48.6009 105.962C48.6009 105.626 48.3708 105.431 48.0875 105.414C47.8043 105.396 47.8751 105.414 47.9105 105.608L48.0167 105.927C48.0718 106.141 48.0588 106.367 47.9795 106.573C47.9002 106.779 47.7585 106.956 47.5742 107.077C47.4046 107.201 47.2 107.268 46.99 107.268C46.7801 107.268 46.5755 107.201 46.4059 107.077C46.246 106.927 46.1326 106.733 46.0793 106.52C46.0259 106.306 46.0349 106.082 46.105 105.874C46.1415 105.786 46.1891 105.702 46.2466 105.626C46.2466 105.626 46.2466 105.467 46.2466 105.431C46.224 105.43 46.2021 105.424 46.1826 105.412C46.163 105.401 46.1465 105.385 46.1344 105.366C46.1223 105.347 46.1149 105.325 46.1128 105.303C46.1108 105.28 46.1142 105.257 46.1227 105.236C46.1393 105.204 46.1646 105.177 46.1959 105.158C46.2272 105.139 46.2632 105.13 46.2997 105.13L47.114 105.166Z" fill="white"/>
<path d="M47.7855 98.616C47.7927 98.5155 47.7794 98.4146 47.7464 98.3193C47.7134 98.2241 47.6614 98.1366 47.5935 98.0621C47.5256 97.9875 47.4433 97.9276 47.3515 97.8859C47.2598 97.8442 47.1605 97.8216 47.0597 97.8195C46.9597 97.8147 46.8598 97.8297 46.7656 97.8636C46.6714 97.8976 46.5849 97.9497 46.5109 98.0171C46.4369 98.0845 46.3769 98.1659 46.3344 98.2565C46.2919 98.3471 46.2677 98.4452 46.2631 98.5452C46.2631 98.7471 46.3433 98.9407 46.4861 99.0835C46.6288 99.2262 46.8224 99.3064 47.0243 99.3064C47.2262 99.3064 47.4198 99.2262 47.5625 99.0835C47.7053 98.9407 47.7855 98.7471 47.7855 98.5452V98.616ZM46.5995 97.4654H47.8386C47.9802 97.4654 48.1572 97.4654 48.0333 97.6779C47.9094 97.8903 48.0333 98.0496 48.0333 98.2266C48.0974 98.4117 48.1082 98.6111 48.0644 98.8021C48.0206 98.993 47.9239 99.1678 47.7855 99.3064C47.626 99.4774 47.4138 99.5898 47.1828 99.6259C46.9519 99.6619 46.7155 99.6195 46.5115 99.5052C46.3075 99.391 46.1478 99.2117 46.0578 98.9959C45.9679 98.7801 45.9529 98.5404 46.0153 98.3151C46.1392 97.8018 46.1392 97.8018 45.6613 97.7664C45.502 97.7664 45.2188 97.8903 45.2188 97.6248C45.2188 97.3592 45.5197 97.4831 45.679 97.4654H46.5995Z" fill="white"/>
<path d="M46.8132 92.6683C46.3707 92.8276 46.2468 92.9869 46.2645 93.3764C46.2822 93.7658 46.4061 93.8897 46.8132 93.9782C46.8664 93.5432 46.8664 93.1033 46.8132 92.6683ZM47.7868 93.2702C47.7973 93.077 47.7479 92.8853 47.6452 92.7214C47.6452 92.7214 47.6452 92.5798 47.6452 92.5444C47.6452 92.509 47.7691 92.5444 47.8399 92.5444C47.9716 92.7341 48.0422 92.9595 48.0422 93.1905C48.0422 93.4215 47.9716 93.6469 47.8399 93.8366C47.7308 94.0389 47.5537 94.196 47.3399 94.2803C47.1261 94.3645 46.8894 94.3704 46.6716 94.2968C46.45 94.245 46.2524 94.1197 46.111 93.9413C45.9695 93.763 45.8926 93.542 45.8926 93.3144C45.8926 93.0868 45.9695 92.8658 46.111 92.6875C46.2524 92.5091 46.45 92.3838 46.6716 92.332C46.9548 92.332 47.0257 92.332 47.0257 92.6152C47.0257 92.8984 47.0257 93.3233 47.0257 93.6773C47.0257 94.0313 47.0257 93.9074 47.1319 93.9605C47.1793 93.9815 47.2305 93.9923 47.2823 93.9923C47.3342 93.9923 47.3854 93.9815 47.4328 93.9605C47.5539 93.8849 47.6514 93.7768 47.714 93.6485C47.7766 93.5201 47.8018 93.3768 47.7868 93.2348V93.2702Z" fill="white"/>
<path d="M46.813 124.213C46.3705 124.372 46.2466 124.531 46.2643 124.921C46.282 125.31 46.4059 125.434 46.813 125.523C46.8662 125.087 46.8662 124.648 46.813 124.213ZM45.981 124.85C45.9884 124.687 46.0319 124.528 46.1085 124.384C46.185 124.24 46.2927 124.115 46.4236 124.018C46.5013 123.953 46.5926 123.907 46.6906 123.882C46.7887 123.858 46.891 123.856 46.99 123.876C47.2025 123.965 46.99 124.213 47.0962 124.39C47.2024 124.567 47.0962 125.009 47.0962 125.328C47.0962 125.646 47.2202 125.576 47.3795 125.487C47.5292 125.4 47.6466 125.267 47.7136 125.107C47.7807 124.947 47.7939 124.77 47.7512 124.602C47.7512 124.496 47.7512 124.39 47.6273 124.301C47.5034 124.213 47.6273 124.124 47.6273 124.071C47.6273 124.018 47.7866 124.071 47.8397 124.177C47.9662 124.372 48.0335 124.6 48.0335 124.832C48.0335 125.065 47.9662 125.292 47.8397 125.487C47.7085 125.673 47.5181 125.81 47.2996 125.874C47.081 125.938 46.8471 125.927 46.636 125.841C46.4375 125.764 46.2679 125.627 46.1506 125.45C46.0332 125.272 45.974 125.063 45.981 124.85Z" fill="white"/>
<path d="M46.2102 128.071L46.0862 127.824C45.803 127.009 46.0862 126.514 46.9713 126.478C47.2014 126.478 47.4316 126.478 47.6794 126.478C47.9272 126.478 48.0688 126.478 48.0511 126.638C48.0334 126.797 47.8033 126.779 47.644 126.779H46.9359C46.458 126.779 46.281 126.974 46.2633 127.381C46.2527 127.474 46.2626 127.567 46.2922 127.656C46.3217 127.744 46.3703 127.825 46.4344 127.892C46.4985 127.96 46.5767 128.012 46.6633 128.046C46.7499 128.08 46.843 128.095 46.9359 128.089C47.2368 128.089 47.5378 128.089 47.8564 128.089C48.175 128.089 48.0334 128.089 48.0511 128.231C48.0688 128.372 47.9449 128.408 47.8387 128.408H45.4136C45.2897 128.408 45.1835 128.408 45.2012 128.231C45.2189 128.054 45.2897 128.107 45.3959 128.089C45.6656 128.132 45.9404 128.132 46.2102 128.089" fill="white"/>
<path d="M47.0422 113.786H47.8565C47.9981 113.786 48.1397 113.892 48.0158 113.999C47.8919 114.105 48.0158 114.282 48.0158 114.441C48.0899 114.576 48.1262 114.728 48.1207 114.882C48.1153 115.035 48.0682 115.184 47.9847 115.313C47.9011 115.442 47.7842 115.546 47.6463 115.614C47.5084 115.682 47.3546 115.711 47.2015 115.698C46.8652 115.698 46.5288 115.698 46.1925 115.698C46.1557 115.699 46.1198 115.687 46.0907 115.665C46.0617 115.642 46.0414 115.61 46.0332 115.574C46.0332 115.45 46.0332 115.397 46.1925 115.379C46.3518 115.362 46.9006 115.379 47.2723 115.379C47.3742 115.38 47.4744 115.354 47.563 115.303C47.6517 115.253 47.7256 115.18 47.7775 115.093C47.8294 115.005 47.8574 114.905 47.8589 114.803C47.8603 114.702 47.8351 114.601 47.7857 114.512C47.7381 114.393 47.6546 114.291 47.5468 114.221C47.439 114.152 47.3121 114.117 47.1838 114.123H46.2633C46.1571 114.123 46.0332 114.123 46.0332 113.963C46.0332 113.804 46.1571 113.804 46.281 113.804H47.0776" fill="white"/>
<path d="M47.7854 119.079C47.8013 118.976 47.7954 118.871 47.7679 118.77C47.7405 118.669 47.6922 118.576 47.6261 118.495C47.5779 118.442 47.5165 118.402 47.4481 118.381C47.3797 118.359 47.3068 118.355 47.2367 118.371C47.0774 118.371 47.1128 118.583 47.1128 118.707C47.0952 118.89 47.0952 119.074 47.1128 119.256C47.121 119.322 47.152 119.383 47.2006 119.428C47.2491 119.473 47.312 119.5 47.3783 119.504C47.4501 119.512 47.5226 119.495 47.5837 119.457C47.6448 119.418 47.691 119.36 47.7146 119.291C47.7146 119.203 47.7146 119.097 47.7146 119.079H47.7854ZM47.3783 118.035H47.7677C48.0864 118.035 48.1041 118.035 47.9978 118.371C47.8916 118.707 47.9978 118.53 47.9978 118.637C48.0859 118.877 48.0859 119.14 47.9978 119.38C47.963 119.503 47.8887 119.611 47.7863 119.688C47.684 119.765 47.5593 119.806 47.4314 119.805C47.3056 119.803 47.1841 119.758 47.0874 119.678C46.9907 119.597 46.9247 119.486 46.9003 119.362C46.8655 119.122 46.8655 118.877 46.9003 118.637C46.9003 118.53 46.9003 118.406 46.7764 118.371C46.7242 118.365 46.6714 118.372 46.6222 118.39C46.573 118.409 46.5288 118.439 46.4932 118.477C46.4255 118.553 46.3759 118.644 46.3483 118.742C46.3207 118.84 46.3158 118.943 46.3339 119.044C46.3359 119.175 46.3725 119.303 46.4401 119.415C46.4401 119.415 46.5463 119.628 46.4401 119.681C46.3339 119.734 46.2808 119.592 46.2454 119.522C46.109 119.273 46.0592 118.987 46.1038 118.707C46.106 118.615 46.1267 118.524 46.1646 118.44C46.2026 118.356 46.257 118.28 46.3246 118.218C46.3923 118.155 46.4718 118.107 46.5586 118.075C46.6453 118.044 46.7374 118.03 46.8295 118.035C46.9003 118.017 47.1128 118.035 47.3783 118.035Z" fill="white"/>
<path d="M47.1126 110.688V110.883C47.1126 111.113 47.1126 111.343 47.4313 111.361C47.7499 111.379 47.803 111.184 47.7853 110.865C47.794 110.807 47.794 110.747 47.7853 110.688C47.7766 110.571 47.7249 110.461 47.6399 110.379C47.555 110.297 47.4428 110.25 47.325 110.246C47.0064 110.246 47.1834 110.564 47.1303 110.688H47.1126ZM47.3073 109.909H47.7499C48.0508 109.909 48.0508 109.909 47.9446 110.246C47.8384 110.582 47.9446 110.44 47.9446 110.529C47.9967 110.649 48.0236 110.779 48.0236 110.91C48.0236 111.041 47.9967 111.17 47.9446 111.29C47.9096 111.402 47.8384 111.499 47.7424 111.566C47.6463 111.634 47.5307 111.667 47.4136 111.662C47.2847 111.664 47.1591 111.621 47.0587 111.54C46.9584 111.459 46.8897 111.346 46.8648 111.219C46.8297 110.967 46.8297 110.711 46.8648 110.458C46.8648 110.246 46.7055 110.175 46.5285 110.263C46.4572 110.305 46.3983 110.364 46.3578 110.436C46.3174 110.507 46.2968 110.588 46.2984 110.671C46.2701 110.889 46.3071 111.111 46.4046 111.308C46.4046 111.308 46.4046 111.503 46.4046 111.538C46.4046 111.573 46.2452 111.538 46.2098 111.396C46.0618 111.12 46.0179 110.8 46.0859 110.494C46.1921 110.122 46.3515 109.945 46.7055 109.909H47.3073Z" fill="white"/>
<path d="M47.0434 139.737H47.8577C47.9816 139.737 48.1586 139.861 48.017 139.967C47.8754 140.073 47.9285 140.232 48.017 140.374C48.0941 140.51 48.1328 140.665 48.1291 140.822C48.1253 140.978 48.0793 141.131 47.9958 141.263C47.9123 141.396 47.7945 141.503 47.6549 141.574C47.5152 141.645 47.359 141.677 47.2028 141.666H46.2823C46.1584 141.666 46.0344 141.666 46.0344 141.525C46.0344 141.383 46.1584 141.365 46.2646 141.348H47.1142C47.6099 141.348 47.8046 141.171 47.8223 140.781C47.84 140.392 47.6099 140.091 47.1142 140.055H46.1938C46.1698 140.058 46.1456 140.056 46.1228 140.048C46.1 140.04 46.0793 140.027 46.0623 140.01C46.0452 139.993 46.0323 139.972 46.0244 139.949C46.0165 139.927 46.0139 139.902 46.0167 139.878C46.0167 139.772 46.1052 139.737 46.2115 139.737H47.0788" fill="white"/>
<path d="M47.0772 144.003H47.8738C47.9977 144.003 48.1216 144.127 48.0331 144.198C47.9446 144.269 48.0331 144.57 48.0331 144.747C48.0838 144.871 48.1043 145.005 48.093 145.139C48.0817 145.273 48.0389 145.402 47.9681 145.516C47.8973 145.63 47.8005 145.725 47.6857 145.795C47.5708 145.864 47.4412 145.905 47.3074 145.915C46.9533 145.915 46.5993 145.915 46.2453 145.915C45.8912 145.915 46.0151 145.915 46.0151 145.756C46.0151 145.596 46.1391 145.596 46.2453 145.596H47.1127C47.5906 145.596 47.7853 145.419 47.803 145.03C47.8135 144.937 47.8037 144.844 47.7741 144.755C47.7445 144.667 47.696 144.586 47.6319 144.519C47.5677 144.451 47.4896 144.399 47.403 144.365C47.3163 144.331 47.2233 144.316 47.1304 144.322H46.2099C46.1037 144.322 45.9797 144.322 46.0151 144.127C46.0506 143.932 46.1214 143.985 46.2099 143.985H47.0772" fill="white"/>
<path d="M47.0261 122.301H46.2119C46.0348 122.301 45.9109 122.301 46.0525 122.035C46.1942 121.77 46.0525 121.734 46.0525 121.593C45.989 121.453 45.9636 121.299 45.9789 121.147C45.9942 120.994 46.0497 120.849 46.1396 120.725C46.2296 120.6 46.3508 120.502 46.491 120.44C46.6312 120.378 46.7853 120.354 46.9376 120.371H47.8581C47.9466 120.371 48.0528 120.371 48.0705 120.513C48.0882 120.655 47.9643 120.69 47.8581 120.69H46.9376C46.4774 120.69 46.3004 120.867 46.2827 121.256C46.2672 121.342 46.2707 121.431 46.2928 121.515C46.315 121.6 46.3552 121.678 46.4108 121.746C46.4664 121.813 46.536 121.868 46.6147 121.905C46.6935 121.943 46.7795 121.963 46.8668 121.965C47.1852 121.982 47.5043 121.982 47.8227 121.965C47.9289 121.965 48.0705 121.965 48.0705 122.124C48.0705 122.283 47.9466 122.283 47.8404 122.283H47.0261" fill="white"/>
<path d="M47.0253 136.374H46.211C46.034 136.374 45.91 136.267 46.0694 136.108C46.2287 135.949 46.1933 135.931 46.0694 135.789C46.0004 135.68 45.9553 135.557 45.937 135.429C45.9187 135.301 45.9276 135.17 45.9632 135.046C45.9871 134.9 46.0564 134.765 46.1612 134.66C46.266 134.555 46.4011 134.486 46.5473 134.462C46.9714 134.426 47.3977 134.426 47.8218 134.462C47.928 134.462 47.9988 134.462 47.9811 134.639C47.9813 134.657 47.9776 134.674 47.9703 134.691C47.963 134.707 47.9523 134.722 47.9388 134.733C47.9254 134.745 47.9095 134.754 47.8924 134.759C47.8753 134.764 47.8572 134.765 47.8395 134.763H46.919C46.388 134.763 46.1933 134.94 46.1933 135.382C46.1933 135.825 46.4411 136.037 46.9367 136.073H47.6802C47.8041 136.073 47.9811 136.073 47.9811 136.214C47.9811 136.356 47.8395 136.374 47.7156 136.374H47.0253Z" fill="white"/>
<path d="M47.3793 94.8455H47.9812C48.0159 94.8452 48.0495 94.8577 48.0756 94.8805C48.1017 94.9034 48.1185 94.935 48.1228 94.9694C48.1253 94.9918 48.123 95.0144 48.1162 95.0358C48.1093 95.0572 48.0979 95.077 48.0829 95.0937C48.0678 95.1104 48.0494 95.1238 48.0288 95.1328C48.0083 95.1419 47.986 95.1466 47.9635 95.1464H46.9368C46.5297 95.1464 46.3526 95.3411 46.3349 95.6952C46.3197 95.782 46.3233 95.8712 46.3453 95.9566C46.3673 96.042 46.4073 96.1217 46.4626 96.1904C46.5179 96.2591 46.5872 96.3152 46.6659 96.355C46.7447 96.3947 46.831 96.4172 46.9191 96.4209C47.1548 96.4388 47.3915 96.4388 47.6272 96.4209H47.9458C48.052 96.4209 48.1405 96.4209 48.1405 96.5626C48.1434 96.5865 48.1407 96.6108 48.1328 96.6335C48.125 96.6563 48.112 96.677 48.095 96.694C48.0779 96.7111 48.0572 96.724 48.0345 96.7319C48.0117 96.7398 47.9874 96.7424 47.9635 96.7396H46.1933C46.0517 96.7396 45.9809 96.598 46.0694 96.5272C46.1579 96.4563 46.1933 96.2793 46.0694 96.12C45.9864 95.982 45.9434 95.8235 45.9454 95.6624C45.9473 95.5013 45.9941 95.3439 46.0805 95.2079C46.1669 95.0719 46.2894 94.9626 46.4344 94.8924C46.5794 94.8221 46.7411 94.7936 46.9014 94.8101H47.3793" fill="white"/>
<path d="M47.7863 103.625C47.8041 103.526 47.8003 103.423 47.775 103.325C47.7497 103.226 47.7036 103.135 47.6399 103.056C47.5761 102.977 47.4961 102.913 47.4053 102.867C47.3145 102.822 47.215 102.797 47.1136 102.793C47.0114 102.776 46.9066 102.78 46.8062 102.806C46.7058 102.832 46.6122 102.88 46.5316 102.945C46.4511 103.011 46.3856 103.093 46.3394 103.185C46.2932 103.278 46.2675 103.38 46.264 103.484C46.2515 103.582 46.26 103.683 46.2888 103.778C46.3177 103.873 46.3663 103.961 46.4314 104.036C46.4965 104.111 46.5767 104.172 46.6668 104.214C46.7569 104.256 46.8549 104.279 46.9543 104.28C47.0528 104.298 47.1539 104.295 47.251 104.27C47.348 104.246 47.4389 104.202 47.5175 104.14C47.5961 104.078 47.6607 104 47.707 103.911C47.7534 103.823 47.7804 103.725 47.7863 103.625ZM47.0251 102.475C47.3068 102.475 47.577 102.587 47.7762 102.786C47.9753 102.985 48.0872 103.255 48.0872 103.537C48.0872 103.819 47.9753 104.089 47.7762 104.288C47.577 104.487 47.3068 104.599 47.0251 104.599C46.8842 104.599 46.7446 104.571 46.6146 104.517C46.4845 104.462 46.3666 104.382 46.2678 104.282C46.1689 104.181 46.0911 104.062 46.0387 103.931C45.9864 103.8 45.9607 103.66 45.963 103.519C45.963 103.381 45.9906 103.243 46.0442 103.115C46.0978 102.988 46.1763 102.872 46.2752 102.774C46.374 102.677 46.4913 102.601 46.62 102.549C46.7488 102.498 46.8865 102.472 47.0251 102.475Z" fill="white"/>
<path d="M47.0428 100.351C46.8456 100.351 46.6565 100.429 46.5171 100.568C46.3777 100.708 46.2994 100.897 46.2994 101.094C46.2994 101.291 46.3777 101.48 46.5171 101.62C46.6565 101.759 46.8456 101.838 47.0428 101.838C47.146 101.851 47.2508 101.841 47.3498 101.809C47.4489 101.777 47.5396 101.724 47.6157 101.653C47.6917 101.582 47.7512 101.495 47.7899 101.398C47.8285 101.302 47.8454 101.198 47.8394 101.094C47.8474 100.994 47.8337 100.894 47.7992 100.8C47.7646 100.707 47.7101 100.621 47.6394 100.551C47.5687 100.48 47.4835 100.425 47.3897 100.391C47.2958 100.356 47.1956 100.343 47.0959 100.351H47.0428ZM46.0338 101.094C46.0338 100.817 46.1439 100.552 46.3397 100.356C46.5356 100.16 46.8012 100.05 47.0782 100.05C47.3552 100.05 47.6209 100.16 47.8167 100.356C48.0126 100.552 48.1226 100.817 48.1226 101.094C48.1274 101.229 48.1055 101.363 48.0582 101.49C48.0109 101.616 47.9392 101.732 47.8471 101.831C47.7551 101.929 47.6445 102.009 47.5216 102.065C47.3988 102.121 47.2662 102.152 47.1313 102.156C46.984 102.171 46.8352 102.155 46.6947 102.108C46.5542 102.061 46.4253 101.985 46.3165 101.885C46.2077 101.784 46.1215 101.662 46.0636 101.526C46.0057 101.389 45.9774 101.242 45.9807 101.094H46.0338Z" fill="white"/>
<path d="M45.9824 91.1458C45.9832 90.92 46.0314 90.6968 46.124 90.4908C46.124 90.4908 46.124 90.4023 46.2479 90.4023C46.2684 90.4042 46.2882 90.4106 46.306 90.4209C46.3238 90.4312 46.3391 90.4453 46.3509 90.4621C46.3627 90.479 46.3707 90.4982 46.3743 90.5184C46.3779 90.5387 46.3771 90.5595 46.3719 90.5793C46.2806 90.7973 46.2501 91.0358 46.2834 91.2697C46.2834 91.4467 46.3719 91.5706 46.5312 91.5883C46.6905 91.606 46.7967 91.5883 46.8321 91.3582C46.8675 91.1281 46.9383 90.9334 46.9914 90.721C47.0096 90.6119 47.0625 90.5117 47.1422 90.4352C47.222 90.3586 47.3243 90.3099 47.434 90.2961C47.5534 90.2898 47.6717 90.3227 47.7708 90.3898C47.8699 90.4569 47.9443 90.5545 47.9827 90.6679C48.0611 90.8557 48.1015 91.0573 48.1015 91.2609C48.1015 91.4644 48.0611 91.666 47.9827 91.8539C47.9827 91.8539 47.8765 91.9778 47.8057 91.9424C47.7939 91.9308 47.7846 91.9171 47.7782 91.9019C47.7718 91.8867 47.7685 91.8704 47.7685 91.8539C47.7685 91.8374 47.7718 91.8211 47.7782 91.8059C47.7846 91.7907 47.7939 91.7769 47.8057 91.7654C47.9024 91.5238 47.9447 91.2639 47.9296 91.0042C47.9296 90.8449 47.9296 90.6679 47.6818 90.6324C47.434 90.597 47.3986 90.7741 47.3632 90.9334C47.3323 91.101 47.2909 91.2666 47.2392 91.429C47.1507 91.8008 46.9914 91.9601 46.7082 91.9424C46.425 91.9247 46.2479 91.7654 46.1594 91.4113C46.1458 91.3233 46.1458 91.2338 46.1594 91.1458" fill="white"/>
<path d="M48.0703 89.2343C48.0657 89.4843 48.0115 89.731 47.911 89.96C47.911 89.96 47.8048 90.0662 47.734 90.0485C47.6632 90.0308 47.6455 89.9246 47.734 89.8538C47.8377 89.6143 47.8803 89.3527 47.8579 89.0926C47.8579 88.9156 47.8579 88.7563 47.5924 88.7386C47.3269 88.7209 47.3269 88.8802 47.2738 89.0572C47.2207 89.2343 47.2738 89.4467 47.1499 89.6414C47.1273 89.7498 47.0703 89.8481 46.9874 89.9214C46.9044 89.9948 46.8 90.0394 46.6896 90.0485C46.5679 90.0538 46.4479 90.0183 46.3485 89.9478C46.2492 89.8773 46.1761 89.7757 46.1409 89.6591C46.0711 89.5 46.0352 89.3283 46.0352 89.1546C46.0352 88.9809 46.0711 88.8092 46.1409 88.6501C46.1409 88.6501 46.1409 88.5085 46.2825 88.5262C46.4241 88.5439 46.4241 88.6501 46.371 88.7563C46.3008 88.969 46.3008 89.1986 46.371 89.4113C46.3659 89.4836 46.3888 89.5552 46.4349 89.6112C46.481 89.6671 46.5468 89.7033 46.6188 89.7122C46.7958 89.7122 46.8843 89.7122 46.9197 89.4644C46.9551 89.2166 46.9197 89.0926 47.0436 88.9156C47.1676 88.7386 47.3269 88.3846 47.5747 88.3846C47.8225 88.3846 48.0172 88.5793 48.1057 88.9333C48.1198 89.0331 48.1198 89.1344 48.1057 89.2343" fill="white"/>
<path d="M48.0686 142.551C48.0813 142.629 48.0772 142.709 48.0565 142.784C48.0358 142.86 47.999 142.931 47.9486 142.991C47.8982 143.052 47.8355 143.101 47.7646 143.135C47.6936 143.169 47.6162 143.187 47.5376 143.189C47.2664 143.206 46.9944 143.206 46.7233 143.189C46.5109 143.189 46.2807 143.189 46.2453 143.472C46.2099 143.755 46.0683 143.596 46.0329 143.472C45.9975 143.348 45.8736 143.153 45.6612 143.153C45.6437 143.154 45.6262 143.151 45.6103 143.144C45.5944 143.136 45.5806 143.125 45.5701 143.111C45.5596 143.097 45.5527 143.081 45.55 143.063C45.5474 143.046 45.5491 143.028 45.555 143.012C45.555 143.012 45.555 142.888 45.6435 142.888C45.9975 142.888 45.9975 142.675 45.9975 142.41C45.9972 142.375 46.0097 142.342 46.0325 142.315C46.0554 142.289 46.087 142.273 46.1214 142.268C46.2099 142.268 46.2453 142.268 46.263 142.41C46.2807 142.551 46.263 142.711 46.3515 142.817C46.44 142.923 46.6702 142.817 46.8118 142.817C46.9943 142.835 47.178 142.835 47.3605 142.817C47.7323 142.817 47.7677 142.817 47.7854 142.357C47.7854 142.268 47.7854 142.144 47.7854 142.127C47.7854 142.109 47.9447 142.233 47.9624 142.321C47.9685 142.368 47.9685 142.416 47.9624 142.463" fill="white"/>
<path d="M48.0703 116.583C48.0802 116.664 48.073 116.746 48.0493 116.824C48.0255 116.902 47.9856 116.975 47.9323 117.036C47.8789 117.098 47.8132 117.148 47.7394 117.183C47.6656 117.217 47.5854 117.236 47.5038 117.238C47.2029 117.238 46.902 117.238 46.601 117.238H46.3355C46.1585 117.822 46.0346 117.468 45.8753 117.238C45.716 117.008 45.6806 117.238 45.6274 117.238C45.5743 117.238 45.5035 116.99 45.6274 116.99C45.7514 116.99 46.0169 116.796 45.9992 116.512C45.993 116.489 45.9926 116.465 45.998 116.442C46.0035 116.419 46.0147 116.398 46.0306 116.38C46.0464 116.363 46.0664 116.349 46.0888 116.342C46.1111 116.334 46.1351 116.332 46.1585 116.335C46.247 116.335 46.247 116.335 46.2647 116.512C46.3709 116.955 46.3709 116.955 46.7604 116.955H47.256C47.7162 116.955 47.7339 116.955 47.7693 116.424C47.7693 116.424 47.7694 116.265 47.8579 116.247C47.8925 116.247 47.9261 116.259 47.9522 116.282C47.9783 116.305 47.9951 116.336 47.9995 116.371C48.0104 116.447 48.0104 116.525 47.9995 116.601" fill="white"/>
<path d="M48.0699 129.311C48.0747 129.387 48.0643 129.464 48.0393 129.537C48.0143 129.61 47.9752 129.677 47.9242 129.734C47.8732 129.792 47.8113 129.839 47.7422 129.872C47.673 129.906 47.5979 129.926 47.5212 129.93C47.2025 129.93 46.8662 129.93 46.5476 129.93C46.2289 129.93 46.3351 129.93 46.2997 129.93C46.2643 129.93 46.0873 130.39 45.9457 129.93C45.9457 129.93 45.8395 129.93 45.7687 129.93C45.6979 129.93 45.6094 129.93 45.6094 129.842C45.6094 129.753 45.7333 129.7 45.8395 129.682C45.9457 129.665 45.9988 129.417 46.0342 129.258C46.0696 129.098 46.0342 129.08 46.2112 129.08C46.3882 129.08 46.2997 129.08 46.3351 129.222C46.4237 129.665 46.4237 129.665 46.8308 129.665H47.3795C47.6451 129.665 47.7867 129.541 47.769 129.258C47.7513 128.974 47.769 128.992 47.769 128.992C47.769 128.992 47.9106 129.169 47.9637 129.258V129.381" fill="white"/>
<path d="M47.0435 138.976H46.1938C46.0699 138.976 45.946 138.87 46.0168 138.781C46.0876 138.693 46.0168 138.409 46.0168 138.215C46.0168 138.02 46.0168 138.002 46.0168 137.931C46.0168 137.861 46.1761 137.931 46.2115 138.126C46.2293 138.283 46.308 138.426 46.4304 138.525C46.5529 138.625 46.7095 138.672 46.8665 138.657H47.7869C47.8931 138.657 47.9994 138.657 47.9994 138.834C47.9994 139.011 47.8754 138.958 47.7869 138.958H46.9727" fill="white"/>
<path d="M47.0078 113.061H46.2112C46.0165 113.061 45.9102 112.954 46.0696 112.795C46.2289 112.636 46.0696 112.441 46.0696 112.282C46.0696 112.122 46.0696 112.034 46.1581 112.016C46.2466 111.999 46.2997 112.016 46.2997 112.193C46.3217 112.357 46.4053 112.507 46.5334 112.612C46.6615 112.717 46.8247 112.77 46.9901 112.76C47.2966 112.777 47.604 112.777 47.9105 112.76C48.0167 112.76 48.1053 112.76 48.0876 112.901C48.0699 113.043 47.999 113.043 47.9105 113.043H47.0609" fill="white"/>
<path d="M47.0241 137.117H47.8915C47.9275 137.119 47.9621 137.132 47.9905 137.154C48.019 137.176 48.04 137.207 48.0508 137.241C48.0508 137.347 48.0508 137.4 47.8915 137.4H46.1213C46.0869 137.402 46.0527 137.393 46.0239 137.374C45.9952 137.355 45.9735 137.327 45.962 137.294C45.9558 137.271 45.9554 137.247 45.9609 137.224C45.9664 137.201 45.9775 137.18 45.9934 137.162C46.0092 137.145 46.0293 137.131 46.0516 137.123C46.074 137.115 46.0979 137.113 46.1213 137.117H47.0241Z" fill="white"/>
<path d="M46.6016 108.901H47.823C47.9115 108.901 48.0177 108.901 47.9823 109.042C47.9469 109.184 47.8938 109.149 47.823 109.149H45.3447C45.3101 109.149 45.2765 109.136 45.2504 109.113C45.2243 109.091 45.2075 109.059 45.2031 109.025C45.2031 108.918 45.2916 108.901 45.3447 108.901H46.6016Z" fill="white"/>
<path d="M45.6081 137.259C45.6081 137.383 45.6081 137.471 45.3956 137.471C45.3518 137.467 45.3112 137.446 45.2818 137.413C45.2523 137.381 45.2361 137.338 45.2363 137.294C45.2363 137.17 45.2363 137.082 45.3956 137.064C45.4227 137.062 45.4499 137.065 45.4756 137.073C45.5013 137.082 45.5249 137.096 45.5449 137.114C45.5649 137.133 45.5809 137.155 45.5917 137.18C45.6026 137.205 45.6082 137.232 45.6081 137.259Z" fill="white"/>
</svg>
