<svg width="388" height="98" viewBox="0 0 388 98" fill="none" xmlns="http://www.w3.org/2000/svg">
<path d="M9.00391 27.3516V37H2.14844V8.5625H13.4961C15.6706 8.5625 17.5911 8.96615 19.2578 9.77344C20.9375 10.5677 22.2331 11.707 23.1445 13.1914C24.069 14.6628 24.5312 16.3359 24.5312 18.2109C24.5312 20.9844 23.5352 23.2044 21.543 24.8711C19.5638 26.5247 16.8424 27.3516 13.3789 27.3516H9.00391ZM9.00391 22.0586H13.4961C14.8242 22.0586 15.8333 21.7266 16.5234 21.0625C17.2266 20.3984 17.5781 19.4609 17.5781 18.25C17.5781 16.9219 17.2201 15.8607 16.5039 15.0664C15.7878 14.2721 14.8112 13.8685 13.5742 13.8555H9.00391V22.0586ZM38.7695 26.9609H35.0586V37H28.2031V8.5625H39.3945C42.7669 8.5625 45.4036 9.3112 47.3047 10.8086C49.2057 12.306 50.1562 14.4219 50.1562 17.1562C50.1562 19.1354 49.7526 20.776 48.9453 22.0781C48.151 23.3802 46.901 24.4349 45.1953 25.2422L51.1328 36.707V37H43.7891L38.7695 26.9609ZM35.0586 21.668H39.3945C40.6966 21.668 41.6732 21.3294 42.3242 20.6523C42.9883 19.9622 43.3203 19.0052 43.3203 17.7812C43.3203 16.5573 42.9883 15.6003 42.3242 14.9102C41.6602 14.207 40.6836 13.8555 39.3945 13.8555H35.0586V21.668ZM78.3789 23.3672C78.3789 26.1406 77.8646 28.5951 76.8359 30.7305C75.8073 32.8659 74.3424 34.513 72.4414 35.6719C70.5534 36.8177 68.3984 37.3906 65.9766 37.3906C63.5547 37.3906 61.4062 36.8372 59.5312 35.7305C57.6562 34.6107 56.1914 33.0156 55.1367 30.9453C54.0951 28.875 53.5482 26.4987 53.4961 23.8164V22.2148C53.4961 19.4284 54.0039 16.974 55.0195 14.8516C56.0482 12.7161 57.513 11.069 59.4141 9.91016C61.3281 8.7513 63.5026 8.17188 65.9375 8.17188C68.3464 8.17188 70.4948 8.74479 72.3828 9.89062C74.2708 11.0365 75.7357 12.6706 76.7773 14.793C77.832 16.9023 78.3659 19.3242 78.3789 22.0586V23.3672ZM71.4062 22.1758C71.4062 19.3503 70.931 17.2083 69.9805 15.75C69.043 14.2786 67.6953 13.543 65.9375 13.543C62.5 13.543 60.6836 16.1211 60.4883 21.2773L60.4688 23.3672C60.4688 26.1536 60.931 28.2956 61.8555 29.793C62.7799 31.2904 64.1536 32.0391 65.9766 32.0391C67.7083 32.0391 69.043 31.3034 69.9805 29.832C70.918 28.3607 71.3932 26.2448 71.4062 23.4844V22.1758ZM104.922 27.3711C104.831 29.3503 104.297 31.1016 103.32 32.625C102.344 34.1354 100.97 35.3073 99.1992 36.1406C97.4414 36.974 95.4297 37.3906 93.1641 37.3906C89.4271 37.3906 86.4844 36.1732 84.3359 33.7383C82.1875 31.3034 81.1133 27.8659 81.1133 23.4258V22.0195C81.1133 19.2331 81.5951 16.7982 82.5586 14.7148C83.5352 12.6185 84.9349 11.0039 86.7578 9.87109C88.5807 8.72526 90.6901 8.15234 93.0859 8.15234C96.5365 8.15234 99.3099 9.0638 101.406 10.8867C103.503 12.6966 104.694 15.1966 104.98 18.3867H98.1445C98.0924 16.6549 97.6562 15.4115 96.8359 14.6562C96.0156 13.901 94.7656 13.5234 93.0859 13.5234C91.3802 13.5234 90.1302 14.1615 89.3359 15.4375C88.5417 16.7135 88.125 18.7513 88.0859 21.5508V23.5625C88.0859 26.5964 88.4635 28.7643 89.2188 30.0664C89.987 31.3685 91.3021 32.0195 93.1641 32.0195C94.7396 32.0195 95.944 31.6484 96.7773 30.9062C97.6107 30.1641 98.0534 28.9857 98.1055 27.3711H104.922ZM125.801 24.9492H115.02V31.7266H127.754V37H108.164V8.5625H127.793V13.8555H115.02V19.8516H125.801V24.9492ZM145.215 29.4414C145.215 28.4388 144.857 27.6576 144.141 27.0977C143.438 26.5378 142.194 25.9583 140.41 25.3594C138.626 24.7604 137.168 24.181 136.035 23.6211C132.35 21.8112 130.508 19.3242 130.508 16.1602C130.508 14.5846 130.964 13.1979 131.875 12C132.799 10.7891 134.102 9.85156 135.781 9.1875C137.461 8.51042 139.349 8.17188 141.445 8.17188C143.49 8.17188 145.319 8.53646 146.934 9.26562C148.561 9.99479 149.824 11.0365 150.723 12.3906C151.621 13.7318 152.07 15.2682 152.07 17H145.234C145.234 15.8411 144.876 14.9427 144.16 14.3047C143.457 13.6667 142.5 13.3477 141.289 13.3477C140.065 13.3477 139.095 13.6211 138.379 14.168C137.676 14.7018 137.324 15.3854 137.324 16.2188C137.324 16.9479 137.715 17.612 138.496 18.2109C139.277 18.7969 140.651 19.4089 142.617 20.0469C144.583 20.6719 146.198 21.349 147.461 22.0781C150.534 23.849 152.07 26.2904 152.07 29.4023C152.07 31.8893 151.133 33.8424 149.258 35.2617C147.383 36.681 144.811 37.3906 141.543 37.3906C139.238 37.3906 137.148 36.9805 135.273 36.1602C133.411 35.3268 132.005 34.194 131.055 32.7617C130.117 31.3164 129.648 29.6562 129.648 27.7812H136.523C136.523 29.3047 136.914 30.431 137.695 31.1602C138.49 31.8763 139.772 32.2344 141.543 32.2344C142.676 32.2344 143.568 31.9935 144.219 31.5117C144.883 31.0169 145.215 30.3268 145.215 29.4414ZM170.254 29.4414C170.254 28.4388 169.896 27.6576 169.18 27.0977C168.477 26.5378 167.233 25.9583 165.449 25.3594C163.665 24.7604 162.207 24.181 161.074 23.6211C157.389 21.8112 155.547 19.3242 155.547 16.1602C155.547 14.5846 156.003 13.1979 156.914 12C157.839 10.7891 159.141 9.85156 160.82 9.1875C162.5 8.51042 164.388 8.17188 166.484 8.17188C168.529 8.17188 170.358 8.53646 171.973 9.26562C173.6 9.99479 174.863 11.0365 175.762 12.3906C176.66 13.7318 177.109 15.2682 177.109 17H170.273C170.273 15.8411 169.915 14.9427 169.199 14.3047C168.496 13.6667 167.539 13.3477 166.328 13.3477C165.104 13.3477 164.134 13.6211 163.418 14.168C162.715 14.7018 162.363 15.3854 162.363 16.2188C162.363 16.9479 162.754 17.612 163.535 18.2109C164.316 18.7969 165.69 19.4089 167.656 20.0469C169.622 20.6719 171.237 21.349 172.5 22.0781C175.573 23.849 177.109 26.2904 177.109 29.4023C177.109 31.8893 176.172 33.8424 174.297 35.2617C172.422 36.681 169.85 37.3906 166.582 37.3906C164.277 37.3906 162.188 36.9805 160.312 36.1602C158.451 35.3268 157.044 34.194 156.094 32.7617C155.156 31.3164 154.688 29.6562 154.688 27.7812H161.562C161.562 29.3047 161.953 30.431 162.734 31.1602C163.529 31.8763 164.811 32.2344 166.582 32.2344C167.715 32.2344 168.607 31.9935 169.258 31.5117C169.922 31.0169 170.254 30.3268 170.254 29.4414Z" fill="#673C13"/>
<path d="M2.88 89V68.008H14.976V70.248H5.536V77.352H13.536V79.592H5.536V89H2.88ZM17.8115 89V73.448H19.9875L20.2115 76.264H20.3075C20.8408 75.2827 21.4808 74.504 22.2275 73.928C22.9955 73.352 23.8275 73.064 24.7235 73.064C25.3422 73.064 25.8968 73.1707 26.3875 73.384L25.8755 75.688C25.6195 75.6027 25.3848 75.5387 25.1715 75.496C24.9582 75.4533 24.6915 75.432 24.3715 75.432C23.7102 75.432 23.0168 75.6987 22.2915 76.232C21.5875 76.7653 20.9688 77.6933 20.4355 79.016V89H17.8115ZM34.6408 89.384C33.6808 89.384 32.7634 89.2027 31.8888 88.84C31.0354 88.4773 30.2781 87.9547 29.6168 87.272C28.9554 86.568 28.4221 85.7147 28.0168 84.712C27.6328 83.688 27.4408 82.536 27.4408 81.256C27.4408 79.9547 27.6328 78.8027 28.0168 77.8C28.4221 76.776 28.9554 75.912 29.6168 75.208C30.2781 74.504 31.0354 73.9707 31.8888 73.608C32.7634 73.2453 33.6808 73.064 34.6408 73.064C35.6008 73.064 36.5074 73.2453 37.3608 73.608C38.2354 73.9707 39.0034 74.504 39.6648 75.208C40.3261 75.912 40.8488 76.776 41.2328 77.8C41.6381 78.8027 41.8408 79.9547 41.8408 81.256C41.8408 82.536 41.6381 83.688 41.2328 84.712C40.8488 85.7147 40.3261 86.568 39.6648 87.272C39.0034 87.9547 38.2354 88.4773 37.3608 88.84C36.5074 89.2027 35.6008 89.384 34.6408 89.384ZM34.6408 87.208C35.3021 87.208 35.9101 87.0693 36.4648 86.792C37.0194 86.4933 37.4888 86.088 37.8728 85.576C38.2781 85.0427 38.5874 84.4133 38.8008 83.688C39.0141 82.9627 39.1208 82.152 39.1208 81.256C39.1208 80.36 39.0141 79.5493 38.8008 78.824C38.5874 78.0773 38.2781 77.4373 37.8728 76.904C37.4888 76.3707 37.0194 75.9653 36.4648 75.688C35.9101 75.3893 35.3021 75.24 34.6408 75.24C33.9794 75.24 33.3714 75.3893 32.8168 75.688C32.2621 75.9653 31.7821 76.3707 31.3768 76.904C30.9928 77.4373 30.6941 78.0773 30.4808 78.824C30.2674 79.5493 30.1608 80.36 30.1608 81.256C30.1608 82.152 30.2674 82.9627 30.4808 83.688C30.6941 84.4133 30.9928 85.0427 31.3768 85.576C31.7821 86.088 32.2621 86.4933 32.8168 86.792C33.3714 87.0693 33.9794 87.208 34.6408 87.208ZM45.9365 89V73.448H48.1125L48.3365 75.688H48.4325C49.1152 74.9413 49.8512 74.3227 50.6405 73.832C51.4512 73.32 52.3258 73.064 53.2645 73.064C54.4592 73.064 55.3872 73.3307 56.0485 73.864C56.7312 74.376 57.2325 75.1013 57.5525 76.04C58.3632 75.144 59.1738 74.4293 59.9845 73.896C60.8165 73.3413 61.7125 73.064 62.6725 73.064C64.2725 73.064 65.4565 73.576 66.2245 74.6C67.0138 75.624 67.4085 77.1387 67.4085 79.144V89H64.7845V79.496C64.7845 78.024 64.5498 76.968 64.0805 76.328C63.6112 75.6667 62.8858 75.336 61.9045 75.336C60.7312 75.336 59.4298 76.136 58.0005 77.736V89H55.3765V79.496C55.3765 78.024 55.1418 76.968 54.6725 76.328C54.2032 75.6667 53.4672 75.336 52.4645 75.336C51.2912 75.336 49.9898 76.136 48.5605 77.736V89H45.9365ZM79.13 89V68.008H91.226V70.248H81.786V77.352H89.786V79.592H81.786V89H79.13ZM97.1768 89.384C95.8754 89.384 94.7874 89 93.9128 88.232C93.0594 87.464 92.6328 86.376 92.6328 84.968C92.6328 83.2613 93.3901 81.96 94.9048 81.064C96.4194 80.1467 98.8408 79.5067 102.169 79.144C102.169 78.6533 102.115 78.1733 102.009 77.704C101.923 77.2347 101.763 76.8187 101.529 76.456C101.294 76.0933 100.963 75.8053 100.537 75.592C100.131 75.3573 99.6088 75.24 98.9688 75.24C98.0728 75.24 97.2301 75.4107 96.4408 75.752C95.6514 76.0933 94.9474 76.4773 94.3288 76.904L93.3048 75.08C94.0301 74.6107 94.9154 74.1627 95.9608 73.736C97.0061 73.288 98.1581 73.064 99.4167 73.064C101.315 73.064 102.691 73.6507 103.545 74.824C104.398 75.976 104.825 77.5227 104.825 79.464V89H102.649L102.425 87.144H102.329C101.582 87.7627 100.782 88.296 99.9288 88.744C99.0754 89.1707 98.1581 89.384 97.1768 89.384ZM97.9448 87.272C98.6914 87.272 99.3954 87.1013 100.057 86.76C100.718 86.3973 101.422 85.8747 102.169 85.192V80.872C100.867 81.0427 99.7688 81.2453 98.8728 81.48C97.9981 81.7147 97.2834 81.992 96.7288 82.312C96.1954 82.632 95.8008 83.0053 95.5448 83.432C95.3101 83.8373 95.1927 84.2853 95.1927 84.776C95.1927 85.672 95.4594 86.312 95.9928 86.696C96.5261 87.08 97.1768 87.272 97.9448 87.272ZM109.718 89V73.448H111.894L112.118 76.264H112.214C112.747 75.2827 113.387 74.504 114.134 73.928C114.902 73.352 115.734 73.064 116.63 73.064C117.248 73.064 117.803 73.1707 118.294 73.384L117.782 75.688C117.526 75.6027 117.291 75.5387 117.078 75.496C116.864 75.4533 116.598 75.432 116.278 75.432C115.616 75.432 114.923 75.6987 114.198 76.232C113.494 76.7653 112.875 77.6933 112.342 79.016V89H109.718ZM120.812 89V73.448H122.988L123.212 75.688H123.308C123.99 74.9413 124.726 74.3227 125.516 73.832C126.326 73.32 127.201 73.064 128.14 73.064C129.334 73.064 130.262 73.3307 130.924 73.864C131.606 74.376 132.108 75.1013 132.428 76.04C133.238 75.144 134.049 74.4293 134.86 73.896C135.692 73.3413 136.588 73.064 137.548 73.064C139.148 73.064 140.332 73.576 141.1 74.6C141.889 75.624 142.284 77.1387 142.284 79.144V89H139.66V79.496C139.66 78.024 139.425 76.968 138.956 76.328C138.486 75.6667 137.761 75.336 136.78 75.336C135.606 75.336 134.305 76.136 132.876 77.736V89H130.252V79.496C130.252 78.024 130.017 76.968 129.548 76.328C129.078 75.6667 128.342 75.336 127.34 75.336C126.166 75.336 124.865 76.136 123.436 77.736V89H120.812ZM158.645 89.384C157.813 89.384 157.109 89.256 156.533 89C155.978 88.744 155.52 88.392 155.157 87.944C154.816 87.496 154.57 86.952 154.421 86.312C154.272 85.672 154.197 84.968 154.197 84.2V75.592H151.893V73.608L154.325 73.448L154.645 69.096H156.853V73.448H161.045V75.592H156.853V84.232C156.853 85.192 157.024 85.9387 157.365 86.472C157.728 86.984 158.357 87.24 159.253 87.24C159.53 87.24 159.829 87.1973 160.149 87.112C160.469 87.0267 160.757 86.9307 161.013 86.824L161.525 88.808C161.098 88.9573 160.629 89.0853 160.117 89.192C159.626 89.32 159.136 89.384 158.645 89.384ZM170.172 89.384C169.212 89.384 168.295 89.2027 167.42 88.84C166.567 88.4773 165.809 87.9547 165.148 87.272C164.487 86.568 163.953 85.7147 163.548 84.712C163.164 83.688 162.972 82.536 162.972 81.256C162.972 79.9547 163.164 78.8027 163.548 77.8C163.953 76.776 164.487 75.912 165.148 75.208C165.809 74.504 166.567 73.9707 167.42 73.608C168.295 73.2453 169.212 73.064 170.172 73.064C171.132 73.064 172.039 73.2453 172.892 73.608C173.767 73.9707 174.535 74.504 175.196 75.208C175.857 75.912 176.38 76.776 176.764 77.8C177.169 78.8027 177.372 79.9547 177.372 81.256C177.372 82.536 177.169 83.688 176.764 84.712C176.38 85.7147 175.857 86.568 175.196 87.272C174.535 87.9547 173.767 88.4773 172.892 88.84C172.039 89.2027 171.132 89.384 170.172 89.384ZM170.172 87.208C170.833 87.208 171.441 87.0693 171.996 86.792C172.551 86.4933 173.02 86.088 173.404 85.576C173.809 85.0427 174.119 84.4133 174.332 83.688C174.545 82.9627 174.652 82.152 174.652 81.256C174.652 80.36 174.545 79.5493 174.332 78.824C174.119 78.0773 173.809 77.4373 173.404 76.904C173.02 76.3707 172.551 75.9653 171.996 75.688C171.441 75.3893 170.833 75.24 170.172 75.24C169.511 75.24 168.903 75.3893 168.348 75.688C167.793 75.9653 167.313 76.3707 166.908 76.904C166.524 77.4373 166.225 78.0773 166.012 78.824C165.799 79.5493 165.692 80.36 165.692 81.256C165.692 82.152 165.799 82.9627 166.012 83.688C166.225 84.4133 166.524 85.0427 166.908 85.576C167.313 86.088 167.793 86.4933 168.348 86.792C168.903 87.0693 169.511 87.208 170.172 87.208ZM188.13 95.688C187.767 95.688 187.437 95.656 187.138 95.592C186.839 95.5493 186.562 95.4747 186.306 95.368L186.818 93.288C186.989 93.3307 187.181 93.3733 187.394 93.416C187.607 93.48 187.81 93.512 188.002 93.512C188.898 93.512 189.623 93.192 190.178 92.552C190.754 91.9333 191.202 91.144 191.522 90.184L191.874 89.032L185.634 73.448H188.354L191.522 82.056C191.757 82.7387 192.002 83.464 192.258 84.232C192.535 84.9787 192.791 85.7147 193.026 86.44H193.154C193.389 85.736 193.613 85 193.826 84.232C194.039 83.464 194.253 82.7387 194.466 82.056L197.25 73.448H199.81L193.954 90.28C193.677 91.048 193.367 91.7627 193.026 92.424C192.685 93.0853 192.279 93.6507 191.81 94.12C191.341 94.6107 190.807 94.9947 190.21 95.272C189.613 95.5493 188.919 95.688 188.13 95.688ZM208.735 89.384C207.775 89.384 206.857 89.2027 205.983 88.84C205.129 88.4773 204.372 87.9547 203.711 87.272C203.049 86.568 202.516 85.7147 202.111 84.712C201.727 83.688 201.535 82.536 201.535 81.256C201.535 79.9547 201.727 78.8027 202.111 77.8C202.516 76.776 203.049 75.912 203.711 75.208C204.372 74.504 205.129 73.9707 205.983 73.608C206.857 73.2453 207.775 73.064 208.735 73.064C209.695 73.064 210.601 73.2453 211.455 73.608C212.329 73.9707 213.097 74.504 213.759 75.208C214.42 75.912 214.943 76.776 215.327 77.8C215.732 78.8027 215.935 79.9547 215.935 81.256C215.935 82.536 215.732 83.688 215.327 84.712C214.943 85.7147 214.42 86.568 213.759 87.272C213.097 87.9547 212.329 88.4773 211.455 88.84C210.601 89.2027 209.695 89.384 208.735 89.384ZM208.735 87.208C209.396 87.208 210.004 87.0693 210.559 86.792C211.113 86.4933 211.583 86.088 211.967 85.576C212.372 85.0427 212.681 84.4133 212.895 83.688C213.108 82.9627 213.215 82.152 213.215 81.256C213.215 80.36 213.108 79.5493 212.895 78.824C212.681 78.0773 212.372 77.4373 211.967 76.904C211.583 76.3707 211.113 75.9653 210.559 75.688C210.004 75.3893 209.396 75.24 208.735 75.24C208.073 75.24 207.465 75.3893 206.911 75.688C206.356 75.9653 205.876 76.3707 205.471 76.904C205.087 77.4373 204.788 78.0773 204.575 78.824C204.361 79.5493 204.255 80.36 204.255 81.256C204.255 82.152 204.361 82.9627 204.575 83.688C204.788 84.4133 205.087 85.0427 205.471 85.576C205.876 86.088 206.356 86.4933 206.911 86.792C207.465 87.0693 208.073 87.208 208.735 87.208ZM224.574 89.384C222.91 89.384 221.694 88.872 220.926 87.848C220.18 86.824 219.806 85.3093 219.806 83.304V73.448H222.462V82.952C222.462 84.424 222.686 85.4907 223.134 86.152C223.604 86.792 224.35 87.112 225.374 87.112C226.185 87.112 226.9 86.9093 227.518 86.504C228.137 86.0773 228.82 85.4053 229.566 84.488V73.448H232.19V89H230.014L229.79 86.568H229.694C228.969 87.4213 228.201 88.104 227.39 88.616C226.601 89.128 225.662 89.384 224.574 89.384ZM237.437 89V73.448H239.613L239.837 76.264H239.933C240.466 75.2827 241.106 74.504 241.853 73.928C242.621 73.352 243.453 73.064 244.349 73.064C244.967 73.064 245.522 73.1707 246.013 73.384L245.501 75.688C245.245 75.6027 245.01 75.5387 244.797 75.496C244.583 75.4533 244.317 75.432 243.997 75.432C243.335 75.432 242.642 75.6987 241.917 76.232C241.213 76.7653 240.594 77.6933 240.061 79.016V89H237.437ZM255.193 89V68.008H260.441C263.683 68.008 266.147 68.904 267.833 70.696C269.518 72.488 270.361 75.0587 270.361 78.408C270.361 80.072 270.147 81.5653 269.721 82.888C269.294 84.1893 268.665 85.2987 267.833 86.216C267.001 87.112 265.977 87.8053 264.761 88.296C263.545 88.7653 262.147 89 260.569 89H255.193ZM257.849 86.824H260.249C262.702 86.824 264.537 86.088 265.753 84.616C266.99 83.144 267.609 81.0747 267.609 78.408C267.609 75.7413 266.99 73.704 265.753 72.296C264.537 70.888 262.702 70.184 260.249 70.184H257.849V86.824ZM280.672 89.384C279.712 89.384 278.795 89.2027 277.92 88.84C277.067 88.4773 276.309 87.9547 275.648 87.272C274.987 86.568 274.453 85.7147 274.048 84.712C273.664 83.688 273.472 82.536 273.472 81.256C273.472 79.9547 273.664 78.8027 274.048 77.8C274.453 76.776 274.987 75.912 275.648 75.208C276.309 74.504 277.067 73.9707 277.92 73.608C278.795 73.2453 279.712 73.064 280.672 73.064C281.632 73.064 282.539 73.2453 283.392 73.608C284.267 73.9707 285.035 74.504 285.696 75.208C286.357 75.912 286.88 76.776 287.264 77.8C287.669 78.8027 287.872 79.9547 287.872 81.256C287.872 82.536 287.669 83.688 287.264 84.712C286.88 85.7147 286.357 86.568 285.696 87.272C285.035 87.9547 284.267 88.4773 283.392 88.84C282.539 89.2027 281.632 89.384 280.672 89.384ZM280.672 87.208C281.333 87.208 281.941 87.0693 282.496 86.792C283.051 86.4933 283.52 86.088 283.904 85.576C284.309 85.0427 284.619 84.4133 284.832 83.688C285.045 82.9627 285.152 82.152 285.152 81.256C285.152 80.36 285.045 79.5493 284.832 78.824C284.619 78.0773 284.309 77.4373 283.904 76.904C283.52 76.3707 283.051 75.9653 282.496 75.688C281.941 75.3893 281.333 75.24 280.672 75.24C280.011 75.24 279.403 75.3893 278.848 75.688C278.293 75.9653 277.813 76.3707 277.408 76.904C277.024 77.4373 276.725 78.0773 276.512 78.824C276.299 79.5493 276.192 80.36 276.192 81.256C276.192 82.152 276.299 82.9627 276.512 83.688C276.725 84.4133 277.024 85.0427 277.408 85.576C277.813 86.088 278.293 86.4933 278.848 86.792C279.403 87.0693 280.011 87.208 280.672 87.208ZM298.016 89.384C297.056 89.384 296.138 89.2027 295.264 88.84C294.41 88.4773 293.653 87.9547 292.992 87.272C292.33 86.568 291.797 85.7147 291.392 84.712C291.008 83.688 290.816 82.536 290.816 81.256C290.816 79.9547 291.008 78.8027 291.392 77.8C291.797 76.776 292.33 75.912 292.992 75.208C293.653 74.504 294.41 73.9707 295.264 73.608C296.138 73.2453 297.056 73.064 298.016 73.064C298.976 73.064 299.882 73.2453 300.736 73.608C301.61 73.9707 302.378 74.504 303.04 75.208C303.701 75.912 304.224 76.776 304.608 77.8C305.013 78.8027 305.216 79.9547 305.216 81.256C305.216 82.536 305.013 83.688 304.608 84.712C304.224 85.7147 303.701 86.568 303.04 87.272C302.378 87.9547 301.61 88.4773 300.736 88.84C299.882 89.2027 298.976 89.384 298.016 89.384ZM298.016 87.208C298.677 87.208 299.285 87.0693 299.84 86.792C300.394 86.4933 300.864 86.088 301.248 85.576C301.653 85.0427 301.962 84.4133 302.176 83.688C302.389 82.9627 302.496 82.152 302.496 81.256C302.496 80.36 302.389 79.5493 302.176 78.824C301.962 78.0773 301.653 77.4373 301.248 76.904C300.864 76.3707 300.394 75.9653 299.84 75.688C299.285 75.3893 298.677 75.24 298.016 75.24C297.354 75.24 296.746 75.3893 296.192 75.688C295.637 75.9653 295.157 76.3707 294.752 76.904C294.368 77.4373 294.069 78.0773 293.856 78.824C293.642 79.5493 293.536 80.36 293.536 81.256C293.536 82.152 293.642 82.9627 293.856 83.688C294.069 84.4133 294.368 85.0427 294.752 85.576C295.157 86.088 295.637 86.4933 296.192 86.792C296.746 87.0693 297.354 87.208 298.016 87.208ZM309.312 89V73.448H311.488L311.712 76.264H311.808C312.341 75.2827 312.981 74.504 313.728 73.928C314.496 73.352 315.328 73.064 316.224 73.064C316.842 73.064 317.397 73.1707 317.888 73.384L317.376 75.688C317.12 75.6027 316.885 75.5387 316.672 75.496C316.458 75.4533 316.192 75.432 315.872 75.432C315.21 75.432 314.517 75.6987 313.792 76.232C313.088 76.7653 312.469 77.6933 311.936 79.016V89H309.312ZM324.344 89.384C323.235 89.384 322.179 89.1813 321.176 88.776C320.174 88.3707 319.299 87.8587 318.552 87.24L319.864 85.48C320.547 86.0347 321.24 86.4827 321.944 86.824C322.67 87.1653 323.502 87.336 324.44 87.336C325.464 87.336 326.232 87.1013 326.744 86.632C327.256 86.1627 327.512 85.5867 327.512 84.904C327.512 84.4987 327.406 84.1467 327.192 83.848C326.979 83.5493 326.702 83.2933 326.36 83.08C326.04 82.8453 325.667 82.6427 325.24 82.472C324.814 82.3013 324.387 82.1307 323.96 81.96C323.406 81.768 322.851 81.5547 322.296 81.32C321.742 81.064 321.24 80.7653 320.792 80.424C320.366 80.0613 320.014 79.6453 319.736 79.176C319.459 78.7067 319.32 78.1413 319.32 77.48C319.32 76.8613 319.438 76.2853 319.672 75.752C319.928 75.1973 320.28 74.728 320.728 74.344C321.198 73.9387 321.763 73.6293 322.424 73.416C323.086 73.1813 323.832 73.064 324.664 73.064C325.646 73.064 326.542 73.2347 327.352 73.576C328.184 73.9173 328.899 74.3333 329.496 74.824L328.248 76.488C327.715 76.0827 327.16 75.752 326.584 75.496C326.008 75.24 325.379 75.112 324.696 75.112C323.715 75.112 322.99 75.336 322.52 75.784C322.072 76.232 321.848 76.7547 321.848 77.352C321.848 77.7147 321.944 78.0347 322.136 78.312C322.328 78.568 322.584 78.8027 322.904 79.016C323.224 79.208 323.587 79.3893 323.992 79.56C324.419 79.7093 324.856 79.8693 325.304 80.04C325.859 80.2533 326.414 80.4773 326.968 80.712C327.544 80.9467 328.056 81.2453 328.504 81.608C328.952 81.9493 329.315 82.376 329.592 82.888C329.891 83.4 330.04 84.0187 330.04 84.744C330.04 85.384 329.912 85.9813 329.656 86.536C329.422 87.0907 329.059 87.5813 328.568 88.008C328.099 88.4347 327.502 88.7653 326.776 89C326.072 89.256 325.262 89.384 324.344 89.384ZM337.958 89.384C337.126 89.384 336.422 89.256 335.846 89C335.291 88.744 334.832 88.392 334.47 87.944C334.128 87.496 333.883 86.952 333.734 86.312C333.584 85.672 333.51 84.968 333.51 84.2V75.592H331.206V73.608L333.638 73.448L333.958 69.096H336.166V73.448H340.358V75.592H336.166V84.232C336.166 85.192 336.336 85.9387 336.678 86.472C337.04 86.984 337.67 87.24 338.566 87.24C338.843 87.24 339.142 87.1973 339.462 87.112C339.782 87.0267 340.07 86.9307 340.326 86.824L340.838 88.808C340.411 88.9573 339.942 89.0853 339.43 89.192C338.939 89.32 338.448 89.384 337.958 89.384ZM349.741 89.384C348.695 89.384 347.714 89.2027 346.797 88.84C345.901 88.456 345.111 87.9227 344.429 87.24C343.767 86.536 343.245 85.6827 342.861 84.68C342.477 83.6773 342.285 82.536 342.285 81.256C342.285 79.976 342.477 78.8347 342.861 77.832C343.266 76.808 343.789 75.944 344.429 75.24C345.09 74.536 345.837 74.0027 346.669 73.64C347.501 73.256 348.365 73.064 349.26 73.064C350.242 73.064 351.117 73.2347 351.885 73.576C352.674 73.9173 353.325 74.408 353.837 75.048C354.37 75.688 354.775 76.456 355.053 77.352C355.33 78.248 355.469 79.2507 355.469 80.36C355.469 80.6373 355.458 80.9147 355.437 81.192C355.437 81.448 355.415 81.672 355.373 81.864H344.877C344.983 83.528 345.495 84.8507 346.413 85.832C347.351 86.792 348.567 87.272 350.061 87.272C350.807 87.272 351.49 87.1653 352.109 86.952C352.749 86.7173 353.357 86.4187 353.933 86.056L354.861 87.784C354.178 88.2107 353.421 88.584 352.589 88.904C351.757 89.224 350.807 89.384 349.741 89.384ZM344.845 79.976H353.165C353.165 78.3973 352.823 77.2027 352.141 76.392C351.479 75.56 350.541 75.144 349.325 75.144C348.77 75.144 348.237 75.2507 347.725 75.464C347.234 75.6773 346.786 75.9973 346.381 76.424C345.975 76.8293 345.634 77.3307 345.357 77.928C345.101 78.5253 344.93 79.208 344.845 79.976ZM359.312 95.56V73.448H361.488L361.712 75.24H361.808C362.512 74.6427 363.28 74.1307 364.112 73.704C364.965 73.2773 365.85 73.064 366.768 73.064C367.77 73.064 368.656 73.256 369.424 73.64C370.192 74.0027 370.832 74.536 371.344 75.24C371.856 75.9227 372.24 76.7547 372.496 77.736C372.773 78.696 372.912 79.784 372.912 81C372.912 82.3227 372.73 83.5067 372.368 84.552C372.005 85.576 371.514 86.4507 370.896 87.176C370.277 87.9013 369.562 88.456 368.752 88.84C367.941 89.2027 367.088 89.384 366.192 89.384C365.466 89.384 364.741 89.224 364.016 88.904C363.312 88.584 362.597 88.1467 361.872 87.592L361.936 90.312V95.56H359.312ZM365.744 87.176C366.384 87.176 366.97 87.0373 367.504 86.76C368.058 86.4613 368.528 86.056 368.912 85.544C369.317 85.0107 369.626 84.36 369.84 83.592C370.074 82.824 370.192 81.96 370.192 81C370.192 80.1467 370.117 79.368 369.968 78.664C369.818 77.96 369.573 77.3627 369.232 76.872C368.912 76.36 368.485 75.9653 367.952 75.688C367.44 75.4107 366.821 75.272 366.095 75.272C365.434 75.272 364.762 75.4533 364.08 75.816C363.418 76.1787 362.704 76.7013 361.936 77.384V85.544C362.64 86.1413 363.322 86.568 363.984 86.824C364.645 87.0587 365.232 87.176 365.744 87.176ZM381.126 89.384C380.016 89.384 378.96 89.1813 377.958 88.776C376.955 88.3707 376.08 87.8587 375.334 87.24L376.646 85.48C377.328 86.0347 378.022 86.4827 378.726 86.824C379.451 87.1653 380.283 87.336 381.222 87.336C382.246 87.336 383.014 87.1013 383.526 86.632C384.038 86.1627 384.294 85.5867 384.294 84.904C384.294 84.4987 384.187 84.1467 383.974 83.848C383.76 83.5493 383.483 83.2933 383.142 83.08C382.822 82.8453 382.448 82.6427 382.022 82.472C381.595 82.3013 381.168 82.1307 380.742 81.96C380.187 81.768 379.632 81.5547 379.078 81.32C378.523 81.064 378.022 80.7653 377.574 80.424C377.147 80.0613 376.795 79.6453 376.518 79.176C376.24 78.7067 376.102 78.1413 376.102 77.48C376.102 76.8613 376.219 76.2853 376.454 75.752C376.71 75.1973 377.062 74.728 377.51 74.344C377.979 73.9387 378.544 73.6293 379.206 73.416C379.867 73.1813 380.614 73.064 381.446 73.064C382.427 73.064 383.323 73.2347 384.134 73.576C384.966 73.9173 385.68 74.3333 386.278 74.824L385.03 76.488C384.496 76.0827 383.942 75.752 383.366 75.496C382.79 75.24 382.16 75.112 381.478 75.112C380.496 75.112 379.771 75.336 379.302 75.784C378.854 76.232 378.63 76.7547 378.63 77.352C378.63 77.7147 378.726 78.0347 378.918 78.312C379.11 78.568 379.366 78.8027 379.686 79.016C380.006 79.208 380.368 79.3893 380.774 79.56C381.2 79.7093 381.638 79.8693 382.086 80.04C382.64 80.2533 383.195 80.4773 383.75 80.712C384.326 80.9467 384.838 81.2453 385.286 81.608C385.734 81.9493 386.096 82.376 386.374 82.888C386.672 83.4 386.822 84.0187 386.822 84.744C386.822 85.384 386.694 85.9813 386.438 86.536C386.203 87.0907 385.84 87.5813 385.35 88.008C384.88 88.4347 384.283 88.7653 383.558 89C382.854 89.256 382.043 89.384 381.126 89.384Z" fill="#673C13"/>
</svg>
