<svg width="81" height="37" viewBox="0 0 81 37" fill="none" xmlns="http://www.w3.org/2000/svg">
<path d="M19.7976 7.07973H18.7601C18.6407 7.07973 18.5846 7.04464 18.6197 6.91824C18.876 5.85443 19.1463 4.81168 19.6905 3.83565C20.5682 2.28382 21.9112 1.33763 23.6877 0.940897C24.3766 0.795338 25.0779 0.716007 25.782 0.703936C25.9575 0.703936 26.1506 0.668793 26.3314 0.668793C26.5122 0.668793 26.5474 0.691646 26.507 0.877725C26.4157 1.28324 26.3314 1.69224 26.2155 2.09073C26.0371 2.85627 25.7486 3.59186 25.3589 4.27451C24.689 5.36965 23.6727 6.20988 22.4712 6.66195C21.616 6.975 20.7076 7.11694 19.7976 7.07973Z" fill="#75C111"/>
<path d="M17.3187 7.09906C16.4006 6.36177 15.4667 5.63854 14.9857 4.52382C14.6261 3.67973 14.5047 2.75324 14.6346 1.84499C14.7133 1.29582 14.8247 0.751829 14.9682 0.215918C14.9859 0.142221 15.0093 0.0700303 15.0384 0C15.2376 0.0974272 15.4164 0.232097 15.565 0.396735C16.2466 0.931152 16.8248 1.58556 17.2713 2.32774C17.7792 3.20177 17.9731 4.22315 17.8208 5.22249C17.7313 5.76444 17.6106 6.30073 17.4591 6.82872C17.4293 6.91122 17.4293 7.02358 17.3187 7.09906Z" fill="#75C111"/>
<path d="M12.5439 5.04691C13.513 5.19963 14.3696 5.46996 14.8348 6.39157C14.9356 6.61804 14.999 6.85933 15.0227 7.10605C14.7737 7.15024 14.5183 7.14184 14.2728 7.08137C14.0273 7.0209 13.7972 6.90971 13.5972 6.75496C13.1914 6.45498 12.8855 6.03956 12.7195 5.563C12.6326 5.40197 12.5733 5.22753 12.5439 5.04691Z" fill="#75C111"/>
<path d="M31.984 34.8406C31.984 34.3789 31.9735 33.9628 31.984 33.5362C31.984 33.4239 31.9121 33.2273 32.1069 33.2185C32.3018 33.2097 32.2403 33.4134 32.2403 33.5257C32.2526 34.0699 32.2403 34.6053 32.2403 35.1495C32.2403 35.2426 32.2825 35.3742 32.1368 35.4058C31.9911 35.4374 31.9612 35.3321 31.8928 35.2619C31.5627 34.8599 31.2345 34.4614 30.9062 34.0594C30.8325 33.9786 30.7939 33.854 30.5973 33.8154C30.5973 34.2244 30.6078 34.6246 30.5973 35.0266C30.5973 35.1583 30.6903 35.3777 30.4849 35.3953C30.2286 35.4058 30.3409 35.1583 30.3409 35.0266C30.3304 34.5421 30.3304 34.0593 30.3409 33.5784C30.3409 33.4555 30.2707 33.2887 30.4217 33.2273C30.5727 33.1658 30.6499 33.3309 30.7307 33.4344L31.6874 34.6053C31.7585 34.7135 31.8625 34.796 31.984 34.8406Z" fill="#75C111"/>
<path d="M44.7448 33.9576C44.6309 33.9651 44.5215 34.0056 44.4302 34.0743C44.3389 34.1429 44.2695 34.2367 44.2306 34.3441C44.1917 34.4515 44.185 34.5679 44.2111 34.6791C44.2373 34.7903 44.2953 34.8914 44.378 34.9702C44.4607 35.049 44.5646 35.102 44.6769 35.1227C44.7892 35.1434 44.9052 35.131 45.0106 35.0869C45.116 35.0428 45.2062 34.9689 45.2703 34.8744C45.3344 34.7798 45.3696 34.6686 45.3715 34.5544C45.3749 34.4726 45.3607 34.391 45.33 34.3151C45.2992 34.2391 45.2527 34.1706 45.1933 34.1141C45.134 34.0576 45.0633 34.0144 44.986 33.9874C44.9087 33.9605 44.8264 33.9503 44.7448 33.9576ZM45.6226 34.6247C45.6226 34.83 45.6331 35.0372 45.6226 35.2426C45.591 35.8166 45.2223 36.1203 44.636 36.043C44.4394 36.0318 44.2486 35.9714 44.0813 35.8675C44.0304 35.8271 43.9883 35.785 44.0304 35.7236C44.0461 35.6983 44.0708 35.68 44.0996 35.6725C44.1283 35.665 44.1588 35.6688 44.1849 35.6832C44.3982 35.8031 44.6437 35.8534 44.887 35.8271C44.9768 35.8276 45.0647 35.8016 45.1397 35.7522C45.2147 35.7029 45.2733 35.6324 45.3083 35.5498C45.3382 35.4673 45.3786 35.3742 45.3189 35.304C45.2592 35.2338 45.1539 35.2724 45.0714 35.304C44.8756 35.3852 44.6576 35.3951 44.4552 35.3321C44.3513 35.3044 44.2541 35.2561 44.1692 35.1902C44.0843 35.1243 44.0135 35.042 43.961 34.9482C43.9084 34.8544 43.8752 34.751 43.8633 34.6442C43.8514 34.5374 43.8611 34.4292 43.8917 34.3262C43.9562 34.1182 44.0997 33.9438 44.2914 33.8404C44.4831 33.7371 44.7076 33.7129 44.9169 33.7732C45.0171 33.8033 45.1137 33.8445 45.2048 33.8961C45.3084 33.9576 45.3593 33.9576 45.3803 33.8347C45.384 33.8196 45.3908 33.8054 45.4004 33.7933C45.4101 33.7811 45.4222 33.7711 45.4361 33.7641C45.45 33.7571 45.4652 33.7532 45.4807 33.7526C45.4962 33.7521 45.5117 33.7549 45.526 33.7609C45.5535 33.7708 45.5772 33.7892 45.5933 33.8136C45.6094 33.838 45.6172 33.8669 45.6155 33.8961C45.6278 34.1331 45.6278 34.3789 45.6278 34.6247H45.6226Z" fill="#75C111"/>
<path d="M66.4371 33.9575C66.3595 33.9523 66.2817 33.9625 66.208 33.9875C66.1344 34.0126 66.0665 34.0521 66.0083 34.1037C65.9501 34.1553 65.9028 34.2179 65.869 34.288C65.8352 34.358 65.8158 34.4341 65.8117 34.5118C65.8076 34.5895 65.819 34.6671 65.8452 34.7403C65.8715 34.8136 65.9121 34.8808 65.9646 34.9382C66.0171 34.9956 66.0804 35.042 66.151 35.0746C66.2216 35.1073 66.2979 35.1256 66.3757 35.1284C66.4568 35.1409 66.5397 35.136 66.6188 35.1141C66.698 35.0922 66.7715 35.0538 66.8347 35.0014C66.8979 34.9489 66.9493 34.8837 66.9854 34.81C67.0216 34.7363 67.0417 34.6558 67.0445 34.5737C67.051 34.4919 67.0398 34.4097 67.0117 34.3326C66.9836 34.2555 66.9392 34.1853 66.8816 34.1269C66.8239 34.0684 66.7544 34.0231 66.6778 33.9938C66.6011 33.9646 66.519 33.9523 66.4371 33.9575ZM67.299 34.6457C67.299 34.8511 67.3113 35.0565 67.299 35.2618C67.2692 35.8166 66.9093 36.1132 66.3335 36.0518C66.1387 36.0399 65.9491 35.9841 65.7788 35.8886C65.7174 35.8464 65.6559 35.785 65.7174 35.713C65.7372 35.6895 65.765 35.6742 65.7955 35.67C65.826 35.6658 65.8569 35.6729 65.8824 35.6902C66.0945 35.8131 66.342 35.8608 66.5846 35.8253C66.6966 35.826 66.8046 35.7838 66.8865 35.7075C66.9684 35.6311 67.018 35.5264 67.0252 35.4146C67.0252 35.3215 66.9936 35.239 66.8707 35.2706C66.7882 35.2917 66.6952 35.3303 66.6144 35.3531C66.4391 35.3978 66.2543 35.3872 66.0852 35.3228C65.9162 35.2584 65.7711 35.1433 65.67 34.9933C65.5787 34.8497 65.5356 34.6808 65.5466 34.511C65.5577 34.3413 65.6224 34.1794 65.7314 34.0488C65.8534 33.9153 66.012 33.8207 66.1875 33.7766C66.3629 33.7326 66.5474 33.7412 66.718 33.8013C66.7879 33.8256 66.8536 33.8605 66.9128 33.9049C66.9848 33.9453 67.048 33.9769 67.0673 33.8627C67.0692 33.8445 67.0754 33.8269 67.0855 33.8116C67.0955 33.7962 67.1091 33.7835 67.1252 33.7746C67.1412 33.7656 67.1591 33.7606 67.1775 33.7601C67.1958 33.7596 67.2141 33.7635 67.2306 33.7715C67.2582 33.7827 67.2814 33.8028 67.2966 33.8284C67.3118 33.8541 67.3182 33.884 67.3148 33.9137C67.3148 34.1436 67.3148 34.3999 67.3148 34.6457H67.299Z" fill="#75C111"/>
<path d="M72.656 35.2004C72.7374 35.2052 72.8189 35.1934 72.8956 35.1657C72.9723 35.138 73.0426 35.095 73.1021 35.0394C73.1617 34.9837 73.2094 34.9166 73.2423 34.842C73.2751 34.7674 73.2925 34.6868 73.2933 34.6053C73.2985 34.5242 73.2874 34.4428 73.2607 34.366C73.2339 34.2892 73.1921 34.2185 73.1376 34.1581C73.0832 34.0978 73.0171 34.0489 72.9434 34.0145C72.8698 33.98 72.79 33.9607 72.7087 33.9576C72.6241 33.9485 72.5386 33.958 72.4581 33.9853C72.3775 34.0126 72.3039 34.0571 72.2422 34.1157C72.1806 34.1743 72.1325 34.2457 72.1012 34.3248C72.0699 34.4039 72.0561 34.4888 72.061 34.5737C72.0542 34.655 72.0648 34.7369 72.0919 34.8138C72.119 34.8908 72.162 34.9611 72.2182 35.0203C72.2744 35.0795 72.3424 35.1261 72.4179 35.1571C72.4933 35.1881 72.5745 35.2029 72.656 35.2004ZM73.5338 34.2366V35.2426C73.5338 35.3549 73.4618 35.4988 73.3582 35.3953C73.1827 35.232 73.0598 35.3444 72.9053 35.3865C72.7547 35.4395 72.592 35.4484 72.4365 35.412C72.281 35.3756 72.1391 35.2955 72.0276 35.1811C71.914 35.074 71.8339 34.9362 71.7971 34.7844C71.7603 34.6326 71.7684 34.4734 71.8204 34.3262C71.85 34.2223 71.8997 34.1252 71.9668 34.0405C72.0339 33.9559 72.117 33.8853 72.2114 33.8328C72.3058 33.7803 72.4097 33.7469 72.517 33.7346C72.6243 33.7222 72.733 33.7312 72.8369 33.7609C73.2582 33.854 73.2476 33.854 73.2792 33.466C73.2898 33.3431 73.1862 33.1149 73.3916 33.1149C73.6268 33.1149 73.5145 33.3607 73.525 33.4941C73.546 33.7416 73.525 33.9979 73.525 34.2454L73.5338 34.2366Z" fill="#75C111"/>
<path d="M77.5348 34.3999C77.3996 34.0488 77.268 33.947 76.9502 33.9576C76.6325 33.9681 76.5377 34.0699 76.4552 34.4105C76.8144 34.4474 77.1765 34.4439 77.5348 34.3999ZM77.0433 35.2004C77.2 35.2122 77.3559 35.1687 77.4839 35.0775C77.5453 35.0371 77.5963 35.0371 77.6366 35.0881C77.677 35.139 77.6577 35.1899 77.6173 35.2426C77.3909 35.4673 76.8888 35.4988 76.564 35.304C76.4015 35.2118 76.2753 35.0669 76.2063 34.8933C76.1373 34.7196 76.1298 34.5276 76.1849 34.349C76.2332 34.1671 76.3418 34.0069 76.4929 33.8947C76.6441 33.7824 76.8288 33.7248 77.017 33.7311C77.1969 33.7335 77.3709 33.7955 77.5119 33.9073C77.6529 34.0191 77.753 34.1744 77.7964 34.349C77.8473 34.5842 77.8175 34.6351 77.5594 34.6351C77.2733 34.6457 76.9854 34.6351 76.6975 34.6351C76.615 34.6351 76.5026 34.6158 76.4728 34.7282C76.4626 34.7701 76.4638 34.814 76.4761 34.8553C76.4885 34.8966 76.5116 34.9339 76.543 34.9634C76.5995 35.042 76.6751 35.105 76.7626 35.1464C76.8501 35.1879 76.9467 35.2065 77.0433 35.2004Z" fill="#75C111"/>
<path d="M51.7808 34.4C51.6456 34.0489 51.5122 33.947 51.1927 33.9576C50.8732 33.9681 50.7819 34.0699 50.7012 34.4105C51.0603 34.4474 51.4224 34.4439 51.7808 34.4ZM51.2541 33.7329C51.3862 33.7366 51.5158 33.7701 51.6331 33.8309C51.7504 33.8917 51.8525 33.9782 51.9318 34.084C51.9866 34.1439 52.0259 34.2164 52.0461 34.2951C52.0663 34.3738 52.0668 34.4562 52.0476 34.5351C51.9739 34.7107 51.7808 34.6176 51.6351 34.6282C51.3788 34.6387 51.1225 34.6281 50.8644 34.6387C50.6889 34.6387 50.6696 34.7405 50.731 34.8757C50.8024 34.999 50.9126 35.0951 51.0444 35.1491C51.1762 35.2031 51.3222 35.2119 51.4595 35.1741C51.5452 35.1477 51.6281 35.113 51.7071 35.0705C51.7808 35.0301 51.851 35.0073 51.8931 35.1004C51.9352 35.1934 51.8615 35.2356 51.8001 35.2759C51.6387 35.3753 51.452 35.4262 51.2624 35.4225C51.0729 35.4187 50.8884 35.3605 50.731 35.2548C50.5861 35.1476 50.4792 34.9969 50.4258 34.8247C50.3724 34.6525 50.3752 34.4678 50.4339 34.2973C50.4926 34.1269 50.6041 33.9796 50.7523 33.8768C50.9004 33.774 51.0774 33.7212 51.2576 33.7258L51.2541 33.7329Z" fill="#75C111"/>
<path d="M48.6875 33.9066C48.7542 33.8725 48.8228 33.842 48.8929 33.8153C49.5512 33.5871 49.962 33.854 49.9813 34.5316C49.9813 34.7282 49.9918 34.9143 49.9813 35.1074C49.9725 35.2197 50.0533 35.4251 49.8496 35.4163C49.646 35.4076 49.7355 35.2109 49.7355 35.0881C49.725 34.902 49.7355 34.7089 49.7355 34.5123C49.7145 34.1208 49.581 33.9698 49.2422 33.9575C49.1675 33.9507 49.0922 33.96 49.0214 33.9846C48.9506 34.0092 48.8858 34.0487 48.8314 34.1004C48.7771 34.1521 48.7344 34.2148 48.7063 34.2843C48.6781 34.3538 48.6651 34.4285 48.6682 34.5035C48.6454 34.7475 48.6682 34.995 48.6577 35.2513C48.6577 35.3233 48.6454 35.4058 48.5453 35.4163C48.4453 35.4269 48.4014 35.3321 48.4014 35.2408V33.2571C48.4014 33.1658 48.4207 33.0816 48.5453 33.0816C48.67 33.0816 48.6454 33.1658 48.6577 33.2571C48.6332 33.4738 48.6433 33.6931 48.6875 33.9066Z" fill="#75C111"/>
<path d="M60.2824 34.593V35.2513C60.2824 35.3742 60.1894 35.4866 60.0964 35.3865C59.9647 35.2426 59.8717 35.3233 59.7453 35.3637C59.1607 35.5603 58.7482 35.2935 58.7166 34.6966C58.6973 34.4193 58.7166 34.1437 58.7166 33.8645C58.7162 33.835 58.7265 33.8064 58.7455 33.7838C58.7645 33.7613 58.791 33.7463 58.8202 33.7417C58.8386 33.7381 58.8575 33.7386 58.8758 33.743C58.894 33.7475 58.911 33.7559 58.9257 33.7676C58.9404 33.7792 58.9523 33.7939 58.9608 33.8107C58.9692 33.8274 58.974 33.8458 58.9746 33.8645C58.9746 34.163 58.9641 34.4509 58.9746 34.7423C58.9743 34.8258 58.9958 34.9079 59.037 34.9806C59.0782 35.0532 59.1377 35.1138 59.2095 35.1564C59.2814 35.1989 59.3631 35.222 59.4466 35.2233C59.5301 35.2245 59.6125 35.204 59.6856 35.1636C59.7835 35.1254 59.8668 35.0573 59.9239 34.9691C59.9809 34.8809 60.0087 34.777 60.0034 34.6721C60.0034 34.4246 60.0034 34.1683 60.0034 33.9225C60.0034 33.8295 60.0139 33.7364 60.1385 33.7364C60.2632 33.7364 60.2702 33.84 60.2702 33.933C60.2702 34.1472 60.2702 34.3736 60.2702 34.5878L60.2824 34.593Z" fill="#75C111"/>
<path d="M55.9582 35.2005C56.042 35.2123 56.1273 35.2063 56.2087 35.183C56.29 35.1597 56.3656 35.1197 56.4304 35.0653C56.4764 35.0279 56.5105 34.978 56.5286 34.9216C56.5466 34.8651 56.5479 34.8047 56.5322 34.7476C56.4936 34.6159 56.369 34.6457 56.2654 34.6457C56.1139 34.6458 55.9625 34.6563 55.8125 34.6773C55.7604 34.685 55.7127 34.7106 55.6774 34.7497C55.6422 34.7888 55.6217 34.8389 55.6194 34.8915C55.6095 34.9498 55.6207 35.0097 55.651 35.0605C55.6812 35.1113 55.7285 35.1497 55.7844 35.1688C55.8415 35.1837 55.8996 35.1942 55.9582 35.2005ZM56.8113 34.7985V35.1074C56.7991 35.3743 56.7991 35.3865 56.5322 35.304C56.4392 35.2724 56.4006 35.3321 56.3268 35.3549C56.1319 35.4392 55.9122 35.4461 55.7124 35.3743C55.6121 35.3458 55.5236 35.2856 55.4603 35.2027C55.397 35.1198 55.3623 35.0186 55.3613 34.9143C55.3651 34.8102 55.4033 34.7102 55.4701 34.6301C55.5368 34.5501 55.6282 34.4944 55.73 34.4719C55.9223 34.4291 56.1194 34.4114 56.3163 34.4193C56.3988 34.4193 56.5112 34.4298 56.5305 34.3175C56.5392 34.2746 56.5362 34.2302 56.522 34.1889C56.5079 34.1475 56.4829 34.1107 56.4497 34.0822C56.3865 34.0292 56.3124 33.9906 56.2326 33.969C56.1529 33.9475 56.0694 33.9436 55.988 33.9576C55.8832 33.9596 55.7806 33.988 55.6896 34.0401C55.6176 34.0699 55.5141 34.1331 55.4737 34.0085C55.4439 33.9278 55.5351 33.8856 55.5983 33.854C55.8004 33.75 56.0297 33.7108 56.2549 33.7417C56.606 33.8031 56.7815 33.9786 56.8096 34.3262C56.8201 34.4807 56.8096 34.6457 56.8096 34.7985H56.8113Z" fill="#75C111"/>
<path d="M62.7979 34.6457H62.6434C62.4678 34.6562 62.2642 34.6668 62.2537 34.9143C62.2449 35.0898 62.3959 35.211 62.6627 35.2004C62.708 35.2022 62.7534 35.1986 62.7979 35.1899C62.8948 35.1833 62.9856 35.1404 63.0523 35.0698C63.119 34.9992 63.1566 34.906 63.1577 34.8089C63.1384 34.5421 62.9102 34.6861 62.7979 34.6457ZM63.4333 34.7984V35.1495C63.4333 35.3953 63.4334 35.4058 63.1665 35.3128C63.0542 35.2724 63.0033 35.3444 62.9313 35.3742C62.8331 35.4139 62.728 35.4333 62.6221 35.4315C62.5163 35.4297 62.4119 35.4066 62.3151 35.3637C62.2229 35.3294 62.1442 35.2664 62.0904 35.184C62.0366 35.1017 62.0107 35.0042 62.0164 34.906C62.0221 34.8078 62.0591 34.714 62.122 34.6384C62.185 34.5628 62.2705 34.5094 62.366 34.486C62.5716 34.4404 62.7825 34.4232 62.9927 34.435C63.1682 34.4245 63.228 34.3122 63.1472 34.1682C63.1138 34.11 63.0658 34.0616 63.0079 34.0277C62.95 33.9938 62.8842 33.9757 62.8172 33.9751C62.6366 33.952 62.4533 33.9831 62.2905 34.0646C62.2273 34.0962 62.1361 34.1261 62.1045 34.0242C62.0729 33.9224 62.1466 33.8908 62.2168 33.8592C62.4434 33.739 62.7052 33.7029 62.9558 33.7574C63.2543 33.8399 63.4 33.9751 63.4281 34.27C63.4281 34.4456 63.4281 34.6299 63.4281 34.7967L63.4333 34.7984Z" fill="#75C111"/>
<path d="M39.1055 34.593V35.2513C39.1055 35.3637 39.0125 35.4989 38.9195 35.3865C38.7878 35.232 38.7158 35.3128 38.5912 35.3549C37.9961 35.5709 37.5765 35.304 37.5379 34.6861C37.5274 34.4421 37.5379 34.1946 37.5379 33.9383C37.5379 33.8452 37.5379 33.7417 37.6608 33.7417C37.7837 33.7417 37.7942 33.8347 37.8047 33.9278V34.6299C37.8153 35.0319 37.9487 35.1952 38.2664 35.2057C38.6175 35.225 38.8317 35.0302 38.8528 34.6299C38.8615 34.3842 38.8527 34.1384 38.8615 33.8821C38.8588 33.8633 38.8604 33.8442 38.8661 33.8261C38.8718 33.808 38.8815 33.7915 38.8945 33.7776C38.9075 33.7638 38.9234 33.7531 38.9411 33.7463C38.9588 33.7394 38.9778 33.7367 38.9967 33.7382C39.0897 33.7382 39.1196 33.8084 39.1196 33.8909C39.109 34.1384 39.1091 34.3631 39.1091 34.593H39.1055Z" fill="#75C111"/>
<path d="M34.4871 34.6158V35.2671C34.4871 35.3689 34.3748 35.4725 34.3239 35.4005C34.1606 35.153 34.0149 35.3496 33.871 35.39C33.3794 35.5234 32.9775 35.2882 32.9266 34.8037C32.8967 34.5175 32.916 34.2191 32.9072 33.926C32.9072 33.8329 32.916 33.7399 33.0389 33.7399C33.1618 33.7399 33.1635 33.8417 33.1635 33.9347V34.6369C33.174 35.0371 33.318 35.1916 33.6357 35.2021C33.9535 35.2127 34.18 35.0266 34.201 34.658C34.2116 34.4104 34.201 34.1647 34.2115 33.9066C34.2115 33.8153 34.2414 33.7311 34.366 33.7434C34.4468 33.7522 34.4784 33.8259 34.4784 33.9066C34.4784 34.1348 34.4784 34.3701 34.4784 34.6088L34.4871 34.6158Z" fill="#75C111"/>
<path d="M53.3291 34.5737V33.9154C53.3291 33.7732 53.4011 33.6714 53.545 33.7838C53.689 33.8961 53.7925 33.8154 53.9154 33.7838C54.5105 33.6293 54.8809 33.9066 54.9002 34.5123V35.2671C54.9002 35.3373 54.8914 35.4216 54.7879 35.4304C54.6843 35.4391 54.6439 35.3496 54.6439 35.2548V34.507C54.6334 34.1366 54.5 33.9926 54.191 33.9804C54.1209 33.9683 54.0491 33.9713 53.9803 33.9893C53.9115 34.0072 53.8472 34.0396 53.7919 34.0843C53.7366 34.129 53.6915 34.1849 53.6595 34.2484C53.6275 34.3119 53.6094 34.3816 53.6064 34.4526C53.5849 34.7153 53.5785 34.9791 53.5871 35.2426C53.5871 35.3233 53.5872 35.4356 53.4643 35.4356C53.3414 35.4356 53.3396 35.3338 53.3396 35.2601C53.3291 35.0143 53.3291 34.7896 53.3291 34.5737Z" fill="#75C111"/>
<path d="M41.8606 34.5737V33.9154C41.8606 33.7732 41.9413 33.6714 42.0765 33.7926C42.1695 33.8856 42.2204 33.8961 42.3328 33.8347C42.5168 33.731 42.7334 33.7015 42.9384 33.7522C43.0554 33.7744 43.163 33.8313 43.2473 33.9155C43.3315 33.9997 43.3884 34.1074 43.4106 34.2244C43.4496 34.5741 43.4566 34.9267 43.4317 35.2777C43.4349 35.2969 43.4332 35.3165 43.4269 35.3349C43.4206 35.3533 43.4099 35.3699 43.3956 35.3831C43.3813 35.3963 43.364 35.4058 43.3452 35.4107C43.3264 35.4155 43.3066 35.4157 43.2877 35.4111C43.2581 35.408 43.2308 35.3933 43.2118 35.3704C43.1928 35.3474 43.1835 35.3179 43.1859 35.2882C43.1859 35.0407 43.1859 34.7949 43.1754 34.5369C43.1649 34.1068 43.0209 33.9523 42.6716 33.9523C42.3223 33.9523 42.1274 34.1489 42.1063 34.5474C42.0958 34.7528 42.1063 34.9581 42.1063 35.1635C42.1063 35.2566 42.1379 35.4006 41.9834 35.4111C41.829 35.4216 41.8518 35.2882 41.8518 35.1864C41.8518 34.9898 41.8518 34.7844 41.8518 34.579L41.8606 34.5737Z" fill="#75C111"/>
<path d="M75.7264 34.809V35.2935C75.7272 35.3231 75.7171 35.352 75.698 35.3746C75.6789 35.3972 75.6522 35.4121 75.6229 35.4164C75.6043 35.4194 75.5852 35.4181 75.5672 35.4127C75.5492 35.4072 75.5326 35.3976 75.5189 35.3847C75.5051 35.3718 75.4946 35.3559 75.4879 35.3383C75.4813 35.3207 75.4788 35.3017 75.4807 35.283C75.4684 35.139 75.4684 34.9845 75.4684 34.8406C75.4684 34.6966 75.4807 34.5738 75.4684 34.4509C75.4403 34.1121 75.3051 33.9699 75.019 33.9576C74.9483 33.9456 74.8758 33.9487 74.8063 33.9665C74.7368 33.9843 74.6719 34.0165 74.6156 34.061C74.5594 34.1056 74.5131 34.1614 74.4798 34.2249C74.4464 34.2884 74.4268 34.3582 74.4221 34.4298C74.4089 34.6214 74.4054 34.8136 74.4116 35.0056V35.2672C74.4116 35.3497 74.3818 35.4199 74.2887 35.4199C74.2701 35.4211 74.2515 35.4181 74.2342 35.4113C74.2168 35.4044 74.2013 35.3938 74.1885 35.3802C74.1758 35.3666 74.1662 35.3504 74.1605 35.3327C74.1547 35.315 74.1529 35.2962 74.1553 35.2777V34.3526C74.1553 34.1893 74.1553 34.0348 74.1641 33.8716C74.1764 33.7557 74.28 33.696 74.3396 33.768C74.452 33.9014 74.5345 33.8716 74.6661 33.8189C75.2928 33.5819 75.7194 33.8593 75.7335 34.507C75.7335 34.6001 75.7335 34.7037 75.7335 34.8037L75.7264 34.809Z" fill="#75C111"/>
<path d="M68.5684 35.2004C68.6489 35.2146 68.7316 35.2112 68.8107 35.1906C68.8898 35.17 68.9636 35.1327 69.027 35.081C69.0905 35.0294 69.1421 34.9648 69.1783 34.8915C69.2146 34.8182 69.2347 34.738 69.2372 34.6562C69.2688 34.256 69.0617 33.9786 68.6737 33.9541C68.593 33.9427 68.5108 33.9489 68.4326 33.9721C68.3544 33.9954 68.2822 34.0351 68.2208 34.0888C68.1593 34.1424 68.1101 34.2086 68.0765 34.2829C68.0429 34.3571 68.0257 34.4378 68.026 34.5193C68.0134 34.6002 68.0177 34.6828 68.0387 34.7619C68.0596 34.841 68.0967 34.9149 68.1477 34.9789C68.1987 35.0429 68.2624 35.0956 68.3348 35.1338C68.4072 35.1719 68.4867 35.1946 68.5684 35.2004ZM69.504 34.5737C69.5096 34.7474 69.463 34.9188 69.3702 35.0657C69.2774 35.2126 69.1427 35.3284 68.9834 35.3979C68.8242 35.4675 68.6477 35.4877 68.4769 35.456C68.306 35.4242 68.1486 35.342 68.0249 35.2199C67.9013 35.0978 67.8171 34.9414 67.7833 34.771C67.7494 34.6005 67.7674 34.4238 67.835 34.2637C67.9026 34.1036 68.0166 33.9675 68.1624 33.8728C68.3081 33.7782 68.4789 33.7294 68.6527 33.7329C68.764 33.7312 68.8746 33.7518 68.978 33.7933C69.0813 33.8349 69.1753 33.8966 69.2546 33.9748C69.3338 34.0531 69.3967 34.1464 69.4395 34.2492C69.4824 34.352 69.5043 34.4624 69.504 34.5737Z" fill="#75C111"/>
<path d="M71.2401 34.593C71.2486 34.5117 71.2396 34.4294 71.2139 34.3518C71.1881 34.2741 71.1461 34.2029 71.0906 34.1428C71.0351 34.0826 70.9675 34.035 70.8921 34.0031C70.8168 33.9712 70.7355 33.9556 70.6538 33.9576C70.5729 33.949 70.4912 33.9578 70.4141 33.9835C70.337 34.0093 70.2664 34.0513 70.2069 34.1068C70.1475 34.1622 70.1007 34.2298 70.0696 34.3049C70.0386 34.38 70.0241 34.4609 70.027 34.5422C70.0159 34.6269 70.0235 34.713 70.0493 34.7945C70.0751 34.876 70.1186 34.9508 70.1765 35.0136C70.2345 35.0764 70.3056 35.1257 70.3847 35.158C70.4638 35.1903 70.5491 35.2048 70.6344 35.2005C70.7154 35.2053 70.7965 35.1929 70.8723 35.1641C70.9481 35.1353 71.0169 35.0907 71.0742 35.0333C71.1315 34.9758 71.1759 34.9069 71.2045 34.831C71.2331 34.7551 71.2452 34.674 71.2401 34.593ZM70.6239 33.7329C70.7357 33.7284 70.8472 33.7462 70.952 33.7852C71.0569 33.8242 71.1529 33.8837 71.2346 33.9601C71.3162 34.0365 71.3819 34.1284 71.4277 34.2305C71.4736 34.3325 71.4987 34.4426 71.5017 34.5544C71.5035 34.669 71.4826 34.7828 71.44 34.8893C71.3974 34.9957 71.3341 35.0925 71.2537 35.1742C71.1733 35.2559 71.0775 35.3208 70.9718 35.3651C70.866 35.4094 70.7526 35.4322 70.6379 35.4321C70.5228 35.438 70.4077 35.4205 70.2996 35.3807C70.1914 35.3409 70.0924 35.2795 70.0086 35.2004C69.9248 35.1213 69.8579 35.026 69.8119 34.9203C69.766 34.8146 69.7419 34.7007 69.7412 34.5854C69.7405 34.4701 69.7632 34.3559 69.8078 34.2497C69.8525 34.1434 69.9182 34.0473 70.001 33.9671C70.0838 33.8869 70.182 33.8244 70.2897 33.7832C70.3973 33.7421 70.5123 33.7231 70.6274 33.7276L70.6239 33.7329Z" fill="#75C111"/>
<path d="M78.746 33.7223C78.9276 33.7305 79.1062 33.7721 79.2727 33.8452C79.2939 33.8514 79.3121 33.8652 79.3238 33.884C79.3355 33.9028 79.3397 33.9253 79.3358 33.947C79.3335 33.9623 79.3282 33.9769 79.32 33.9899C79.3119 34.0029 79.3011 34.0142 79.2884 34.0229C79.2758 34.0316 79.2614 34.0376 79.2463 34.0406C79.2312 34.0436 79.2157 34.0434 79.2007 34.0401C79.0189 33.9662 78.8208 33.942 78.6266 33.9699C78.4914 33.9892 78.3914 34.0401 78.3686 34.1735C78.3457 34.3069 78.4406 34.3876 78.5652 34.4192C78.7407 34.4719 78.9163 34.5035 79.0918 34.5544C79.1798 34.5656 79.2614 34.6066 79.323 34.6704C79.3846 34.7342 79.4226 34.8172 79.4306 34.9055C79.4347 35.0027 79.4067 35.0986 79.3509 35.1782C79.295 35.2579 79.2145 35.3169 79.1217 35.3461C78.9659 35.4049 78.7993 35.4298 78.6332 35.4193C78.467 35.4087 78.305 35.3628 78.1579 35.2847C78.0965 35.2531 78.0544 35.211 78.086 35.1495C78.0907 35.1358 78.0984 35.1233 78.1086 35.1129C78.1187 35.1026 78.1311 35.0947 78.1448 35.0898C78.1584 35.0849 78.173 35.0832 78.1875 35.0847C78.2019 35.0862 78.2158 35.091 78.2281 35.0986C78.4233 35.1804 78.6348 35.2158 78.846 35.2022C78.99 35.1916 79.1217 35.1407 79.1533 34.9968C79.1849 34.8529 79.0409 34.7704 78.9058 34.7388C78.7706 34.7072 78.6389 34.6878 78.5073 34.6475C78.2088 34.565 78.0754 34.4333 78.086 34.2051C78.0965 33.9769 78.2404 33.8364 78.5178 33.7645C78.5925 33.7436 78.6688 33.7295 78.746 33.7223Z" fill="#75C111"/>
<path d="M80.3054 35.4427C80.1019 35.4336 79.9021 35.3847 79.7173 35.2987C79.7037 35.2937 79.6913 35.2859 79.6808 35.2759C79.6703 35.2659 79.6619 35.2539 79.6562 35.2406C79.6505 35.2273 79.6475 35.2129 79.6475 35.1984C79.6475 35.1839 79.6505 35.1695 79.6562 35.1562C79.6619 35.1429 79.6703 35.1308 79.6808 35.1208C79.6913 35.1108 79.7037 35.1031 79.7173 35.098C79.7309 35.0929 79.7454 35.0907 79.7599 35.0914C79.7744 35.0922 79.7885 35.0958 79.8016 35.1022C79.9949 35.1882 80.2069 35.2238 80.4177 35.2057C80.5617 35.1952 80.6951 35.1443 80.7162 34.9898C80.7373 34.8353 80.6038 34.7756 80.4599 34.7335C80.3159 34.6914 80.1404 34.6615 79.9771 34.6212C79.8883 34.6058 79.8074 34.5608 79.7474 34.4936C79.6875 34.4263 79.6522 34.3407 79.6471 34.2507C79.6419 34.1534 79.6692 34.057 79.7249 33.9769C79.7805 33.8968 79.8612 33.8375 79.9543 33.8084C80.0875 33.7551 80.2304 33.7304 80.3737 33.7359C80.5171 33.7413 80.6576 33.7768 80.7864 33.84C80.8391 33.8593 80.9005 33.8909 80.8795 33.9629C80.8763 33.9816 80.8684 33.9992 80.8565 34.014C80.8446 34.0288 80.8291 34.0403 80.8114 34.0473C80.7938 34.0544 80.7746 34.0568 80.7558 34.0543C80.737 34.0518 80.7191 34.0445 80.7039 34.0331C80.5375 33.9637 80.3547 33.9436 80.1773 33.9751C80.117 33.9717 80.0576 33.9905 80.0103 34.0281C79.963 34.0657 79.9312 34.1193 79.921 34.1788C79.9017 34.3227 79.9929 34.3929 80.1264 34.4245C80.2598 34.4561 80.4248 34.486 80.5687 34.5281C80.8777 34.6106 81.0093 34.7528 81.0006 34.9582C80.9918 35.1636 80.8461 35.3181 80.5564 35.3918C80.4743 35.4156 80.3903 35.4327 80.3054 35.4427Z" fill="#75C111"/>
<path d="M36.8152 35.4427C36.7509 35.4521 36.6853 35.4479 36.6228 35.4301C36.5603 35.4124 36.5022 35.3816 36.4525 35.3398C36.4027 35.298 36.3624 35.2462 36.3341 35.1876C36.3059 35.1291 36.2903 35.0653 36.2886 35.0003C36.2692 34.7844 36.278 34.5597 36.278 34.342C36.278 34.1665 36.3201 33.9909 36.0533 33.9435C36.0345 33.941 36.017 33.9324 36.0036 33.919C35.9902 33.9055 35.9816 33.888 35.9792 33.8691C35.9768 33.8503 35.9807 33.8312 35.9903 33.8148C35.9999 33.7984 36.0147 33.7856 36.0323 33.7785C36.185 33.7153 36.2886 33.6451 36.2886 33.4696C36.2891 33.4547 36.293 33.4401 36.2999 33.427C36.3069 33.4139 36.3167 33.4024 36.3287 33.3937C36.3407 33.3849 36.3545 33.3789 36.3692 33.3763C36.3838 33.3736 36.3989 33.3743 36.4132 33.3783C36.4518 33.387 36.5045 33.4099 36.5045 33.4608C36.4939 33.7469 36.68 33.7469 36.8959 33.7469C36.9111 33.7445 36.9267 33.7452 36.9416 33.7492C36.9565 33.7532 36.9703 33.7603 36.9822 33.77C36.9941 33.7798 37.0039 33.7919 37.0108 33.8057C37.0176 33.8195 37.0215 33.8345 37.0222 33.8499C37.0228 33.8653 37.0201 33.8806 37.0144 33.8949C37.0087 33.9092 37 33.9221 36.9889 33.9328C36.9778 33.9435 36.9645 33.9517 36.95 33.9569C36.9355 33.962 36.9201 33.9641 36.9047 33.9629C36.7924 33.9839 36.6484 33.933 36.5677 34.0331C36.4869 34.1331 36.5256 34.2928 36.5256 34.4157C36.5132 34.5623 36.5132 34.7097 36.5256 34.8564C36.5449 35.1548 36.587 35.1952 36.9047 35.2074C36.9767 35.2074 37.0697 35.1653 37.0908 35.2584C37.1207 35.3812 37.0083 35.3936 36.9275 35.4129C36.8896 35.4208 36.8521 35.4307 36.8152 35.4427Z" fill="#75C111"/>
<path d="M57.9913 35.4251C57.663 35.4251 57.4769 35.2619 57.4646 34.9634C57.4453 34.7177 57.4647 34.4719 57.4541 34.2244C57.4541 34.1524 57.4541 34.0278 57.4331 34.019C56.9608 33.8768 57.2487 33.7732 57.4454 33.6398C57.484 33.61 57.4541 33.4854 57.484 33.4344C57.5472 33.3432 57.6806 33.3432 57.6893 33.4432C57.7122 33.7013 57.8439 33.761 58.0721 33.7417C58.0899 33.7374 58.1085 33.7375 58.1263 33.7418C58.1441 33.7462 58.1607 33.7547 58.1746 33.7667C58.1885 33.7787 58.1993 33.7938 58.2062 33.8108C58.2131 33.8278 58.2158 33.8462 58.2142 33.8645C58.2037 33.9383 58.1422 33.947 58.0808 33.9576C57.7209 34.0401 57.721 34.0401 57.721 34.3683V34.7598C57.7315 35.139 57.7315 35.1495 58.1528 35.1811C58.2142 35.1811 58.2774 35.1811 58.2862 35.2513C58.295 35.3215 58.2458 35.3549 58.1844 35.3742C58.1237 35.4028 58.0582 35.42 57.9913 35.4251Z" fill="#75C111"/>
<path d="M47.6197 35.4427C47.5559 35.4472 47.4918 35.4387 47.4314 35.4177C47.371 35.3966 47.3156 35.3635 47.2685 35.3203C47.2213 35.2771 47.1834 35.2247 47.1572 35.1663C47.131 35.108 47.1169 35.045 47.1159 34.981C47.0966 34.723 47.1159 34.4544 47.1053 34.1876C47.1053 34.1173 47.137 34.0243 47.0545 33.9944C46.7771 33.9014 46.6753 33.8189 47.0351 33.7066C47.1054 33.6855 47.0966 33.6153 47.1053 33.5608C47.1159 33.4713 47.1159 33.3677 47.2405 33.3853C47.3652 33.4028 47.3634 33.4976 47.3722 33.5801C47.395 33.8154 47.5881 33.7136 47.7233 33.7452C47.8058 33.7452 47.869 33.7855 47.869 33.8768C47.869 33.9681 47.8058 33.9593 47.7444 33.9821C47.3845 34.0629 47.3845 34.0629 47.3845 34.3912V34.9178C47.3845 35.1337 47.4863 35.2478 47.7233 35.2268C47.8058 35.2162 47.9304 35.1548 47.9392 35.2882C47.948 35.4216 47.7953 35.4023 47.7145 35.4409C47.6831 35.4352 47.6509 35.4358 47.6197 35.4427Z" fill="#75C111"/>
<path d="M39.7324 34.593V33.8908C39.7324 33.7873 39.8255 33.6855 39.8957 33.7557C40.0607 33.9312 40.1941 33.7978 40.3486 33.768C40.4293 33.7557 40.5329 33.6855 40.5838 33.8101C40.6347 33.9347 40.5224 33.9418 40.4294 33.9646C40.3042 33.9813 40.19 34.045 40.1101 34.1428C40.0302 34.2406 39.9906 34.3652 39.9993 34.4912C39.9799 34.7353 39.9888 34.9828 39.9888 35.2391C39.9888 35.3321 39.9694 35.4251 39.8448 35.4146C39.7518 35.4058 39.743 35.3216 39.743 35.2391C39.7324 35.0144 39.7324 34.7967 39.7324 34.5808V34.593Z" fill="#75C111"/>
<path d="M60.867 34.5649V33.9084C60.867 33.7539 60.96 33.6732 61.0917 33.7943C61.2585 33.94 61.3708 33.7627 61.5042 33.7539C61.5955 33.7539 61.6991 33.703 61.7184 33.8259C61.7412 33.9172 61.6569 33.94 61.5762 33.9488C61.2462 33.9997 61.1338 34.2261 61.1145 34.514C61.0917 34.7616 61.104 35.0073 61.104 35.2636C61.104 35.3461 61.0724 35.4181 60.9793 35.4076C60.8863 35.397 60.867 35.325 60.867 35.2531C60.8565 35.0389 60.867 34.8002 60.867 34.5649Z" fill="#75C111"/>
<path d="M41.243 34.5843V35.2865C41.2457 35.3162 41.2378 35.3458 41.2208 35.3702C41.2038 35.3946 41.1787 35.4122 41.15 35.4199C41.0569 35.4287 41.0183 35.3673 41.0183 35.2865V33.8822C41.0151 33.8525 41.0225 33.8226 41.0392 33.7979C41.0559 33.7731 41.0809 33.7551 41.1096 33.747C41.2009 33.7364 41.243 33.7979 41.243 33.8822V34.5843Z" fill="#75C111"/>
<path d="M64.2647 34.2244V35.2321C64.2647 35.304 64.2454 35.3865 64.1436 35.3637C64.0699 35.3549 64.0594 35.283 64.0594 35.2321V33.208C64.0576 33.1936 64.0589 33.1789 64.0634 33.1651C64.0678 33.1512 64.0752 33.1385 64.0851 33.1278C64.0949 33.1171 64.107 33.1087 64.1205 33.1031C64.1339 33.0976 64.1484 33.095 64.1629 33.0956C64.2455 33.0956 64.2647 33.1571 64.2647 33.208C64.2647 33.5591 64.256 33.8856 64.2647 34.2244Z" fill="#75C111"/>
<path d="M41.1299 33.3923C41.1082 33.3925 41.0866 33.3884 41.0665 33.3802C41.0463 33.372 41.0281 33.3598 41.0127 33.3445C40.9973 33.3291 40.9851 33.3108 40.9769 33.2907C40.9687 33.2706 40.9646 33.249 40.9649 33.2273C40.9648 33.2089 40.9685 33.1907 40.9759 33.1739C40.9833 33.1571 40.9941 33.1419 41.0077 33.1295C41.0212 33.1171 41.0372 33.1077 41.0546 33.1019C41.0721 33.0961 41.0905 33.0939 41.1088 33.0956C41.1297 33.0908 41.1514 33.0904 41.1724 33.0946C41.1934 33.0988 41.2133 33.1074 41.2307 33.1198C41.2481 33.1323 41.2627 33.1483 41.2735 33.1668C41.2842 33.1854 41.291 33.2059 41.2931 33.2273C41.2931 33.3361 41.2229 33.373 41.1299 33.3923Z" fill="#75C111"/>
<path d="M14.5017 24.996H28.3646L27.5149 28.3173L25.282 31.047L23.0701 31.8967L15.9956 32.0705L14.4648 31.995L14.5017 24.996Z" fill="#F7CE09"/>
<path d="M77.5087 25.9913C77.5087 27.1394 77.5087 28.2857 77.5087 29.432C77.5192 30.2272 78.0476 30.4853 78.7638 30.243C78.8937 30.1956 79.0201 30.1254 79.1465 30.0675L79.2237 30.0341L79.3045 30.0447C79.3742 30.0549 79.4403 30.0825 79.4967 30.1248C79.5532 30.1671 79.5981 30.2228 79.6275 30.2869V30.2974V30.3062C79.7416 30.5239 79.8926 30.7977 79.7925 31.047C79.6924 31.2963 79.3975 31.3981 79.1623 31.4771C78.6236 31.6635 78.0423 31.6892 77.4893 31.5509C76.5818 31.3227 76.0657 30.6538 76.0235 29.7234C75.9955 29.0932 76.013 28.463 76.013 27.8293V25.9826H74.9088L74.8825 25.7175C74.8562 25.4489 74.7824 25.0574 74.986 24.8397C75.1897 24.6221 75.5127 24.6642 75.7655 24.6642H76.013V24.45C76.013 24.2288 76.0235 24.0059 76.013 23.7847C75.9972 23.4582 76.1886 23.2879 76.5063 23.2703C76.7608 23.2563 77.1119 23.2089 77.312 23.3967C77.5121 23.5846 77.4876 23.9234 77.4876 24.1797C77.4861 24.2691 77.4785 24.3582 77.4648 24.4465C77.4516 24.5277 77.448 24.6102 77.4542 24.6923C77.5363 24.6976 77.6187 24.6941 77.7 24.6817C77.7954 24.6688 77.8916 24.663 77.9879 24.6642C78.3004 24.673 78.6128 24.673 78.9235 24.6642H78.9323C79.2834 24.6642 79.5046 24.8397 79.4695 25.2119V25.2259C79.466 25.2774 79.466 25.329 79.4695 25.3804V25.3892C79.488 25.5522 79.442 25.716 79.3413 25.8456C79.2741 25.8996 79.1968 25.9395 79.1139 25.963C79.0309 25.9865 78.9441 25.9932 78.8586 25.9826H78.8498C78.4162 25.9896 77.9633 26.0071 77.5087 25.9913Z" fill="#231F20"/>
<path d="M32.2841 27.4589H36.2111C36.0964 26.9825 35.8091 26.5656 35.4047 26.289C35.0002 26.0124 34.5076 25.8957 34.0221 25.9614C33.1882 26.058 32.4386 26.611 32.2841 27.4589ZM32.2841 28.6877C32.3587 29.0775 32.5555 29.4335 32.8459 29.7041C33.6569 30.466 35.1175 30.4923 35.9917 29.8235C36.0952 29.7287 36.2041 29.6479 36.3111 29.5531L36.5166 29.3776L36.7061 29.5672C36.7816 29.6391 36.8536 29.7146 36.9255 29.7919C37.0677 29.9481 37.2538 30.1272 37.2363 30.3571C37.2187 30.5871 36.994 30.7486 36.8202 30.8838C36.3729 31.2411 35.8396 31.4747 35.2737 31.5613C34.3134 31.7141 33.3813 31.6456 32.5194 31.1629C32.0277 30.9037 31.61 30.5235 31.306 30.0582C31.0019 29.5929 30.8214 29.0578 30.7814 28.5034C30.6999 27.8061 30.8219 27.1001 31.1325 26.4705C31.3943 25.9466 31.789 25.5005 32.2771 25.1768C33.0475 24.681 33.9783 24.4989 34.8787 24.6677C35.6045 24.7784 36.2726 25.128 36.7772 25.6613C37.2818 26.1945 37.5941 26.8808 37.6646 27.6116C37.6857 27.8029 37.6857 27.9925 37.6945 28.1856C37.7021 28.2522 37.6948 28.3196 37.673 28.383C37.6512 28.4463 37.6155 28.504 37.5686 28.5518C37.5216 28.5996 37.4646 28.6363 37.4016 28.6592C37.3387 28.6821 37.2714 28.6906 37.2047 28.6842H37.1889C37.0274 28.6754 36.8694 28.6842 36.7079 28.6842H32.2876L32.2841 28.6877Z" fill="#231F20"/>
<path d="M41.8003 31.5894C41.7624 31.5842 41.724 31.5842 41.6862 31.5894C41.5296 31.6211 41.3669 31.5947 41.2284 31.5152C41.0898 31.4358 40.9849 31.3087 40.9331 31.1576C40.0296 29.1494 39.1168 27.1446 38.1946 25.1434L38.0752 24.8853L38.3297 24.7572C38.3967 24.7137 38.4732 24.6872 38.5527 24.6799C38.8318 24.6624 39.1987 24.622 39.4462 24.7712C39.6937 24.9204 39.8078 25.2347 39.9184 25.4734C40.5457 26.859 41.1736 28.243 41.802 29.6251C42.4814 28.1523 43.1625 26.6777 43.8243 25.1943C43.9999 24.8046 44.279 24.5904 44.7179 24.6677C44.7687 24.672 44.8198 24.672 44.8706 24.6677C44.9864 24.6628 45.1019 24.6851 45.2076 24.7326L45.3358 24.7923L45.3691 24.9292C45.3893 25.0087 45.3893 25.092 45.3691 25.1715C45.3508 25.2327 45.3255 25.2916 45.2937 25.347C45.2822 25.3646 45.2728 25.3835 45.2655 25.4032C44.4054 27.2938 43.5329 29.1792 42.6745 31.0698C42.4972 31.4595 42.2286 31.6649 41.8003 31.5894Z" fill="#231F20"/>
<path d="M50.657 28.693V28.6543H48.7979C48.5884 28.6554 48.3798 28.6813 48.1765 28.7316C47.6867 28.8509 47.4637 29.1476 47.5462 29.6497C47.6094 30.0271 47.8974 30.1974 48.2327 30.2939C48.6697 30.4172 49.1331 30.4111 49.5668 30.2764C50.2198 30.085 50.657 29.6356 50.657 28.9317V28.693ZM50.657 31.0979C50.3281 31.3393 49.9477 31.5009 49.5457 31.5701C48.8598 31.7123 48.1483 31.6687 47.4848 31.4437C46.414 31.047 45.84 30.0394 46.163 28.9247C46.3596 28.2471 46.8353 27.8328 47.4936 27.6133C47.8913 27.4897 48.3061 27.4305 48.7224 27.4378H50.6534C50.6514 27.3203 50.6426 27.2031 50.6271 27.0867V27.0762C50.6084 26.806 50.4938 26.5513 50.3038 26.3581C50.1139 26.165 49.8613 26.0461 49.5914 26.0229C48.7976 25.8843 47.9809 26.0551 47.3093 26.5004C47.2484 26.5568 47.1762 26.5994 47.0975 26.6255C47.0187 26.6515 46.9353 26.6603 46.8528 26.6513C46.6773 26.6145 46.5965 26.4758 46.5018 26.3406C46.3824 26.1545 46.2226 25.9404 46.2788 25.7087C46.335 25.477 46.5878 25.3576 46.7844 25.2382C47.8122 24.6571 49.0209 24.4835 50.1707 24.752C51.3293 25.0118 52.0139 25.8649 52.0753 27.0446C52.1052 27.5958 52.0841 28.1453 52.0841 28.6965V31.054C52.0841 31.4157 51.8963 31.6158 51.5294 31.6018C51.3925 31.6018 51.2503 31.6018 51.1151 31.593C51.0462 31.5956 50.9775 31.5835 50.9136 31.5575C50.8497 31.5315 50.7922 31.4921 50.7447 31.442C50.6707 31.3435 50.638 31.2201 50.6534 31.0979H50.657Z" fill="#231F20"/>
<path d="M57.449 27.5799C57.9072 28.1347 58.3601 28.6929 58.8148 29.2511C59.2695 29.8094 59.7206 30.3606 60.1718 30.9171C60.2209 30.9803 60.2631 31.054 60.3069 31.1224L60.5948 31.5754H60.0576C59.7346 31.5754 59.4134 31.5859 59.0886 31.5754C58.994 31.5747 58.9018 31.546 58.8235 31.4929C58.7341 31.4231 58.657 31.3388 58.5954 31.2436C57.8511 30.336 57.105 29.4337 56.3466 28.5384C56.1711 28.6841 55.9955 28.8649 55.82 29.0141C55.6444 29.1634 55.2723 29.4144 55.1547 29.6321C55.1489 29.6445 55.1442 29.6575 55.1406 29.6707C55.1116 29.8309 55.1116 29.995 55.1406 30.1552C55.1511 30.2678 55.1547 30.381 55.1511 30.494C55.1564 30.5952 55.1564 30.6966 55.1511 30.7977C55.1486 30.8322 55.1486 30.8668 55.1511 30.9013C55.1775 31.14 55.1687 31.3735 54.9335 31.5069C54.6385 31.6825 54.3612 31.5964 54.0557 31.5842C54.0003 31.5825 53.9459 31.5695 53.8957 31.5458C53.8456 31.5222 53.8008 31.4885 53.7643 31.4469C53.7277 31.4052 53.7001 31.3564 53.6832 31.3037C53.6663 31.2509 53.6605 31.1952 53.666 31.14V22.8051C53.666 22.6015 53.6327 22.3504 53.7907 22.1942C53.9486 22.038 54.219 22.0731 54.4279 22.0731H54.6263C54.6974 22.0627 54.7699 22.0693 54.838 22.0923C54.9061 22.1152 54.9678 22.1539 55.0182 22.2053C55.0685 22.2566 55.1059 22.3191 55.1275 22.3876C55.1491 22.4562 55.1542 22.5288 55.1424 22.5997V22.6102C55.138 22.6933 55.138 22.7765 55.1424 22.8595V27.7572C56.1781 26.8468 57.2115 25.931 58.2425 25.01C58.3549 24.8929 58.492 24.8025 58.6439 24.7454C58.7958 24.6883 58.9586 24.6659 59.1202 24.6799C59.3607 24.6799 59.6047 24.6711 59.8487 24.6711H60.5983L60.0471 25.182L58.3074 26.79C58.0108 27.0533 57.7405 27.3236 57.449 27.5799Z" fill="#231F20"/>
<path d="M63.4117 25.3383C63.9489 24.8502 64.6247 24.6712 65.362 24.6255C65.4287 24.6157 65.4968 24.6212 65.561 24.6414C65.6253 24.6617 65.6842 24.6963 65.7332 24.7426C65.7822 24.7889 65.8201 24.8457 65.844 24.9087C65.8678 24.9718 65.8771 25.0394 65.8711 25.1066V25.1206C65.8623 25.3119 65.8711 25.5033 65.8711 25.6964V25.8614L65.7289 25.9474C65.6311 26.0064 65.52 26.0396 65.4059 26.044C65.3462 26.044 65.2865 26.044 65.2303 26.044H65.2198C64.2087 26.1247 63.5626 26.7023 63.4872 27.7275C63.4608 28.1189 63.4696 28.5121 63.4696 28.9054C63.4696 29.6075 63.4696 30.3097 63.4696 31.026C63.4696 31.3981 63.2818 31.6123 62.8956 31.6018C62.7534 31.6018 62.6094 31.6018 62.4655 31.6018C62.3948 31.6056 62.3242 31.594 62.2585 31.568C62.1927 31.5419 62.1334 31.502 62.0845 31.4508C62.0045 31.3476 61.9679 31.2172 61.9827 31.0874C61.9827 30.968 61.9933 30.8539 61.9933 30.7363C61.9933 28.9334 61.9933 27.1306 61.9933 25.3277C61.9631 25.1682 61.9892 25.0032 62.067 24.8608C62.2004 24.6852 62.4409 24.6852 62.6428 24.6852H62.6867C62.8885 24.6852 63.1501 24.6536 63.3046 24.8134C63.4591 24.9731 63.4117 25.1557 63.4117 25.3383Z" fill="#231F20"/>
<path d="M72.1619 30.961C71.7727 31.2717 71.3145 31.4842 70.826 31.5807C70.195 31.7091 69.5416 31.6734 68.9283 31.4771C68.458 31.3402 68.0372 31.0705 67.7164 30.7002C67.3957 30.3299 67.1886 29.8749 67.1202 29.3899C67.0849 29.2164 67.0649 29.0402 67.0605 28.8632V24.7712L67.2905 24.7221C67.6165 24.6589 67.951 24.6536 68.2788 24.7063L68.5369 24.7396V28.6017C68.5527 29.6549 69.0354 30.2378 70.0993 30.2852C71.1086 30.3326 71.9495 29.7866 72.0759 28.7474C72.1023 28.5201 72.1146 28.2915 72.1128 28.0627C72.1128 27.1165 72.1128 26.1703 72.1128 25.2224C72.1023 25.1486 72.1087 25.0734 72.1315 25.0025C72.1544 24.9316 72.1931 24.8668 72.2446 24.813C72.2962 24.7592 72.3594 24.7179 72.4293 24.6921C72.4992 24.6663 72.574 24.6568 72.6481 24.6642C72.8957 24.6554 73.2292 24.6185 73.4206 24.8046C73.6119 24.9907 73.5961 25.3119 73.5961 25.5559V31.1594C73.6019 31.2581 73.5702 31.3554 73.5074 31.4319C73.4446 31.5084 73.3553 31.5584 73.2573 31.5719H73.245H73.2292C73.0045 31.5807 72.7763 31.5807 72.5499 31.5719C72.4973 31.5688 72.446 31.5545 72.3994 31.53C72.3527 31.5054 72.3119 31.4712 72.2795 31.4297C72.2088 31.333 72.1763 31.2136 72.1882 31.0944C72.1689 31.054 72.1637 31.0049 72.1619 30.961Z" fill="#231F20"/>
<path d="M19.3697 9.80069V7.9206C19.3605 7.86144 19.3639 7.80102 19.3797 7.74326C19.3954 7.68549 19.4231 7.63168 19.461 7.58532C19.5077 7.54711 19.5616 7.51854 19.6195 7.50137C19.6773 7.48419 19.738 7.47872 19.798 7.48525C20.0017 7.48525 20.2983 7.45013 20.4546 7.60637C20.6108 7.7626 20.588 8.02417 20.588 8.22078V11.7616C20.5893 11.8104 20.5804 11.859 20.5619 11.9042C20.5434 11.9494 20.5157 11.9902 20.4805 12.024C20.4453 12.0579 20.4034 12.0841 20.3575 12.1008C20.3117 12.1176 20.2628 12.1246 20.2141 12.1214C20.0648 12.1214 19.9139 12.1126 19.7647 12.1214C19.7105 12.1299 19.6552 12.1255 19.6031 12.1088C19.5509 12.0921 19.5035 12.0634 19.4644 12.025C19.4253 11.9866 19.3958 11.9396 19.3781 11.8878C19.3605 11.8359 19.3552 11.7807 19.3627 11.7264C19.3662 11.0857 19.3697 10.4432 19.3697 9.80069Z" fill="#231F20"/>
<path d="M15.1919 30.4396C15.1919 30.4519 15.1919 30.466 15.2006 30.4765C15.2094 30.487 15.2006 30.4765 15.2006 30.487V30.5063C15.2024 30.5108 15.2024 30.5159 15.2006 30.5204V30.545C15.1796 30.8061 15.1796 31.0685 15.2006 31.3297C15.2024 31.3354 15.2024 31.3415 15.2006 31.3472V31.356C15.2004 31.3649 15.202 31.3737 15.2052 31.382C15.2085 31.3903 15.2134 31.3979 15.2196 31.4043C15.2258 31.4107 15.2332 31.4157 15.2414 31.4192C15.2496 31.4227 15.2585 31.4245 15.2674 31.4245C17.3739 31.4245 19.4699 31.4508 21.5677 31.4157C23.1898 31.4107 24.7479 30.7822 25.9195 29.6602C27.0908 28.5765 27.7893 27.076 27.8645 25.482C27.9397 23.8881 27.3856 22.3284 26.3215 21.1392C25.445 20.1339 24.2713 19.4336 22.9703 19.1397C22.5013 19.0253 22.0206 18.9664 21.5379 18.9642H14.5283C14.478 18.9616 14.4276 18.9616 14.3773 18.9642C14.1017 18.9905 13.9086 18.8431 13.935 18.5517C13.9367 18.5195 13.9367 18.4873 13.935 18.4551C13.9142 18.2547 13.9279 18.0523 13.9753 17.8565L14.0034 17.7705C14.0075 17.7585 14.0147 17.7478 14.0243 17.7395C14.0338 17.7312 14.0454 17.7255 14.0579 17.7231L14.1474 17.709C14.3623 17.6839 14.5791 17.678 14.7952 17.6915C16.9807 17.6915 19.1627 17.6915 21.3447 17.6915C22.1212 17.6884 22.8942 17.7948 23.6409 18.0075C24.7385 18.3197 25.753 18.8719 26.6111 19.6242C27.7466 20.581 28.5524 21.8707 28.9143 23.3107C29.5147 25.7683 29.0196 28.0381 27.3712 29.9814C26.1439 31.4325 24.4181 32.3718 22.5332 32.6146C22.0646 32.6731 21.5921 32.6949 21.1201 32.6796C18.9082 32.6691 16.6963 32.6796 14.4827 32.6796H14.0982C14.0867 32.6795 14.0754 32.6765 14.0653 32.671C14.0552 32.6655 14.0466 32.6576 14.0403 32.648L13.9964 32.576C13.9316 32.4584 13.9081 32.3224 13.9297 32.1898V25.3119C13.9222 25.2586 13.9276 25.2042 13.9454 25.1534C13.9632 25.1025 13.993 25.0567 14.0322 25.0197C14.0714 24.9828 14.1189 24.9557 14.1707 24.9409C14.2225 24.9261 14.2771 24.9239 14.3299 24.9345C14.4949 24.9503 14.6652 24.9117 14.8373 24.9345C14.9361 24.9423 15.0325 24.9686 15.1216 25.0118L15.2972 25.0943C15.3064 25.0987 15.3145 25.1051 15.3209 25.113C15.3273 25.121 15.3319 25.1302 15.3342 25.1402C15.3366 25.1501 15.3367 25.1605 15.3345 25.1704C15.3324 25.1804 15.328 25.1897 15.3218 25.1978L15.2129 25.3347C15.2048 25.3441 15.1999 25.3558 15.1989 25.3681C15.1975 25.3915 15.1975 25.415 15.1989 25.4383V30.4467L15.1919 30.4396Z" fill="#231F20"/>
<path d="M14.3646 7.49403L14.5015 7.48348C14.5887 7.46163 14.6798 7.45929 14.768 7.47658C14.8563 7.49388 14.9398 7.53039 15.0123 7.58356C15.0454 7.61187 15.0733 7.64574 15.0948 7.68363C15.1554 7.81413 15.1715 7.9609 15.1405 8.10141C15.1405 8.14354 15.1299 8.19094 15.1299 8.23307V12.9447C15.1399 13.3841 15.058 13.8207 14.8897 14.2266C14.7213 14.6326 14.4701 14.9989 14.1521 15.3023C13.8347 15.6166 13.4564 15.8627 13.0404 16.0254C12.6244 16.1881 12.1795 16.264 11.7331 16.2485C11.0679 16.2312 10.4022 16.2499 9.73893 16.3047C8.37096 16.4254 7.04697 16.8489 5.86287 17.5445C4.67876 18.2401 3.66418 19.1903 2.89265 20.3264C2.19756 21.3589 1.7324 22.5287 1.52865 23.7566C1.40593 24.4617 1.37407 25.1797 1.43385 25.893C1.57263 27.6686 2.25827 29.3576 3.39644 30.7275C4.91316 32.5742 6.87751 33.6468 9.23334 34.026C9.60604 34.0857 9.98293 34.1156 10.3604 34.1155H28.582C28.7226 34.0989 28.8651 34.1097 29.0016 34.1472L29.149 34.198V35.304H28.6224C22.7328 35.304 16.8433 35.2935 10.9537 35.304C9.52562 35.3269 8.10581 35.0834 6.76695 34.586C5.53404 34.1146 4.40211 33.4128 3.43158 32.5181C2.57759 31.7321 1.86503 30.8052 1.32503 29.7778C0.590907 28.3575 0.201234 26.7843 0.1875 25.1855C0.191566 23.7721 0.495488 22.3756 1.07924 21.0883C1.84906 19.4394 3.03677 18.0206 4.52446 16.9726C6.01215 15.9247 7.74807 15.2841 9.55987 15.1145C10.3122 15.0586 11.0668 15.0404 11.8209 15.06C12.3212 15.0606 12.8052 14.8821 13.1854 14.557C13.5656 14.2318 13.817 13.7814 13.8941 13.287C13.916 13.0906 13.9266 12.8931 13.9257 12.6954V7.92059C13.9179 7.85796 13.9233 7.79439 13.9414 7.73394C13.9595 7.6735 13.9901 7.61751 14.031 7.5695C14.0783 7.5343 14.1324 7.50939 14.1898 7.49638C14.2473 7.48338 14.3068 7.48259 14.3646 7.49403Z" fill="#231F20"/>
<path d="M34.8916 34.5649V33.8628C34.8916 33.7592 34.9846 33.6574 35.0548 33.7276C35.2199 33.9031 35.3515 33.7697 35.506 33.7381C35.5885 33.7276 35.6921 33.6574 35.743 33.7803C35.7939 33.9031 35.6816 33.9136 35.5885 33.9347C35.4631 33.951 35.3487 34.0146 35.2688 34.1125C35.1888 34.2105 35.1493 34.3352 35.1584 34.4614C35.1391 34.7071 35.1479 34.9546 35.1479 35.2109C35.1479 35.3022 35.1268 35.3865 35.0039 35.3865C34.9109 35.3777 34.9021 35.2934 34.9021 35.2109C34.8916 34.9845 34.8916 34.7686 34.8916 34.5526V34.5649Z" fill="#75C111"/>
</svg>
