<svg width="1029" height="250" viewBox="0 0 1029 250" fill="none" xmlns="http://www.w3.org/2000/svg">
<path d="M263.892 210.66C251.717 210.66 241.812 206.676 234.175 198.707C226.538 190.683 222.72 179.975 222.72 166.583V163.761C222.72 154.851 224.408 146.91 227.783 139.937C231.214 132.909 235.973 127.431 242.061 123.502C248.203 119.518 254.844 117.525 261.982 117.525C273.659 117.525 282.734 121.371 289.209 129.063C295.684 136.756 298.921 147.768 298.921 162.101V168.492H238.076C238.298 177.346 240.871 184.513 245.796 189.991C250.776 195.414 257.085 198.126 264.722 198.126C270.145 198.126 274.738 197.019 278.501 194.806C282.264 192.592 285.557 189.659 288.379 186.007L297.759 193.312C290.233 204.877 278.944 210.66 263.892 210.66ZM261.982 130.143C255.785 130.143 250.583 132.411 246.377 136.949C242.171 141.432 239.57 147.74 238.574 155.875H283.564V154.713C283.122 146.91 281.019 140.878 277.256 136.617C273.493 132.301 268.402 130.143 261.982 130.143Z" fill="#673C13"/>
<path d="M125.896 45.4519H119.235C118.469 45.4519 118.109 45.2266 118.334 44.4151C119.979 37.5855 121.715 30.891 125.209 24.6249C130.844 14.6621 139.465 8.58757 150.87 6.04054C155.293 5.10605 159.796 4.59674 164.316 4.51925C165.443 4.51925 166.682 4.29363 167.843 4.29363C169.004 4.29363 169.229 4.44035 168.97 5.63497C168.384 8.23836 167.843 10.8642 167.099 13.4225C165.954 18.3373 164.101 23.0597 161.6 27.4424C157.299 34.4732 150.774 39.8674 143.06 42.7698C137.57 44.7795 131.738 45.6908 125.896 45.4519Z" fill="#75C111"/>
<path d="M109.983 45.576C104.088 40.8426 98.0927 36.1994 95.0047 29.0429C92.696 23.6239 91.9165 17.6758 92.7507 11.8448C93.256 8.31918 93.9712 4.82674 94.8922 1.38619C95.006 0.913062 95.1566 0.449595 95.3429 0C96.6221 0.625483 97.7697 1.49006 98.7239 2.54704C103.1 5.978 106.812 10.1793 109.678 14.9441C112.939 20.5554 114.184 27.1126 113.206 33.5284C112.632 37.0077 111.857 40.4507 110.884 43.8404C110.693 44.3701 110.693 45.0914 109.983 45.576Z" fill="#75C111"/>
<path d="M79.332 32.4014C85.5531 33.3819 91.0529 35.1174 94.0395 41.0341C94.6862 42.4881 95.0935 44.0371 95.2455 45.6211C93.6473 45.9048 92.0073 45.8508 90.4312 45.4626C88.8551 45.0744 87.3777 44.3606 86.0941 43.3671C83.4888 41.4412 81.5249 38.7742 80.459 35.7147C79.9011 34.6809 79.5202 33.561 79.332 32.4014Z" fill="#75C111"/>
<path d="M91.8968 160.474H180.896L175.442 181.797L161.106 199.322L146.906 204.777L101.488 205.892L91.6602 205.408L91.8968 160.474Z" fill="#F7CE09"/>
<path d="M123.15 62.9205V50.8503C123.091 50.4705 123.113 50.0826 123.214 49.7117C123.315 49.3409 123.493 48.9954 123.736 48.6978C124.036 48.4525 124.382 48.2691 124.754 48.1588C125.125 48.0485 125.515 48.0134 125.9 48.0553C127.208 48.0553 129.112 47.8299 130.115 48.8329C131.118 49.836 130.972 51.5152 130.972 52.7774V75.5093C130.98 75.8228 130.923 76.1346 130.804 76.4247C130.686 76.7149 130.507 76.9769 130.281 77.1943C130.055 77.4118 129.787 77.5797 129.492 77.6874C129.198 77.795 128.884 77.84 128.571 77.8195C127.613 77.8195 126.644 77.7631 125.686 77.8195C125.339 77.8738 124.983 77.8461 124.649 77.7386C124.314 77.6311 124.009 77.4468 123.758 77.2004C123.507 76.954 123.318 76.6524 123.204 76.3196C123.091 75.9868 123.057 75.632 123.105 75.2837C123.128 71.1701 123.15 67.0453 123.15 62.9205Z" fill="#673C13"/>
<path d="M96.3254 195.423C96.3254 195.502 96.3251 195.592 96.3815 195.659C96.4378 195.727 96.3815 195.659 96.3815 195.727V195.851C96.3928 195.88 96.3928 195.912 96.3815 195.941V196.099C96.2463 197.775 96.2463 199.46 96.3815 201.137C96.3928 201.173 96.3928 201.212 96.3815 201.249V201.306C96.38 201.363 96.3901 201.42 96.4109 201.473C96.4318 201.526 96.4632 201.575 96.5031 201.616C96.543 201.657 96.5907 201.689 96.6434 201.711C96.6961 201.734 96.7527 201.745 96.8099 201.745C110.334 201.745 123.79 201.914 137.258 201.689C147.672 201.657 157.675 197.622 165.197 190.419C172.716 183.462 177.201 173.828 177.684 163.595C178.167 153.361 174.609 143.348 167.777 135.714C162.15 129.26 154.615 124.764 146.263 122.877C143.252 122.143 140.166 121.764 137.066 121.75H92.0653C91.7424 121.733 91.4188 121.733 91.0959 121.75C89.3265 121.919 88.0868 120.973 88.2558 119.102C88.267 118.895 88.267 118.688 88.2558 118.482C88.1228 117.195 88.2105 115.896 88.515 114.639L88.6955 114.087C88.7218 114.01 88.7679 113.941 88.8292 113.888C88.8906 113.834 88.9651 113.798 89.045 113.782L89.6195 113.692C90.9996 113.531 92.3915 113.493 93.7783 113.579C107.81 113.579 121.818 113.579 135.827 113.579C140.811 113.56 145.774 114.243 150.568 115.608C157.615 117.612 164.128 121.158 169.637 125.988C176.927 132.13 182.1 140.41 184.423 149.655C188.278 165.433 185.099 180.005 174.517 192.481C166.638 201.797 155.558 207.827 143.457 209.386C140.448 209.762 137.415 209.901 134.384 209.803C120.184 209.736 105.984 209.803 91.7722 209.803H89.3041C89.2303 209.802 89.1577 209.784 89.0928 209.748C89.028 209.713 88.9728 209.662 88.9321 209.6L88.6504 209.138C88.2343 208.383 88.0834 207.51 88.222 206.659V162.503C88.1738 162.16 88.2084 161.811 88.323 161.485C88.4375 161.158 88.6287 160.864 88.8804 160.627C89.1321 160.39 89.4368 160.216 89.7694 160.121C90.102 160.025 90.4525 160.011 90.7916 160.08C91.851 160.181 92.9443 159.933 94.0488 160.08C94.6829 160.13 95.3019 160.298 95.8744 160.576L97.0014 161.105C97.0605 161.134 97.1125 161.175 97.1536 161.226C97.1947 161.277 97.224 161.336 97.2391 161.4C97.2543 161.464 97.2549 161.53 97.2411 161.594C97.2273 161.658 97.1994 161.718 97.1593 161.77L96.4605 162.649C96.4083 162.709 96.3769 162.784 96.3705 162.864C96.3615 163.014 96.3615 163.164 96.3705 163.314V195.468L96.3254 195.423Z" fill="#673C13"/>
<path d="M91.017 48.1118L91.8958 48.0441C92.4561 47.9038 93.0404 47.8888 93.6072 47.9998C94.174 48.1108 94.7096 48.3452 95.1755 48.6866C95.388 48.8684 95.5672 49.0858 95.7052 49.329C96.0941 50.1669 96.1971 51.1091 95.9982 52.0112C95.9982 52.2816 95.9305 52.5859 95.9305 52.8564V83.1053C95.9943 85.926 95.469 88.7288 94.3881 91.335C93.3072 93.9412 91.6944 96.2933 89.6531 98.2409C87.6154 100.259 85.1867 101.839 82.516 102.883C79.8453 103.928 76.9889 104.415 74.1229 104.315C69.8519 104.204 65.5782 104.325 61.3203 104.676C52.5378 105.451 44.0379 108.17 36.4359 112.636C28.8339 117.102 22.3203 123.202 17.3671 130.496C12.9046 137.124 9.91828 144.634 8.6102 152.517C7.82234 157.045 7.61777 161.654 8.00157 166.233C8.89255 177.633 13.2944 188.476 20.6014 197.271C30.3387 209.127 42.9499 216.013 58.0743 218.447C60.4671 218.83 62.8867 219.022 65.3099 219.022H182.293C183.196 218.915 184.11 218.984 184.987 219.225L185.933 219.552V226.652H182.552C144.741 226.652 106.93 226.584 69.119 226.652C59.9508 226.799 50.8356 225.236 42.2401 222.043C34.3248 219.016 27.0578 214.51 20.827 208.766C15.3444 203.72 10.7698 197.769 7.30297 191.174C2.58988 182.055 0.0881733 171.956 0 161.691C0.0261013 152.617 1.97729 143.651 5.725 135.387C10.6672 124.801 18.2923 115.692 27.8433 108.965C37.3943 102.237 48.5389 98.1241 60.1707 97.035C65.0004 96.6762 69.845 96.5595 74.6864 96.6855C77.8983 96.6889 81.0055 95.5434 83.4465 93.4558C85.8876 91.3683 87.5014 88.4765 87.9964 85.3029C88.1373 84.0419 88.2052 82.7737 88.1994 81.5048V50.8503C88.1496 50.4483 88.1837 50.0401 88.3002 49.652C88.4166 49.264 88.6125 48.9045 88.8755 48.5963C89.1787 48.3703 89.5261 48.2104 89.8949 48.1269C90.2637 48.0434 90.646 48.0384 91.017 48.1118Z" fill="#673C13"/>
<path d="M389.255 188.165L411.501 119.186H427.189L394.982 209H383.278L350.739 119.186H366.428L389.255 188.165Z" fill="#673C13"/>
<path d="M540.07 209C539.185 207.229 538.465 204.075 537.912 199.537C530.773 206.952 522.251 210.66 512.346 210.66C503.492 210.66 496.215 208.17 490.515 203.189C484.87 198.154 482.048 191.79 482.048 184.098C482.048 174.745 485.59 167.496 492.673 162.35C499.812 157.148 509.828 154.547 522.722 154.547H537.663V147.491C537.663 142.123 536.058 137.862 532.849 134.708C529.639 131.498 524.908 129.894 518.654 129.894C513.176 129.894 508.583 131.277 504.875 134.044C501.167 136.811 499.313 140.159 499.313 144.088H483.874C483.874 139.605 485.451 135.289 488.605 131.139C491.815 126.933 496.132 123.613 501.555 121.178C507.033 118.743 513.037 117.525 519.567 117.525C529.916 117.525 538.023 120.126 543.889 125.328C549.755 130.475 552.798 137.586 553.02 146.661V187.999C553.02 196.244 554.071 202.802 556.174 207.672V209H540.07ZM514.587 197.296C519.401 197.296 523.967 196.051 528.283 193.561C532.6 191.07 535.726 187.833 537.663 183.849V165.421H525.627C506.812 165.421 497.404 170.927 497.404 181.939C497.404 186.754 499.009 190.517 502.219 193.229C505.428 195.94 509.551 197.296 514.587 197.296Z" fill="#673C13"/>
<path d="M644.689 167.413L635.061 177.457V209H619.704V81.5H635.061V158.614L643.278 148.736L671.252 119.186H689.929L654.982 156.705L693.996 209H675.983L644.689 167.413Z" fill="#673C13"/>
<path d="M792.034 132.965C789.71 132.577 787.192 132.384 784.48 132.384C774.409 132.384 767.575 136.673 763.978 145.25V209H748.621V119.186H763.562L763.812 129.562C768.847 121.537 775.986 117.525 785.228 117.525C788.216 117.525 790.485 117.913 792.034 118.687V132.965Z" fill="#673C13"/>
<path d="M904.07 200.118C898.094 207.146 889.323 210.66 877.757 210.66C868.183 210.66 860.879 207.893 855.843 202.359C850.862 196.77 848.344 188.525 848.289 177.623V119.186H863.646V177.208C863.646 190.821 869.179 197.628 880.247 197.628C891.979 197.628 899.782 193.256 903.655 184.513V119.186H919.012V209H904.402L904.07 200.118Z" fill="#673C13"/>
<path d="M1005.46 97.4375V119.186H1022.22V131.056H1005.46V186.754C1005.46 190.351 1006.2 193.062 1007.7 194.889C1009.19 196.659 1011.74 197.545 1015.33 197.545C1017.1 197.545 1019.54 197.213 1022.64 196.549V209C1018.6 210.107 1014.67 210.66 1010.85 210.66C1003.99 210.66 998.815 208.585 995.329 204.435C991.843 200.284 990.1 194.391 990.1 186.754V131.056H973.747V119.186H990.1V97.4375H1005.46Z" fill="#673C13"/>
</svg>
