<svg width="456" height="186" viewBox="0 0 456 186" fill="none" xmlns="http://www.w3.org/2000/svg">
<path d="M236.269 77.5039H227.978V86H222.836V64.6719H237.104V68.6416H227.978V73.5488H236.269V77.5039ZM244.223 86H239.271V70.1504H244.223V86ZM238.979 66.0635C238.979 65.3604 239.232 64.7842 239.74 64.335C240.248 63.8857 240.907 63.6611 241.718 63.6611C242.528 63.6611 243.188 63.8857 243.695 64.335C244.203 64.7842 244.457 65.3604 244.457 66.0635C244.457 66.7666 244.203 67.3428 243.695 67.792C243.188 68.2412 242.528 68.4658 241.718 68.4658C240.907 68.4658 240.248 68.2412 239.74 67.792C239.232 67.3428 238.979 66.7666 238.979 66.0635ZM252.484 86H247.533V63.5H252.484V86ZM261.288 66.21V70.1504H263.896V73.5781H261.288V80.8291C261.288 81.4248 261.396 81.8398 261.61 82.0742C261.825 82.3086 262.25 82.4258 262.885 82.4258C263.373 82.4258 263.783 82.3965 264.115 82.3379V85.8682C263.227 86.1514 262.299 86.293 261.332 86.293C259.633 86.293 258.378 85.8926 257.567 85.0918C256.757 84.291 256.352 83.0752 256.352 81.4443V73.5781H254.33V70.1504H256.352V66.21H261.288ZM273.52 86.293C271.088 86.293 269.12 85.5703 267.616 84.125C266.112 82.6699 265.36 80.7803 265.36 78.4561V78.0459C265.36 76.4248 265.658 74.9941 266.254 73.7539C266.859 72.5137 267.738 71.5566 268.891 70.8828C270.043 70.1992 271.41 69.8574 272.992 69.8574C275.219 69.8574 276.977 70.5508 278.266 71.9375C279.555 73.3145 280.199 75.2383 280.199 77.709V79.6279H270.385C270.561 80.5166 270.946 81.2148 271.542 81.7227C272.138 82.2305 272.909 82.4844 273.856 82.4844C275.419 82.4844 276.64 81.9375 277.519 80.8438L279.774 83.5098C279.159 84.3594 278.285 85.0381 277.152 85.5459C276.029 86.0439 274.818 86.293 273.52 86.293ZM272.963 73.666C271.518 73.666 270.658 74.623 270.385 76.5371H275.365V76.1562C275.385 75.3652 275.185 74.7549 274.765 74.3252C274.345 73.8857 273.744 73.666 272.963 73.666ZM291.786 74.6182L290.16 74.501C288.607 74.501 287.611 74.9893 287.172 75.9658V86H282.235V70.1504H286.864L287.025 72.1865C287.855 70.6338 289.013 69.8574 290.497 69.8574C291.024 69.8574 291.483 69.916 291.874 70.0332L291.786 74.6182ZM300.941 86.293C298.51 86.293 296.542 85.5703 295.038 84.125C293.534 82.6699 292.782 80.7803 292.782 78.4561V78.0459C292.782 76.4248 293.08 74.9941 293.676 73.7539C294.281 72.5137 295.16 71.5566 296.312 70.8828C297.465 70.1992 298.832 69.8574 300.414 69.8574C302.641 69.8574 304.398 70.5508 305.688 71.9375C306.977 73.3145 307.621 75.2383 307.621 77.709V79.6279H297.807C297.982 80.5166 298.368 81.2148 298.964 81.7227C299.56 82.2305 300.331 82.4844 301.278 82.4844C302.841 82.4844 304.062 81.9375 304.94 80.8438L307.196 83.5098C306.581 84.3594 305.707 85.0381 304.574 85.5459C303.451 86.0439 302.24 86.293 300.941 86.293ZM300.385 73.666C298.939 73.666 298.08 74.623 297.807 76.5371H302.787V76.1562C302.807 75.3652 302.606 74.7549 302.187 74.3252C301.767 73.8857 301.166 73.666 300.385 73.666ZM308.998 77.958C308.998 75.4482 309.54 73.4707 310.624 72.0254C311.708 70.5801 313.222 69.8574 315.165 69.8574C316.581 69.8574 317.772 70.4141 318.739 71.5273V63.5H323.69V86H319.252L319.003 84.3008C317.987 85.6289 316.698 86.293 315.136 86.293C313.251 86.293 311.757 85.5703 310.653 84.125C309.55 82.6797 308.998 80.624 308.998 77.958ZM313.935 78.2656C313.935 81.0781 314.755 82.4844 316.396 82.4844C317.489 82.4844 318.271 82.0254 318.739 81.1074V75.0723C318.29 74.1348 317.519 73.666 316.425 73.666C314.901 73.666 314.076 74.8965 313.949 77.3574L313.935 78.2656ZM352.006 86H346.894L339.335 72.7285V86H334.193V64.6719H339.335L346.879 77.9434V64.6719H352.006V86ZM363.959 86C363.783 85.6777 363.627 85.2041 363.49 84.5791C362.582 85.7217 361.312 86.293 359.682 86.293C358.188 86.293 356.918 85.8438 355.873 84.9453C354.828 84.0371 354.306 82.8994 354.306 81.5322C354.306 79.8135 354.94 78.5146 356.21 77.6357C357.479 76.7568 359.325 76.3174 361.747 76.3174H363.271V75.4824C363.271 74.0273 362.641 73.2998 361.381 73.2998C360.209 73.2998 359.623 73.876 359.623 75.0283H354.687C354.687 73.4951 355.336 72.25 356.635 71.293C357.943 70.3359 359.608 69.8574 361.63 69.8574C363.651 69.8574 365.248 70.3506 366.42 71.3369C367.592 72.3232 368.192 73.6758 368.222 75.3945V82.4111C368.241 83.8662 368.466 84.9795 368.896 85.751V86H363.959ZM360.868 82.7773C361.483 82.7773 361.991 82.6455 362.392 82.3818C362.802 82.1182 363.095 81.8203 363.271 81.4883V78.9541H361.835C360.116 78.9541 359.257 79.7256 359.257 81.2686C359.257 81.7178 359.408 82.084 359.711 82.3672C360.014 82.6406 360.399 82.7773 360.868 82.7773ZM376.718 66.21V70.1504H379.325V73.5781H376.718V80.8291C376.718 81.4248 376.825 81.8398 377.04 82.0742C377.255 82.3086 377.68 82.4258 378.314 82.4258C378.803 82.4258 379.213 82.3965 379.545 82.3379V85.8682C378.656 86.1514 377.729 86.293 376.762 86.293C375.062 86.293 373.808 85.8926 372.997 85.0918C372.187 84.291 371.781 83.0752 371.781 81.4443V73.5781H369.76V70.1504H371.781V66.21H376.718ZM390.722 84.2861C389.677 85.624 388.266 86.293 386.488 86.293C384.75 86.293 383.432 85.79 382.533 84.7842C381.645 83.7686 381.2 82.3135 381.2 80.4189V70.1504H386.137V80.4482C386.137 81.8057 386.796 82.4844 388.114 82.4844C389.247 82.4844 390.053 82.0791 390.531 81.2686V70.1504H395.497V86H390.868L390.722 84.2861ZM407.802 74.6182L406.176 74.501C404.623 74.501 403.627 74.9893 403.188 75.9658V86H398.251V70.1504H402.88L403.041 72.1865C403.871 70.6338 405.028 69.8574 406.513 69.8574C407.04 69.8574 407.499 69.916 407.89 70.0332L407.802 74.6182ZM418.07 86C417.895 85.6777 417.738 85.2041 417.602 84.5791C416.693 85.7217 415.424 86.293 413.793 86.293C412.299 86.293 411.029 85.8438 409.984 84.9453C408.939 84.0371 408.417 82.8994 408.417 81.5322C408.417 79.8135 409.052 78.5146 410.321 77.6357C411.591 76.7568 413.437 76.3174 415.858 76.3174H417.382V75.4824C417.382 74.0273 416.752 73.2998 415.492 73.2998C414.32 73.2998 413.734 73.876 413.734 75.0283H408.798C408.798 73.4951 409.447 72.25 410.746 71.293C412.055 70.3359 413.72 69.8574 415.741 69.8574C417.763 69.8574 419.359 70.3506 420.531 71.3369C421.703 72.3232 422.304 73.6758 422.333 75.3945V82.4111C422.353 83.8662 422.577 84.9795 423.007 85.751V86H418.07ZM414.979 82.7773C415.595 82.7773 416.103 82.6455 416.503 82.3818C416.913 82.1182 417.206 81.8203 417.382 81.4883V78.9541H415.946C414.228 78.9541 413.368 79.7256 413.368 81.2686C413.368 81.7178 413.52 82.084 413.822 82.3672C414.125 82.6406 414.511 82.7773 414.979 82.7773ZM430.287 86H425.336V63.5H430.287V86ZM438.549 86H433.598V63.5H438.549V86ZM447.938 79.0859L450.575 70.1504H455.863L449.403 88.6514L449.125 89.3252C448.207 91.376 446.586 92.4014 444.262 92.4014C443.617 92.4014 442.938 92.3037 442.226 92.1084V88.5781H442.87C443.563 88.5781 444.091 88.4756 444.452 88.2705C444.823 88.0752 445.097 87.7188 445.272 87.2012L445.668 86.1465L440.16 70.1504H445.434L447.938 79.0859Z" fill="#673C13"/>
<path d="M183.9 22.8C182.033 22.8 180.3 23.2667 178.7 24.2C177.167 25.0667 175.933 26.2333 175 27.7C177.133 28.3667 178.8 29.3667 180 30.7C181.2 31.9667 181.8 33.4667 181.8 35.2C181.8 37.2 181.033 38.9333 179.5 40.4C177.967 41.8667 176.133 42.5667 174 42.5C171.733 42.4333 169.833 41.5667 168.3 39.9C166.767 38.1667 166 36.0667 166 33.6C166 30.6 166.833 27.9333 168.5 25.6C170.167 23.2 172.433 21.3333 175.3 20C178.233 18.6667 181.567 18 185.3 18C191.433 18 196.233 19.6333 199.7 22.9C203.233 26.1 204.967 30.4667 204.9 36C204.9 39.6 204 42.8667 202.2 45.8C200.467 48.7333 198 51.0667 194.8 52.8C198.467 54.4 201.4 56.9 203.6 60.3C205.867 63.6333 207 67.3667 207 71.5C207 79.2333 205.067 85.1 201.2 89.1C197.333 93.0333 191.7 95 184.3 95C180.567 95 177.233 94.3333 174.3 93C171.433 91.6 169.167 89.7333 167.5 87.4C165.833 85.0667 165 82.4 165 79.4C165 76.9333 165.767 74.8667 167.3 73.2C168.833 71.4667 170.733 70.5667 173 70.5C175.133 70.4333 176.967 71.1333 178.5 72.6C180.033 74.0667 180.8 75.8 180.8 77.8C180.8 79.4667 180.2 80.9667 179 82.3C177.8 83.6333 176.2 84.6 174.2 85.2C176.2 88.4667 179.233 90.1 183.3 90.1C191.433 90.1 195.5 84.3 195.5 72.7C195.5 62.2333 192.1 57 185.3 57L182.3 53C185.967 51.4667 188.867 49.2 191 46.2C193.133 43.1333 194.2 39.8 194.2 36.2C194.2 31.8667 193.3 28.5667 191.5 26.3C189.767 23.9667 187.233 22.8 183.9 22.8Z" fill="#F7CE09"/>
<path d="M29.1914 80.7684V101.334C29.1914 101.334 59.3157 115.54 65.4023 157.341H84.7898C90.8764 115.54 121.109 101.334 121.109 101.334V80.7684H29.1914Z" fill="#FFFAEA"/>
<path d="M44.7812 113.42C53.1362 122.179 62.3282 136.24 65.4019 157.336H70.0705C65.3966 134.521 53.4795 120.737 44.7812 113.42Z" fill="#F5C48B"/>
<path d="M34.8027 86.0496H121.106V80.7684H29.1914V101.334C29.1914 101.334 31.4333 102.398 34.8027 104.772V86.0496Z" fill="#F5C48B"/>
<path d="M84.7898 158.659H65.4023C64.7448 158.659 64.1903 158.178 64.0952 157.529C58.1881 116.969 28.9221 102.664 28.6263 102.524C28.1668 102.305 27.8711 101.841 27.8711 101.331V80.7657C27.8711 80.0369 28.4626 79.4454 29.1914 79.4454H121.106C121.835 79.4454 122.427 80.0369 122.427 80.7657V101.331C122.427 101.841 122.131 102.308 121.669 102.524C121.373 102.664 92.0013 116.971 86.0942 157.529C86.0018 158.178 85.4447 158.659 84.7898 158.659ZM66.5378 156.018H83.6543C89.5719 118.545 115.046 103.1 119.786 100.531V82.0887H30.5117V100.533C35.2384 103.103 60.6228 118.55 66.5378 156.018Z" fill="#673C13"/>
<path d="M84.7898 157.339H65.4023V177.859H84.7898V157.339Z" fill="#FAF5F5"/>
<path d="M84.7898 179.179H65.4023C64.6735 179.179 64.082 178.588 64.082 177.859V157.339C64.082 156.61 64.6735 156.018 65.4023 156.018H84.7898C85.5186 156.018 86.1101 156.61 86.1101 157.339V177.859C86.1101 178.588 85.5186 179.179 84.7898 179.179ZM66.7227 176.539H83.4695V158.659H66.7227V176.539Z" fill="#673C13"/>
<path d="M103.482 157.339H84.7891V177.859H103.482V157.339Z" fill="#E3DFDF"/>
<path d="M103.482 179.179H84.7891C84.0603 179.179 83.4688 178.588 83.4688 177.859V157.339C83.4688 156.61 84.0603 156.018 84.7891 156.018H103.482C104.211 156.018 104.802 156.61 104.802 157.339V177.859C104.802 178.588 104.211 179.179 103.482 179.179ZM86.1094 176.539H102.162V158.659H86.1094V176.539Z" fill="#673C13"/>
<path d="M121.106 80.7684V101.334C121.106 101.334 90.8764 115.54 84.7871 157.341H103.485C109.572 115.54 139.805 101.334 139.805 101.334V80.7684H121.106Z" fill="#F5C48B"/>
<path d="M103.488 158.659H84.7897C84.4068 158.659 84.0424 158.493 83.7915 158.202C83.5406 157.912 83.4271 157.529 83.4825 157.148C89.0595 118.854 114.998 103.127 119.786 100.531V80.7684C119.786 80.0396 120.377 79.4481 121.106 79.4481H139.807C140.536 79.4481 141.127 80.0396 141.127 80.7684V101.334C141.127 101.843 140.832 102.311 140.37 102.527C140.074 102.667 110.702 116.974 104.795 157.531C104.7 158.178 104.143 158.659 103.488 158.659ZM86.3291 156.018H102.352C108.27 118.545 133.744 103.1 138.487 100.531V82.0887H122.426V101.334C122.426 101.843 122.131 102.311 121.669 102.527C121.378 102.662 92.73 116.615 86.3291 156.018Z" fill="#673C13"/>
<path d="M121.106 100.011H29.1914V102.651H121.106V100.011Z" fill="#673C13"/>
<path d="M139.486 100.011H119.729V102.651H139.486V100.011Z" fill="#673C13"/>
<path d="M130 56.99C129.867 60.8364 128.212 64.4726 125.4 67.0996C122.587 69.7266 118.846 71.1295 115 71C111.154 71.1295 107.413 69.7266 104.6 67.0996C101.788 64.4726 100.133 60.8364 100 56.99C100 44.39 115 29 115 29C121.18 35.18 130 47.69 130 56.99Z" fill="#BFA351"/>
<path d="M128.5 63.1099C118.78 68.4499 106 61.9399 106 51.1099C106 43.6699 111.22 35.2699 115.48 29.6299C123.25 37.8199 133.78 52.9999 128.5 63.1099Z" fill="#EEDFC0"/>
<path d="M106.716 66.3281C106.624 68.9842 105.482 71.4951 103.539 73.3092C101.597 75.1232 99.0142 76.092 96.3581 76.0025C93.7019 76.092 91.1189 75.1232 89.1767 73.3092C87.2344 71.4951 86.0918 68.9842 86 66.3281C86 57.6274 96.3581 47 96.3581 47C100.626 51.2675 106.716 59.9061 106.716 66.3281Z" fill="#BFA351"/>
<path d="M105.68 70.5541C98.9676 74.2416 90.1426 69.7462 90.1426 62.2677C90.1426 57.1301 93.7472 51.3296 96.6889 47.435C102.054 53.0905 109.326 63.5728 105.68 70.5541Z" fill="#EEDFC0"/>
</svg>
