<svg width="24" height="25" viewBox="0 0 24 25" fill="none" xmlns="http://www.w3.org/2000/svg">
<path d="M12.0027 6.43977C8.59744 6.43977 5.85075 9.18277 5.85075 12.5835C5.85075 15.9841 8.59744 18.7271 12.0027 18.7271C15.4079 18.7271 18.1546 15.9841 18.1546 12.5835C18.1546 9.18277 15.4079 6.43977 12.0027 6.43977ZM12.0027 16.5777C9.80212 16.5777 8.00312 14.7864 8.00312 12.5835C8.00312 10.3805 9.79677 8.58926 12.0027 8.58926C14.2086 8.58926 16.0022 10.3805 16.0022 12.5835C16.0022 14.7864 14.2032 16.5777 12.0027 16.5777V16.5777ZM19.8412 6.18846C19.8412 6.98516 19.1987 7.62145 18.4062 7.62145C17.6085 7.62145 16.9713 6.97981 16.9713 6.18846C16.9713 5.3971 17.6138 4.75546 18.4062 4.75546C19.1987 4.75546 19.8412 5.3971 19.8412 6.18846ZM23.9157 7.64284C23.8247 5.72327 23.3856 4.02293 21.9775 2.62201C20.5747 1.2211 18.8721 0.782649 16.9499 0.686403C14.9689 0.574116 9.03112 0.574116 7.05008 0.686403C5.1333 0.777302 3.43068 1.21576 2.02253 2.61667C0.614389 4.01758 0.180703 5.71792 0.0843279 7.63749C-0.0281093 9.61588 -0.0281093 15.5457 0.0843279 17.5241C0.175349 19.4436 0.614389 21.144 2.02253 22.5449C3.43068 23.9458 5.12794 24.3843 7.05008 24.4805C9.03112 24.5928 14.9689 24.5928 16.9499 24.4805C18.8721 24.3896 20.5747 23.9512 21.9775 22.5449C23.3803 21.144 23.8193 19.4436 23.9157 17.5241C24.0281 15.5457 24.0281 9.62123 23.9157 7.64284V7.64284ZM21.3564 19.6468C20.9388 20.6948 20.1303 21.5022 19.0755 21.9247C17.496 22.5502 13.7481 22.4059 12.0027 22.4059C10.2572 22.4059 6.50396 22.5449 4.92984 21.9247C3.88042 21.5076 3.07195 20.7002 2.64897 19.6468C2.02253 18.0695 2.16709 14.3266 2.16709 12.5835C2.16709 10.8403 2.02789 7.0921 2.64897 5.52008C3.06659 4.47207 3.87507 3.66468 4.92984 3.24226C6.50931 2.61667 10.2572 2.76104 12.0027 2.76104C13.7481 2.76104 17.5014 2.62201 19.0755 3.24226C20.1249 3.65933 20.9334 4.46673 21.3564 5.52008C21.9828 7.09745 21.8383 10.8403 21.8383 12.5835C21.8383 14.3266 21.9828 18.0748 21.3564 19.6468Z" fill="#F4BC2B"/>
</svg>
