<svg width="82" height="37" viewBox="0 0 82 37" fill="none" xmlns="http://www.w3.org/2000/svg">
<path d="M19.7976 7.07973H18.7601C18.6407 7.07973 18.5846 7.04464 18.6197 6.91824C18.876 5.85443 19.1463 4.81168 19.6905 3.83565C20.5682 2.28382 21.9112 1.33763 23.6877 0.940897C24.3766 0.795338 25.0779 0.716007 25.782 0.703936C25.9575 0.703936 26.1506 0.668793 26.3314 0.668793C26.5122 0.668793 26.5474 0.691646 26.507 0.877725C26.4157 1.28324 26.3314 1.69224 26.2155 2.09073C26.0371 2.85627 25.7486 3.59186 25.3589 4.27451C24.689 5.36965 23.6727 6.20988 22.4712 6.66195C21.616 6.975 20.7076 7.11694 19.7976 7.07973Z" fill="#75C111"/>
<path d="M17.3187 7.09906C16.4006 6.36177 15.4667 5.63854 14.9857 4.52382C14.6261 3.67973 14.5047 2.75324 14.6346 1.84499C14.7133 1.29582 14.8247 0.751829 14.9682 0.215918C14.9859 0.142221 15.0093 0.0700303 15.0384 0C15.2376 0.0974272 15.4164 0.232097 15.565 0.396735C16.2466 0.931152 16.8248 1.58556 17.2713 2.32774C17.7792 3.20177 17.9731 4.22315 17.8208 5.22249C17.7313 5.76444 17.6106 6.30073 17.4591 6.82872C17.4293 6.91122 17.4293 7.02358 17.3187 7.09906Z" fill="#75C111"/>
<path d="M12.5449 5.04691C13.5139 5.19963 14.3706 5.46996 14.8358 6.39157C14.9365 6.61804 15 6.85933 15.0236 7.10605C14.7747 7.15024 14.5193 7.14184 14.2738 7.08137C14.0283 7.0209 13.7981 6.90971 13.5982 6.75496C13.1924 6.45498 12.8865 6.03956 12.7205 5.563C12.6336 5.40197 12.5742 5.22753 12.5449 5.04691Z" fill="#75C111"/>
<path d="M31.984 34.8406C31.984 34.3789 31.9735 33.9628 31.984 33.5362C31.984 33.4239 31.9121 33.2273 32.1069 33.2185C32.3018 33.2097 32.2403 33.4134 32.2403 33.5257C32.2526 34.0699 32.2403 34.6053 32.2403 35.1495C32.2403 35.2426 32.2825 35.3742 32.1368 35.4058C31.9911 35.4374 31.9612 35.3321 31.8928 35.2619C31.5627 34.8599 31.2345 34.4614 30.9062 34.0594C30.8325 33.9786 30.7939 33.854 30.5973 33.8154C30.5973 34.2244 30.6078 34.6246 30.5973 35.0266C30.5973 35.1583 30.6903 35.3777 30.4849 35.3953C30.2286 35.4058 30.3409 35.1583 30.3409 35.0266C30.3304 34.5421 30.3304 34.0593 30.3409 33.5784C30.3409 33.4555 30.2707 33.2887 30.4217 33.2273C30.5727 33.1658 30.6499 33.3309 30.7307 33.4344L31.6874 34.6053C31.7585 34.7135 31.8625 34.796 31.984 34.8406Z" fill="#75C111"/>
<path d="M44.7439 33.9576C44.6299 33.9651 44.5206 34.0056 44.4292 34.0743C44.3379 34.1429 44.2686 34.2367 44.2297 34.3441C44.1907 34.4515 44.184 34.5679 44.2102 34.6791C44.2363 34.7903 44.2943 34.8914 44.377 34.9702C44.4597 35.049 44.5636 35.102 44.6759 35.1227C44.7883 35.1434 44.9042 35.131 45.0096 35.0869C45.115 35.0428 45.2052 34.9689 45.2693 34.8744C45.3334 34.7798 45.3686 34.6686 45.3706 34.5544C45.3739 34.4726 45.3597 34.391 45.329 34.3151C45.2983 34.2391 45.2517 34.1706 45.1924 34.1141C45.1331 34.0576 45.0624 34.0144 44.985 33.9874C44.9077 33.9605 44.8254 33.9503 44.7439 33.9576ZM45.6216 34.6247C45.6216 34.83 45.6321 35.0372 45.6216 35.2426C45.59 35.8166 45.2214 36.1203 44.635 36.043C44.4384 36.0318 44.2476 35.9714 44.0803 35.8675C44.0294 35.8271 43.9873 35.785 44.0294 35.7236C44.0451 35.6983 44.0698 35.68 44.0986 35.6725C44.1273 35.665 44.1579 35.6688 44.1839 35.6832C44.3973 35.8031 44.6427 35.8534 44.8861 35.8271C44.9758 35.8276 45.0637 35.8016 45.1387 35.7522C45.2137 35.7029 45.2724 35.6324 45.3074 35.5498C45.3372 35.4673 45.3776 35.3742 45.3179 35.304C45.2582 35.2338 45.1529 35.2724 45.0704 35.304C44.8746 35.3852 44.6566 35.3951 44.4542 35.3321C44.3504 35.3044 44.2531 35.2561 44.1682 35.1902C44.0833 35.1243 44.0125 35.042 43.96 34.9482C43.9075 34.8544 43.8743 34.751 43.8624 34.6442C43.8505 34.5374 43.8601 34.4292 43.8907 34.3262C43.9553 34.1182 44.0988 33.9438 44.2904 33.8404C44.4821 33.7371 44.7066 33.7129 44.9159 33.7732C45.0162 33.8033 45.1128 33.8445 45.2038 33.8961C45.3074 33.9576 45.3583 33.9576 45.3794 33.8347C45.383 33.8196 45.3898 33.8054 45.3995 33.7933C45.4091 33.7811 45.4213 33.7711 45.4351 33.7641C45.449 33.7571 45.4642 33.7532 45.4797 33.7526C45.4953 33.7521 45.5107 33.7549 45.525 33.7609C45.5526 33.7708 45.5762 33.7892 45.5923 33.8136C45.6085 33.838 45.6163 33.8669 45.6146 33.8961C45.6269 34.1331 45.6269 34.3789 45.6269 34.6247H45.6216Z" fill="#75C111"/>
<path d="M66.4371 33.9575C66.3595 33.9523 66.2817 33.9625 66.208 33.9875C66.1344 34.0126 66.0665 34.0521 66.0083 34.1037C65.9501 34.1553 65.9028 34.2179 65.869 34.288C65.8352 34.358 65.8158 34.4341 65.8117 34.5118C65.8076 34.5895 65.819 34.6671 65.8452 34.7403C65.8715 34.8136 65.9121 34.8808 65.9646 34.9382C66.0171 34.9956 66.0804 35.042 66.151 35.0746C66.2216 35.1073 66.2979 35.1256 66.3757 35.1284C66.4568 35.1409 66.5397 35.136 66.6188 35.1141C66.698 35.0922 66.7715 35.0538 66.8347 35.0014C66.8979 34.9489 66.9493 34.8837 66.9854 34.81C67.0216 34.7363 67.0417 34.6558 67.0445 34.5737C67.051 34.4919 67.0398 34.4097 67.0117 34.3326C66.9836 34.2555 66.9392 34.1853 66.8816 34.1269C66.8239 34.0684 66.7544 34.0231 66.6778 33.9938C66.6011 33.9646 66.519 33.9523 66.4371 33.9575ZM67.299 34.6457C67.299 34.8511 67.3113 35.0565 67.299 35.2618C67.2692 35.8166 66.9093 36.1132 66.3335 36.0518C66.1387 36.0399 65.9491 35.9841 65.7788 35.8886C65.7174 35.8464 65.6559 35.785 65.7174 35.713C65.7372 35.6895 65.765 35.6742 65.7955 35.67C65.826 35.6658 65.8569 35.6729 65.8824 35.6902C66.0945 35.8131 66.342 35.8608 66.5846 35.8253C66.6966 35.826 66.8046 35.7838 66.8865 35.7075C66.9684 35.6311 67.018 35.5264 67.0252 35.4146C67.0252 35.3215 66.9936 35.239 66.8707 35.2706C66.7882 35.2917 66.6952 35.3303 66.6144 35.3531C66.4391 35.3978 66.2543 35.3872 66.0852 35.3228C65.9162 35.2584 65.7711 35.1433 65.67 34.9933C65.5787 34.8497 65.5356 34.6808 65.5466 34.511C65.5577 34.3413 65.6224 34.1794 65.7314 34.0488C65.8534 33.9153 66.012 33.8207 66.1875 33.7766C66.3629 33.7326 66.5474 33.7412 66.718 33.8013C66.7879 33.8256 66.8536 33.8605 66.9128 33.9049C66.9848 33.9453 67.048 33.9769 67.0673 33.8627C67.0692 33.8445 67.0754 33.8269 67.0855 33.8116C67.0955 33.7962 67.1091 33.7835 67.1252 33.7746C67.1412 33.7656 67.1591 33.7606 67.1775 33.7601C67.1958 33.7596 67.2141 33.7635 67.2306 33.7715C67.2582 33.7827 67.2814 33.8028 67.2966 33.8284C67.3118 33.8541 67.3182 33.884 67.3148 33.9137C67.3148 34.1436 67.3148 34.3999 67.3148 34.6457H67.299Z" fill="#75C111"/>
<path d="M72.657 35.2004C72.7384 35.2052 72.8199 35.1934 72.8966 35.1657C72.9733 35.138 73.0435 35.095 73.1031 35.0394C73.1627 34.9837 73.2104 34.9166 73.2432 34.842C73.2761 34.7674 73.2935 34.6868 73.2943 34.6053C73.2995 34.5242 73.2884 34.4428 73.2617 34.366C73.2349 34.2892 73.1931 34.2185 73.1386 34.1581C73.0841 34.0978 73.0181 34.0489 72.9444 34.0145C72.8708 33.98 72.791 33.9607 72.7097 33.9576C72.6251 33.9485 72.5396 33.958 72.4591 33.9853C72.3785 34.0126 72.3049 34.0571 72.2432 34.1157C72.1816 34.1743 72.1334 34.2457 72.1021 34.3248C72.0708 34.4039 72.0571 34.4888 72.0619 34.5737C72.0552 34.655 72.0657 34.7369 72.0928 34.8138C72.1199 34.8908 72.163 34.9611 72.2192 35.0203C72.2754 35.0795 72.3434 35.1261 72.4189 35.1571C72.4943 35.1881 72.5755 35.2029 72.657 35.2004ZM73.5347 34.2366V35.2426C73.5347 35.3549 73.4628 35.4988 73.3592 35.3953C73.1837 35.232 73.0608 35.3444 72.9063 35.3865C72.7557 35.4395 72.593 35.4484 72.4375 35.412C72.2819 35.3756 72.1401 35.2955 72.0286 35.1811C71.9149 35.074 71.8348 34.9362 71.7981 34.7844C71.7613 34.6326 71.7694 34.4734 71.8214 34.3262C71.8509 34.2223 71.9007 34.1252 71.9678 34.0405C72.0349 33.9559 72.118 33.8853 72.2124 33.8328C72.3068 33.7803 72.4107 33.7469 72.518 33.7346C72.6253 33.7222 72.734 33.7312 72.8378 33.7609C73.2591 33.854 73.2486 33.854 73.2802 33.466C73.2907 33.3431 73.1872 33.1149 73.3926 33.1149C73.6278 33.1149 73.5154 33.3607 73.526 33.4941C73.547 33.7416 73.526 33.9979 73.526 34.2454L73.5347 34.2366Z" fill="#75C111"/>
<path d="M77.5348 34.3999C77.3996 34.0488 77.268 33.947 76.9502 33.9576C76.6325 33.9681 76.5377 34.0699 76.4552 34.4105C76.8144 34.4474 77.1765 34.4439 77.5348 34.3999ZM77.0433 35.2004C77.2 35.2122 77.3559 35.1687 77.4839 35.0775C77.5453 35.0371 77.5963 35.0371 77.6366 35.0881C77.677 35.139 77.6577 35.1899 77.6173 35.2426C77.3909 35.4673 76.8888 35.4988 76.564 35.304C76.4015 35.2118 76.2753 35.0669 76.2063 34.8933C76.1373 34.7196 76.1298 34.5276 76.1849 34.349C76.2332 34.1671 76.3418 34.0069 76.4929 33.8947C76.6441 33.7824 76.8288 33.7248 77.017 33.7311C77.1969 33.7335 77.3709 33.7955 77.5119 33.9073C77.6529 34.0191 77.753 34.1744 77.7964 34.349C77.8473 34.5842 77.8175 34.6351 77.5594 34.6351C77.2733 34.6457 76.9854 34.6351 76.6975 34.6351C76.615 34.6351 76.5026 34.6158 76.4728 34.7282C76.4626 34.7701 76.4638 34.814 76.4761 34.8553C76.4885 34.8966 76.5116 34.9339 76.543 34.9634C76.5995 35.042 76.6751 35.105 76.7626 35.1464C76.8501 35.1879 76.9467 35.2065 77.0433 35.2004Z" fill="#75C111"/>
<path d="M51.7798 34.4C51.6446 34.0489 51.5112 33.947 51.1917 33.9576C50.8722 33.9681 50.781 34.0699 50.7002 34.4105C51.0593 34.4474 51.4215 34.4439 51.7798 34.4ZM51.2532 33.7329C51.3852 33.7366 51.5148 33.7701 51.6321 33.8309C51.7494 33.8917 51.8515 33.9782 51.9308 34.084C51.9856 34.1439 52.0249 34.2164 52.0451 34.2951C52.0653 34.3738 52.0658 34.4562 52.0466 34.5351C51.9729 34.7107 51.7798 34.6176 51.6341 34.6282C51.3778 34.6387 51.1215 34.6281 50.8634 34.6387C50.6879 34.6387 50.6686 34.7405 50.73 34.8757C50.8014 34.999 50.9116 35.0951 51.0434 35.1491C51.1752 35.2031 51.3212 35.2119 51.4585 35.1741C51.5442 35.1477 51.6272 35.113 51.7061 35.0705C51.7798 35.0301 51.85 35.0073 51.8921 35.1004C51.9343 35.1934 51.8606 35.2356 51.7991 35.2759C51.6377 35.3753 51.451 35.4262 51.2615 35.4225C51.0719 35.4187 50.8874 35.3605 50.73 35.2548C50.5851 35.1476 50.4782 34.9969 50.4248 34.8247C50.3714 34.6525 50.3742 34.4678 50.4329 34.2973C50.4917 34.1269 50.6032 33.9796 50.7513 33.8768C50.8994 33.774 51.0764 33.7212 51.2567 33.7258L51.2532 33.7329Z" fill="#75C111"/>
<path d="M48.6865 33.9066C48.7533 33.8725 48.8219 33.842 48.8919 33.8153C49.5502 33.5871 49.961 33.854 49.9803 34.5316C49.9803 34.7282 49.9908 34.9143 49.9803 35.1074C49.9715 35.2197 50.0523 35.4251 49.8486 35.4163C49.645 35.4076 49.7346 35.2109 49.7346 35.0881C49.724 34.902 49.7346 34.7089 49.7346 34.5123C49.7135 34.1208 49.5801 33.9698 49.2413 33.9575C49.1666 33.9507 49.0913 33.96 49.0204 33.9846C48.9496 34.0092 48.8848 34.0487 48.8305 34.1004C48.7761 34.1521 48.7334 34.2148 48.7053 34.2843C48.6771 34.3538 48.6642 34.4285 48.6672 34.5035C48.6444 34.7475 48.6672 34.995 48.6567 35.2513C48.6567 35.3233 48.6444 35.4058 48.5444 35.4163C48.4443 35.4269 48.4004 35.3321 48.4004 35.2408V33.2571C48.4004 33.1658 48.4197 33.0816 48.5444 33.0816C48.669 33.0816 48.6444 33.1658 48.6567 33.2571C48.6322 33.4738 48.6423 33.6931 48.6865 33.9066Z" fill="#75C111"/>
<path d="M60.2815 34.593V35.2513C60.2815 35.3742 60.1884 35.4866 60.0954 35.3865C59.9637 35.2426 59.8707 35.3233 59.7443 35.3637C59.1597 35.5603 58.7472 35.2935 58.7156 34.6966C58.6963 34.4193 58.7156 34.1437 58.7156 33.8645C58.7152 33.835 58.7255 33.8064 58.7445 33.7838C58.7636 33.7613 58.7901 33.7463 58.8192 33.7417C58.8376 33.7381 58.8566 33.7386 58.8748 33.743C58.893 33.7475 58.91 33.7559 58.9247 33.7676C58.9394 33.7792 58.9514 33.7939 58.9598 33.8107C58.9683 33.8274 58.973 33.8458 58.9737 33.8645C58.9737 34.163 58.9631 34.4509 58.9737 34.7423C58.9733 34.8258 58.9949 34.9079 59.0361 34.9806C59.0773 35.0532 59.1367 35.1138 59.2086 35.1564C59.2804 35.1989 59.3622 35.222 59.4457 35.2233C59.5292 35.2245 59.6115 35.204 59.6846 35.1636C59.7825 35.1254 59.8658 35.0573 59.9229 34.9691C59.9799 34.8809 60.0077 34.777 60.0024 34.6721C60.0024 34.4246 60.0024 34.1683 60.0024 33.9225C60.0024 33.8295 60.0129 33.7364 60.1376 33.7364C60.2622 33.7364 60.2692 33.84 60.2692 33.933C60.2692 34.1472 60.2692 34.3736 60.2692 34.5878L60.2815 34.593Z" fill="#75C111"/>
<path d="M55.9582 35.2005C56.042 35.2123 56.1273 35.2063 56.2087 35.183C56.29 35.1597 56.3656 35.1197 56.4304 35.0653C56.4764 35.0279 56.5105 34.978 56.5286 34.9216C56.5466 34.8651 56.5479 34.8047 56.5322 34.7476C56.4936 34.6159 56.369 34.6457 56.2654 34.6457C56.1139 34.6458 55.9625 34.6563 55.8125 34.6773C55.7604 34.685 55.7127 34.7106 55.6774 34.7497C55.6422 34.7888 55.6217 34.8389 55.6194 34.8915C55.6095 34.9498 55.6207 35.0097 55.651 35.0605C55.6812 35.1113 55.7285 35.1497 55.7844 35.1688C55.8415 35.1837 55.8996 35.1942 55.9582 35.2005ZM56.8113 34.7985V35.1074C56.7991 35.3743 56.7991 35.3865 56.5322 35.304C56.4392 35.2724 56.4006 35.3321 56.3268 35.3549C56.1319 35.4392 55.9122 35.4461 55.7124 35.3743C55.6121 35.3458 55.5236 35.2856 55.4603 35.2027C55.397 35.1198 55.3623 35.0186 55.3613 34.9143C55.3651 34.8102 55.4033 34.7102 55.4701 34.6301C55.5368 34.5501 55.6282 34.4944 55.73 34.4719C55.9223 34.4291 56.1194 34.4114 56.3163 34.4193C56.3988 34.4193 56.5112 34.4298 56.5305 34.3175C56.5392 34.2746 56.5362 34.2302 56.522 34.1889C56.5079 34.1475 56.4829 34.1107 56.4497 34.0822C56.3865 34.0292 56.3124 33.9906 56.2326 33.969C56.1529 33.9475 56.0694 33.9436 55.988 33.9576C55.8832 33.9596 55.7806 33.988 55.6896 34.0401C55.6176 34.0699 55.5141 34.1331 55.4737 34.0085C55.4439 33.9278 55.5351 33.8856 55.5983 33.854C55.8004 33.75 56.0297 33.7108 56.2549 33.7417C56.606 33.8031 56.7815 33.9786 56.8096 34.3262C56.8201 34.4807 56.8096 34.6457 56.8096 34.7985H56.8113Z" fill="#75C111"/>
<path d="M62.7979 34.6457H62.6434C62.4678 34.6562 62.2642 34.6668 62.2537 34.9143C62.2449 35.0898 62.3959 35.211 62.6627 35.2004C62.708 35.2022 62.7534 35.1986 62.7979 35.1899C62.8948 35.1833 62.9856 35.1404 63.0523 35.0698C63.119 34.9992 63.1566 34.906 63.1577 34.8089C63.1384 34.5421 62.9102 34.6861 62.7979 34.6457ZM63.4333 34.7984V35.1495C63.4333 35.3953 63.4334 35.4058 63.1665 35.3128C63.0542 35.2724 63.0033 35.3444 62.9313 35.3742C62.8331 35.4139 62.728 35.4333 62.6221 35.4315C62.5163 35.4297 62.4119 35.4066 62.3151 35.3637C62.2229 35.3294 62.1442 35.2664 62.0904 35.184C62.0366 35.1017 62.0107 35.0042 62.0164 34.906C62.0221 34.8078 62.0591 34.714 62.122 34.6384C62.185 34.5628 62.2705 34.5094 62.366 34.486C62.5716 34.4404 62.7825 34.4232 62.9927 34.435C63.1682 34.4245 63.228 34.3122 63.1472 34.1682C63.1138 34.11 63.0658 34.0616 63.0079 34.0277C62.95 33.9938 62.8842 33.9757 62.8172 33.9751C62.6366 33.952 62.4533 33.9831 62.2905 34.0646C62.2273 34.0962 62.1361 34.1261 62.1045 34.0242C62.0729 33.9224 62.1466 33.8908 62.2168 33.8592C62.4434 33.739 62.7052 33.7029 62.9558 33.7574C63.2543 33.8399 63.4 33.9751 63.4281 34.27C63.4281 34.4456 63.4281 34.6299 63.4281 34.7967L63.4333 34.7984Z" fill="#75C111"/>
<path d="M39.1055 34.593V35.2513C39.1055 35.3637 39.0125 35.4989 38.9195 35.3865C38.7878 35.232 38.7158 35.3128 38.5912 35.3549C37.9961 35.5709 37.5765 35.304 37.5379 34.6861C37.5274 34.4421 37.5379 34.1946 37.5379 33.9383C37.5379 33.8452 37.5379 33.7417 37.6608 33.7417C37.7837 33.7417 37.7942 33.8347 37.8047 33.9278V34.6299C37.8153 35.0319 37.9487 35.1952 38.2664 35.2057C38.6175 35.225 38.8317 35.0302 38.8528 34.6299C38.8615 34.3842 38.8527 34.1384 38.8615 33.8821C38.8588 33.8633 38.8604 33.8442 38.8661 33.8261C38.8718 33.808 38.8815 33.7915 38.8945 33.7776C38.9075 33.7638 38.9234 33.7531 38.9411 33.7463C38.9588 33.7394 38.9778 33.7367 38.9967 33.7382C39.0897 33.7382 39.1196 33.8084 39.1196 33.8909C39.109 34.1384 39.1091 34.3631 39.1091 34.593H39.1055Z" fill="#75C111"/>
<path d="M34.4881 34.6158V35.2671C34.4881 35.3689 34.3758 35.4725 34.3249 35.4005C34.1616 35.153 34.0159 35.3496 33.8719 35.39C33.3804 35.5234 32.9784 35.2882 32.9275 34.8037C32.8977 34.5175 32.917 34.2191 32.9082 33.926C32.9082 33.8329 32.917 33.7399 33.0399 33.7399C33.1627 33.7399 33.1645 33.8417 33.1645 33.9347V34.6369C33.175 35.0371 33.319 35.1916 33.6367 35.2021C33.9544 35.2127 34.1809 35.0266 34.202 34.658C34.2125 34.4104 34.202 34.1647 34.2125 33.9066C34.2125 33.8153 34.2424 33.7311 34.367 33.7434C34.4478 33.7522 34.4793 33.8259 34.4793 33.9066C34.4793 34.1348 34.4793 34.3701 34.4793 34.6088L34.4881 34.6158Z" fill="#75C111"/>
<path d="M53.3281 34.5737V33.9154C53.3281 33.7732 53.4001 33.6714 53.544 33.7838C53.688 33.8961 53.7915 33.8154 53.9144 33.7838C54.5095 33.6293 54.8799 33.9066 54.8993 34.5123V35.2671C54.8993 35.3373 54.8905 35.4216 54.7869 35.4304C54.6833 35.4391 54.643 35.3496 54.643 35.2548V34.507C54.6324 34.1366 54.499 33.9926 54.19 33.9804C54.12 33.9683 54.0481 33.9713 53.9793 33.9893C53.9105 34.0072 53.8463 34.0396 53.7909 34.0843C53.7356 34.129 53.6905 34.1849 53.6585 34.2484C53.6265 34.3119 53.6084 34.3816 53.6055 34.4526C53.5839 34.7153 53.5775 34.9791 53.5862 35.2426C53.5862 35.3233 53.5862 35.4356 53.4633 35.4356C53.3404 35.4356 53.3386 35.3338 53.3386 35.2601C53.3281 35.0143 53.3281 34.7896 53.3281 34.5737Z" fill="#75C111"/>
<path d="M41.8596 34.5737V33.9154C41.8596 33.7732 41.9403 33.6714 42.0755 33.7926C42.1685 33.8856 42.2194 33.8961 42.3318 33.8347C42.5158 33.731 42.7324 33.7015 42.9374 33.7522C43.0544 33.7744 43.1621 33.8313 43.2463 33.9155C43.3305 33.9997 43.3874 34.1074 43.4097 34.2244C43.4486 34.5741 43.4556 34.9267 43.4307 35.2777C43.4339 35.2969 43.4323 35.3165 43.426 35.3349C43.4197 35.3533 43.4089 35.3699 43.3946 35.3831C43.3804 35.3963 43.363 35.4058 43.3442 35.4107C43.3254 35.4155 43.3056 35.4157 43.2867 35.4111C43.2571 35.408 43.2298 35.3933 43.2108 35.3704C43.1918 35.3474 43.1825 35.3179 43.185 35.2882C43.185 35.0407 43.185 34.7949 43.1744 34.5369C43.1639 34.1068 43.02 33.9523 42.6706 33.9523C42.3213 33.9523 42.1264 34.1489 42.1053 34.5474C42.0948 34.7528 42.1053 34.9581 42.1053 35.1635C42.1053 35.2566 42.1369 35.4006 41.9825 35.4111C41.828 35.4216 41.8508 35.2882 41.8508 35.1864C41.8508 34.9898 41.8508 34.7844 41.8508 34.579L41.8596 34.5737Z" fill="#75C111"/>
<path d="M75.7264 34.809V35.2935C75.7272 35.3231 75.7171 35.352 75.698 35.3746C75.6789 35.3972 75.6522 35.4121 75.6229 35.4164C75.6043 35.4194 75.5852 35.4181 75.5672 35.4127C75.5492 35.4072 75.5326 35.3976 75.5189 35.3847C75.5051 35.3718 75.4946 35.3559 75.4879 35.3383C75.4813 35.3207 75.4788 35.3017 75.4807 35.283C75.4684 35.139 75.4684 34.9845 75.4684 34.8406C75.4684 34.6966 75.4807 34.5738 75.4684 34.4509C75.4403 34.1121 75.3051 33.9699 75.019 33.9576C74.9483 33.9456 74.8758 33.9487 74.8063 33.9665C74.7368 33.9843 74.6719 34.0165 74.6156 34.061C74.5594 34.1056 74.5131 34.1614 74.4798 34.2249C74.4464 34.2884 74.4268 34.3582 74.4221 34.4298C74.4089 34.6214 74.4054 34.8136 74.4116 35.0056V35.2672C74.4116 35.3497 74.3818 35.4199 74.2887 35.4199C74.2701 35.4211 74.2515 35.4181 74.2342 35.4113C74.2168 35.4044 74.2013 35.3938 74.1885 35.3802C74.1758 35.3666 74.1662 35.3504 74.1605 35.3327C74.1547 35.315 74.1529 35.2962 74.1553 35.2777V34.3526C74.1553 34.1893 74.1553 34.0348 74.1641 33.8716C74.1764 33.7557 74.28 33.696 74.3396 33.768C74.452 33.9014 74.5345 33.8716 74.6661 33.8189C75.2928 33.5819 75.7194 33.8593 75.7335 34.507C75.7335 34.6001 75.7335 34.7037 75.7335 34.8037L75.7264 34.809Z" fill="#75C111"/>
<path d="M68.5674 35.2004C68.6479 35.2146 68.7306 35.2112 68.8097 35.1906C68.8888 35.17 68.9626 35.1327 69.0261 35.081C69.0895 35.0294 69.1411 34.9648 69.1774 34.8915C69.2136 34.8182 69.2337 34.738 69.2362 34.6562C69.2678 34.256 69.0607 33.9786 68.6727 33.9541C68.592 33.9427 68.5098 33.9489 68.4316 33.9721C68.3535 33.9954 68.2812 34.0351 68.2198 34.0888C68.1583 34.1424 68.1092 34.2086 68.0756 34.2829C68.0419 34.3571 68.0247 34.4378 68.025 34.5193C68.0124 34.6002 68.0167 34.6828 68.0377 34.7619C68.0586 34.841 68.0958 34.9149 68.1467 34.9789C68.1977 35.0429 68.2615 35.0956 68.3339 35.1338C68.4063 35.1719 68.4858 35.1946 68.5674 35.2004ZM69.5031 34.5737C69.5087 34.7474 69.462 34.9188 69.3692 35.0657C69.2764 35.2126 69.1417 35.3284 68.9824 35.3979C68.8232 35.4675 68.6468 35.4877 68.4759 35.456C68.305 35.4242 68.1476 35.342 68.024 35.2199C67.9003 35.0978 67.8161 34.9414 67.7823 34.771C67.7484 34.6005 67.7664 34.4238 67.834 34.2637C67.9016 34.1036 68.0156 33.9675 68.1614 33.8728C68.3072 33.7782 68.478 33.7294 68.6517 33.7329C68.7631 33.7312 68.8736 33.7518 68.977 33.7933C69.0803 33.8349 69.1743 33.8966 69.2536 33.9748C69.3328 34.0531 69.3957 34.1464 69.4386 34.2492C69.4814 34.352 69.5033 34.4624 69.5031 34.5737Z" fill="#75C111"/>
<path d="M71.2391 34.593C71.2476 34.5117 71.2387 34.4294 71.2129 34.3518C71.1871 34.2741 71.1451 34.2029 71.0896 34.1428C71.0342 34.0826 70.9665 34.035 70.8912 34.0031C70.8158 33.9712 70.7346 33.9556 70.6528 33.9576C70.572 33.949 70.4902 33.9578 70.4131 33.9835C70.336 34.0093 70.2654 34.0513 70.2059 34.1068C70.1465 34.1622 70.0997 34.2298 70.0687 34.3049C70.0376 34.38 70.0231 34.4609 70.0261 34.5422C70.0149 34.6269 70.0225 34.713 70.0483 34.7945C70.0741 34.876 70.1176 34.9508 70.1756 35.0136C70.2335 35.0764 70.3046 35.1257 70.3837 35.158C70.4629 35.1903 70.5481 35.2048 70.6335 35.2005C70.7144 35.2053 70.7955 35.1929 70.8713 35.1641C70.9471 35.1353 71.0159 35.0907 71.0732 35.0333C71.1305 34.9758 71.1749 34.9069 71.2035 34.831C71.2321 34.7551 71.2442 34.674 71.2391 34.593ZM70.623 33.7329C70.7347 33.7284 70.8462 33.7462 70.9511 33.7852C71.0559 33.8242 71.1519 33.8837 71.2336 33.9601C71.3153 34.0365 71.3809 34.1284 71.4268 34.2305C71.4726 34.3325 71.4977 34.4426 71.5007 34.5544C71.5025 34.669 71.4816 34.7828 71.439 34.8893C71.3964 34.9957 71.3331 35.0925 71.2527 35.1742C71.1723 35.2559 71.0765 35.3208 70.9708 35.3651C70.8651 35.4094 70.7516 35.4322 70.637 35.4321C70.5219 35.438 70.4068 35.4205 70.2986 35.3807C70.1904 35.3409 70.0914 35.2795 70.0076 35.2004C69.9238 35.1213 69.8569 35.026 69.811 34.9203C69.765 34.8146 69.741 34.7007 69.7403 34.5854C69.7395 34.4701 69.7622 34.3559 69.8069 34.2497C69.8515 34.1434 69.9172 34.0473 70 33.9671C70.0828 33.8869 70.181 33.8244 70.2887 33.7832C70.3964 33.7421 70.5113 33.7231 70.6265 33.7276L70.623 33.7329Z" fill="#75C111"/>
<path d="M78.747 33.7223C78.9286 33.7305 79.1072 33.7721 79.2736 33.8452C79.2949 33.8514 79.3131 33.8652 79.3248 33.884C79.3364 33.9028 79.3407 33.9253 79.3368 33.947C79.3345 33.9623 79.3291 33.9769 79.321 33.9899C79.3128 34.0029 79.3021 34.0142 79.2894 34.0229C79.2767 34.0316 79.2624 34.0376 79.2473 34.0406C79.2322 34.0436 79.2167 34.0434 79.2016 34.0401C79.0199 33.9662 78.8218 33.942 78.6276 33.9699C78.4924 33.9892 78.3924 34.0401 78.3695 34.1735C78.3467 34.3069 78.4415 34.3876 78.5662 34.4192C78.7417 34.4719 78.9173 34.5035 79.0928 34.5544C79.1808 34.5656 79.2623 34.6066 79.3239 34.6704C79.3856 34.7342 79.4235 34.8172 79.4316 34.9055C79.4357 35.0027 79.4077 35.0986 79.3518 35.1782C79.296 35.2579 79.2154 35.3169 79.1226 35.3461C78.9669 35.4049 78.8003 35.4298 78.6342 35.4193C78.468 35.4087 78.306 35.3628 78.1589 35.2847C78.0975 35.2531 78.0553 35.211 78.0869 35.1495C78.0916 35.1358 78.0993 35.1233 78.1095 35.1129C78.1197 35.1026 78.1321 35.0947 78.1457 35.0898C78.1594 35.0849 78.174 35.0832 78.1884 35.0847C78.2029 35.0862 78.2168 35.091 78.2291 35.0986C78.4243 35.1804 78.6358 35.2158 78.847 35.2022C78.991 35.1916 79.1226 35.1407 79.1542 34.9968C79.1858 34.8529 79.0419 34.7704 78.9067 34.7388C78.7716 34.7072 78.6399 34.6878 78.5082 34.6475C78.2098 34.565 78.0764 34.4333 78.0869 34.2051C78.0975 33.9769 78.2414 33.8364 78.5188 33.7645C78.5934 33.7436 78.6698 33.7295 78.747 33.7223Z" fill="#75C111"/>
<path d="M80.3054 35.4427C80.1019 35.4336 79.9021 35.3847 79.7173 35.2987C79.7037 35.2937 79.6913 35.2859 79.6808 35.2759C79.6703 35.2659 79.6619 35.2539 79.6562 35.2406C79.6505 35.2273 79.6475 35.2129 79.6475 35.1984C79.6475 35.1839 79.6505 35.1695 79.6562 35.1562C79.6619 35.1429 79.6703 35.1308 79.6808 35.1208C79.6913 35.1108 79.7037 35.1031 79.7173 35.098C79.7309 35.0929 79.7454 35.0907 79.7599 35.0914C79.7744 35.0922 79.7885 35.0958 79.8016 35.1022C79.9949 35.1882 80.2069 35.2238 80.4177 35.2057C80.5617 35.1952 80.6951 35.1443 80.7162 34.9898C80.7373 34.8353 80.6038 34.7756 80.4599 34.7335C80.3159 34.6914 80.1404 34.6615 79.9771 34.6212C79.8883 34.6058 79.8074 34.5608 79.7474 34.4936C79.6875 34.4263 79.6522 34.3407 79.6471 34.2507C79.6419 34.1534 79.6692 34.057 79.7249 33.9769C79.7805 33.8968 79.8612 33.8375 79.9543 33.8084C80.0875 33.7551 80.2304 33.7304 80.3737 33.7359C80.5171 33.7413 80.6576 33.7768 80.7864 33.84C80.8391 33.8593 80.9005 33.8909 80.8795 33.9629C80.8763 33.9816 80.8684 33.9992 80.8565 34.014C80.8446 34.0288 80.8291 34.0403 80.8114 34.0473C80.7938 34.0544 80.7746 34.0568 80.7558 34.0543C80.737 34.0518 80.7191 34.0445 80.7039 34.0331C80.5375 33.9637 80.3547 33.9436 80.1773 33.9751C80.117 33.9717 80.0576 33.9905 80.0103 34.0281C79.963 34.0657 79.9312 34.1193 79.921 34.1788C79.9017 34.3227 79.9929 34.3929 80.1264 34.4245C80.2598 34.4561 80.4248 34.486 80.5687 34.5281C80.8777 34.6106 81.0093 34.7528 81.0006 34.9582C80.9918 35.1636 80.8461 35.3181 80.5564 35.3918C80.4743 35.4156 80.3903 35.4327 80.3054 35.4427Z" fill="#75C111"/>
<path d="M36.8152 35.4427C36.7509 35.4521 36.6853 35.4479 36.6228 35.4301C36.5603 35.4124 36.5022 35.3816 36.4525 35.3398C36.4027 35.298 36.3624 35.2462 36.3341 35.1876C36.3059 35.1291 36.2903 35.0653 36.2886 35.0003C36.2692 34.7844 36.278 34.5597 36.278 34.342C36.278 34.1665 36.3201 33.9909 36.0533 33.9435C36.0345 33.941 36.017 33.9324 36.0036 33.919C35.9902 33.9055 35.9816 33.888 35.9792 33.8691C35.9768 33.8503 35.9807 33.8312 35.9903 33.8148C35.9999 33.7984 36.0147 33.7856 36.0323 33.7785C36.185 33.7153 36.2886 33.6451 36.2886 33.4696C36.2891 33.4547 36.293 33.4401 36.2999 33.427C36.3069 33.4139 36.3167 33.4024 36.3287 33.3937C36.3407 33.3849 36.3545 33.3789 36.3692 33.3763C36.3838 33.3736 36.3989 33.3743 36.4132 33.3783C36.4518 33.387 36.5045 33.4099 36.5045 33.4608C36.4939 33.7469 36.68 33.7469 36.8959 33.7469C36.9111 33.7445 36.9267 33.7452 36.9416 33.7492C36.9565 33.7532 36.9703 33.7603 36.9822 33.77C36.9941 33.7798 37.0039 33.7919 37.0108 33.8057C37.0176 33.8195 37.0215 33.8345 37.0222 33.8499C37.0228 33.8653 37.0201 33.8806 37.0144 33.8949C37.0087 33.9092 37 33.9221 36.9889 33.9328C36.9778 33.9435 36.9645 33.9517 36.95 33.9569C36.9355 33.962 36.9201 33.9641 36.9047 33.9629C36.7924 33.9839 36.6484 33.933 36.5677 34.0331C36.4869 34.1331 36.5256 34.2928 36.5256 34.4157C36.5132 34.5623 36.5132 34.7097 36.5256 34.8564C36.5449 35.1548 36.587 35.1952 36.9047 35.2074C36.9767 35.2074 37.0697 35.1653 37.0908 35.2584C37.1207 35.3812 37.0083 35.3936 36.9275 35.4129C36.8896 35.4208 36.8521 35.4307 36.8152 35.4427Z" fill="#75C111"/>
<path d="M57.9923 35.4251C57.664 35.4251 57.4779 35.2619 57.4656 34.9634C57.4463 34.7177 57.4656 34.4719 57.4551 34.2244C57.4551 34.1524 57.4551 34.0278 57.434 34.019C56.9618 33.8768 57.2497 33.7732 57.4463 33.6398C57.4849 33.61 57.4551 33.4854 57.4849 33.4344C57.5481 33.3432 57.6815 33.3432 57.6903 33.4432C57.7131 33.7013 57.8448 33.761 58.073 33.7417C58.0909 33.7374 58.1095 33.7375 58.1273 33.7418C58.1451 33.7462 58.1617 33.7547 58.1756 33.7667C58.1894 33.7787 58.2003 33.7938 58.2072 33.8108C58.2141 33.8278 58.2168 33.8462 58.2152 33.8645C58.2047 33.9383 58.1432 33.947 58.0818 33.9576C57.7219 34.0401 57.7219 34.0401 57.7219 34.3683V34.7598C57.7325 35.139 57.7325 35.1495 58.1538 35.1811C58.2152 35.1811 58.2784 35.1811 58.2872 35.2513C58.296 35.3215 58.2468 35.3549 58.1854 35.3742C58.1246 35.4028 58.0592 35.42 57.9923 35.4251Z" fill="#75C111"/>
<path d="M47.6207 35.4427C47.5569 35.4472 47.4928 35.4387 47.4324 35.4177C47.372 35.3966 47.3166 35.3635 47.2694 35.3203C47.2223 35.2771 47.1844 35.2247 47.1582 35.1663C47.1319 35.108 47.1179 35.045 47.1169 34.981C47.0975 34.723 47.1168 34.4544 47.1063 34.1876C47.1063 34.1173 47.138 34.0243 47.0554 33.9944C46.7781 33.9014 46.6762 33.8189 47.0361 33.7066C47.1063 33.6855 47.0975 33.6153 47.1063 33.5608C47.1168 33.4713 47.1169 33.3677 47.2415 33.3853C47.3661 33.4028 47.3644 33.4976 47.3731 33.5801C47.396 33.8154 47.5891 33.7136 47.7242 33.7452C47.8067 33.7452 47.87 33.7855 47.87 33.8768C47.87 33.9681 47.8068 33.9593 47.7453 33.9821C47.3855 34.0629 47.3854 34.0629 47.3854 34.3912V34.9178C47.3854 35.1337 47.4873 35.2478 47.7242 35.2268C47.8067 35.2162 47.9314 35.1548 47.9402 35.2882C47.9489 35.4216 47.7962 35.4023 47.7155 35.4409C47.6841 35.4352 47.6519 35.4358 47.6207 35.4427Z" fill="#75C111"/>
<path d="M39.7324 34.593V33.8908C39.7324 33.7873 39.8255 33.6855 39.8957 33.7557C40.0607 33.9312 40.1941 33.7978 40.3486 33.768C40.4293 33.7557 40.5329 33.6855 40.5838 33.8101C40.6347 33.9347 40.5224 33.9418 40.4294 33.9646C40.3042 33.9813 40.19 34.045 40.1101 34.1428C40.0302 34.2406 39.9906 34.3652 39.9993 34.4912C39.9799 34.7353 39.9888 34.9828 39.9888 35.2391C39.9888 35.3321 39.9694 35.4251 39.8448 35.4146C39.7518 35.4058 39.743 35.3216 39.743 35.2391C39.7324 35.0144 39.7324 34.7967 39.7324 34.5808V34.593Z" fill="#75C111"/>
<path d="M60.866 34.5649V33.9084C60.866 33.7539 60.9591 33.6732 61.0907 33.7943C61.2575 33.94 61.3698 33.7627 61.5032 33.7539C61.5945 33.7539 61.6981 33.703 61.7174 33.8259C61.7402 33.9172 61.656 33.94 61.5752 33.9488C61.2452 33.9997 61.1328 34.2261 61.1135 34.514C61.0907 34.7616 61.103 35.0073 61.103 35.2636C61.103 35.3461 61.0714 35.4181 60.9783 35.4076C60.8853 35.397 60.866 35.325 60.866 35.2531C60.8555 35.0389 60.866 34.8002 60.866 34.5649Z" fill="#75C111"/>
<path d="M41.243 34.5843V35.2865C41.2457 35.3162 41.2378 35.3458 41.2208 35.3702C41.2038 35.3946 41.1787 35.4122 41.15 35.4199C41.0569 35.4287 41.0183 35.3673 41.0183 35.2865V33.8822C41.0151 33.8525 41.0225 33.8226 41.0392 33.7979C41.0559 33.7731 41.0809 33.7551 41.1096 33.747C41.2009 33.7364 41.243 33.7979 41.243 33.8822V34.5843Z" fill="#75C111"/>
<path d="M64.2647 34.2244V35.2321C64.2647 35.304 64.2454 35.3865 64.1436 35.3637C64.0699 35.3549 64.0594 35.283 64.0594 35.2321V33.208C64.0576 33.1936 64.0589 33.1789 64.0634 33.1651C64.0678 33.1512 64.0752 33.1385 64.0851 33.1278C64.0949 33.1171 64.107 33.1087 64.1205 33.1031C64.1339 33.0976 64.1484 33.095 64.1629 33.0956C64.2455 33.0956 64.2647 33.1571 64.2647 33.208C64.2647 33.5591 64.256 33.8856 64.2647 34.2244Z" fill="#75C111"/>
<path d="M41.1299 33.3923C41.1082 33.3925 41.0866 33.3884 41.0665 33.3802C41.0463 33.372 41.0281 33.3598 41.0127 33.3445C40.9973 33.3291 40.9851 33.3108 40.9769 33.2907C40.9687 33.2706 40.9646 33.249 40.9649 33.2273C40.9648 33.2089 40.9685 33.1907 40.9759 33.1739C40.9833 33.1571 40.9941 33.1419 41.0077 33.1295C41.0212 33.1171 41.0372 33.1077 41.0546 33.1019C41.0721 33.0961 41.0905 33.0939 41.1088 33.0956C41.1297 33.0908 41.1514 33.0904 41.1724 33.0946C41.1934 33.0988 41.2133 33.1074 41.2307 33.1198C41.2481 33.1323 41.2627 33.1483 41.2735 33.1668C41.2842 33.1854 41.291 33.2059 41.2931 33.2273C41.2931 33.3361 41.2229 33.373 41.1299 33.3923Z" fill="#75C111"/>
<path d="M14.5017 24.996H28.3646L27.5149 28.3173L25.282 31.047L23.0701 31.8967L15.9956 32.0705L14.4648 31.995L14.5017 24.996Z" fill="#F7CE09"/>
<path d="M77.5087 25.9913C77.5087 27.1394 77.5087 28.2857 77.5087 29.432C77.5192 30.2272 78.0476 30.4853 78.7638 30.243C78.8937 30.1956 79.0201 30.1254 79.1465 30.0675L79.2237 30.0341L79.3045 30.0447C79.3742 30.0549 79.4403 30.0825 79.4967 30.1248C79.5532 30.1671 79.5981 30.2228 79.6275 30.2869V30.2974V30.3062C79.7416 30.5239 79.8926 30.7977 79.7925 31.047C79.6924 31.2963 79.3975 31.3981 79.1623 31.4771C78.6236 31.6635 78.0423 31.6892 77.4893 31.5509C76.5818 31.3227 76.0657 30.6538 76.0235 29.7234C75.9955 29.0932 76.013 28.463 76.013 27.8293V25.9826H74.9088L74.8825 25.7175C74.8562 25.4489 74.7824 25.0574 74.986 24.8397C75.1897 24.6221 75.5127 24.6642 75.7655 24.6642H76.013V24.45C76.013 24.2288 76.0235 24.0059 76.013 23.7847C75.9972 23.4582 76.1886 23.2879 76.5063 23.2703C76.7608 23.2563 77.1119 23.2089 77.312 23.3967C77.5121 23.5846 77.4876 23.9234 77.4876 24.1797C77.4861 24.2691 77.4785 24.3582 77.4648 24.4465C77.4516 24.5277 77.448 24.6102 77.4542 24.6923C77.5363 24.6976 77.6187 24.6941 77.7 24.6817C77.7954 24.6688 77.8916 24.663 77.9879 24.6642C78.3004 24.673 78.6128 24.673 78.9235 24.6642H78.9323C79.2834 24.6642 79.5046 24.8397 79.4695 25.2119V25.2259C79.466 25.2774 79.466 25.329 79.4695 25.3804V25.3892C79.488 25.5522 79.442 25.716 79.3413 25.8456C79.2741 25.8996 79.1968 25.9395 79.1139 25.963C79.0309 25.9865 78.9441 25.9932 78.8586 25.9826H78.8498C78.4162 25.9896 77.9633 26.0071 77.5087 25.9913Z" fill="#231F20"/>
<path d="M32.2851 27.4589H36.2121C36.0974 26.9825 35.81 26.5656 35.4056 26.289C35.0012 26.0124 34.5086 25.8957 34.023 25.9614C33.1892 26.058 32.4396 26.611 32.2851 27.4589ZM32.2851 28.6877C32.3597 29.0775 32.5564 29.4335 32.8468 29.7041C33.6579 30.466 35.1184 30.4923 35.9927 29.8235C36.0962 29.7287 36.205 29.6479 36.3121 29.5531L36.5175 29.3776L36.7071 29.5672C36.7826 29.6391 36.8546 29.7146 36.9265 29.7919C37.0687 29.9481 37.2548 30.1272 37.2372 30.3571C37.2197 30.5871 36.995 30.7486 36.8212 30.8838C36.3739 31.2411 35.8406 31.4747 35.2747 31.5613C34.3144 31.7141 33.3823 31.6456 32.5204 31.1629C32.0286 30.9037 31.611 30.5235 31.307 30.0582C31.0029 29.5929 30.8224 29.0578 30.7824 28.5034C30.7009 27.8061 30.8229 27.1001 31.1335 26.4705C31.3953 25.9466 31.7899 25.5005 32.2781 25.1768C33.0484 24.681 33.9793 24.4989 34.8797 24.6677C35.6054 24.7784 36.2735 25.128 36.7782 25.6613C37.2828 26.1945 37.5951 26.8808 37.6656 27.6116C37.6867 27.8029 37.6867 27.9925 37.6954 28.1856C37.7031 28.2522 37.6957 28.3196 37.674 28.383C37.6522 28.4463 37.6165 28.504 37.5696 28.5518C37.5226 28.5996 37.4656 28.6363 37.4026 28.6592C37.3396 28.6821 37.2723 28.6906 37.2057 28.6842H37.1898C37.0283 28.6754 36.8704 28.6842 36.7089 28.6842H32.2886L32.2851 28.6877Z" fill="#231F20"/>
<path d="M41.8012 31.5894C41.7634 31.5842 41.725 31.5842 41.6872 31.5894C41.5306 31.6211 41.3679 31.5947 41.2294 31.5152C41.0908 31.4358 40.9858 31.3087 40.9341 31.1576C40.0306 29.1494 39.1178 27.1446 38.1956 25.1434L38.0762 24.8853L38.3307 24.7572C38.3976 24.7137 38.4742 24.6872 38.5537 24.6799C38.8328 24.6624 39.1997 24.622 39.4472 24.7712C39.6947 24.9204 39.8088 25.2347 39.9194 25.4734C40.5467 26.859 41.1746 28.243 41.803 29.6251C42.4824 28.1523 43.1635 26.6777 43.8253 25.1943C44.0008 24.8046 44.28 24.5904 44.7188 24.6677C44.7697 24.672 44.8207 24.672 44.8715 24.6677C44.9874 24.6628 45.1028 24.6851 45.2086 24.7326L45.3368 24.7923L45.3701 24.9292C45.3903 25.0087 45.3903 25.092 45.3701 25.1715C45.3518 25.2327 45.3265 25.2916 45.2946 25.347C45.2832 25.3646 45.2737 25.3835 45.2665 25.4032C44.4063 27.2938 43.5339 29.1792 42.6755 31.0698C42.4982 31.4595 42.2296 31.6649 41.8012 31.5894Z" fill="#231F20"/>
<path d="M50.6579 28.693V28.6543H48.7989C48.5894 28.6554 48.3808 28.6813 48.1774 28.7316C47.6877 28.8509 47.4647 29.1476 47.5472 29.6497C47.6104 30.0271 47.8983 30.1974 48.2336 30.2939C48.6707 30.4172 49.1341 30.4111 49.5678 30.2764C50.2208 30.085 50.6579 29.6356 50.6579 28.9317V28.693ZM50.6579 31.0979C50.3291 31.3393 49.9487 31.5009 49.5467 31.5701C48.8607 31.7123 48.1492 31.6687 47.4858 31.4437C46.415 31.047 45.8409 30.0394 46.1639 28.9247C46.3605 28.2471 46.8363 27.8328 47.4946 27.6133C47.8922 27.4897 48.3071 27.4305 48.7234 27.4378H50.6544C50.6524 27.3203 50.6436 27.2031 50.6281 27.0867V27.0762C50.6094 26.806 50.4947 26.5513 50.3048 26.3581C50.1149 26.165 49.8622 26.0461 49.5924 26.0229C48.7986 25.8843 47.9819 26.0551 47.3103 26.5004C47.2494 26.5568 47.1772 26.5994 47.0985 26.6255C47.0197 26.6515 46.9363 26.6603 46.8538 26.6513C46.6783 26.6145 46.5975 26.4758 46.5027 26.3406C46.3834 26.1545 46.2236 25.9404 46.2798 25.7087C46.336 25.477 46.5888 25.3576 46.7854 25.2382C47.8132 24.6571 49.0219 24.4835 50.1717 24.752C51.3303 25.0118 52.0149 25.8649 52.0763 27.0446C52.1062 27.5958 52.0851 28.1453 52.0851 28.6965V31.054C52.0851 31.4157 51.8973 31.6158 51.5304 31.6018C51.3935 31.6018 51.2512 31.6018 51.1161 31.593C51.0472 31.5956 50.9784 31.5835 50.9146 31.5575C50.8507 31.5315 50.7931 31.4921 50.7457 31.442C50.6717 31.3435 50.639 31.2201 50.6544 31.0979H50.6579Z" fill="#231F20"/>
<path d="M57.4481 27.5799C57.9062 28.1347 58.3592 28.6929 58.8138 29.2511C59.2685 29.8094 59.7196 30.3606 60.1708 30.9171C60.2199 30.9803 60.2621 31.054 60.306 31.1224L60.5938 31.5754H60.0567C59.7337 31.5754 59.4124 31.5859 59.0876 31.5754C58.9931 31.5747 58.9008 31.546 58.8226 31.4929C58.7331 31.4231 58.656 31.3388 58.5944 31.2436C57.8501 30.336 57.104 29.4337 56.3456 28.5384C56.1701 28.6841 55.9945 28.8649 55.819 29.0141C55.6435 29.1634 55.2713 29.4144 55.1537 29.6321C55.1479 29.6445 55.1432 29.6575 55.1396 29.6707C55.1106 29.8309 55.1106 29.995 55.1396 30.1552C55.1502 30.2678 55.1537 30.381 55.1502 30.494C55.1554 30.5952 55.1554 30.6966 55.1502 30.7977C55.1476 30.8322 55.1476 30.8668 55.1502 30.9013C55.1765 31.14 55.1677 31.3735 54.9325 31.5069C54.6376 31.6825 54.3602 31.5964 54.0548 31.5842C53.9994 31.5825 53.9449 31.5695 53.8947 31.5458C53.8446 31.5222 53.7998 31.4885 53.7633 31.4469C53.7267 31.4052 53.6991 31.3564 53.6822 31.3037C53.6653 31.2509 53.6595 31.1952 53.6651 31.14V22.8051C53.6651 22.6015 53.6317 22.3504 53.7897 22.1942C53.9477 22.038 54.218 22.0731 54.4269 22.0731H54.6253C54.6964 22.0627 54.7689 22.0693 54.837 22.0923C54.9051 22.1152 54.9669 22.1539 55.0172 22.2053C55.0675 22.2566 55.1049 22.3191 55.1265 22.3876C55.1481 22.4562 55.1532 22.5288 55.1414 22.5997V22.6102C55.137 22.6933 55.137 22.7765 55.1414 22.8595V27.7572C56.1771 26.8468 57.2105 25.931 58.2415 25.01C58.3539 24.8929 58.4911 24.8025 58.643 24.7454C58.7948 24.6883 58.9576 24.6659 59.1193 24.6799C59.3598 24.6799 59.6038 24.6711 59.8478 24.6711H60.5974L60.0462 25.182L58.3065 26.79C58.0098 27.0533 57.7395 27.3236 57.4481 27.5799Z" fill="#231F20"/>
<path d="M63.4127 25.3383C63.9498 24.8502 64.6257 24.6712 65.3629 24.6255C65.4296 24.6157 65.4977 24.6212 65.562 24.6414C65.6263 24.6617 65.6852 24.6963 65.7342 24.7426C65.7832 24.7889 65.821 24.8457 65.8449 24.9087C65.8688 24.9718 65.8781 25.0394 65.8721 25.1066V25.1206C65.8633 25.3119 65.8721 25.5033 65.8721 25.6964V25.8614L65.7299 25.9474C65.6321 26.0064 65.5209 26.0396 65.4068 26.044C65.3471 26.044 65.2875 26.044 65.2313 26.044H65.2208C64.2096 26.1247 63.5636 26.7023 63.4881 27.7275C63.4618 28.1189 63.4706 28.5121 63.4706 28.9054C63.4706 29.6075 63.4706 30.3097 63.4706 31.026C63.4706 31.3981 63.2828 31.6123 62.8966 31.6018C62.7544 31.6018 62.6104 31.6018 62.4664 31.6018C62.3958 31.6056 62.3252 31.594 62.2594 31.568C62.1937 31.5419 62.1343 31.502 62.0855 31.4508C62.0054 31.3476 61.9689 31.2172 61.9837 31.0874C61.9837 30.968 61.9942 30.8539 61.9942 30.7363C61.9942 28.9334 61.9942 27.1306 61.9942 25.3277C61.9641 25.1682 61.9902 25.0032 62.068 24.8608C62.2014 24.6852 62.4419 24.6852 62.6437 24.6852H62.6876C62.8895 24.6852 63.1511 24.6536 63.3056 24.8134C63.46 24.9731 63.4127 25.1557 63.4127 25.3383Z" fill="#231F20"/>
<path d="M72.1619 30.961C71.7727 31.2717 71.3145 31.4842 70.826 31.5807C70.195 31.7091 69.5416 31.6734 68.9283 31.4771C68.458 31.3402 68.0372 31.0705 67.7164 30.7002C67.3957 30.3299 67.1886 29.8749 67.1202 29.3899C67.0849 29.2164 67.0649 29.0402 67.0605 28.8632V24.7712L67.2905 24.7221C67.6165 24.6589 67.951 24.6536 68.2788 24.7063L68.5369 24.7396V28.6017C68.5527 29.6549 69.0354 30.2378 70.0993 30.2852C71.1086 30.3326 71.9495 29.7866 72.0759 28.7474C72.1023 28.5201 72.1146 28.2915 72.1128 28.0627C72.1128 27.1165 72.1128 26.1703 72.1128 25.2224C72.1023 25.1486 72.1087 25.0734 72.1315 25.0025C72.1544 24.9316 72.1931 24.8668 72.2446 24.813C72.2962 24.7592 72.3594 24.7179 72.4293 24.6921C72.4992 24.6663 72.574 24.6568 72.6481 24.6642C72.8957 24.6554 73.2292 24.6185 73.4206 24.8046C73.6119 24.9907 73.5961 25.3119 73.5961 25.5559V31.1594C73.6019 31.2581 73.5702 31.3554 73.5074 31.4319C73.4446 31.5084 73.3553 31.5584 73.2573 31.5719H73.245H73.2292C73.0045 31.5807 72.7763 31.5807 72.5499 31.5719C72.4973 31.5688 72.446 31.5545 72.3994 31.53C72.3527 31.5054 72.3119 31.4712 72.2795 31.4297C72.2088 31.333 72.1763 31.2136 72.1882 31.0944C72.1689 31.054 72.1637 31.0049 72.1619 30.961Z" fill="#231F20"/>
<path d="M19.3697 9.80069V7.9206C19.3605 7.86144 19.3639 7.80102 19.3797 7.74326C19.3954 7.68549 19.4231 7.63168 19.461 7.58532C19.5077 7.54711 19.5616 7.51854 19.6195 7.50137C19.6773 7.48419 19.738 7.47872 19.798 7.48525C20.0017 7.48525 20.2983 7.45013 20.4546 7.60637C20.6108 7.7626 20.588 8.02417 20.588 8.22078V11.7616C20.5893 11.8104 20.5804 11.859 20.5619 11.9042C20.5434 11.9494 20.5157 11.9902 20.4805 12.024C20.4453 12.0579 20.4034 12.0841 20.3575 12.1008C20.3117 12.1176 20.2628 12.1246 20.2141 12.1214C20.0648 12.1214 19.9139 12.1126 19.7647 12.1214C19.7105 12.1299 19.6552 12.1255 19.6031 12.1088C19.5509 12.0921 19.5035 12.0634 19.4644 12.025C19.4253 11.9866 19.3958 11.9396 19.3781 11.8878C19.3605 11.8359 19.3552 11.7807 19.3627 11.7264C19.3662 11.0857 19.3697 10.4432 19.3697 9.80069Z" fill="#231F20"/>
<path d="M15.1919 30.4396C15.1919 30.4519 15.1919 30.466 15.2006 30.4765C15.2094 30.487 15.2006 30.4765 15.2006 30.487V30.5063C15.2024 30.5108 15.2024 30.5159 15.2006 30.5204V30.545C15.1796 30.8061 15.1796 31.0685 15.2006 31.3297C15.2024 31.3354 15.2024 31.3415 15.2006 31.3472V31.356C15.2004 31.3649 15.202 31.3737 15.2052 31.382C15.2085 31.3903 15.2134 31.3979 15.2196 31.4043C15.2258 31.4107 15.2332 31.4157 15.2414 31.4192C15.2496 31.4227 15.2585 31.4245 15.2674 31.4245C17.3739 31.4245 19.4699 31.4508 21.5677 31.4157C23.1898 31.4107 24.7479 30.7822 25.9195 29.6602C27.0908 28.5765 27.7893 27.076 27.8645 25.482C27.9397 23.8881 27.3856 22.3284 26.3215 21.1392C25.445 20.1339 24.2713 19.4336 22.9703 19.1397C22.5013 19.0253 22.0206 18.9664 21.5379 18.9642H14.5283C14.478 18.9616 14.4276 18.9616 14.3773 18.9642C14.1017 18.9905 13.9086 18.8431 13.935 18.5517C13.9367 18.5195 13.9367 18.4873 13.935 18.4551C13.9142 18.2547 13.9279 18.0523 13.9753 17.8565L14.0034 17.7705C14.0075 17.7585 14.0147 17.7478 14.0243 17.7395C14.0338 17.7312 14.0454 17.7255 14.0579 17.7231L14.1474 17.709C14.3623 17.6839 14.5791 17.678 14.7952 17.6915C16.9807 17.6915 19.1627 17.6915 21.3447 17.6915C22.1212 17.6884 22.8942 17.7948 23.6409 18.0075C24.7385 18.3197 25.753 18.8719 26.6111 19.6242C27.7466 20.581 28.5524 21.8707 28.9143 23.3107C29.5147 25.7683 29.0196 28.0381 27.3712 29.9814C26.1439 31.4325 24.4181 32.3718 22.5332 32.6146C22.0646 32.6731 21.5921 32.6949 21.1201 32.6796C18.9082 32.6691 16.6963 32.6796 14.4827 32.6796H14.0982C14.0867 32.6795 14.0754 32.6765 14.0653 32.671C14.0552 32.6655 14.0466 32.6576 14.0403 32.648L13.9964 32.576C13.9316 32.4584 13.9081 32.3224 13.9297 32.1898V25.3119C13.9222 25.2586 13.9276 25.2042 13.9454 25.1534C13.9632 25.1025 13.993 25.0567 14.0322 25.0197C14.0714 24.9828 14.1189 24.9557 14.1707 24.9409C14.2225 24.9261 14.2771 24.9239 14.3299 24.9345C14.4949 24.9503 14.6652 24.9117 14.8373 24.9345C14.9361 24.9423 15.0325 24.9686 15.1216 25.0118L15.2972 25.0943C15.3064 25.0987 15.3145 25.1051 15.3209 25.113C15.3273 25.121 15.3319 25.1302 15.3342 25.1402C15.3366 25.1501 15.3367 25.1605 15.3345 25.1704C15.3324 25.1804 15.328 25.1897 15.3218 25.1978L15.2129 25.3347C15.2048 25.3441 15.1999 25.3558 15.1989 25.3681C15.1975 25.3915 15.1975 25.415 15.1989 25.4383V30.4467L15.1919 30.4396Z" fill="#231F20"/>
<path d="M14.3646 7.49403L14.5015 7.48348C14.5887 7.46163 14.6798 7.45929 14.768 7.47658C14.8563 7.49388 14.9398 7.53039 15.0123 7.58356C15.0454 7.61187 15.0733 7.64574 15.0948 7.68363C15.1554 7.81413 15.1715 7.9609 15.1405 8.10141C15.1405 8.14354 15.1299 8.19094 15.1299 8.23307V12.9447C15.1399 13.3841 15.058 13.8207 14.8897 14.2266C14.7213 14.6326 14.4701 14.9989 14.1521 15.3023C13.8347 15.6166 13.4564 15.8627 13.0404 16.0254C12.6244 16.1881 12.1795 16.264 11.7331 16.2485C11.0679 16.2312 10.4022 16.2499 9.73893 16.3047C8.37096 16.4254 7.04697 16.8489 5.86287 17.5445C4.67876 18.2401 3.66418 19.1903 2.89265 20.3264C2.19756 21.3589 1.7324 22.5287 1.52865 23.7566C1.40593 24.4617 1.37407 25.1797 1.43385 25.893C1.57263 27.6686 2.25827 29.3576 3.39644 30.7275C4.91316 32.5742 6.87751 33.6468 9.23334 34.026C9.60604 34.0857 9.98293 34.1156 10.3604 34.1155H28.582C28.7226 34.0989 28.8651 34.1097 29.0016 34.1472L29.149 34.198V35.304H28.6224C22.7328 35.304 16.8433 35.2935 10.9537 35.304C9.52562 35.3269 8.10581 35.0834 6.76695 34.586C5.53404 34.1146 4.40211 33.4128 3.43158 32.5181C2.57759 31.7321 1.86503 30.8052 1.32503 29.7778C0.590907 28.3575 0.201234 26.7843 0.1875 25.1855C0.191566 23.7721 0.495488 22.3756 1.07924 21.0883C1.84906 19.4394 3.03677 18.0206 4.52446 16.9726C6.01215 15.9247 7.74807 15.2841 9.55987 15.1145C10.3122 15.0586 11.0668 15.0404 11.8209 15.06C12.3212 15.0606 12.8052 14.8821 13.1854 14.557C13.5656 14.2318 13.817 13.7814 13.8941 13.287C13.916 13.0906 13.9266 12.8931 13.9257 12.6954V7.92059C13.9179 7.85796 13.9233 7.79439 13.9414 7.73394C13.9595 7.6735 13.9901 7.61751 14.031 7.5695C14.0783 7.5343 14.1324 7.50939 14.1898 7.49638C14.2473 7.48338 14.3068 7.48259 14.3646 7.49403Z" fill="#231F20"/>
<path d="M34.8906 34.5649V33.8628C34.8906 33.7592 34.9837 33.6574 35.0539 33.7276C35.2189 33.9031 35.3506 33.7697 35.505 33.7381C35.5875 33.7276 35.6911 33.6574 35.742 33.7803C35.7929 33.9031 35.6806 33.9136 35.5875 33.9347C35.4622 33.951 35.3477 34.0146 35.2678 34.1125C35.1878 34.2105 35.1483 34.3352 35.1575 34.4614C35.1381 34.7071 35.1469 34.9546 35.1469 35.2109C35.1469 35.3022 35.1258 35.3865 35.003 35.3865C34.9099 35.3777 34.9012 35.2934 34.9012 35.2109C34.8906 34.9845 34.8906 34.7686 34.8906 34.5526V34.5649Z" fill="#75C111"/>
</svg>
