<svg width="13" height="45" viewBox="0 0 13 45" fill="none" xmlns="http://www.w3.org/2000/svg">
<path d="M11.7036 14.093H1V39.7816H11.7036V14.093Z" fill="#1A1A18"/>
<path d="M6.48587 0H6.11643C4.76872 0 3.67619 1.09254 3.67619 2.44025V2.96515C3.67619 3.23806 3.57388 3.50107 3.38947 3.70225C2.74811 4.40191 3.24444 5.53017 4.19357 5.53017H8.33988C9.28491 5.53017 9.82434 4.4513 9.25733 3.69528C9.10845 3.49677 9.02797 3.25533 9.02797 3.00719V2.5421C9.02797 1.13814 7.88983 0 6.48587 0Z" fill="#1A1A18"/>
<path d="M3.10147 9.4013H4.08263V1.84102C4.08262 1.60224 4.17724 1.37318 4.34575 1.204C4.51426 1.03482 4.74294 0.939298 4.98173 0.938354H7.8039C8.04268 0.939298 8.27136 1.03482 8.43988 1.204C8.60839 1.37318 8.703 1.60224 8.703 1.84102V9.4013H9.68416C10.2409 9.40319 10.7743 9.62519 11.168 10.0189C11.5617 10.4126 11.7837 10.946 11.7856 11.5028V41.8938C11.7866 42.1707 11.733 42.445 11.6279 42.7012C11.5227 42.9574 11.3682 43.1904 11.1731 43.3869C10.9779 43.5833 10.746 43.7394 10.4905 43.8463C10.2351 43.9531 9.96106 44.0086 9.68416 44.0095H3.10147C2.5447 44.0076 2.01128 43.7856 1.61758 43.3919C1.22389 42.9982 1.00188 42.4648 1 41.908V11.5028C1.00188 10.946 1.22389 10.4126 1.61758 10.0189C2.01128 9.62519 2.5447 9.40319 3.10147 9.4013Z" stroke="#1A1A18" stroke-width="0.57" stroke-miterlimit="22.93"/>
<path d="M3.47967 32.6494V32.9028C3.47967 32.9349 3.47967 32.9456 3.44043 32.9384C3.17592 32.8868 2.92006 32.7979 2.68047 32.6744C2.49594 32.5726 2.33624 32.4312 2.21286 32.2603C2.08949 32.0894 2.00549 31.8933 1.9669 31.6861C1.92867 31.5151 1.90834 31.3405 1.90625 31.1652C1.90625 31.1188 1.90625 31.0725 1.90625 31.0296C1.90625 30.9868 1.90625 30.9761 1.95977 30.9833C2.05967 31.0082 2.15957 31.0296 2.25947 31.0582C2.44834 31.1017 2.62984 31.1727 2.79821 31.2687C3.06823 31.4346 3.27535 31.6856 3.38691 31.9823C3.46658 32.194 3.5018 32.4199 3.49038 32.6459" fill="#FFFAEA"/>
<path d="M3.48683 33.2595C3.32636 33.5006 3.10962 33.699 2.85532 33.8375C2.64692 33.9246 2.41898 33.9541 2.19527 33.9231C2.05711 33.9033 1.92014 33.8759 1.78496 33.8411H1.73145C1.75559 33.7928 1.78822 33.7493 1.82778 33.7126C1.95983 33.544 2.12192 33.4013 2.30587 33.2916C2.52105 33.1656 2.77269 33.1166 3.01944 33.1525C3.15229 33.1741 3.28343 33.2051 3.4119 33.2453C3.43866 33.2475 3.46383 33.2588 3.48326 33.2774" fill="#FFFAEA"/>
<path d="M2.97656 34.4405C2.98059 34.3254 3.01339 34.2132 3.07198 34.1141C3.13057 34.015 3.21307 33.9322 3.31194 33.8732C3.36801 33.8504 3.42676 33.8348 3.48677 33.8268C3.49816 33.889 3.49643 33.9528 3.48168 34.0143C3.46693 34.0757 3.4395 34.1334 3.40114 34.1836C3.32729 34.2835 3.22547 34.3592 3.10857 34.4012C3.0671 34.4224 3.02254 34.4368 2.97656 34.4441" fill="#FFFAEA"/>
<path d="M7.9082 33.9553V30.5301L8.73238 30.7406L9.4067 31.2901L9.6172 31.836L9.66002 33.5842L9.63861 33.9624L7.9082 33.9553Z" fill="#FFFAEA"/>
<path d="M8.15444 18.3852H9.00716C9.20339 18.3852 9.26761 18.2531 9.20696 18.0747C9.20696 18.0426 9.17841 18.0141 9.16414 17.982V17.9606C9.16506 17.9434 9.17095 17.9268 9.18108 17.9129C9.19121 17.899 9.20515 17.8883 9.22123 17.8821C9.24722 17.8633 9.27669 17.8498 9.30792 17.8424C9.33915 17.8351 9.37154 17.834 9.40319 17.8393C9.46741 17.8642 9.48882 17.9392 9.51023 17.9963C9.55534 18.1297 9.56152 18.2733 9.52806 18.4101C9.50449 18.5123 9.44672 18.6034 9.36432 18.6683C9.28192 18.7332 9.17982 18.768 9.07495 18.7669C8.92153 18.7669 8.76454 18.7669 8.60756 18.7669H8.15444V19.0345H8.09022C8.02243 19.0345 7.9261 19.0595 7.87258 19.006C7.81906 18.9524 7.82977 18.8775 7.82977 18.8133V18.7491H7.61213C7.59536 18.7512 7.57833 18.7496 7.56225 18.7444C7.54618 18.7392 7.53147 18.7304 7.51918 18.7188C7.50689 18.7072 7.49733 18.693 7.49119 18.6773C7.48505 18.6615 7.48249 18.6446 7.48368 18.6278C7.48368 18.5671 7.48368 18.4779 7.51579 18.428C7.54791 18.378 7.64781 18.3852 7.70846 18.3852H7.77625C7.79631 18.3887 7.81684 18.3887 7.8369 18.3852C7.84363 18.3642 7.8484 18.3427 7.85117 18.3209C7.8493 18.2972 7.8493 18.2733 7.85117 18.2496V18.0177C7.85117 17.932 7.89399 17.8749 7.98675 17.8857H8.02957C8.04978 17.883 8.07033 17.8844 8.08996 17.8899C8.1096 17.8955 8.12789 17.9049 8.14374 17.9178C8.15686 17.9341 8.16648 17.953 8.172 17.9733C8.17753 17.9936 8.17884 18.0147 8.17585 18.0355C8.17585 18.1461 8.17585 18.2567 8.17585 18.3709" fill="#FFFAEA"/>
<path d="M8.51744 29.5597V28.5928C8.4026 28.6238 8.30301 28.6956 8.23733 28.7948C8.17165 28.894 8.14439 29.0137 8.16066 29.1315C8.16683 29.2316 8.20475 29.327 8.26892 29.404C8.33309 29.481 8.42015 29.5356 8.51744 29.5597ZM8.82071 29.5597C8.91816 29.5424 9.00721 29.4935 9.07403 29.4205C9.16383 29.3121 9.21531 29.1771 9.22047 29.0365C9.22563 28.8958 9.18418 28.7574 9.10257 28.6427C9.08116 28.6178 9.05619 28.5928 9.03478 28.5642L8.99197 28.5143L9.04192 28.4679L9.09543 28.4144C9.13468 28.3787 9.17749 28.3323 9.23458 28.3359C9.29167 28.3395 9.33091 28.3966 9.36659 28.4394C9.45374 28.5505 9.51142 28.6818 9.53428 28.8211C9.58066 29.053 9.54537 29.2938 9.43438 29.5026C9.36987 29.6235 9.27586 29.7261 9.1611 29.8009C9.04633 29.8758 8.91452 29.9204 8.77789 29.9307C8.60547 29.951 8.43085 29.9212 8.27483 29.8451C8.14534 29.7803 8.03474 29.6832 7.95372 29.5632C7.83158 29.373 7.78689 29.1432 7.82885 28.921C7.85467 28.7434 7.93877 28.5794 8.06792 28.4548C8.19708 28.3301 8.36399 28.2519 8.54242 28.2324C8.58992 28.2289 8.63763 28.2289 8.68513 28.2324C8.70147 28.2308 8.71798 28.2327 8.73346 28.2382C8.74894 28.2438 8.763 28.2526 8.77462 28.2643C8.78624 28.2759 8.79512 28.2899 8.80062 28.3054C8.80613 28.3209 8.80811 28.3374 8.80644 28.3537V29.5597H8.82071Z" fill="#FFFAEA"/>
<path d="M9.53727 27.2084V27.2405C9.5446 27.2792 9.53783 27.3191 9.51819 27.3532C9.49855 27.3872 9.46734 27.4131 9.43024 27.4261L7.94601 28.104L7.88179 28.1325L7.84968 28.0683C7.83888 28.0508 7.83161 28.0314 7.82827 28.0112C7.81507 27.9366 7.82374 27.8598 7.85324 27.79C7.89883 27.7354 7.95971 27.6956 8.02807 27.6758L9.05204 27.2084L7.96028 26.7089C7.91439 26.6956 7.87527 26.6653 7.85078 26.6243C7.82629 26.5832 7.81825 26.5345 7.82827 26.4877V26.452C7.82287 26.4238 7.82287 26.3947 7.82827 26.3664V26.3379H7.86395H7.9246H7.96741L9.36958 26.9765C9.41313 26.9905 9.44996 27.0201 9.47301 27.0596C9.49605 27.0992 9.50369 27.1458 9.49446 27.1906" fill="#FFFAEA"/>
<path d="M8.8208 25.0213V25.4816C8.82145 25.5332 8.82743 25.5846 8.83864 25.635C8.84123 25.6612 8.84957 25.6864 8.86306 25.709C8.87655 25.7315 8.89486 25.7508 8.91668 25.7655C8.93849 25.7801 8.96328 25.7898 8.98927 25.7938C9.01525 25.7977 9.04179 25.7959 9.06698 25.7884C9.10769 25.781 9.14493 25.7607 9.1732 25.7305C9.20147 25.7003 9.21927 25.6618 9.22397 25.6207C9.25599 25.5124 9.25599 25.3972 9.22397 25.2889C9.2089 25.2124 9.16739 25.1437 9.10672 25.0948C9.04604 25.0459 8.97009 25.0199 8.89216 25.0213H8.8208ZM9.41663 25.0213C9.4773 25.1022 9.51767 25.1964 9.53437 25.2961C9.56971 25.4683 9.55863 25.6468 9.50226 25.8134C9.46209 25.9389 9.37392 26.0435 9.25696 26.1044C9.14 26.1652 9.00374 26.1773 8.87789 26.1381C8.80206 26.1155 8.73333 26.0738 8.67834 26.0169C8.62334 25.96 8.58393 25.8899 8.56392 25.8134C8.53235 25.7154 8.51669 25.613 8.51753 25.5101V25.0249H8.4212C8.35394 25.0296 8.29053 25.058 8.2422 25.105C8.19388 25.1521 8.16376 25.2147 8.15718 25.2818C8.12395 25.4778 8.166 25.6792 8.27492 25.8455C8.28955 25.8597 8.3007 25.877 8.30751 25.8962C8.31432 25.9154 8.3166 25.9359 8.31417 25.9561C8.30782 25.9751 8.29755 25.9925 8.28403 26.0073C8.2705 26.022 8.25403 26.0338 8.23567 26.0417C8.21449 26.0608 8.18966 26.0754 8.16267 26.0846C8.13569 26.0938 8.10711 26.0974 8.07869 26.0953C8.0216 26.0953 7.99306 26.0203 7.96452 25.9704C7.82334 25.7175 7.78258 25.4207 7.85034 25.1391C7.87527 25.0068 7.94558 24.8874 8.04914 24.8014C8.15271 24.7154 8.28303 24.6683 8.41763 24.6681C8.55321 24.6681 8.68879 24.6681 8.82437 24.6681H9.4095C9.4282 24.6657 9.44721 24.6676 9.46502 24.6738C9.48284 24.68 9.49897 24.6902 9.51213 24.7037C9.52529 24.7172 9.53512 24.7336 9.54084 24.7516C9.54656 24.7696 9.54801 24.7886 9.54508 24.8073V24.9072C9.54512 24.9245 9.54167 24.9416 9.53493 24.9575C9.52818 24.9735 9.51828 24.9879 9.50583 24.9999C9.49325 25.0095 9.47883 25.0163 9.46348 25.02C9.44812 25.0237 9.43217 25.0241 9.41663 25.0213Z" fill="#FFFAEA"/>
<path d="M8.56377 23.3409L8.97764 23.0056L9.38794 22.6702L9.43789 22.6381L9.55206 22.5667V22.9235C9.55208 22.9478 9.54461 22.9714 9.53066 22.9913C9.51282 23.0198 9.49141 23.027 9.47 23.0448L8.79925 23.6014C8.83493 23.6478 8.88131 23.6906 8.91699 23.7334C8.9606 23.7947 9.01219 23.8499 9.0704 23.8975C9.10933 23.9046 9.14922 23.9046 9.18814 23.8975C9.21666 23.8957 9.24526 23.8957 9.27377 23.8975C9.29871 23.8957 9.32375 23.8957 9.3487 23.8975H9.37367C9.43433 23.8975 9.49141 23.8975 9.52352 23.951C9.55283 24.021 9.55908 24.0985 9.54136 24.1722C9.54092 24.1857 9.53776 24.1989 9.53209 24.2111C9.52642 24.2233 9.51834 24.2342 9.50834 24.2432C9.49835 24.2522 9.48664 24.2591 9.47392 24.2634C9.46121 24.2678 9.44774 24.2695 9.43433 24.2686H7.36854C7.34268 24.2733 7.31613 24.273 7.29041 24.2675C7.2647 24.262 7.24032 24.2514 7.21869 24.2365C7.17944 24.1972 7.18658 24.1294 7.18658 24.0795V24.0295C7.18422 24.0121 7.18592 23.9944 7.19154 23.9777C7.19716 23.9611 7.20656 23.9459 7.21899 23.9335C7.23142 23.9211 7.24655 23.9117 7.26321 23.9061C7.27987 23.9004 7.2976 23.8987 7.31502 23.9011C7.3352 23.9028 7.35549 23.9028 7.37567 23.9011H8.58874L7.90728 23.1376C7.87852 23.1095 7.85626 23.0755 7.84208 23.0379C7.82791 23.0003 7.82215 22.96 7.82522 22.9199C7.82522 22.8593 7.82522 22.8022 7.82522 22.7415V22.5667L7.9501 22.7023L8.3497 23.1304C8.41392 23.2018 8.48171 23.2696 8.54236 23.3409" fill="#FFFAEA"/>
<path d="M7.99285 21.8674C7.87951 21.7325 7.81758 21.5619 7.81803 21.3857C7.81514 21.3693 7.81612 21.3524 7.8209 21.3365C7.82568 21.3205 7.83413 21.3059 7.84556 21.2937C7.857 21.2816 7.87111 21.2723 7.88677 21.2666C7.90243 21.2609 7.91921 21.2589 7.93577 21.2608H8.12129L8.1427 21.2965C8.15629 21.3207 8.16479 21.3474 8.16768 21.375V21.4214C8.16673 21.477 8.17681 21.5322 8.19732 21.5839C8.21783 21.6355 8.24837 21.6826 8.28718 21.7225C8.32599 21.7623 8.3723 21.794 8.42344 21.8158C8.47457 21.8376 8.52952 21.8491 8.58511 21.8495C8.68145 21.8495 8.77778 21.8495 8.87411 21.8495H9.39859C9.41782 21.8458 9.43766 21.8468 9.45643 21.8524C9.47519 21.858 9.49232 21.8681 9.50635 21.8818C9.52037 21.8954 9.53088 21.9123 9.53696 21.9309C9.54305 21.9496 9.54454 21.9694 9.5413 21.9887C9.5413 22.0244 9.5413 22.06 9.5413 22.0957C9.54276 22.1134 9.54033 22.1312 9.53416 22.1479C9.528 22.1645 9.51825 22.1796 9.50562 22.1921C9.47988 22.2109 9.4482 22.2197 9.41642 22.217H7.98928C7.951 22.2293 7.90983 22.2293 7.87154 22.217C7.85412 22.198 7.84122 22.1753 7.8338 22.1506C7.82639 22.1259 7.82466 22.0998 7.82873 22.0743C7.82873 22.0244 7.82873 21.9601 7.86084 21.9209C7.8997 21.8951 7.94682 21.8849 7.99285 21.8924" fill="#FFFAEA"/>
<path d="M9.38455 19.7052C9.45914 19.803 9.5104 19.9165 9.5344 20.037C9.56714 20.1923 9.55853 20.3535 9.50942 20.5044C9.47608 20.6205 9.4098 20.7244 9.31862 20.8035C9.22743 20.8827 9.11524 20.9337 8.99565 20.9504C8.95171 20.9537 8.90758 20.9537 8.86364 20.9504H7.85037V20.8969C7.83611 20.8155 7.83611 20.7322 7.85037 20.6507V20.5865H8.80656C8.86071 20.5961 8.91636 20.593 8.96914 20.5776C9.02192 20.5621 9.07042 20.5347 9.11084 20.4974C9.15125 20.46 9.18249 20.4139 9.20212 20.3625C9.22175 20.3111 9.22924 20.2559 9.22399 20.2012C9.23147 20.1439 9.22749 20.0858 9.21229 20.0301C9.19708 19.9744 9.17096 19.9223 9.13543 19.8769C9.09991 19.8314 9.05569 19.7934 9.00535 19.7652C8.95502 19.7369 8.89957 19.719 8.84223 19.7124C8.78639 19.7088 8.73038 19.7088 8.67454 19.7124C8.43907 19.7124 8.20359 19.7124 7.96097 19.7124C7.94248 19.7146 7.92372 19.7126 7.90608 19.7066C7.88844 19.7007 7.87236 19.6908 7.85902 19.6778C7.84568 19.6648 7.83541 19.649 7.82898 19.6315C7.82254 19.614 7.8201 19.5953 7.82183 19.5768C7.82183 19.5161 7.82183 19.4341 7.85751 19.3877C7.91173 19.3505 7.978 19.3352 8.04303 19.3449H9.42736C9.45217 19.3437 9.4765 19.3519 9.49563 19.3677C9.51476 19.3835 9.52731 19.4059 9.53083 19.4305C9.5344 19.4863 9.5344 19.5424 9.53083 19.5982C9.52978 19.6108 9.52606 19.6231 9.51991 19.6342C9.51376 19.6452 9.50532 19.6549 9.49515 19.6624C9.47191 19.6808 9.44261 19.6897 9.41309 19.6874H9.38455" fill="#FFFAEA"/>
<path d="M4.15446 32.7529H3.68708C3.65799 32.7566 3.62861 32.7489 3.60501 32.7315C3.58441 32.7088 3.57187 32.68 3.56934 32.6494C3.56934 32.5959 3.56934 32.5246 3.60145 32.4853C3.64585 32.4568 3.69911 32.4454 3.7513 32.4532H4.63969C4.65186 32.4527 4.66401 32.4547 4.67532 32.4592C4.68663 32.4637 4.69685 32.4706 4.70529 32.4794C4.71373 32.4882 4.7202 32.4987 4.72427 32.5101C4.72834 32.5216 4.72992 32.5338 4.72889 32.546C4.72889 32.5817 4.72889 32.6173 4.72889 32.6566C4.73064 32.6701 4.72926 32.6839 4.72486 32.6968C4.72046 32.7097 4.71315 32.7214 4.7035 32.7311C4.69385 32.7407 4.68211 32.748 4.6692 32.7524C4.65628 32.7568 4.64252 32.7582 4.62899 32.7565H4.15446" fill="#FFFAEA"/>
<path d="M9.25152 33.784H9.47629C9.47629 33.2631 9.47629 32.7457 9.47629 32.2248C9.47291 31.8256 9.31722 31.4427 9.04101 31.1545C8.77284 30.8647 8.40156 30.6918 8.00715 30.6731C7.61274 30.6544 7.22678 30.7914 6.93241 31.0546C6.69358 31.2737 6.52896 31.5617 6.46145 31.8787C6.43416 31.9957 6.42098 32.1155 6.42221 32.2355V33.9481C6.42045 33.9611 6.42045 33.9743 6.42221 33.9873C6.4252 34.0019 6.42466 34.0169 6.42064 34.0312C6.41662 34.0455 6.40923 34.0586 6.39909 34.0694C6.38896 34.0803 6.37637 34.0885 6.36239 34.0935C6.34841 34.0984 6.33344 34.1 6.31874 34.098H6.29733C6.24764 34.1051 6.19718 34.1051 6.14748 34.098H6.12608V34.0765C6.12073 34.0232 6.12073 33.9694 6.12608 33.916C6.12608 33.3737 6.12608 32.8456 6.12608 32.2962C6.12535 32.1043 6.15178 31.9133 6.20457 31.7289C6.28145 31.4572 6.41796 31.2061 6.60417 30.9939C6.82924 30.705 7.14036 30.495 7.49256 30.3945C7.77745 30.3167 8.07718 30.3109 8.36488 30.3775C8.65257 30.4442 8.91923 30.5812 9.14091 30.7763C9.49867 31.0799 9.73022 31.5061 9.79026 31.9715C9.79961 32.0903 9.79961 32.2096 9.79026 32.3283C9.79026 32.8742 9.79026 33.4201 9.79026 33.9659V34.0623H9.77242C9.74232 34.0723 9.70976 34.0723 9.67966 34.0623H7.98493C7.97179 34.0636 7.95854 34.0618 7.94619 34.0571C7.93385 34.0525 7.92276 34.045 7.91378 34.0353C7.9048 34.0257 7.89817 34.014 7.89442 34.0014C7.89067 33.9887 7.8899 33.9754 7.89216 33.9624C7.89216 33.9231 7.89216 33.8803 7.89216 33.8375C7.89264 33.8127 7.89873 33.7883 7.91 33.7661L7.93141 33.7233H7.95639L7.9885 33.7483H9.25152" fill="#FFFAEA"/>
<path d="M3.56922 33.9909C3.57098 33.9791 3.57098 33.9671 3.56922 33.9553C3.56443 33.9338 3.56418 33.9117 3.56848 33.8902C3.57278 33.8687 3.58154 33.8483 3.5942 33.8304L3.61917 33.809C3.65284 33.7983 3.68898 33.7983 3.72264 33.809H4.92144C5.02988 33.807 5.13754 33.8276 5.23763 33.8694C5.33773 33.9111 5.42808 33.9732 5.503 34.0516C5.58058 34.1296 5.64123 34.2228 5.68113 34.3253C5.72104 34.4278 5.73935 34.5375 5.73491 34.6474C5.726 34.8114 5.726 34.9758 5.73491 35.1398C5.76393 35.4786 5.86838 35.8067 6.04062 36.0999C6.21286 36.3932 6.44852 36.6442 6.73034 36.8345C7.13594 37.1026 7.61918 37.2281 8.10396 37.1913C8.54279 37.1563 8.96015 36.9869 9.2992 36.7061C9.74013 36.349 10.0316 35.8399 10.1162 35.2789C10.1306 35.1869 10.1378 35.0938 10.1376 35.0006V30.4766C10.1305 30.4425 10.1305 30.4072 10.1376 30.3731V30.3374H10.4088V30.4516C10.4088 31.9073 10.4088 33.363 10.4088 34.8187C10.4138 35.1716 10.3533 35.5225 10.2304 35.8534C10.1127 36.1562 9.9397 36.4344 9.7202 36.674C9.52711 36.8866 9.29753 37.063 9.04231 37.1949C8.803 37.3226 8.54354 37.4083 8.27522 37.4482C8.1573 37.4676 8.03795 37.4772 7.91844 37.4767C7.56911 37.4765 7.22379 37.4023 6.90517 37.2591C6.49711 37.069 6.14601 36.7752 5.88685 36.4071C5.62768 36.039 5.4695 35.6094 5.42807 35.1612C5.41023 34.9757 5.42807 34.8044 5.42807 34.601C5.4278 34.4776 5.38342 34.3584 5.30295 34.2648C5.22247 34.1713 5.11121 34.1096 4.98923 34.0908C4.94054 34.0872 4.89164 34.0872 4.84295 34.0908H3.68696C3.65842 34.0908 3.62631 34.0908 3.60133 34.0623C3.58281 34.0429 3.57148 34.0177 3.56922 33.9909Z" fill="#FFFAEA"/>
<path d="M10.3479 29.6346C10.2337 29.6346 10.1303 29.6346 10.0268 29.6346C9.99827 29.6346 9.94832 29.6524 9.94832 29.606C9.94832 29.5597 9.9947 29.5739 10.0232 29.5739C10.1588 29.5739 10.2908 29.5739 10.4264 29.5739C10.4478 29.5739 10.4799 29.5739 10.4871 29.5989C10.4942 29.6239 10.4692 29.6417 10.4514 29.6596L10.1553 29.9022C10.1338 29.92 10.1053 29.9307 10.0946 29.9771H10.3943C10.4264 29.9771 10.4835 29.9557 10.4871 30.0057C10.4906 30.0556 10.4264 30.0413 10.3943 30.0413C10.2766 30.0413 10.1553 30.0413 10.0375 30.0413C10.0054 30.0413 9.96616 30.0592 9.94832 30.0199C9.93048 29.9807 9.97686 29.9664 10.0018 29.945L10.2908 29.7095C10.3176 29.6915 10.3377 29.6652 10.3479 29.6346Z" fill="#FFFAEA"/>
<path d="M10.1233 26.7732C10.1247 26.8018 10.1344 26.8293 10.1513 26.8524C10.1682 26.8755 10.1915 26.8932 10.2183 26.9032C10.2451 26.9132 10.2743 26.9151 10.3022 26.9086C10.3301 26.9022 10.3555 26.8877 10.3752 26.867C10.395 26.8463 10.4082 26.8203 10.4133 26.7921C10.4184 26.7639 10.4151 26.7349 10.4039 26.7086C10.3926 26.6823 10.3739 26.6598 10.35 26.644C10.3261 26.6283 10.2982 26.6198 10.2695 26.6198C10.2494 26.6187 10.2293 26.6219 10.2105 26.6293C10.1918 26.6367 10.1749 26.6481 10.1609 26.6627C10.147 26.6773 10.1365 26.6947 10.1299 26.7138C10.1234 26.7329 10.1212 26.7532 10.1233 26.7732ZM10.2874 26.5556C10.3373 26.5556 10.3908 26.5556 10.4408 26.5556C10.4712 26.554 10.5016 26.5596 10.5294 26.572C10.5572 26.5843 10.5817 26.6031 10.6008 26.6268C10.62 26.6505 10.6332 26.6784 10.6395 26.7081C10.6458 26.7379 10.645 26.7688 10.637 26.7982C10.636 26.8465 10.6211 26.8936 10.5942 26.9338C10.5942 26.9338 10.5764 26.9587 10.5585 26.9338C10.5535 26.9285 10.5507 26.9214 10.5507 26.9141C10.5507 26.9068 10.5535 26.8998 10.5585 26.8945C10.5862 26.8419 10.5986 26.7826 10.5942 26.7233C10.5933 26.701 10.5861 26.6795 10.5735 26.6612C10.5609 26.6429 10.5433 26.6285 10.5229 26.6198C10.5229 26.6198 10.48 26.6198 10.4622 26.6198C10.4444 26.6198 10.4622 26.6626 10.4622 26.6804C10.4802 26.73 10.4802 26.7843 10.4622 26.8339C10.4552 26.8592 10.4433 26.8829 10.4271 26.9036C10.4109 26.9243 10.3908 26.9416 10.368 26.9545C10.3451 26.9674 10.3199 26.9757 10.2938 26.9789C10.2678 26.9821 10.2413 26.9801 10.216 26.973C10.1644 26.9573 10.1209 26.922 10.0949 26.8747C10.0689 26.8273 10.0624 26.7717 10.0769 26.7197C10.0839 26.6944 10.0947 26.6703 10.109 26.6483C10.109 26.6234 10.109 26.6091 10.109 26.6055C10.1052 26.6047 10.1016 26.6031 10.0984 26.6008C10.0952 26.5986 10.0926 26.5957 10.0906 26.5923C10.0886 26.589 10.0873 26.5853 10.0867 26.5814C10.0862 26.5775 10.0865 26.5736 10.0876 26.5698C10.0909 26.5633 10.096 26.5578 10.1023 26.554C10.1087 26.5502 10.1159 26.5483 10.1233 26.5484L10.2874 26.5556Z" fill="#FFFAEA"/>
<path d="M10.1233 21.4107C10.12 21.4316 10.1213 21.4529 10.127 21.4733C10.1328 21.4936 10.1429 21.5125 10.1566 21.5285C10.1703 21.5446 10.1874 21.5575 10.2066 21.5664C10.2258 21.5752 10.2467 21.5798 10.2678 21.5798C10.2889 21.5798 10.3098 21.5752 10.329 21.5664C10.3482 21.5575 10.3653 21.5446 10.379 21.5285C10.3927 21.5125 10.4028 21.4936 10.4086 21.4733C10.4143 21.4529 10.4156 21.4316 10.4123 21.4107C10.4156 21.3898 10.4143 21.3685 10.4086 21.3482C10.4028 21.3278 10.3927 21.309 10.379 21.2929C10.3653 21.2768 10.3482 21.2639 10.329 21.2551C10.3098 21.2462 10.2889 21.2417 10.2678 21.2417C10.2467 21.2417 10.2258 21.2462 10.2066 21.2551C10.1874 21.2639 10.1703 21.2768 10.1566 21.2929C10.1429 21.309 10.1328 21.3278 10.127 21.3482C10.1213 21.3685 10.12 21.3898 10.1233 21.4107ZM10.2946 21.1967C10.3445 21.1967 10.3945 21.1967 10.4444 21.1967C10.4744 21.1952 10.5044 21.2008 10.5319 21.213C10.5593 21.2252 10.5836 21.2436 10.6026 21.2669C10.6217 21.2901 10.6351 21.3174 10.6417 21.3468C10.6483 21.3761 10.6479 21.4065 10.6407 21.4357C10.6386 21.4834 10.6251 21.5299 10.6014 21.5713C10.6014 21.5713 10.5764 21.6034 10.5586 21.5713C10.5533 21.5654 10.5504 21.5578 10.5504 21.5499C10.5504 21.542 10.5533 21.5344 10.5586 21.5285C10.5896 21.4771 10.6022 21.4167 10.5943 21.3572C10.5943 21.2894 10.5479 21.2502 10.4908 21.2466C10.4337 21.243 10.448 21.2466 10.4551 21.2859L10.4765 21.3501C10.4876 21.3932 10.485 21.4387 10.469 21.4803C10.453 21.5219 10.4245 21.5574 10.3873 21.582C10.3531 21.6069 10.3119 21.6204 10.2696 21.6204C10.2273 21.6204 10.186 21.6069 10.1519 21.582C10.1196 21.5516 10.0968 21.5126 10.086 21.4696C10.0753 21.4266 10.0771 21.3814 10.0912 21.3394C10.0986 21.3216 10.1082 21.3048 10.1197 21.2894C10.1197 21.2894 10.1197 21.2573 10.1197 21.2502C10.1152 21.2499 10.1108 21.2486 10.1068 21.2463C10.1029 21.244 10.0996 21.2408 10.0971 21.237C10.0947 21.2332 10.0932 21.2288 10.0928 21.2242C10.0924 21.2197 10.0931 21.2151 10.0948 21.2109C10.0981 21.2044 10.1032 21.1989 10.1095 21.1951C10.1158 21.1913 10.1231 21.1894 10.1304 21.1895L10.2946 21.1967Z" fill="#FFFAEA"/>
<path d="M10.4294 19.8765C10.4309 19.8563 10.4282 19.8359 10.4216 19.8167C10.4149 19.7975 10.4044 19.7799 10.3908 19.7649C10.3771 19.7499 10.3605 19.7378 10.342 19.7294C10.3235 19.721 10.3035 19.7164 10.2832 19.716C10.263 19.715 10.2429 19.718 10.2239 19.7249C10.2049 19.7317 10.1875 19.7422 10.1725 19.7558C10.1576 19.7694 10.1455 19.7858 10.137 19.8041C10.1284 19.8223 10.1235 19.8421 10.1226 19.8623C10.1226 19.903 10.1388 19.942 10.1675 19.9707C10.1963 19.9995 10.2353 20.0157 10.276 20.0157C10.3167 20.0157 10.3557 19.9995 10.3845 19.9707C10.4133 19.942 10.4294 19.903 10.4294 19.8623V19.8765ZM10.1904 19.6446H10.4402C10.4687 19.6446 10.5044 19.6446 10.4794 19.6874C10.4544 19.7303 10.4794 19.7624 10.4794 19.798C10.4923 19.8354 10.4945 19.8755 10.4857 19.914C10.4768 19.9525 10.4573 19.9877 10.4294 20.0157C10.3973 20.0501 10.3545 20.0728 10.308 20.0801C10.2614 20.0873 10.2138 20.0788 10.1727 20.0558C10.1316 20.0327 10.0994 19.9966 10.0812 19.9531C10.0631 19.9096 10.0601 19.8613 10.0727 19.8159C10.0976 19.7124 10.0976 19.7124 10.0013 19.7053C9.9692 19.7053 9.91211 19.7303 9.91211 19.6767C9.91211 19.6232 9.97276 19.6482 10.0049 19.6446H10.1904Z" fill="#FFFAEA"/>
<path d="M10.2344 18.6777C10.1452 18.7099 10.1202 18.742 10.1238 18.8205C10.1274 18.899 10.1523 18.9239 10.2344 18.9418C10.2451 18.8541 10.2451 18.7654 10.2344 18.6777ZM10.4306 18.7991C10.4327 18.7601 10.4228 18.7215 10.4021 18.6884C10.4021 18.6884 10.4021 18.6599 10.4021 18.6528C10.4021 18.6456 10.4271 18.6528 10.4413 18.6528C10.4679 18.691 10.4821 18.7364 10.4821 18.783C10.4821 18.8295 10.4679 18.875 10.4413 18.9132C10.4193 18.954 10.3836 18.9857 10.3405 19.0026C10.2974 19.0196 10.2497 19.0208 10.2058 19.006C10.1612 18.9955 10.1214 18.9703 10.0928 18.9343C10.0643 18.8984 10.0488 18.8538 10.0488 18.808C10.0488 18.7621 10.0643 18.7176 10.0928 18.6816C10.1214 18.6457 10.1612 18.6204 10.2058 18.61C10.2629 18.61 10.2772 18.61 10.2772 18.667C10.2772 18.7241 10.2772 18.8098 10.2772 18.8811C10.2772 18.9525 10.2772 18.9275 10.2986 18.9382C10.3082 18.9424 10.3185 18.9446 10.3289 18.9446C10.3394 18.9446 10.3497 18.9424 10.3593 18.9382C10.3837 18.923 10.4033 18.9012 10.4159 18.8753C10.4286 18.8494 10.4336 18.8205 10.4306 18.7919V18.7991Z" fill="#FFFAEA"/>
<path d="M10.2342 25.0356C10.145 25.0677 10.12 25.0998 10.1236 25.1783C10.1272 25.2568 10.1521 25.2818 10.2342 25.2996C10.2449 25.212 10.2449 25.1233 10.2342 25.0356ZM10.0665 25.1641C10.068 25.1312 10.0768 25.0992 10.0922 25.0702C10.1076 25.0412 10.1293 25.016 10.1557 24.9964C10.1714 24.9833 10.1898 24.974 10.2095 24.9691C10.2293 24.9641 10.2499 24.9637 10.2699 24.9678C10.3127 24.9857 10.2699 25.0356 10.2913 25.0713C10.3127 25.107 10.2913 25.1962 10.2913 25.2604C10.2913 25.3246 10.3163 25.3104 10.3484 25.2925C10.3786 25.275 10.4022 25.2481 10.4157 25.2159C10.4293 25.1837 10.4319 25.148 10.4233 25.1141C10.4233 25.0927 10.4233 25.0713 10.3983 25.0535C10.3734 25.0356 10.3983 25.0178 10.3983 25.0071C10.3983 24.9964 10.4304 25.0071 10.4411 25.0285C10.4666 25.0678 10.4802 25.1136 10.4802 25.1605C10.4802 25.2074 10.4666 25.2532 10.4411 25.2925C10.4147 25.33 10.3763 25.3575 10.3323 25.3705C10.2882 25.3834 10.2411 25.3811 10.1985 25.3639C10.1585 25.3484 10.1243 25.3208 10.1007 25.285C10.077 25.2492 10.0651 25.2069 10.0665 25.1641Z" fill="#FFFAEA"/>
<path d="M10.1129 25.8134L10.088 25.7635C10.0309 25.5994 10.088 25.4995 10.2664 25.4923C10.3127 25.4923 10.3591 25.4923 10.4091 25.4923C10.459 25.4923 10.4876 25.4923 10.484 25.5245C10.4804 25.5566 10.434 25.553 10.4019 25.553H10.2592C10.1629 25.553 10.1272 25.5922 10.1236 25.6743C10.1215 25.6929 10.1235 25.7118 10.1295 25.7296C10.1354 25.7474 10.1452 25.7637 10.1581 25.7773C10.1711 25.7909 10.1868 25.8015 10.2043 25.8084C10.2217 25.8152 10.2405 25.8182 10.2592 25.817C10.3199 25.817 10.3805 25.817 10.4447 25.817C10.509 25.817 10.4804 25.817 10.484 25.8456C10.4876 25.8741 10.4626 25.8812 10.4412 25.8812H9.95238C9.92741 25.8812 9.906 25.8812 9.90957 25.8456C9.91314 25.8099 9.92741 25.8206 9.94882 25.817C10.0032 25.8256 10.0586 25.8256 10.1129 25.817" fill="#FFFAEA"/>
<path d="M10.2795 22.9342H10.4437C10.4722 22.9342 10.5007 22.9556 10.4758 22.977C10.4508 22.9984 10.4758 23.0341 10.4758 23.0662C10.4907 23.0933 10.498 23.124 10.4969 23.1549C10.4958 23.1859 10.4863 23.2159 10.4695 23.2419C10.4527 23.2679 10.4291 23.2889 10.4013 23.3025C10.3735 23.3162 10.3425 23.322 10.3117 23.3195C10.2439 23.3195 10.1761 23.3195 10.1083 23.3195C10.1009 23.3197 10.0936 23.3173 10.0878 23.3127C10.0819 23.3082 10.0778 23.3017 10.0762 23.2945C10.0762 23.2695 10.0762 23.2588 10.1083 23.2553C10.1404 23.2517 10.251 23.2553 10.3259 23.2553C10.3465 23.2554 10.3667 23.2501 10.3845 23.2399C10.4024 23.2298 10.4173 23.2152 10.4277 23.1975C10.4382 23.1798 10.4439 23.1597 10.4441 23.1392C10.4444 23.1187 10.4393 23.0984 10.4294 23.0804C10.4198 23.0564 10.403 23.0359 10.3812 23.0219C10.3595 23.0078 10.3339 23.0008 10.3081 23.0019H10.1226C10.1011 23.0019 10.0762 23.0019 10.0762 22.9698C10.0762 22.9377 10.1011 22.9377 10.1261 22.9377H10.2867" fill="#FFFAEA"/>
<path d="M10.43 24.001C10.4332 23.9802 10.432 23.959 10.4265 23.9387C10.421 23.9184 10.4112 23.8995 10.3979 23.8832C10.3882 23.8725 10.3758 23.8646 10.362 23.8602C10.3483 23.8558 10.3336 23.8551 10.3194 23.8582C10.2873 23.8582 10.2945 23.9011 10.2945 23.926C10.2909 23.9628 10.2909 23.9998 10.2945 24.0366C10.2961 24.0499 10.3024 24.0622 10.3122 24.0713C10.3219 24.0804 10.3346 24.0858 10.348 24.0866C10.3625 24.0882 10.3771 24.0848 10.3894 24.0771C10.4017 24.0693 10.411 24.0575 10.4158 24.0438C10.4158 24.0259 10.4158 24.0045 10.4158 24.001H10.43ZM10.348 23.7904H10.4265C10.4907 23.7904 10.4943 23.7904 10.4729 23.8582C10.4514 23.926 10.4729 23.8903 10.4729 23.9118C10.4906 23.9601 10.4906 24.0132 10.4729 24.0616C10.4658 24.0864 10.4508 24.1082 10.4302 24.1237C10.4096 24.1392 10.3845 24.1474 10.3587 24.1472C10.3333 24.1469 10.3088 24.1378 10.2894 24.1216C10.2699 24.1054 10.2566 24.0829 10.2516 24.058C10.2446 24.0095 10.2446 23.9603 10.2516 23.9118C10.2516 23.8903 10.2516 23.8654 10.2267 23.8582C10.2161 23.8571 10.2055 23.8584 10.1956 23.8622C10.1857 23.8659 10.1768 23.8719 10.1696 23.8796C10.1559 23.895 10.1459 23.9133 10.1404 23.933C10.1348 23.9528 10.1338 23.9736 10.1375 23.9938C10.1379 24.0202 10.1453 24.0461 10.1589 24.0687C10.1589 24.0687 10.1803 24.1116 10.1589 24.1223C10.1375 24.133 10.1268 24.1044 10.1196 24.0901C10.0922 24.0401 10.0821 23.9824 10.0911 23.926C10.0915 23.9074 10.0957 23.8891 10.1034 23.8722C10.111 23.8552 10.122 23.84 10.1356 23.8274C10.1492 23.8147 10.1653 23.8049 10.1828 23.7986C10.2002 23.7923 10.2188 23.7895 10.2374 23.7904C10.2516 23.7869 10.2945 23.7904 10.348 23.7904Z" fill="#FFFAEA"/>
<path d="M10.2943 22.3097V22.349C10.2943 22.3954 10.2943 22.4418 10.3585 22.4453C10.4227 22.4489 10.4334 22.4096 10.4299 22.3454C10.4316 22.3336 10.4316 22.3216 10.4299 22.3097C10.4281 22.2861 10.4177 22.2638 10.4006 22.2474C10.3834 22.2309 10.3608 22.2214 10.3371 22.2205C10.2729 22.2205 10.3086 22.2848 10.2979 22.3097H10.2943ZM10.3335 22.1528H10.4227C10.4834 22.1528 10.4834 22.1528 10.462 22.2205C10.4406 22.2883 10.462 22.2598 10.462 22.2776C10.4725 22.3018 10.4779 22.3279 10.4779 22.3543C10.4779 22.3807 10.4725 22.4068 10.462 22.431C10.4549 22.4536 10.4406 22.4732 10.4212 22.4867C10.4019 22.5003 10.3786 22.5071 10.3549 22.506C10.329 22.5065 10.3036 22.4978 10.2834 22.4815C10.2632 22.4652 10.2494 22.4423 10.2443 22.4168C10.2373 22.3659 10.2373 22.3143 10.2443 22.2634C10.2443 22.2205 10.2122 22.2063 10.1765 22.2241C10.1622 22.2324 10.1503 22.2444 10.1422 22.2588C10.134 22.2732 10.1299 22.2896 10.1302 22.3062C10.1245 22.3502 10.1319 22.3949 10.1516 22.4346C10.1516 22.4346 10.1516 22.4739 10.1516 22.481C10.1516 22.4881 10.1195 22.481 10.1123 22.4525C10.0825 22.3967 10.0736 22.3322 10.0874 22.2705C10.1088 22.1956 10.1409 22.1599 10.2122 22.1528H10.3335Z" fill="#FFFAEA"/>
<path d="M10.2804 28.1646H10.4445C10.4695 28.1646 10.5052 28.1896 10.4766 28.211C10.4481 28.2324 10.4588 28.2645 10.4766 28.2931C10.4922 28.3205 10.5 28.3517 10.4992 28.3833C10.4985 28.4148 10.4892 28.4456 10.4724 28.4723C10.4555 28.499 10.4318 28.5207 10.4036 28.535C10.3755 28.5493 10.344 28.5557 10.3125 28.5535H10.127C10.102 28.5535 10.077 28.5535 10.077 28.525C10.077 28.4964 10.102 28.4929 10.1234 28.4893H10.2947C10.3946 28.4893 10.4338 28.4536 10.4374 28.3751C10.441 28.2966 10.3946 28.236 10.2947 28.2288H10.1091C10.1043 28.2294 10.0994 28.2289 10.0948 28.2273C10.0903 28.2257 10.0861 28.2231 10.0826 28.2197C10.0792 28.2162 10.0766 28.212 10.075 28.2075C10.0734 28.2029 10.0729 28.198 10.0735 28.1932C10.0735 28.1717 10.0913 28.1646 10.1127 28.1646H10.2875" fill="#FFFAEA"/>
<path d="M10.2876 29.0245H10.4482C10.4732 29.0245 10.4981 29.0495 10.4803 29.0638C10.4625 29.078 10.4803 29.1387 10.4803 29.1744C10.4905 29.1994 10.4947 29.2265 10.4924 29.2535C10.4901 29.2804 10.4815 29.3064 10.4672 29.3294C10.4529 29.3524 10.4334 29.3716 10.4103 29.3856C10.3871 29.3996 10.361 29.4079 10.334 29.4099C10.2627 29.4099 10.1913 29.4099 10.12 29.4099C10.0486 29.4099 10.0736 29.4099 10.0736 29.3777C10.0736 29.3456 10.0985 29.3456 10.12 29.3456H10.2948C10.3911 29.3456 10.4304 29.31 10.4339 29.2315C10.436 29.2128 10.4341 29.1939 10.4281 29.1761C10.4221 29.1584 10.4123 29.1421 10.3994 29.1285C10.3865 29.1149 10.3708 29.1043 10.3533 29.0974C10.3358 29.0905 10.3171 29.0876 10.2983 29.0887H10.1128C10.0914 29.0887 10.0664 29.0887 10.0736 29.0495C10.0807 29.0103 10.095 29.021 10.1128 29.021H10.2876" fill="#FFFAEA"/>
<path d="M10.2764 24.6503H10.1123C10.0766 24.6503 10.0516 24.6503 10.0802 24.5968C10.1087 24.5433 10.0802 24.5361 10.0802 24.5076C10.0674 24.4795 10.0622 24.4485 10.0653 24.4177C10.0684 24.387 10.0796 24.3576 10.0977 24.3326C10.1158 24.3076 10.1403 24.2878 10.1685 24.2753C10.1968 24.2628 10.2278 24.258 10.2586 24.2614H10.4441C10.4619 24.2614 10.4833 24.2614 10.4869 24.29C10.4905 24.3185 10.4655 24.3256 10.4441 24.3256H10.2586C10.1658 24.3256 10.1301 24.3613 10.1265 24.4398C10.1234 24.4571 10.1241 24.4749 10.1286 24.492C10.1331 24.509 10.1412 24.5249 10.1524 24.5384C10.1636 24.552 10.1776 24.563 10.1935 24.5706C10.2093 24.5782 10.2267 24.5823 10.2443 24.5825C10.3085 24.5861 10.3728 24.5861 10.4369 24.5825C10.4584 24.5825 10.4869 24.5825 10.4869 24.6146C10.4869 24.6468 10.4619 24.6468 10.4405 24.6468H10.2764" fill="#FFFAEA"/>
<path d="M10.2769 27.4867H10.1128C10.0771 27.4867 10.0521 27.4653 10.0842 27.4332C10.1163 27.4011 10.1092 27.3975 10.0842 27.369C10.0703 27.3469 10.0612 27.3222 10.0575 27.2964C10.0538 27.2705 10.0556 27.2442 10.0628 27.2192C10.0676 27.1897 10.0816 27.1625 10.1027 27.1413C10.1238 27.1202 10.1511 27.1063 10.1805 27.1014C10.266 27.0943 10.3519 27.0943 10.4374 27.1014C10.4588 27.1014 10.4731 27.1014 10.4695 27.1371C10.4696 27.1407 10.4688 27.1443 10.4674 27.1476C10.4659 27.1508 10.4637 27.1538 10.461 27.1561C10.4583 27.1585 10.4551 27.1603 10.4517 27.1613C10.4482 27.1623 10.4446 27.1626 10.441 27.1621H10.2555C10.1484 27.1621 10.1092 27.1977 10.1092 27.2869C10.1092 27.3761 10.1591 27.419 10.259 27.4261H10.4089C10.4339 27.4261 10.4695 27.4261 10.4695 27.4546C10.4695 27.4832 10.441 27.4867 10.416 27.4867H10.2769Z" fill="#FFFAEA"/>
<path d="M10.3476 19.1166H10.4689C10.4759 19.1165 10.4827 19.119 10.488 19.1236C10.4932 19.1282 10.4966 19.1346 10.4975 19.1415C10.498 19.1461 10.4975 19.1506 10.4961 19.1549C10.4948 19.1593 10.4925 19.1632 10.4894 19.1666C10.4864 19.17 10.4827 19.1727 10.4785 19.1745C10.4744 19.1763 10.4699 19.1773 10.4654 19.1772H10.2584C10.1764 19.1772 10.1407 19.2165 10.1371 19.2878C10.1341 19.3053 10.1348 19.3233 10.1392 19.3405C10.1436 19.3577 10.1517 19.3738 10.1629 19.3876C10.174 19.4015 10.188 19.4128 10.2038 19.4208C10.2197 19.4288 10.2371 19.4334 10.2549 19.4341C10.3024 19.4377 10.3501 19.4377 10.3976 19.4341H10.4618C10.4832 19.4341 10.501 19.4341 10.501 19.4627C10.5016 19.4675 10.5011 19.4724 10.4995 19.477C10.4979 19.4815 10.4953 19.4857 10.4919 19.4892C10.4884 19.4926 10.4843 19.4952 10.4797 19.4968C10.4751 19.4984 10.4702 19.4989 10.4654 19.4983H10.1086C10.08 19.4983 10.0658 19.4698 10.0836 19.4555C10.1014 19.4412 10.1086 19.4056 10.0836 19.3735C10.0669 19.3456 10.0582 19.3137 10.0586 19.2812C10.059 19.2487 10.0684 19.217 10.0858 19.1896C10.1033 19.1622 10.128 19.1402 10.1572 19.126C10.1864 19.1119 10.219 19.1061 10.2513 19.1094H10.3476" fill="#FFFAEA"/>
<path d="M10.43 20.8862C10.4336 20.8661 10.4328 20.8454 10.4277 20.8256C10.4226 20.8058 10.4134 20.7873 10.4005 20.7714C10.3876 20.7555 10.3715 20.7425 10.3532 20.7334C10.3349 20.7243 10.3149 20.7192 10.2944 20.7185C10.2738 20.7149 10.2527 20.7158 10.2325 20.7211C10.2122 20.7263 10.1934 20.7359 10.1771 20.7491C10.1609 20.7623 10.1477 20.7788 10.1384 20.7975C10.1291 20.8162 10.1239 20.8367 10.1232 20.8576C10.1207 20.8775 10.1224 20.8977 10.1282 20.9169C10.134 20.9361 10.1438 20.9538 10.1569 20.969C10.1701 20.9841 10.1862 20.9963 10.2044 21.0048C10.2225 21.0133 10.2423 21.0179 10.2623 21.0182C10.2822 21.0218 10.3026 21.0211 10.3221 21.0162C10.3417 21.0113 10.36 21.0023 10.3758 20.9899C10.3917 20.9774 10.4047 20.9617 10.414 20.9438C10.4234 20.926 10.4288 20.9063 10.43 20.8862ZM10.2766 20.6543C10.3334 20.6543 10.3878 20.6768 10.428 20.717C10.4681 20.7571 10.4907 20.8116 10.4907 20.8684C10.4907 20.9251 10.4681 20.9796 10.428 21.0197C10.3878 21.0599 10.3334 21.0824 10.2766 21.0824C10.2482 21.0824 10.2201 21.0768 10.1938 21.0658C10.1676 21.0548 10.1439 21.0387 10.124 21.0185C10.104 20.9982 10.0883 20.9742 10.0778 20.9478C10.0672 20.9214 10.0621 20.8932 10.0625 20.8648C10.0625 20.8368 10.0681 20.8092 10.0789 20.7834C10.0897 20.7576 10.1055 20.7343 10.1254 20.7147C10.1454 20.6951 10.169 20.6796 10.1949 20.6693C10.2209 20.6589 10.2487 20.6538 10.2766 20.6543Z" fill="#FFFAEA"/>
<path d="M10.2805 20.2262C10.2408 20.2262 10.2027 20.242 10.1746 20.2701C10.1465 20.2982 10.1307 20.3363 10.1307 20.376C10.1307 20.4158 10.1465 20.4539 10.1746 20.482C10.2027 20.5101 10.2408 20.5259 10.2805 20.5259C10.3013 20.5285 10.3225 20.5266 10.3424 20.5201C10.3624 20.5137 10.3807 20.5029 10.396 20.4886C10.4113 20.4743 10.4233 20.4568 10.4311 20.4374C10.4389 20.4179 10.4423 20.3969 10.4411 20.376C10.4427 20.3559 10.4399 20.3357 10.433 20.3168C10.426 20.2979 10.415 20.2807 10.4008 20.2665C10.3865 20.2522 10.3693 20.2412 10.3504 20.2343C10.3315 20.2273 10.3113 20.2246 10.2912 20.2262H10.2805ZM10.0772 20.376C10.0772 20.3202 10.0993 20.2666 10.1388 20.2272C10.1783 20.1877 10.2318 20.1655 10.2877 20.1655C10.3435 20.1655 10.397 20.1877 10.4365 20.2272C10.476 20.2666 10.4982 20.3202 10.4982 20.376C10.4991 20.4032 10.4947 20.4303 10.4852 20.4558C10.4757 20.4812 10.4612 20.5046 10.4426 20.5245C10.4241 20.5443 10.4018 20.5604 10.377 20.5716C10.3523 20.5829 10.3255 20.5892 10.2984 20.5901C10.2687 20.5931 10.2387 20.5898 10.2104 20.5804C10.182 20.571 10.1561 20.5556 10.1341 20.5354C10.1122 20.5151 10.0948 20.4904 10.0832 20.463C10.0715 20.4355 10.0658 20.4059 10.0665 20.376H10.0772Z" fill="#FFFAEA"/>
<path d="M10.0664 18.3709C10.0666 18.3254 10.0763 18.2804 10.0949 18.2389C10.0949 18.2389 10.0949 18.221 10.1199 18.221C10.1241 18.2214 10.128 18.2227 10.1316 18.2248C10.1352 18.2269 10.1383 18.2297 10.1407 18.2331C10.1431 18.2365 10.1447 18.2404 10.1454 18.2444C10.1461 18.2485 10.146 18.2527 10.1449 18.2567C10.1265 18.3006 10.1203 18.3487 10.1271 18.3959C10.1271 18.4315 10.1449 18.4565 10.177 18.4601C10.2091 18.4637 10.2305 18.4601 10.2377 18.4137C10.2448 18.3673 10.2591 18.3281 10.2698 18.2853C10.2734 18.2633 10.2841 18.2431 10.3002 18.2277C10.3162 18.2122 10.3369 18.2024 10.359 18.1996C10.3831 18.1984 10.4069 18.205 10.4269 18.2185C10.4468 18.232 10.4618 18.2517 10.4696 18.2746C10.4854 18.3124 10.4935 18.3531 10.4935 18.3941C10.4935 18.4351 10.4854 18.4757 10.4696 18.5136C10.4696 18.5136 10.4482 18.5386 10.4339 18.5314C10.4315 18.5291 10.4296 18.5263 10.4283 18.5233C10.4271 18.5202 10.4264 18.5169 10.4264 18.5136C10.4264 18.5103 10.4271 18.507 10.4283 18.5039C10.4296 18.5009 10.4315 18.4981 10.4339 18.4958C10.4534 18.4471 10.4619 18.3947 10.4589 18.3423C10.4589 18.3102 10.4589 18.2746 10.4089 18.2674C10.359 18.2603 10.3518 18.296 10.3447 18.3281C10.3385 18.3619 10.3301 18.3952 10.3197 18.428C10.3019 18.5029 10.2698 18.535 10.2127 18.5314C10.1556 18.5279 10.1199 18.4958 10.1021 18.4244C10.0993 18.4067 10.0993 18.3886 10.1021 18.3709" fill="#FFFAEA"/>
<path d="M10.4864 17.9856C10.4854 18.036 10.4745 18.0857 10.4543 18.1319C10.4543 18.1319 10.4329 18.1533 10.4186 18.1497C10.4043 18.1462 10.4007 18.1247 10.4186 18.1105C10.4395 18.0622 10.4481 18.0095 10.4436 17.9571C10.4436 17.9214 10.4436 17.8893 10.39 17.8857C10.3365 17.8821 10.3365 17.9142 10.3258 17.9499C10.3151 17.9856 10.3258 18.0284 10.3008 18.0677C10.2963 18.0895 10.2848 18.1093 10.2681 18.1241C10.2514 18.1389 10.2303 18.1479 10.2081 18.1497C10.1835 18.1508 10.1594 18.1436 10.1393 18.1294C10.1193 18.1152 10.1046 18.0947 10.0975 18.0712C10.0834 18.0392 10.0762 18.0045 10.0762 17.9695C10.0762 17.9345 10.0834 17.8999 10.0975 17.8679C10.0975 17.8679 10.0975 17.8393 10.126 17.8429C10.1546 17.8465 10.1546 17.8679 10.1439 17.8893C10.1297 17.9321 10.1297 17.9784 10.1439 18.0213C10.1428 18.0359 10.1474 18.0503 10.1567 18.0616C10.166 18.0729 10.1793 18.0801 10.1938 18.0819C10.2295 18.0819 10.2473 18.0819 10.2545 18.032C10.2616 17.982 10.2545 17.9571 10.2794 17.9214C10.3044 17.8857 10.3365 17.8143 10.3865 17.8143C10.4364 17.8143 10.4757 17.8536 10.4935 17.9249C10.4963 17.9451 10.4963 17.9655 10.4935 17.9856" fill="#FFFAEA"/>
<path d="M10.4864 28.7319C10.4889 28.7476 10.4881 28.7636 10.4839 28.7789C10.4798 28.7942 10.4724 28.8084 10.4622 28.8206C10.4521 28.8328 10.4394 28.8426 10.4251 28.8495C10.4108 28.8563 10.3952 28.86 10.3794 28.8603C10.3247 28.8639 10.2699 28.8639 10.2152 28.8603C10.1724 28.8603 10.126 28.8603 10.1189 28.9174C10.1118 28.9745 10.0832 28.9424 10.0761 28.9174C10.0689 28.8925 10.044 28.8532 10.0012 28.8532C9.99763 28.8534 9.99411 28.8527 9.99091 28.8513C9.9877 28.8498 9.98492 28.8475 9.9828 28.8447C9.98068 28.8419 9.97929 28.8386 9.97876 28.8351C9.97823 28.8316 9.97857 28.828 9.97975 28.8247C9.97975 28.8247 9.97975 28.7997 9.99759 28.7997C10.0689 28.7997 10.0689 28.7569 10.0689 28.7034C10.0689 28.6964 10.0714 28.6896 10.076 28.6843C10.0806 28.6791 10.087 28.6757 10.0939 28.6748C10.1118 28.6748 10.1189 28.6748 10.1225 28.7034C10.126 28.7319 10.1225 28.764 10.1403 28.7854C10.1581 28.8068 10.2045 28.7854 10.2331 28.7854C10.2699 28.789 10.3069 28.789 10.3437 28.7854C10.4186 28.7854 10.4257 28.7854 10.4293 28.6927C10.4293 28.6748 10.4293 28.6498 10.4293 28.6463C10.4293 28.6427 10.4614 28.6677 10.465 28.6855C10.4662 28.695 10.4662 28.7046 10.465 28.7141" fill="#FFFAEA"/>
<path d="M10.4867 23.4979C10.4887 23.5142 10.4873 23.5308 10.4825 23.5465C10.4777 23.5622 10.4697 23.5768 10.4589 23.5892C10.4481 23.6016 10.4349 23.6117 10.42 23.6187C10.4052 23.6257 10.389 23.6295 10.3725 23.6299C10.3119 23.6299 10.2512 23.6299 10.1906 23.6299H10.1371C10.1014 23.7476 10.0764 23.6763 10.0443 23.6299C10.0122 23.5835 10.0051 23.6299 9.99435 23.6299C9.98364 23.6299 9.96937 23.58 9.99435 23.58C10.0193 23.58 10.0728 23.5407 10.0693 23.4836C10.068 23.479 10.0679 23.4742 10.069 23.4695C10.0701 23.4649 10.0724 23.4606 10.0756 23.457C10.0788 23.4535 10.0828 23.4508 10.0873 23.4492C10.0918 23.4476 10.0967 23.4472 10.1014 23.4479C10.1192 23.4479 10.1192 23.4479 10.1228 23.4836C10.1442 23.5728 10.1442 23.5728 10.2227 23.5728H10.3226C10.4154 23.5728 10.4189 23.5728 10.4261 23.4658C10.4261 23.4658 10.4261 23.4337 10.4439 23.4301C10.4509 23.43 10.4577 23.4326 10.4629 23.4372C10.4682 23.4418 10.4716 23.4481 10.4724 23.4551C10.4746 23.4705 10.4746 23.4861 10.4724 23.5015" fill="#FFFAEA"/>
<path d="M10.4871 26.0632C10.4881 26.0786 10.486 26.0941 10.481 26.1088C10.4759 26.1235 10.468 26.137 10.4578 26.1486C10.4475 26.1602 10.435 26.1696 10.4211 26.1764C10.4072 26.1832 10.392 26.1871 10.3765 26.188C10.3123 26.188 10.2445 26.188 10.1803 26.188C10.1161 26.188 10.1375 26.188 10.1304 26.188C10.1232 26.188 10.0875 26.2808 10.059 26.188C10.059 26.188 10.0376 26.188 10.0233 26.188C10.0091 26.188 9.99121 26.188 9.99121 26.1702C9.99121 26.1524 10.0162 26.1417 10.0376 26.1381C10.059 26.1345 10.0697 26.0846 10.0768 26.0525C10.084 26.0204 10.0768 26.0168 10.1125 26.0168C10.1482 26.0168 10.1304 26.0168 10.1375 26.0453C10.1553 26.1345 10.1553 26.1345 10.2374 26.1345H10.348C10.4015 26.1345 10.4301 26.1095 10.4265 26.0525C10.4229 25.9954 10.4265 25.9989 10.4265 25.9989C10.4265 25.9989 10.455 26.0346 10.4657 26.0525V26.0774" fill="#FFFAEA"/>
<path d="M10.2804 28.0112H10.1092C10.0842 28.0112 10.0592 27.9898 10.0735 27.972C10.0878 27.9541 10.0735 27.8971 10.0735 27.8578C10.0735 27.8186 10.0735 27.815 10.0735 27.8007C10.0735 27.7865 10.1056 27.8007 10.1128 27.84C10.1163 27.8716 10.1322 27.9005 10.1569 27.9205C10.1816 27.9405 10.2131 27.95 10.2448 27.947H10.4303C10.4517 27.947 10.4731 27.947 10.4731 27.9827C10.4731 28.0184 10.4481 28.0077 10.4303 28.0077H10.2662" fill="#FFFAEA"/>
<path d="M10.2731 22.7879H10.1125C10.0733 22.7879 10.0518 22.7665 10.084 22.7344C10.1161 22.7023 10.084 22.663 10.084 22.6309C10.084 22.5988 10.084 22.581 10.1018 22.5774C10.1196 22.5738 10.1303 22.5774 10.1303 22.6131C10.1348 22.6462 10.1516 22.6764 10.1774 22.6976C10.2033 22.7187 10.2361 22.7294 10.2695 22.7272C10.3313 22.7308 10.3932 22.7308 10.455 22.7272C10.4764 22.7272 10.4943 22.7272 10.4907 22.7558C10.4871 22.7843 10.4729 22.7843 10.455 22.7843H10.2838" fill="#FFFAEA"/>
<path d="M10.2766 27.6366H10.4514C10.4587 27.637 10.4656 27.6396 10.4714 27.6441C10.4771 27.6485 10.4814 27.6546 10.4835 27.6616C10.4835 27.683 10.4835 27.6937 10.4514 27.6937H10.0946C10.0877 27.6941 10.0808 27.6922 10.075 27.6883C10.0692 27.6845 10.0648 27.6788 10.0625 27.6723C10.0613 27.6677 10.0612 27.6628 10.0623 27.6582C10.0634 27.6535 10.0657 27.6492 10.0689 27.6457C10.072 27.6421 10.0761 27.6394 10.0806 27.6379C10.0851 27.6363 10.0899 27.6358 10.0946 27.6366H10.2766Z" fill="#FFFAEA"/>
<path d="M10.191 21.9495H10.4372C10.4551 21.9495 10.4765 21.9495 10.4693 21.978C10.4622 22.0065 10.4515 21.9994 10.4372 21.9994H9.93772C9.93073 21.9995 9.92396 21.997 9.9187 21.9924C9.91344 21.9877 9.91005 21.9814 9.90918 21.9744C9.90918 21.953 9.92702 21.9495 9.93772 21.9495H10.191Z" fill="#FFFAEA"/>
<path d="M9.99094 27.6652C9.99094 27.6901 9.99094 27.708 9.94813 27.708C9.93929 27.7071 9.93111 27.703 9.92517 27.6964C9.91924 27.6898 9.91597 27.6812 9.91602 27.6723C9.91602 27.6473 9.91602 27.6295 9.94813 27.6259C9.95357 27.6254 9.95906 27.6261 9.96424 27.6278C9.96942 27.6296 9.97418 27.6324 9.97821 27.6361C9.98225 27.6398 9.98546 27.6443 9.98765 27.6493C9.98984 27.6543 9.99096 27.6597 9.99094 27.6652Z" fill="#FFFAEA"/>
</svg>
