<svg width="27" height="31" viewBox="0 0 27 31" fill="none" xmlns="http://www.w3.org/2000/svg">
<path fill-rule="evenodd" clip-rule="evenodd" d="M6.5874 6.32741C6.5874 6.192 6.55693 6.2834 6.5874 6.12429C6.72281 6.15476 6.62802 6.16491 6.70588 6.17507C6.78374 6.18523 6.73635 6.17507 6.82437 6.15137C6.82686 6.17727 6.82686 6.20334 6.82437 6.22924C6.84129 6.33079 6.75666 6.15476 6.82437 6.26647H6.85145L6.909 6.23262C6.87515 6.03627 6.909 5.87716 7.10535 5.85347C7.3017 5.82977 7.38633 5.94825 7.39987 6.14122H7.49466C7.39014 5.97851 7.27117 5.82555 7.1392 5.6842C7.00717 5.53863 7.10196 5.53186 7.10873 5.52848C7.16967 5.4777 7.14259 5.51155 7.3017 5.67066C7.40326 5.57248 7.40326 5.49801 7.6233 5.62665C7.70793 5.67743 7.87043 5.7316 7.88397 5.823C7.79257 5.90086 7.76548 5.85685 7.66393 5.78914C7.59327 5.7306 7.50513 5.69725 7.41341 5.69436C7.40556 5.74043 7.41093 5.78779 7.42891 5.83093C7.44689 5.87407 7.47673 5.91123 7.51497 5.9381C7.68424 6.12091 7.51497 6.04981 7.65716 6.09382C8.07016 6.06674 8.63551 5.9381 9.06883 5.88055C10.0844 5.74514 11.1271 5.66389 12.1529 5.62665C12.6843 5.64038 13.2161 5.61549 13.7439 5.55217C13.8384 5.50752 13.9177 5.43619 13.9721 5.34698C14.0265 5.25776 14.0535 5.15458 14.0499 5.05017C14.0463 4.94575 14.0122 4.84468 13.9518 4.75943C13.8914 4.67417 13.8074 4.60847 13.7101 4.57043C13.4122 4.45872 11.0222 4.61783 10.555 4.65845C10.0878 4.69907 9.48522 4.79725 9.04175 4.81079C9.01128 4.8548 8.99097 4.90896 8.90972 4.9225C8.82847 4.93605 8.81493 4.88865 8.73707 4.86157C8.75738 5.0613 8.71676 5.2001 8.52041 5.2001C8.32406 5.2001 8.27667 5.09177 8.26313 4.90896H8.18188C8.18188 4.99021 8.1988 4.9699 8.18188 5.01729C8.16495 5.06469 8.18188 4.99021 8.14464 5.11547C8.48317 5.41338 8.21912 5.17302 8.42562 5.25427C8.42562 5.46754 8.22927 5.38629 8.14464 5.28135C7.99907 5.10531 8.06339 5.20687 7.99569 5.14594C7.92798 5.085 7.97876 5.06807 7.88736 4.98344H7.74517C5.78064 5.27107 3.87925 5.89037 2.12217 6.81489C1.32496 7.22513 0.668386 7.86402 0.236548 8.64973C-0.183231 9.55023 0.0537409 11.0195 0.202695 12.0046C0.26363 12.404 0.429511 13.1387 0.541226 13.5043C1.16169 15.7478 2.32425 17.8044 3.92654 19.4929L4.87443 20.4205C5.03354 20.5694 5.21296 20.6947 5.37207 20.8572C5.52848 21.013 5.69349 21.1599 5.86632 21.2973C5.96788 21.2973 5.86632 21.3243 5.95434 21.2296C5.99427 21.1801 6.05174 21.1479 6.11479 21.1397C6.17784 21.1315 6.24162 21.1479 6.29287 21.1855C6.5163 21.3616 6.25563 21.5918 6.22178 21.6426C6.31489 21.7122 6.40417 21.7868 6.48922 21.866L7.34571 22.6311C7.8535 23.0881 8.55426 23.667 9.03836 24.124L10.731 25.6203C10.7581 26.8424 10.731 28.2338 10.731 29.4931C10.731 29.9264 10.6498 30.3767 10.9341 30.5933C10.999 30.6433 11.0745 30.6776 11.1548 30.6938C11.235 30.7099 11.3179 30.7074 11.3971 30.6865C11.4762 30.6656 11.5495 30.6268 11.6113 30.573C11.673 30.5193 11.7217 30.4521 11.7534 30.3767C11.838 30.16 11.794 26.9169 11.794 26.5377C11.794 24.6589 11.97 25.407 10.4873 23.9954L9.63079 23.2337C9.56309 23.1761 9.52246 23.149 9.46153 23.0881L8.46286 22.1537C8.02954 21.7814 7.50482 21.2803 7.07488 20.9384H6.88869C6.8557 20.8899 6.81831 20.8446 6.77697 20.803C6.6788 20.6947 6.74651 20.7624 6.6314 20.6981L6.58063 20.5051C6.44137 20.3625 6.29203 20.2301 6.13376 20.109C5.56165 19.6114 5.11817 19.1848 4.58668 18.6466C4.5122 18.5687 4.4648 18.4976 4.39033 18.4164C4.24476 18.2674 4.1195 18.1015 3.98747 17.939C3.18987 16.9471 2.54307 15.8429 2.068 14.6621C1.7028 13.7931 1.44145 12.884 1.28938 11.9538C1.49 12.0718 1.68331 12.2018 1.86827 12.3431C2.07139 12.4684 2.25081 12.5733 2.46408 12.6816C4.73901 13.8496 7.42018 14.3167 9.98625 14.591C11.2083 14.7196 12.356 14.7264 13.6018 14.7636C13.6276 14.7033 13.6722 14.6529 13.7289 14.62C13.7856 14.5871 13.8514 14.5733 13.9166 14.5808V14.7636H14.0148C13.9978 14.6519 13.8726 14.5571 13.9978 14.3811C14.0689 14.2795 14.1908 14.2694 14.3364 14.3066C14.2754 13.9681 14.5903 13.8733 14.746 14.0527C14.9017 14.2321 14.746 14.5165 14.4278 14.4251C14.4423 14.4813 14.4404 14.5404 14.4224 14.5956C14.4044 14.6508 14.3711 14.6997 14.3262 14.7365H14.7189C15.797 14.7175 16.8731 14.6361 17.9417 14.4928C18.9316 14.3698 19.9146 14.1969 20.887 13.9748C22.4378 13.6591 23.9251 13.087 25.2879 12.2822C25.452 12.1549 25.6226 12.0363 25.799 11.9267C25.6095 13.748 24.3501 16.3886 23.2398 17.7596C23.0705 17.9627 22.9283 18.1489 22.7658 18.3385C21.9197 19.2454 21.015 20.0958 20.0576 20.8843C19.8646 21.0569 19.6886 21.1957 19.5024 21.3819C19.1368 21.7441 18.2667 22.4449 17.8097 22.8714C17.2918 23.3521 16.6215 23.887 16.1171 24.3508C15.9309 24.5269 15.7785 24.669 15.5652 24.8451C15.3147 25.0719 15.2267 25.0651 15.2267 25.556V29.7876C15.2267 30.16 15.2064 30.4207 15.4569 30.5967C15.5715 30.6732 15.7108 30.7031 15.8466 30.6805C15.9825 30.6578 16.1046 30.5843 16.1881 30.4748C16.3506 30.2582 16.2897 29.8316 16.2897 29.5303V28.4809C16.271 28.1234 16.271 27.7652 16.2897 27.4078C16.0189 27.3807 15.9816 27.164 15.8191 27.252C15.7785 27.4484 16.1001 27.5195 15.9749 27.6278C15.8496 27.7361 15.7988 27.5229 15.6973 27.3908C15.5957 27.2588 15.4772 27.1809 15.4738 27.076C15.5111 27.0489 15.4738 27.076 15.5179 27.0421C15.6093 27.0658 15.6465 27.1335 15.6871 27.208C15.7853 27.1606 15.7684 27.0184 15.985 27.1302C16.0934 27.1877 16.1678 27.2723 16.2897 27.2791C16.178 27.2249 16.0934 27.1979 16.0832 27.0421C16.073 26.8864 16.1611 26.8323 16.2829 26.7645V25.6135C16.5673 25.3969 16.8449 25.1125 17.1293 24.8722L18.8219 23.3657C19.3907 22.9019 19.9662 22.3501 20.5146 21.8592L22.2343 20.3426C25.0389 17.8342 26.7418 14.3214 26.9738 10.5658C27.055 9.3945 26.9738 8.73098 26.3542 8.02684C25.9828 7.5974 25.5437 7.23148 25.0543 6.94354C24.9685 6.86773 24.8667 6.81222 24.7565 6.78116C24.6464 6.7501 24.5306 6.74427 24.4178 6.76412C24.318 6.7923 24.2287 6.84925 24.1611 6.92786C24.0934 7.00648 24.0504 7.10327 24.0374 7.20617C24.0244 7.30906 24.042 7.41351 24.088 7.50647C24.134 7.59944 24.2063 7.67681 24.296 7.72893C24.6309 7.9268 24.9481 8.15333 25.2439 8.40599C25.8397 8.89686 26.2595 9.74319 25.5824 10.5692C24.7394 11.5848 22.9723 12.316 21.3237 12.7595C19.9917 13.1178 18.6333 13.3691 17.2613 13.511C16.7614 13.5852 16.2568 13.6237 15.7514 13.6261C15.6296 13.7277 15.7311 13.6261 15.6803 13.7785C15.5009 13.7785 15.616 13.7412 15.4806 13.6769L15.4366 13.7649C15.291 13.8936 15.2606 13.6905 15.0473 13.6871L15.0981 13.7649C15.2064 13.9071 15.2369 13.88 15.2064 13.9884C15.0744 14.0256 15.0101 13.8631 14.9356 13.7819C14.8611 13.7006 14.6952 13.7379 14.526 13.7074C14.1874 13.6566 13.3817 13.7074 12.9789 13.7074C10.2273 13.7084 7.49019 13.3081 4.85412 12.5191C4.66115 12.4582 4.46819 12.3939 4.28538 12.3228C4.09065 12.2641 3.9041 12.1811 3.73019 12.0757C4.06195 11.964 4.40048 11.8184 4.73901 11.6965C7.37847 10.8917 10.1213 10.4766 12.8807 10.4643C12.864 11.1551 13.1181 11.8251 13.5887 12.3311C14.0593 12.8372 14.7091 13.1391 15.3994 13.1725C15.4172 13.1423 15.4424 13.1172 15.4726 13.0994C15.5028 13.0816 15.537 13.0718 15.572 13.071C15.6372 13.0702 15.7014 13.0865 15.7582 13.1183C15.7169 13.051 15.6669 12.9895 15.6093 12.9355C15.5813 12.9045 15.5552 12.8717 15.5314 12.8374C15.5314 12.8035 15.5314 12.8374 15.5314 12.7798C15.5314 12.7223 15.5314 12.7798 15.5314 12.7595C15.5314 12.6004 15.7108 12.8577 15.7413 12.8881C15.8835 12.7053 15.9952 12.7967 16.3676 13.0439C16.6671 12.9521 16.9448 12.8 17.1834 12.597C17.4155 12.4041 17.6155 12.1756 17.7759 11.9199C18.1447 12.0322 18.5232 12.1092 18.9066 12.1501C19.9891 12.2278 21.0585 11.8747 21.8821 11.1678C22.7056 10.4609 23.2167 9.45734 23.3041 8.37552C23.3154 7.94178 23.2883 7.50788 23.2228 7.07895C23.0976 7.20759 23.101 7.32269 22.8234 7.23806C22.8471 7.43779 22.7895 7.52581 22.6372 7.57659C22.671 7.64091 22.7252 7.69508 22.7184 7.73909C22.6913 7.93882 22.4104 7.55628 22.3799 7.51904C22.2309 7.28545 22.434 7.02478 22.7184 7.13311C22.6778 6.81828 22.952 6.67948 23.1314 6.87922V6.82167L22.8978 5.85008C22.2989 4.09638 21.416 2.45295 20.2844 0.985386C20.1083 0.75857 19.912 0.494515 19.7292 0.308323C19.6475 0.182424 19.5294 0.0844069 19.3907 0.0273421C19.3088 0.000846444 19.2221 -0.00652255 19.1369 0.00580253C19.0518 0.0181276 18.9707 0.049818 18.8998 0.0984337C18.5748 0.308323 17.5118 1.8351 17.2647 2.20071C16.9292 2.70992 16.6229 3.23775 16.3473 3.78165C16.0461 4.34318 15.7947 4.92994 15.5957 5.53525C15.4907 5.51965 15.3835 5.53467 15.2868 5.57851C15.1901 5.62234 15.1081 5.69312 15.0507 5.78237C14.2856 6.78104 13.3513 8.09454 13.0669 9.38435C12.5808 9.43055 12.0927 9.45202 11.6044 9.44867C8.80139 9.59085 5.07755 10.1562 2.70783 11.3885C2.48101 11.5069 2.44039 11.4088 2.2305 11.2598C1.74932 10.965 1.37097 10.5287 1.1472 10.0106C0.652941 8.56849 3.19531 7.41748 4.21429 7.03494C4.61037 6.88937 4.95567 6.77089 5.3653 6.64901C5.77492 6.52714 6.23532 6.4459 6.5874 6.32741ZM7.82642 5.27119C8.12771 5.10531 8.30375 5.60972 8.02954 5.7079C8.00086 5.72123 7.96984 5.72879 7.93825 5.73014C7.90665 5.73149 7.8751 5.7266 7.84539 5.71576C7.81569 5.70491 7.78841 5.68832 7.76511 5.66693C7.74182 5.64555 7.72296 5.61978 7.70963 5.5911C7.69629 5.56243 7.68873 5.53141 7.68738 5.49981C7.68603 5.46822 7.69092 5.43667 7.70177 5.40696C7.71261 5.37725 7.7292 5.34997 7.75059 5.32668C7.77198 5.30338 7.79775 5.28453 7.82642 5.27119ZM18.1618 10.9044C18.1925 9.9121 17.9588 8.92952 17.4847 8.0573C17.2933 7.67128 17.0809 7.29608 16.8483 6.93338C16.7603 6.80135 16.5368 6.51699 16.4861 6.41204C16.4353 6.3071 16.591 5.92456 16.6418 5.7756C16.9417 4.95064 17.3215 4.15696 17.7759 3.40588C17.8842 3.22646 18.981 1.48641 19.2112 1.34084C19.4004 1.55426 19.5746 1.78048 19.7326 2.01791C20.5975 3.19429 21.2948 4.48516 21.8044 5.85347C21.9659 6.31631 22.0882 6.79193 22.17 7.2753C22.2343 7.54612 22.2783 7.18389 22.2614 7.75263C22.3968 7.70523 22.1971 7.8508 22.2614 7.75263C22.2614 7.86096 22.3697 7.83049 22.2614 7.86096C22.3006 8.59333 22.0743 9.31527 21.6241 9.89423C21.1739 10.4732 20.5299 10.8703 19.8104 11.0127C19.261 11.1242 18.6919 11.0868 18.1618 10.9044ZM15.0811 6.16491C15.2227 6.10102 15.3825 6.0902 15.5314 6.13445C15.677 6.18184 15.6702 6.29017 15.6093 6.55084L15.071 6.52714C15.0512 6.40913 15.0546 6.28837 15.0811 6.17169V6.16491ZM15.5246 6.92323C15.6155 7.01244 15.6951 7.11249 15.7616 7.22113L16.3642 8.17918C16.8178 9.02889 17.4509 10.4304 16.8821 11.3478C16.7396 11.5788 16.5404 11.7695 16.3034 11.9018C16.0663 12.0341 15.7994 12.1035 15.528 12.1035C15.2566 12.1035 14.9897 12.0341 14.7527 11.9018C14.5156 11.7695 14.3164 11.5788 14.1739 11.3478C13.8354 10.8265 13.9234 10.2239 14.0893 9.62132C14.4023 8.64533 14.8885 7.73367 15.5246 6.93V6.92323ZM0.290713 11.7168C0.368575 11.6728 0.399043 11.6322 0.490446 11.6965C0.466749 11.8624 0.443052 11.6965 0.388887 11.8353C0.517529 11.8353 0.642785 11.7879 0.673253 11.9267C0.703721 12.0655 0.6394 12.1265 0.53107 12.1197C0.42274 12.1129 0.497217 12.1197 0.463364 12.096C0.497217 11.9775 0.514144 12.096 0.564923 11.9403H0.338107C0.310183 11.9111 0.290951 11.8748 0.282577 11.8353C0.274203 11.7958 0.277021 11.7548 0.290713 11.7168ZM17.0853 11.8996C17.0853 11.7338 17.1259 11.6897 17.2951 11.683C17.2782 11.7879 17.2951 11.7338 17.2274 11.8116L17.2004 11.8387C17.2918 11.8726 17.4306 11.7913 17.4746 11.9335C17.5186 12.0757 17.4272 12.2077 17.2647 12.096C17.2985 12.035 17.285 12.0655 17.3256 12.0215C17.3662 11.9775 17.3256 12.0215 17.3662 11.9809C17.2444 11.9132 17.2647 12.0554 17.0853 11.8996ZM16.8551 11.9673C17.1563 11.7981 17.3425 12.3059 17.0751 12.4007C17.0464 12.4182 17.0144 12.4296 16.9811 12.4341C16.9478 12.4387 16.9139 12.4363 16.8816 12.4271C16.8492 12.418 16.8191 12.4022 16.7932 12.3808C16.7672 12.3595 16.746 12.333 16.7307 12.303C16.7155 12.273 16.7067 12.2402 16.7047 12.2067C16.7028 12.1731 16.7078 12.1395 16.7195 12.108C16.7312 12.0765 16.7492 12.0477 16.7726 12.0235C16.7959 11.9993 16.824 11.9802 16.8551 11.9673ZM16.6384 12.2517C16.6384 12.36 16.5944 12.2043 16.6384 12.333C16.6858 12.5428 16.8551 12.4108 16.9228 12.5462C16.7196 12.7087 16.6993 12.5462 16.5842 12.4481L16.4996 12.3905C16.4604 12.362 16.4327 12.3203 16.4215 12.2731C16.4104 12.2259 16.4164 12.1763 16.4387 12.1332C16.4996 12.1569 16.4894 12.1705 16.5301 12.184C16.6418 12.2246 16.6485 12.1129 16.6384 12.2517ZM16.2694 12.4684C16.3287 12.4441 16.3951 12.4444 16.4542 12.4692C16.5132 12.4939 16.56 12.5411 16.5842 12.6004C16.6085 12.6597 16.6082 12.7261 16.5834 12.7852C16.5587 12.8442 16.5115 12.891 16.4522 12.9152C16.4229 12.9272 16.3914 12.9333 16.3597 12.9332C16.328 12.9331 16.2967 12.9267 16.2674 12.9144C16.2382 12.9022 16.2117 12.8843 16.1894 12.8617C16.167 12.8392 16.1494 12.8125 16.1374 12.7832C16.1131 12.7239 16.1134 12.6575 16.1382 12.5984C16.1629 12.5394 16.2101 12.4926 16.2694 12.4684ZM6.66526 13.7142C6.64156 13.6803 6.66526 13.7142 6.63818 13.6498V13.484C6.63818 13.3384 6.63818 13.3655 6.74651 13.3282C6.80614 13.3015 6.87074 13.2877 6.93608 13.2877C7.00142 13.2877 7.06603 13.3015 7.12566 13.3282H7.14936L7.19675 13.3452C7.23292 13.4551 7.23292 13.5737 7.19675 13.6837C7.02641 13.7458 6.84158 13.7564 6.66526 13.7142ZM14.6986 13.7886C14.8916 13.6397 14.8814 13.7243 14.9085 13.7412C14.8713 13.8631 14.9085 13.7717 14.8611 13.8157C14.8137 13.8597 14.834 13.8157 14.8069 13.8868C15.3147 13.8293 15.0608 14.2727 14.8814 14.1407C14.8814 13.9613 14.922 14.1644 14.983 13.9918C14.7765 13.9951 14.6885 14.0358 14.6986 13.7886ZM6.35042 20.5897C6.52646 20.5897 6.50276 20.6879 6.35042 20.6981V20.5897ZM6.7702 20.9824C6.86161 21.0941 6.80067 20.9824 6.83791 21.1111C6.73974 21.1517 6.74651 21.172 6.59417 20.9892C6.44183 20.8064 6.42829 20.8267 6.48584 20.7319C6.61448 20.7319 6.51969 20.6981 6.61448 20.7996L6.7702 20.9824ZM6.29964 21.1382C6.27595 21.084 6.23194 21.0027 6.28272 20.9283C6.30519 20.898 6.3375 20.8764 6.37412 20.8673C6.55016 20.847 6.4249 20.8673 6.4723 20.9012L6.37412 21.0129C6.46552 21.0569 6.49261 20.9858 6.64833 21.0535V21.2465C6.5874 21.2973 6.55693 21.3447 6.4486 21.2973C6.4486 21.0874 6.4486 21.2973 6.54 21.1415L6.29964 21.1382ZM15.633 27.9088C15.66 27.9494 15.7785 28.0476 15.6803 28.0916C15.5822 28.1356 15.2301 27.7531 15.3418 27.5229C15.371 27.4627 15.4229 27.4166 15.486 27.3947C15.5492 27.3728 15.6185 27.3769 15.6787 27.4061C15.7388 27.4352 15.7849 27.4871 15.8068 27.5503C15.8287 27.6135 15.8246 27.6827 15.7954 27.7429C15.7751 27.8377 15.6939 27.8614 15.6397 27.9156L15.633 27.9088Z" fill="#1A1A18"/>
<path fill-rule="evenodd" clip-rule="evenodd" d="M23.2225 7.07895C23.2225 7.03494 23.2225 6.98754 23.2225 6.94692C23.2241 6.92325 23.2241 6.8995 23.2225 6.87583C23.1988 6.81828 23.2225 6.84536 23.1853 6.81151V6.86906C23.0059 6.66932 22.7316 6.80812 22.7723 7.12296C22.4811 7.01463 22.278 7.2753 22.4337 7.50888C22.4574 7.54612 22.7384 7.92866 22.7723 7.72893C22.7723 7.68492 22.7249 7.63075 22.691 7.56643C22.8434 7.52581 22.9009 7.43779 22.8772 7.2279C23.1548 7.31253 23.1514 7.19743 23.2767 7.06879L23.2225 7.07895ZM22.9382 6.92322C23.1007 6.7912 23.2191 7.04171 23.077 7.12634C23.0629 7.13627 23.047 7.14321 23.0302 7.14672C23.0133 7.15022 22.996 7.15023 22.9791 7.14674C22.9623 7.14325 22.9464 7.13633 22.9323 7.12641C22.9183 7.1165 22.9065 7.1038 22.8975 7.0891C22.7723 6.974 22.8874 6.92999 22.8908 6.92999L22.9382 6.92322ZM22.4778 7.44118C22.427 7.30576 22.4541 7.29899 22.5285 7.20759C22.5867 7.20381 22.6446 7.218 22.6944 7.24821C22.7655 7.45133 22.6267 7.49873 22.4778 7.44118Z" fill="#1A1A18"/>
<path fill-rule="evenodd" clip-rule="evenodd" d="M14.0213 14.7636C14.2583 14.7918 14.4984 14.7815 14.7322 14.7331H14.3395C14.3843 14.6963 14.4177 14.6474 14.4357 14.5922C14.4537 14.537 14.4555 14.4779 14.4411 14.4217C14.7559 14.5131 14.9252 14.2423 14.7593 14.0493C14.5934 13.8563 14.2887 13.9782 14.3496 14.3032C14.1973 14.266 14.0754 14.2761 14.0111 14.3777C13.8859 14.5537 14.0111 14.6485 14.028 14.7602L14.0213 14.7636ZM14.6814 14.1035C14.8134 14.4759 14.2921 14.3777 14.5155 14.0798L14.6814 14.1035ZM14.3124 14.4183C14.3869 14.635 14.2142 14.7298 14.1059 14.6214C13.9976 14.5131 14.1093 14.3608 14.3056 14.4217L14.3124 14.4183Z" fill="#1A1A18"/>
<path fill-rule="evenodd" clip-rule="evenodd" d="M6.66504 13.7141C6.83098 13.7616 7.00689 13.7616 7.17283 13.7141C7.209 13.6042 7.209 13.4856 7.17283 13.3756L7.12544 13.3587H7.10174C7.04211 13.332 6.97751 13.3182 6.91217 13.3182C6.84682 13.3182 6.78222 13.332 6.72259 13.3587C6.60749 13.3959 6.62103 13.3587 6.61426 13.5144V13.6803C6.63118 13.7412 6.61426 13.7108 6.64134 13.7446" fill="#1A1A18"/>
<path fill-rule="evenodd" clip-rule="evenodd" d="M15.0806 6.17168C15.0565 6.29123 15.0565 6.41437 15.0806 6.53391L15.6188 6.55761C15.6798 6.29694 15.6865 6.18861 15.541 6.14121C15.3921 6.09697 15.2323 6.10778 15.0907 6.17168" fill="#1A1A18"/>
<path fill-rule="evenodd" clip-rule="evenodd" d="M15.3998 13.1725C15.6277 13.2011 15.8591 13.1779 16.0769 13.1048H15.9415C15.8737 13.0236 15.823 13.0168 15.867 12.8848C15.9991 12.9 16.1203 12.9654 16.2055 13.0676L16.3782 13.0066C16.0058 12.7595 15.8941 12.6681 15.7519 12.8509C15.7214 12.8205 15.5454 12.5632 15.542 12.7223C15.542 12.7223 15.542 12.7223 15.542 12.7426C15.542 12.7629 15.542 12.7663 15.542 12.8001C15.5658 12.8345 15.5918 12.8673 15.6198 12.8983C15.6774 12.9523 15.7275 13.0138 15.7688 13.0811C15.7054 13.0602 15.6376 13.0567 15.5725 13.071C15.5354 13.0704 15.4988 13.0799 15.4667 13.0984C15.4345 13.1168 15.4079 13.1436 15.3896 13.1759" fill="#1A1A18"/>
<path fill-rule="evenodd" clip-rule="evenodd" d="M15.6388 27.9156C15.693 27.8614 15.7742 27.8377 15.8149 27.7497C15.844 27.6895 15.8481 27.6203 15.8262 27.5571C15.8043 27.4939 15.7582 27.442 15.6981 27.4129C15.6379 27.3837 15.5686 27.3796 15.5055 27.4015C15.4423 27.4234 15.3904 27.4695 15.3612 27.5296C15.236 27.7632 15.6321 28.1221 15.6998 28.0984C15.7675 28.0747 15.6794 27.9562 15.6524 27.9156H15.6388ZM15.6761 27.7666C15.4052 27.814 15.4289 27.5669 15.544 27.5229C15.7031 27.4552 15.7709 27.6177 15.6625 27.7666H15.6761Z" fill="#1A1A18"/>
<path fill-rule="evenodd" clip-rule="evenodd" d="M7.50819 6.14799C7.53857 6.15126 7.56921 6.15126 7.59959 6.14799C7.66392 6.13106 7.65037 6.12768 7.67069 6.11414C7.52512 6.07013 7.69777 6.14122 7.5285 5.95841C7.49026 5.93155 7.46042 5.89439 7.44244 5.85124C7.42446 5.8081 7.41909 5.76074 7.42694 5.71467C7.51866 5.71756 7.6068 5.75091 7.67746 5.80946C7.77902 5.87717 7.8061 5.92117 7.8975 5.84331C7.8975 5.75191 7.72147 5.69774 7.63683 5.64696C7.41679 5.51832 7.41679 5.5928 7.31523 5.69097C7.15612 5.53186 7.1832 5.49801 7.12227 5.54879C7.12227 5.54879 7.02071 5.54879 7.15273 5.70451C7.2847 5.84587 7.40367 5.99883 7.50819 6.16153" fill="#1A1A18"/>
<path fill-rule="evenodd" clip-rule="evenodd" d="M16.3237 27.4111V27.2825C16.2018 27.2825 16.1273 27.1911 16.019 27.1335C15.8023 27.0218 15.8193 27.164 15.7211 27.2114C15.6805 27.1369 15.6432 27.0692 15.5518 27.0455C15.5214 27.076 15.5518 27.0455 15.5078 27.0794C15.5078 27.1843 15.6602 27.3062 15.7312 27.3942C15.8023 27.4822 15.931 27.6989 16.0088 27.6312C16.0867 27.5635 15.8125 27.4518 15.8531 27.2554C16.0156 27.1674 16.0528 27.3841 16.3237 27.4111Z" fill="#1A1A18"/>
<path fill-rule="evenodd" clip-rule="evenodd" d="M14.5566 13.6972C14.7259 13.7277 14.8512 13.6465 14.9663 13.7717C15.0814 13.897 15.1051 14.0155 15.2371 13.9782C15.2676 13.8699 15.2371 13.897 15.1288 13.7548L15.078 13.6769C15.2913 13.6769 15.3217 13.8834 15.4673 13.7548L15.5113 13.6668C15.6467 13.7311 15.5316 13.7785 15.711 13.7683C15.7618 13.6228 15.6603 13.7176 15.7821 13.616C15.3723 13.6166 14.963 13.6438 14.5566 13.6972Z" fill="#1A1A18"/>
<path fill-rule="evenodd" clip-rule="evenodd" d="M7.82676 5.27121C7.79808 5.28455 7.77231 5.3034 7.75093 5.3267C7.72954 5.34999 7.71295 5.37727 7.7021 5.40698C7.69126 5.43668 7.68637 5.46824 7.68772 5.49983C7.68907 5.53143 7.69663 5.56245 7.70996 5.59112C7.7233 5.6198 7.74215 5.64556 7.76545 5.66695C7.78874 5.68834 7.81602 5.70493 7.84573 5.71577C7.87544 5.72662 7.90699 5.73151 7.93858 5.73016C7.97018 5.72881 8.0012 5.72125 8.02987 5.70792C8.30409 5.60297 8.12805 5.10533 7.82676 5.27121ZM7.82676 5.38631C7.89642 5.35912 7.97376 5.35912 8.04342 5.38631L8.06711 5.55896C7.95201 5.63682 7.92832 5.63344 7.82337 5.55896L7.82676 5.38631Z" fill="#1A1A18"/>
<path fill-rule="evenodd" clip-rule="evenodd" d="M16.8558 11.9674C16.8247 11.9802 16.7967 11.9993 16.7733 12.0235C16.75 12.0477 16.7319 12.0765 16.7202 12.108C16.7086 12.1395 16.7035 12.1731 16.7055 12.2067C16.7074 12.2402 16.7163 12.273 16.7315 12.303C16.7467 12.333 16.768 12.3595 16.7939 12.3808C16.8199 12.4022 16.85 12.418 16.8823 12.4271C16.9147 12.4363 16.9485 12.4387 16.9819 12.4341C17.0152 12.4296 17.0472 12.4182 17.0759 12.4007C17.3433 12.289 17.1571 11.7981 16.8558 11.9674ZM16.8558 12.2348C16.849 12.218 16.8457 12.1999 16.8461 12.1818C16.8466 12.1637 16.8507 12.1458 16.8584 12.1294C16.8661 12.1129 16.877 12.0982 16.8906 12.0862C16.9042 12.0742 16.9201 12.0651 16.9374 12.0595C16.9546 12.0539 16.9729 12.0519 16.9909 12.0537C17.009 12.0554 17.0265 12.0609 17.0423 12.0697C17.0582 12.0785 17.0721 12.0905 17.0831 12.105C17.0941 12.1194 17.102 12.1359 17.1063 12.1535C17.1165 12.316 16.8829 12.3702 16.8389 12.2348H16.8558Z" fill="#1A1A18"/>
<path fill-rule="evenodd" clip-rule="evenodd" d="M16.2691 12.4684C16.2099 12.4926 16.1627 12.5394 16.1379 12.5984C16.1132 12.6575 16.1129 12.7239 16.1371 12.7832C16.1614 12.8425 16.2081 12.8897 16.2672 12.9144C16.3262 12.9392 16.3927 12.9395 16.4519 12.9152C16.4813 12.9032 16.508 12.8856 16.5305 12.8632C16.553 12.8409 16.5709 12.8144 16.5832 12.7852C16.5954 12.7559 16.6018 12.7246 16.6019 12.6929C16.6021 12.6612 16.596 12.6297 16.584 12.6004C16.572 12.5711 16.5543 12.5444 16.532 12.5218C16.5097 12.4993 16.4831 12.4814 16.4539 12.4692C16.4247 12.4569 16.3933 12.4505 16.3616 12.4504C16.3299 12.4503 16.2985 12.4564 16.2691 12.4684ZM16.4824 12.6072C16.4904 12.6392 16.4919 12.6725 16.4866 12.7051C16.4814 12.7377 16.4696 12.7689 16.4519 12.7967C16.1202 12.8949 16.1845 12.421 16.4824 12.6072Z" fill="#1A1A18"/>
<path fill-rule="evenodd" clip-rule="evenodd" d="M8.46256 4.91235H8.64875L8.61151 5.08162C8.5766 5.10016 8.53661 5.10689 8.49754 5.10079C8.45848 5.09468 8.42245 5.07608 8.39485 5.04776L8.41516 4.91235H8.27637C8.27637 5.09516 8.33392 5.21026 8.53365 5.20349C8.73338 5.19672 8.77062 5.05454 8.75031 4.86496C8.82817 4.89204 8.83494 4.93944 8.92296 4.92589C9.01098 4.91235 9.02452 4.85819 9.05499 4.81418C8.94327 4.81418 8.86541 4.81418 8.76385 4.84465C8.66217 4.84447 8.56168 4.86641 8.46933 4.90897" fill="#1A1A18"/>
<path fill-rule="evenodd" clip-rule="evenodd" d="M5.86621 21.2973C5.91361 21.365 5.83574 21.2973 5.92376 21.3684C5.95198 21.3944 5.98546 21.414 6.02194 21.4259C6.01536 21.3671 6.03106 21.3079 6.06594 21.26C6.34693 21.1991 6.35031 21.5241 6.10318 21.4936C6.13027 21.5444 6.10318 21.4936 6.14719 21.5681L6.17766 21.5986C6.194 21.6166 6.2135 21.6315 6.23521 21.6426C6.26906 21.5918 6.52973 21.3616 6.3063 21.1856C6.25505 21.1479 6.19127 21.1315 6.12822 21.1397C6.06517 21.1479 6.0077 21.1801 5.96777 21.2296C5.88652 21.3244 5.96777 21.2837 5.87975 21.2973" fill="#1A1A18"/>
<path fill-rule="evenodd" clip-rule="evenodd" d="M7.78613 5.01391H7.92832C8.01972 5.09855 7.9554 5.09855 8.03665 5.17641C8.11789 5.25427 8.03665 5.13579 8.1856 5.31182C8.27023 5.41677 8.47335 5.49801 8.46658 5.28474C8.26008 5.20349 8.52752 5.44385 8.1856 5.14594C8.21945 5.02069 8.2093 5.14594 8.22284 5.04777C8.23638 4.94959 8.22284 5.02069 8.22284 4.93944L7.78613 5.01391Z" fill="#1A1A18"/>
<path fill-rule="evenodd" clip-rule="evenodd" d="M6.86523 6.28341L7.11236 6.20555L7.02434 6.18862L7.05481 6.01258C7.21392 5.95165 7.32564 5.98212 7.27147 6.18524L7.41365 6.15815C7.41365 5.96519 7.33918 5.83993 7.11913 5.8704C6.89909 5.90087 6.88893 6.05321 6.92278 6.24956L6.86523 6.28341Z" fill="#1A1A18"/>
<path fill-rule="evenodd" clip-rule="evenodd" d="M6.30701 21.1381H6.55076C6.46951 21.3108 6.46612 21.084 6.45935 21.2939C6.56768 21.3413 6.59815 21.2939 6.65909 21.2431V21.0501C6.50336 20.9824 6.47628 21.0501 6.38488 21.0095L6.48305 20.8978C6.43566 20.8639 6.56091 20.8436 6.38488 20.8639C6.34826 20.873 6.31594 20.8946 6.29347 20.9249C6.24269 20.9994 6.29347 21.0806 6.3104 21.1348" fill="#1A1A18"/>
<path fill-rule="evenodd" clip-rule="evenodd" d="M16.9259 12.5462C16.8582 12.4108 16.6889 12.5462 16.6415 12.333C16.6111 12.2043 16.6415 12.36 16.6415 12.2517C16.6415 12.1434 16.6415 12.2246 16.5095 12.184C16.4689 12.184 16.479 12.1569 16.4181 12.1332C16.3959 12.1763 16.3898 12.226 16.401 12.2731C16.4122 12.3203 16.4398 12.362 16.479 12.3905L16.5637 12.4481C16.6889 12.5598 16.7092 12.7087 16.9022 12.5462" fill="#1A1A18"/>
<path fill-rule="evenodd" clip-rule="evenodd" d="M0.291086 11.7168C0.276274 11.7549 0.272546 11.7964 0.280334 11.8366C0.288122 11.8767 0.307107 11.9138 0.335096 11.9436H0.565297C0.514517 12.0824 0.497591 11.9809 0.463737 12.0994C0.497591 12.1197 0.463737 12.1231 0.531444 12.1231C0.59915 12.1231 0.693939 12.0316 0.673627 11.9301C0.653315 11.8285 0.517902 11.8387 0.389261 11.8387C0.443426 11.6863 0.467123 11.8658 0.49082 11.6999C0.399416 11.6356 0.368949 11.6762 0.291086 11.7202" fill="#1A1A18"/>
<path fill-rule="evenodd" clip-rule="evenodd" d="M14.6992 13.7886C14.6992 14.0358 14.7771 13.9951 14.9836 13.9918C14.9226 14.1644 14.8922 13.9613 14.882 14.1407C15.0614 14.2727 15.3153 13.8293 14.8075 13.8868C14.8346 13.8225 14.8279 13.8597 14.8617 13.8157C14.8956 13.7717 14.8617 13.8631 14.9091 13.7412C14.882 13.7412 14.9091 13.6397 14.6992 13.7886Z" fill="#1A1A18"/>
<path fill-rule="evenodd" clip-rule="evenodd" d="M17.0846 11.8996C17.2674 12.0554 17.2437 11.8996 17.3656 11.9809C17.3317 12.0384 17.3656 11.9809 17.325 12.0215C17.2843 12.0621 17.2979 12.0215 17.264 12.096C17.4265 12.2077 17.5044 12.0384 17.4739 11.9335C17.4434 11.8285 17.2911 11.8725 17.1997 11.8387L17.2268 11.8116C17.2911 11.7337 17.2776 11.7879 17.2945 11.683C17.1252 11.683 17.0778 11.7337 17.0846 11.8996Z" fill="#1A1A18"/>
<path fill-rule="evenodd" clip-rule="evenodd" d="M16.3236 27.2723V26.7578C16.2017 26.8255 16.1137 26.8627 16.1238 27.0354C16.134 27.208 16.2186 27.2182 16.3303 27.2723" fill="#1A1A18"/>
<path fill-rule="evenodd" clip-rule="evenodd" d="M6.84463 21.1111C6.80739 20.9723 6.86832 21.0941 6.77692 20.9824L6.6212 20.7996C6.52641 20.6981 6.6212 20.7319 6.49255 20.7319C6.435 20.8267 6.40792 20.759 6.60088 20.9892C6.79385 21.2194 6.74645 21.1517 6.84463 21.1111Z" fill="#1A1A18"/>
<path fill-rule="evenodd" clip-rule="evenodd" d="M7.06066 20.9384C6.98962 20.8535 6.90766 20.7784 6.81692 20.715C6.73781 20.6389 6.65416 20.5677 6.56641 20.5017L6.61719 20.6947C6.73229 20.759 6.66458 20.6947 6.76275 20.7996C6.80409 20.8412 6.84148 20.8865 6.87447 20.935L7.06066 20.9384Z" fill="#1A1A18"/>
<path fill-rule="evenodd" clip-rule="evenodd" d="M15.6639 27.7666C15.7722 27.6176 15.7045 27.4551 15.5318 27.5229C15.4167 27.5669 15.393 27.814 15.6639 27.7666Z" fill="#1A1A18"/>
<path fill-rule="evenodd" clip-rule="evenodd" d="M14.3067 14.4217C14.1103 14.3608 13.9885 14.5131 14.1002 14.6248C14.2119 14.7365 14.3812 14.6248 14.3067 14.4217Z" fill="#1A1A18"/>
<path fill-rule="evenodd" clip-rule="evenodd" d="M22.4772 7.44118C22.6261 7.49874 22.7649 7.44118 22.6938 7.24822C22.644 7.218 22.5861 7.20382 22.528 7.2076C22.4535 7.299 22.4264 7.30577 22.4772 7.44118Z" fill="#1A1A18"/>
<path fill-rule="evenodd" clip-rule="evenodd" d="M16.8379 12.2348C16.8819 12.3702 17.1154 12.316 17.0884 12.1536C17.084 12.1359 17.0761 12.1194 17.0651 12.105C17.0541 12.0905 17.0402 12.0785 17.0244 12.0697C17.0085 12.0609 16.991 12.0554 16.973 12.0537C16.9549 12.0519 16.9367 12.0539 16.9194 12.0595C16.9022 12.0651 16.8862 12.0742 16.8727 12.0862C16.8591 12.0982 16.8481 12.1129 16.8404 12.1294C16.8328 12.1458 16.8286 12.1637 16.8282 12.1818C16.8277 12.2 16.831 12.218 16.8379 12.2348Z" fill="#1A1A18"/>
<path fill-rule="evenodd" clip-rule="evenodd" d="M22.8904 6.93C22.8904 6.93 22.7719 6.97401 22.8497 7.09588C22.8587 7.11057 22.8705 7.12327 22.8846 7.13319C22.8986 7.14311 22.9145 7.15003 22.9314 7.15352C22.9482 7.15701 22.9656 7.157 22.9824 7.15349C22.9992 7.14998 23.0151 7.14305 23.0292 7.13312C23.1713 7.04849 23.0529 6.79459 22.8904 6.93Z" fill="#1A1A18"/>
<path fill-rule="evenodd" clip-rule="evenodd" d="M14.6754 14.1069L14.5095 14.0832C14.2861 14.3811 14.8074 14.4793 14.6754 14.1069Z" fill="#1A1A18"/>
<path fill-rule="evenodd" clip-rule="evenodd" d="M16.4832 12.6071C16.1852 12.421 16.1209 12.8949 16.4527 12.7967C16.4703 12.7688 16.4821 12.7376 16.4874 12.7051C16.4926 12.6725 16.4912 12.6392 16.4832 12.6071Z" fill="#1A1A18"/>
<path fill-rule="evenodd" clip-rule="evenodd" d="M7.80859 5.55894C7.91354 5.63004 7.93724 5.63342 8.05234 5.55894L8.02864 5.38629C7.95898 5.3591 7.88164 5.3591 7.81198 5.38629L7.80859 5.55894Z" fill="#1A1A18"/>
<path fill-rule="evenodd" clip-rule="evenodd" d="M6.02197 21.4124L6.10322 21.4801C6.35035 21.5105 6.34696 21.1856 6.06598 21.2465C6.0311 21.2943 6.0154 21.3535 6.02197 21.4124Z" fill="#1A1A18"/>
<path fill-rule="evenodd" clip-rule="evenodd" d="M16.0868 13.1082L16.2154 13.0879C16.1303 12.9858 16.009 12.9203 15.8769 12.9051C15.8329 13.0371 15.8769 13.0439 15.9514 13.1251L16.0868 13.1082Z" fill="#1A1A18"/>
<path fill-rule="evenodd" clip-rule="evenodd" d="M7.1095 6.20553L7.26861 6.18522C7.32278 5.9821 7.21106 5.95163 7.05195 6.01257L7.02148 6.1886L7.1095 6.20553Z" fill="#1A1A18"/>
<path fill-rule="evenodd" clip-rule="evenodd" d="M13.6016 14.7636C13.7143 14.7711 13.8274 14.7711 13.9401 14.7636V14.5808C13.8749 14.5733 13.8091 14.5871 13.7524 14.62C13.6956 14.6529 13.6511 14.7033 13.6253 14.7636" fill="#1A1A18"/>
<path fill-rule="evenodd" clip-rule="evenodd" d="M8.46315 4.91236H8.40898L8.38867 5.04777C8.41715 5.0771 8.45463 5.09604 8.49513 5.10156C8.53563 5.10708 8.57682 5.09887 8.6121 5.07824L8.64934 4.90897L8.46315 4.91236Z" fill="#1A1A18"/>
<path fill-rule="evenodd" clip-rule="evenodd" d="M6.58789 6.32742L6.7233 6.3071H6.77408C6.79755 6.30194 6.81954 6.29152 6.8384 6.27664C6.75716 6.16492 6.8384 6.34096 6.8384 6.2394C6.8409 6.2135 6.8409 6.18743 6.8384 6.16154C6.75039 6.16154 6.76393 6.192 6.71992 6.18523C6.67591 6.17846 6.71992 6.16492 6.60143 6.13445C6.58112 6.29356 6.61836 6.20216 6.60143 6.33757" fill="#1A1A18"/>
<path fill-rule="evenodd" clip-rule="evenodd" d="M6.34766 20.6981C6.50338 20.6981 6.52708 20.5762 6.34766 20.5897V20.6981Z" fill="#1A1A18"/>
</svg>
