<svg width="28" height="38" viewBox="0 0 28 38" fill="none" xmlns="http://www.w3.org/2000/svg">
<path fill-rule="evenodd" clip-rule="evenodd" d="M12.4199 1.86801C12.4738 2.1471 12.7371 2.24859 12.8893 2.7592C12.3723 2.65771 12.255 2.40716 11.6397 2.38179C12.0774 2.80677 12.9083 2.96218 13.0447 3.94851C13.0986 4.38301 13.1589 4.26566 13.327 4.71919C12.9974 4.49067 12.6519 4.28612 12.2931 4.10709C12.0946 4.03259 11.8911 3.97218 11.6841 3.92631C11.2433 3.80579 11.3289 3.73602 11.0498 3.71699L13.8471 6.25419C14.0818 6.41277 14.0025 6.25419 14.1357 6.46034C14.2368 6.68186 14.2836 6.92434 14.2721 7.16758C14.1731 6.87547 13.9953 6.61642 13.7583 6.41911C13.6949 6.37788 13.549 6.31128 13.4411 6.2415C13.0582 6.01846 12.7026 5.75129 12.3819 5.44546L12.1377 5.5184L12.1186 5.69918L12.6197 6.27005C12.9749 7.01852 13.7488 7.989 13.8439 8.58207C13.4792 8.31566 13.3682 7.989 13.1081 7.5767C12.8481 7.16441 12.5975 7.01852 12.3628 6.62526C11.9125 5.87678 11.5002 5.17905 10.3204 5.19174C10.5519 5.64843 11.034 5.82604 11.3353 6.55865C9.6956 5.92435 11.1006 5.37251 8.79807 4.49084C8.92493 4.55744 8.81393 4.49084 8.87101 4.67478L8.65218 4.7509C9.08985 4.95388 9.03593 5.11562 9.4958 5.33128C9.32454 5.54695 9.73683 5.47083 9.21036 5.53109C9.80636 5.80635 10.3737 6.13993 10.9039 6.52694C9.80343 6.43814 9.18816 6.20979 7.91639 6.28273C8.36674 6.53011 9.15962 6.46985 9.61949 6.7426H8.69024C9.1057 6.95509 9.66072 6.85043 10.1333 7.04389C8.94079 7.26907 8.79173 6.91386 7.91322 6.82506L8.23037 7.05975C9.44188 7.66233 10.6026 6.84092 11.3194 7.3769V7.16124C11.7254 7.22784 11.903 7.38642 11.9791 7.71942L10.4377 7.5545C10.8691 8.13806 11.9569 8.31566 12.4294 8.75333C12.4294 8.75333 12.4643 8.7121 12.4707 8.72479C12.477 8.73747 12.5848 8.4679 12.9496 8.72479C13.1715 8.89371 13.3526 9.11053 13.4792 9.35909L12.8449 8.95631C12.2391 8.95631 13.2223 8.95631 12.6483 9.02925C12.0742 8.51547 10.4472 7.81457 9.39431 7.91605C9.19768 7.95094 8.9725 7.94143 8.90907 7.96046L8.53166 8.27761C9.23891 8.12855 9.02959 8.23003 9.13742 8.32518C7.92908 8.54718 6.04521 9.22271 5.43945 10.1456C6.28307 9.82847 7.4153 10.1044 8.17963 9.71429C8.75684 9.41934 9.61632 8.44569 10.3267 8.7343C10.4916 8.36958 10.2982 9.18148 10.3109 8.60744L11.0403 8.75967C10.59 9.09902 9.6512 8.95313 9.28965 9.58743C10.3458 9.72698 11.6207 9.33689 12.2265 9.4796C12.0171 10.1615 10.3489 10.06 10.0445 10.7482C10.4504 10.9829 11.4272 10.3201 12.2645 9.99656C12.772 9.8031 12.8449 9.78407 13.0732 9.94899L12.718 10.1361C12.9813 10.3327 12.9971 10.2883 13.2064 10.1678L12.9686 10.485L13.2033 10.5357C13.8661 10.5357 13.7234 10.6404 14.1547 10.8529C14.1833 11.503 14.0913 11.9026 13.3777 11.9121C12.8417 11.9121 12.6514 11.5569 12.5944 11.0146L12.5024 11.0527C11.3067 12.1595 11.8205 11.3222 11.3955 12.5591C11.3194 12.4196 11.3955 12.3086 11.2909 12.1627C11.0847 12.3308 9.50214 15.4135 9.79392 15.9685C10.0508 15.8258 10.1618 15.4769 10.3109 15.1756C10.4245 14.8612 10.5991 14.5724 10.8247 14.3257C10.7866 15.7623 10.6058 15.4706 10.4472 15.7116C10.2573 16.1285 10.2041 16.5947 10.295 17.0436C10.4124 16.7772 10.3394 16.8502 10.3711 16.5584L10.4948 16.0287C10.5709 16.1429 10.5487 16.0541 10.5868 16.273C10.7707 17.3005 10.5202 20.7638 10.7929 21.2078L10.8976 17.1515C11.4558 17.6113 11.1672 17.9697 11.3226 18.5755C11.5668 17.9634 10.5551 14.1354 11.5224 12.8033C11.5224 12.3593 11.3765 12.705 11.6492 12.4672C11.738 12.391 11.8744 12.3974 12.033 12.353L12.3089 12.0644C12.2931 12.5845 12.1916 12.9968 12.1947 13.5486C12.1947 14.2115 12.3438 14.5001 12.3787 15.0424C12.4294 15.8543 12.1884 17.31 12.7212 17.8016C12.9369 17.4527 12.7212 16.939 12.6483 16.533C12.5309 15.6957 12.7276 15.8385 12.8037 15.1376C12.9971 15.3849 12.8671 15.6006 13.2445 15.7719C13.2317 15.2068 13.2635 14.6415 13.3397 14.0814C13.6568 14.8172 13.7012 15.0583 14.2911 15.0329C14.6495 15.0329 14.6717 14.9219 14.8017 15.1058C15.3567 15.8829 14.9857 35.2448 13.9327 36.1329C13.7456 36.2914 12.5468 36.2978 12.458 36.3454C12.2169 36.4786 12.3375 36.3866 12.3787 36.5388C12.389 36.6022 12.4202 36.6603 12.4673 36.704C12.5144 36.7476 12.5748 36.7743 12.6388 36.7799C12.8259 36.8528 12.7656 36.7799 13.0574 36.8496C13.2033 36.8813 13.1842 36.9162 13.3745 36.967C13.5141 36.7703 13.3745 36.9892 13.476 36.7703L13.5077 36.7006L13.5395 36.6276L13.5997 36.4817C13.7655 36.5271 13.9339 36.562 14.104 36.5864C14.5829 36.7164 14.7922 37.2936 15.4106 36.5642L15.0713 36.1456C14.8081 36.339 15.0015 36.1202 14.8398 36.4627C14.5861 35.4288 14.4497 35.9235 14.5987 34.6962C14.6495 34.268 14.7224 33.0565 14.8144 32.7267C15.0554 31.8482 15.0871 33.0438 15.0903 30.8238C15.0737 30.4621 15.0811 30.0998 15.1125 29.7391C15.1918 29.2983 15.3123 29.4822 15.3187 28.8289L15.2235 28.7306C15.1062 28.5435 15.2235 28.1375 15.2616 27.925C15.5407 27.8299 14.9635 27.8267 15.3155 27.9726C15.5724 28.0773 15.1125 28.0265 15.3789 27.9726C15.5312 27.9472 15.1664 27.6999 15.6326 27.9187C15.9879 28.2358 15.2489 29.4156 16.0418 29.6884C15.8071 29.885 15.8071 29.7582 15.566 29.9104C15.5407 30.4717 15.4836 30.4717 15.8578 30.7191L15.6231 31.3185C15.612 31.5664 15.5845 31.8133 15.5407 32.0575L15.344 30.1546C14.9793 30.5066 15.4931 32.1336 15.4836 32.8218C15.4836 32.8218 15.4836 32.7964 15.4836 32.8028C15.4424 33.0914 15.658 32.8853 15.4519 32.7616C15.1347 32.5776 15.6231 32.5713 15.3092 32.7235C15.3092 33.3578 15.4106 33.3737 15.6961 33.5005C15.8229 33.6337 15.8039 33.2785 15.8388 33.8177C15.8388 33.8177 15.7912 33.8177 15.7849 33.8177C15.6739 34.23 15.6897 33.3768 15.5502 34.1126C15.8071 34.4298 15.4677 34.1126 15.9498 34.3473C15.8356 35.0926 16.1369 35.137 16.213 35.9109C15.7373 35.6223 16.0037 35.6698 15.8261 35.4986L15.6517 35.4129C15.7658 34.9436 15.9435 35.1529 15.6168 34.9245C15.7296 35.3119 15.7296 35.7233 15.6168 36.1107C15.233 36.0472 15.4233 36.1107 15.3377 36.0092C15.3377 36.4976 15.5407 36.2375 15.6866 36.6784C15.8324 37.1192 15.509 36.4595 15.7151 36.8718C16.2766 37.0417 16.8658 37.1009 17.4499 37.0463C17.5292 37.0463 17.8146 36.9733 17.8527 36.9701C18.246 36.9257 18.3316 37.0621 18.6456 36.9479L19.0071 36.6784C19.3877 36.9384 19.3243 36.9955 19.9142 36.9162C19.6922 35.8411 19.1086 36.3295 18.6075 36.5483C18.303 36.4221 18.0179 36.2534 17.7607 36.0472C17.1264 35.6254 16.971 35.8569 16.8093 35.6476C16.546 35.1307 16.5746 30.8016 16.619 29.8184C16.657 29.0033 16.4001 27.8679 16.3621 26.9228L16.0449 17.8714C16.1401 16.9897 15.9879 15.9304 16.0196 14.9473C16.0174 14.5222 16.0524 14.0977 16.1242 13.6787C16.2162 13.222 15.8705 12.9778 16.2987 12.6606C16.2337 12.8833 16.1995 13.1137 16.1972 13.3457C16.2162 13.3266 16.2416 13.2695 16.2479 13.2854C16.3304 13.4757 16.2479 13.2061 16.4953 12.9683L16.6634 13.6216C16.9203 13.333 16.841 13.4852 17.2025 13.3425C17.3009 12.5464 16.9964 12.4291 16.9996 12.0358C16.9996 11.8424 17.2374 11.8138 16.9361 11.6108C16.826 11.547 16.7002 11.5152 16.573 11.5191C16.4458 11.5231 16.3222 11.5625 16.2162 11.633C16.5651 10.8465 16.6824 10.5801 17.4848 10.2312C18.4806 9.80627 18.9817 9.9585 19.2704 10.818C18.9849 10.6435 18.7946 10.3264 18.414 10.1615C18.5219 10.5706 18.8041 10.7387 19.0166 11.0241C19.1871 11.266 19.3247 11.5294 19.4258 11.8075L19.597 12.0866L19.6731 11.4713C19.6317 11.2846 19.5798 11.1004 19.5177 10.9195C19.3306 10.3993 19.1562 10.4152 18.9754 10.0378C19.2069 10.0854 19.8127 10.4279 19.7524 10.0378C19.727 9.8697 19.6763 9.91093 19.5685 9.86653C19.3927 9.82004 19.211 9.79974 19.0293 9.80627C18.154 9.75235 17.7893 9.90141 17.0376 10.0505C17.5546 9.65404 18.1001 9.60646 18.9183 9.69844C19.3912 9.77965 19.8503 9.92698 20.2821 10.1361C21.2335 10.3296 20.5326 10.2408 20.8085 10.0029C19.3496 9.68575 19.3401 8.84847 16.7427 9.92361C17.0915 9.31468 18.1445 8.88019 18.3284 8.58524C18.2777 8.58524 18.4489 8.60744 18.1952 8.6011C17.8781 8.6011 18.154 8.62647 17.9161 8.56621C17.6056 8.63993 17.309 8.76308 17.0376 8.93093C17.5577 7.55768 18.8232 7.64331 18.9849 7.06926C18.3855 6.75211 17.4436 7.34836 17.044 7.55133C17.2533 7.1771 18.4077 6.67917 18.8485 6.59988L18.8137 6.30811C18.7036 6.36409 18.5977 6.42768 18.4965 6.4984C17.3675 7.23735 17.7734 6.74894 17.6117 6.58085C17.7467 6.46887 17.8922 6.3701 18.0462 6.28591C18.1825 6.21613 18.2016 6.22248 18.3411 6.14953L18.5314 6.03536L18.8105 5.78798L18.9754 5.64843C19.1054 5.52157 19.0483 5.59452 19.1245 5.48986C18.5282 5.59769 17.0408 6.86946 16.8124 7.1993C16.4953 7.65916 16.4667 7.21833 16.2828 7.86531H16.0132L15.8007 8.65501C16.083 8.8009 15.7595 8.84847 16.1179 8.65501L15.9942 9.09268L15.9371 9.03877L15.6707 8.87385L15.3092 10.1424C15.3092 9.04828 15.9625 8.06829 16.0893 7.10098C15.8293 6.75846 15.8673 6.42862 15.9657 5.89898C16.2003 4.63038 16.1845 5.35349 16.3621 4.8841L16.4572 4.47815C16.2174 4.75173 16.0447 5.07753 15.953 5.4296C15.8642 4.7953 16.3875 2.92412 16.4541 2.1249C15.6929 3.07635 16.0291 2.03927 15.658 3.94217C15.4772 4.66137 15.3416 5.39118 15.2521 6.12733L15.2235 4.97608C14.9426 5.4315 14.7721 5.9463 14.7256 6.47937L14.9666 6.05121C15.0618 6.87263 15.1855 7.81457 14.8588 8.52815C14.7193 7.97314 14.9349 7.23735 14.7224 6.77749C14.5448 6.72992 14.7827 6.67917 14.5987 6.86629C14.2182 7.25638 14.7763 6.86629 14.475 7.01218L14.1769 6.17807C15.1633 4.66527 14.3989 4.43058 14.3577 2.9368C13.8407 2.88289 14.1991 2.95583 14.0786 2.84166C14.031 3.58379 13.9264 4.0722 13.8566 4.83336C13.8072 4.57657 13.7252 4.32716 13.6124 4.09123C13.3999 3.5933 12.9781 1.92193 12.4231 1.78238L12.4199 1.86801ZM13.6251 5.67381C13.2956 5.44684 12.9887 5.18876 12.7085 4.90313C12.5404 4.7065 12.5214 4.57013 12.2994 4.40838C12.132 4.3115 11.9701 4.20563 11.8142 4.09123C12.6166 4.24029 13.4285 4.85239 13.6378 5.65795L13.6251 5.67381ZM8.86784 4.69064C9.12613 4.74869 9.37012 4.85806 9.58532 5.01224C9.80053 5.16642 9.98255 5.36228 10.1206 5.58818L8.86784 4.69064ZM12.5468 7.63379C12.1028 7.3991 12.2709 7.39593 12.0267 6.99949C11.8955 6.80216 11.7503 6.61455 11.5922 6.43814C11.1989 5.91484 10.7961 5.62623 10.6217 5.30591C11.5129 5.41691 12.4167 6.56817 12.5404 7.61793L12.5468 7.63379ZM14.0976 5.82287C14.0976 5.27103 14.0057 4.49718 14.2245 3.99926C14.4118 4.29399 14.4851 4.64698 14.4306 4.99193C14.4053 5.69918 14.2721 5.67698 14.0913 5.80701L14.0976 5.82287ZM13.6949 6.96778C13.8978 7.16124 13.7519 6.75846 13.8756 7.20881C13.9137 7.34836 13.8756 7.25321 13.8249 7.40862C13.888 7.56248 13.9758 7.70497 14.085 7.83042C14.4402 8.20783 13.9835 7.72894 14.2879 7.9002C14.5194 8.03023 14.5448 8.5567 14.5512 8.88019L14.4814 9.36226C13.79 9.01022 14.2943 8.45838 13.7171 7.69088L12.6229 6.27005L12.5087 5.91801C13.0035 6.11464 13.4063 6.62843 13.6885 6.95192L13.6949 6.96778ZM15.5407 8.20149C15.5407 7.8558 15.4868 7.58622 15.4868 7.16758C15.5343 6.83143 15.6227 6.50233 15.75 6.18759C15.8356 6.95826 15.8578 7.58622 15.5407 8.20149ZM17.3135 7.95411C17.3908 7.77186 17.5137 7.61254 17.6703 7.49146C17.8269 7.37038 18.0121 7.29161 18.2079 7.26273C18.0827 7.4062 17.9387 7.53209 17.7797 7.63696L17.3135 7.95411ZM12.588 8.27126C12.2328 8.37909 11.4209 8.01754 11.1418 7.77651C11.6698 7.7477 12.1883 7.92509 12.588 8.27126ZM12.7117 7.35787L13.8281 9.191L12.5975 7.88117L12.7117 7.35787ZM17.3135 7.95411C16.9964 8.54084 16.7268 9.12122 16.2796 9.29566C16.3854 9.00616 16.5483 8.74086 16.7585 8.51547C16.8981 8.34421 16.9171 8.30298 17.0186 8.17929C17.2343 7.90971 17.0852 8.04609 17.3135 7.95411ZM8.1162 8.87385C8.62046 8.7343 8.93444 8.44887 9.47677 8.59476C8.74633 9.15551 7.89844 9.54368 6.99666 9.73015C6.45116 9.8253 6.30527 9.9141 6.04521 9.76504C6.65215 9.26023 7.35901 8.88951 8.11937 8.67721L8.1162 8.87385ZM9.60997 9.44789C10.0603 9.13074 11.1006 8.8897 11.6683 9.24174C11.2243 9.48277 10.2538 9.47009 9.62266 9.44472L9.60997 9.44789ZM13.5807 10.0663C13.7615 9.92361 13.3048 9.77138 13.8598 9.98704C14.1357 10.0949 13.9137 10.0346 14.0342 10.2154L13.5807 10.0663ZM15.8832 10.7641C15.75 11.0812 15.8832 10.9353 15.5343 11.1161C15.3536 10.8465 15.2838 10.8687 15.3536 10.5135C15.7341 10.4311 15.7627 10.523 15.8959 10.7609L15.8832 10.7641ZM15.2235 13.0285C13.7868 13.0697 14.3545 11.7314 14.6844 12.4132L14.659 11.9914C14.9761 11.9914 14.9095 12.0739 14.9761 11.8709L15.0269 11.6965C15.2901 11.7219 15.5978 11.7631 15.6612 12.0802C15.6612 12.0802 15.6929 12.7526 15.7024 12.8477C15.1347 12.8826 15.3472 12.6321 15.2235 13.0285ZM13.6124 12.6923C13.4158 13.4662 13.8312 13.4059 13.3682 13.593C13.2075 13.6413 13.0369 13.6461 12.8737 13.6071C12.7105 13.5681 12.5605 13.4867 12.4389 13.371C12.3121 12.6035 12.5373 12.6987 12.9305 12.2769L13.5458 12.3498L13.1684 12.6035L12.9591 12.9207L13.6124 12.6923ZM13.6124 12.6923L13.5934 12.28L13.9105 12.556C13.7963 12.6987 13.9835 12.6543 13.6251 12.6923H13.6124ZM10.2316 14.8489C10.3235 14.2136 10.5941 13.6175 11.0118 13.13C10.917 13.7645 10.6468 14.3599 10.2316 14.8489ZM12.3311 14.0529C12.4104 13.9895 12.2899 13.7675 12.5848 14.0529C12.2867 14.2971 12.3977 14.1005 12.3311 14.0529ZM14.6241 13.3837C15.5502 14.4906 13.7678 15.2866 13.6536 13.9546L14.6241 13.3837ZM15.3472 15.1439C15.325 15.461 15.3726 15.1883 15.1791 15.3754C15.0205 14.979 15.0142 15.1471 15.2045 14.8426C15.2235 14.8585 15.3694 14.7443 15.3472 15.1439ZM15.4138 20.916C15.3567 20.8336 15.3662 21.0048 15.2996 20.6782C15.2932 20.5673 15.2932 20.4561 15.2996 20.3452L15.2679 18.2456C15.2679 17.5447 15.1601 16.1968 15.3789 15.5879C15.62 16.1239 15.344 16.6155 15.4677 17.4305C15.7405 19.2066 15.4677 18.4962 15.509 19.3588L15.7722 18.8989C15.8737 19.3493 15.6326 19.7172 15.4899 20.0407C15.5058 20.5894 15.7373 20.5323 15.4138 20.916ZM15.5185 16.6186L15.9403 16.847L15.5407 17.0087L15.5185 16.6186ZM15.7151 27.6174C15.3155 27.6174 15.3155 27.6174 15.2394 27.0909V22.6223C15.2394 21.2839 15.1284 21.2554 15.6073 21.2078C15.8166 21.525 15.731 21.3664 15.6866 21.8231C15.5827 21.8732 15.483 21.9315 15.3884 21.9975C15.677 22.6318 15.9498 22.2703 15.4043 22.949C15.8769 23.4183 15.566 23.1075 15.7436 23.9829C15.7504 24.0047 15.7557 24.0269 15.7595 24.0495C15.7613 24.0727 15.7613 24.096 15.7595 24.1192L15.5914 25.0802C15.8198 25.3244 15.6136 25.2039 15.9339 25.4449C15.8134 25.8858 15.528 25.9206 16.0132 26.0475L15.8832 26.1236L15.8166 26.1585C15.6326 26.2505 15.8483 26.1141 15.6168 26.2441C15.8109 26.6759 15.8458 27.1624 15.7151 27.6174ZM15.7151 30.107C16.1433 29.8406 16.0957 30.0816 16.1464 30.107C16.0545 30.2561 16.3431 30.2656 15.9276 30.2783C15.7056 30.2973 15.7944 30.2371 15.7151 30.1197V30.107ZM16.0132 31.4866C15.9435 31.3915 15.7278 31.3978 16.1528 31.068C16.2606 31.4708 16.2891 31.3661 16.0132 31.4993V31.4866Z" fill="#1A1A18"/>
<path fill-rule="evenodd" clip-rule="evenodd" d="M16.5107 6.74577C16.6313 7.10415 16.5107 6.88532 16.7423 6.98364C17.8998 5.68015 17.9506 5.08074 18.7466 4.4179C19.2287 4.01829 19.4158 3.9168 19.4761 3.4379C18.8735 3.67894 17.9252 3.89143 17.6176 4.77945C17.421 4.84922 17.5002 4.81433 17.4178 4.77945L18.5405 3.19687C18.9147 2.71163 18.7435 2.87972 19.3778 2.73066C19.7516 2.59482 20.1402 2.50328 20.5354 2.45791C20.5132 2.45791 20.4814 2.45791 20.4688 2.49914L20.1928 2.64186C19.7171 2.848 19.3714 2.82263 19.105 3.1493L21.9594 2.32154C21.693 2.07416 22.1719 2.11539 21.4614 2.1915L19.5585 2.46425C20.1326 1.61112 21.5629 1.44937 22.5397 1.5128C21.7596 1.5128 20.8018 1.65235 20.399 2.16296C20.9345 1.9435 21.5047 1.82108 22.0831 1.80141C22.4 1.82752 22.7188 1.82114 23.0345 1.78238L23.1709 1.72529C23.5229 1.61112 23.4119 1.64284 23.7608 1.72529C23.1265 1.33203 22.0101 1.19565 21.1284 1.38912C20.7575 1.48895 20.3997 1.63268 20.0628 1.81727C19.5871 2.05196 19.4761 2.35008 19.0733 2.42302C19.3964 2.06588 19.6158 1.6272 19.7076 1.15443C19.8662 0.520126 20.1294 0.428152 20.3736 0L18.9464 1.20834C18.5464 1.73125 18.206 2.29716 17.9316 2.89558C17.5224 3.73285 17.6144 4.05634 17.2687 4.71919C16.936 5.35454 16.6774 6.02601 16.498 6.7204L16.5107 6.74577ZM19.0289 1.30983C19.1875 1.09734 19.0289 1.23688 19.3017 1.10368C19.4031 1.42083 19.3587 1.42083 19.1811 1.76335C19.0923 1.92827 19.0289 2.10587 18.9179 2.29616C18.6198 2.86703 18.42 3.13027 18.0457 3.27616L19.0289 1.30983ZM17.6176 4.78262C17.9347 4.57964 18.2265 3.91363 19.0162 3.78677C18.8189 4.02155 18.5966 4.23423 18.3534 4.42107L17.7191 4.94436C17.6176 4.87776 17.6271 5.09977 17.6176 4.78262ZM16.8786 6.50791C16.923 6.24151 17.4685 5.54061 17.7 5.31543C17.5668 5.85141 17.126 6.17173 16.8786 6.50474V6.50791Z" fill="#1A1A18"/>
<path fill-rule="evenodd" clip-rule="evenodd" d="M18.5311 6.02583L18.3408 6.14C18.2012 6.21295 18.1822 6.2066 18.0458 6.27638C17.8919 6.36057 17.7464 6.45934 17.6113 6.57133C17.7731 6.73942 17.3671 7.22783 18.4962 6.48887C18.5973 6.41815 18.7033 6.35457 18.8133 6.29858L18.8482 6.59036C19.343 6.52693 20.3293 6.40641 20.7511 6.66964C20.6274 6.96776 20.434 6.89482 20.0217 6.91068C20.0217 7.31663 20.0883 7.02485 19.7045 7.32614C18.9624 7.89067 18.2837 8.11902 17.938 8.5662C18.1759 8.62646 17.8936 8.59157 18.2171 8.60108C18.4708 8.60108 18.2995 8.58206 18.3503 8.58523C18.8228 8.42348 19.6474 7.80821 20.1105 7.9985C21.119 8.40445 21.1761 8.23953 22.2449 8.35688C22.4447 8.7216 22.6064 8.80406 22.6286 9.39713C22.9775 9.1117 22.7333 8.92775 23.1139 9.4669L24.3539 10.9448C24.4548 11.0283 24.5712 11.0908 24.6965 11.1288C24.522 10.5928 23.6879 9.19415 23.2947 9.01972C23.575 9.31823 23.7909 9.67125 23.929 10.0568C22.8253 9.44153 22.3432 7.48472 20.9192 7.59572H20.342C20.5703 7.45617 20.767 7.35469 20.9604 7.22783C21.2237 7.08828 21.2776 6.95191 21.4203 6.7743L20.8875 6.94556C21.7026 5.73405 18.8165 6.0512 18.5311 6.02583ZM20.2976 7.58621C20.0534 7.70672 19.825 7.70672 19.5555 7.82407C19.2969 7.98663 19.0215 8.12062 18.734 8.22368C18.8894 8.04924 18.6865 8.16976 19.0068 7.97313L19.2827 7.85895C19.4823 7.7605 19.6965 7.69516 19.917 7.66549C19.898 7.64964 19.8631 7.60206 19.8567 7.62109L19.7806 7.53546C19.7521 7.342 20.4149 7.16757 20.5894 7.16122L20.3071 7.27223C20.2373 7.3198 20.1676 7.36103 20.1105 7.40543C20.0358 7.46094 19.9677 7.52478 19.9075 7.59572L20.2976 7.58621ZM20.2976 7.86847C20.6909 7.55132 21.4774 7.86847 21.7723 8.18562L20.2976 7.86847Z" fill="#1A1A18"/>
<path fill-rule="evenodd" clip-rule="evenodd" d="M24.6045 14.5445C24.3349 14.0307 24.2429 14.0815 24.0938 13.4598C24.5537 13.9927 25.2419 15.0741 26.0824 15.1407C25.835 14.8014 25.743 14.9156 25.521 14.4398C25.1214 13.5899 24.5347 12.6099 23.6562 12.2483L24.8423 13.7072C24.9263 13.8783 25.0216 14.0436 25.1278 14.202C24.7662 13.8658 24.6235 13.6121 24.3158 13.333C23.6816 12.7463 24.0938 13.2886 23.4691 12.3815C23.2337 12.0237 22.9673 11.6873 22.673 11.3762L21.7565 10.634C22.0126 10.701 22.2807 10.7075 22.5398 10.6531C22.7555 11.151 22.9426 10.948 23.6942 11.7631C23.5547 11.2081 23.2724 11.1288 23.0029 10.9544C22.635 10.707 22.914 10.9068 22.7111 10.6372C22.3749 10.2122 22.7491 10.5611 21.9975 10.2408C21.7285 10.0927 21.4388 9.98576 21.138 9.92362L21.7406 10.374C20.6179 9.73968 21.0365 10.2186 20.9033 10.3391C20.9223 10.3391 20.9509 10.3391 20.9604 10.374L21.2776 10.5643C23.2978 11.7885 24.0431 13.9927 24.7091 16.1271C24.9628 16.1778 24.4617 16.273 24.7852 16.0541C24.7852 16.0541 24.6235 15.645 25.1531 16.2634C25.2401 16.4003 25.3607 16.5126 25.5034 16.5898C25.646 16.667 25.806 16.7064 25.9682 16.7043C25.5147 16.1715 25.4544 16.625 25.2578 15.6513C25.1954 15.2088 24.969 14.8058 24.6235 14.5223L24.6045 14.5445ZM24.6235 14.5223C24.8645 14.8807 25.2292 15.4071 25.2578 15.9304C25.1278 15.848 25.1278 15.9304 24.9597 15.6767C24.9311 15.6387 24.8106 15.3913 24.7599 15.2866C24.7012 15.1731 24.6483 15.0566 24.6013 14.9378C24.3983 14.3701 24.5283 14.6206 24.6235 14.5223Z" fill="#1A1A18"/>
<path fill-rule="evenodd" clip-rule="evenodd" d="M20.2689 11.9248C20.2491 11.5235 20.16 11.1287 20.0057 10.7577C19.7266 11.1764 20.0374 12.5813 20.3228 12.9778C20.4851 12.6285 20.5921 12.2562 20.64 11.8741C20.64 12.0898 20.7478 12.4196 20.77 12.6511C20.843 13.3615 20.6241 12.9429 20.7098 13.6026C20.7954 14.2622 20.9254 14.8712 20.7098 15.6006C20.7098 15.4896 20.3228 13.5011 20.307 13.4757C19.8852 14.9314 20.7225 15.5181 20.6146 16.4315C21.1443 16.0605 21.0713 15.6196 21.0333 14.8458C20.9619 14.1859 20.9619 13.5203 21.0333 12.8604L21.4107 13.8119C21.7278 14.2686 21.4107 13.9007 21.7278 14.0878C21.6775 13.3533 21.4869 12.6352 21.1665 11.9724C20.7986 11.1637 20.8017 10.726 20.0311 10.3867L20.1135 10.5643C20.5322 11.3191 20.3387 10.8814 20.2372 11.909" fill="#1A1A18"/>
<path fill-rule="evenodd" clip-rule="evenodd" d="M19.124 5.48034C19.53 5.42643 19.863 5.21077 20.3704 5.13782C21.4551 4.97925 23.5419 5.16954 24.3094 6.06073C23.6212 5.87678 23.0408 5.39154 22.638 5.44863C22.4446 5.47717 22.638 5.58817 22.1052 5.49303C21.6131 5.37539 21.1078 5.32209 20.6019 5.33445L19.1748 5.67697C20.0913 5.57866 21.3504 5.24565 22.1972 5.63575L20.0184 5.69283C21.0142 6.14001 22.7427 5.6072 23.3072 5.84824C23.9193 6.11147 24.9532 7.02486 26.2694 6.98046L26.0062 6.77431C25.3211 6.65062 24.9088 6.42545 24.6583 5.9973L25.689 6.36836C25.6034 6.31127 25.5622 6.29859 25.4575 6.23516L26.0918 6.3525C26.3614 6.46351 26.0918 6.25102 26.3424 6.50474C26.4108 6.59043 26.4703 6.68288 26.52 6.78066C26.8144 6.88456 27.0906 7.03442 27.3382 7.22467C26.5929 5.98461 24.8232 5.86092 24.801 5.85458C24.4839 5.72455 24.1477 5.47083 23.8496 5.32177C22.7173 4.77627 20.2594 4.6621 19.327 5.29322L19.2731 5.33445L19.2192 5.38203L19.124 5.48034Z" fill="#1A1A18"/>
<path fill-rule="evenodd" clip-rule="evenodd" d="M20.9319 7.21834C20.7385 7.3452 20.5418 7.44668 20.3135 7.58623H20.8907C20.8907 7.11685 21.9119 7.39277 22.1593 7.62112C22.4955 7.93827 22.0166 7.67186 22.4479 8.01755C22.765 8.25542 22.654 8.06195 22.8729 8.43619C22.9585 7.72578 22.5874 7.69406 22.2132 7.32934C23.1012 7.36105 22.5304 7.45937 23.3835 8.28079C23.726 8.59794 24.0178 9.12441 24.7758 9.02292C24.5284 8.78823 24.576 8.46473 24.3825 8.19516C24.3349 8.12856 23.8275 7.6116 23.7768 7.56086C24.2334 7.60526 24.411 7.79872 24.8709 7.90021C24.8487 7.87484 24.817 7.80506 24.8011 7.82409C24.6743 8.01438 24.8614 7.767 24.4586 7.57671C24.2917 7.53183 24.1325 7.46235 23.9861 7.37057C23.5484 7.05342 23.8814 6.98047 23.1012 6.82507C21.8834 6.59672 21.6709 7.25322 20.9319 7.21834ZM23.0124 7.59574C23.3197 7.67829 23.605 7.82731 23.8484 8.03227C24.0917 8.23723 24.287 8.49313 24.4206 8.78188C24.1444 8.62587 23.8959 8.42551 23.6848 8.18881C23.4215 7.96998 23.2535 7.79238 23.0092 7.59574H23.0124Z" fill="#1A1A18"/>
<path fill-rule="evenodd" clip-rule="evenodd" d="M5.588 7.88752L6.52359 7.77652C5.88981 8.08855 5.37933 8.6046 5.07422 9.24175C5.46748 9.11489 5.70852 8.66136 6.06373 8.4013C6.33647 8.20467 6.88197 7.74163 7.18009 7.86849C6.82171 8.42984 5.81001 8.83897 5.56897 9.06414C6.13667 9.36226 6.9454 8.07781 8.32818 8.11269C8.43601 8.30616 8.22986 7.89069 8.35355 8.21735L9.14325 8.29981C9.03542 8.20467 9.24474 8.10318 8.53749 8.25224L8.9149 7.93509C8.97833 7.91606 9.20351 7.93509 9.40014 7.89069C9.0259 7.60525 5.94638 7.44668 5.3882 7.76383L5.588 7.88752Z" fill="#1A1A18"/>
<path fill-rule="evenodd" clip-rule="evenodd" d="M26.678 8.96264L25.9739 8.64549C26.082 8.84255 26.2366 9.01021 26.4243 9.1339C26.6146 9.30199 26.7668 9.43519 26.9412 9.6128C27.2977 9.9562 27.558 10.387 27.696 10.8624C27.1727 10.6213 27.011 9.97435 26.6177 9.53351C26.6177 9.53351 26.5828 9.53351 26.5765 9.53351C26.5702 9.53351 26.5416 9.53351 26.5353 9.55254L26.494 9.58425C26.3577 9.69843 26.5892 9.58425 26.2879 9.78723C26.2308 8.96898 25.0954 8.14757 24.7021 8.05242C24.8449 8.36957 24.7021 8.32517 24.9178 8.71526C25.4443 9.61914 25.7361 9.95849 26.5765 9.93946C26.9571 10.4247 27.4011 11.1256 27.8863 11.2683C27.8324 10.0822 27.0808 9.47642 26.8715 9.08633C26.5543 8.49009 26.7097 8.58523 26.142 8.211C25.7898 7.97214 25.3994 7.79516 24.9876 7.6877C25.5585 8.25222 26.2911 8.22051 26.678 8.9563V8.96264ZM26.1928 9.79357C25.6913 9.49778 25.3037 9.04208 25.0922 8.4996C25.6152 8.7722 26.0103 9.23909 26.1928 9.79992V9.79357Z" fill="#1A1A18"/>
<path fill-rule="evenodd" clip-rule="evenodd" d="M23.6756 16.2444L24.1038 15.8289C24.5732 16.6313 24.6176 17.7033 25.5024 17.6367C24.3829 16.5869 24.1355 14.8236 23.5107 13.9704L23.701 15.331C23.2538 14.7126 23.2189 13.815 23.1809 12.9302C22.8225 13.8246 23.3173 15.3976 23.682 16.2444" fill="#1A1A18"/>
<path fill-rule="evenodd" clip-rule="evenodd" d="M7.65322 5.1188C7.82917 5.03409 8.01767 4.9784 8.2114 4.95388C8.76642 4.85239 8.38584 5.06488 8.65859 4.81116L8.41438 4.65893C7.75471 4.41156 7.24727 4.11026 6.42585 3.97389C5.79155 3.86606 4.25972 3.8502 3.86328 4.15149C4.99233 4.30373 4.18043 3.83434 5.74715 4.57013C6.66054 5.0078 6.5432 5.00145 7.65005 5.1188H7.65322ZM8.0782 4.73505C6.99989 5.0522 6.06113 4.50036 5.26191 4.10075C6.24194 4.05167 7.21678 4.27099 8.08137 4.73505H8.0782Z" fill="#1A1A18"/>
<path fill-rule="evenodd" clip-rule="evenodd" d="M2.65772 8.55987C2.04244 8.87702 1.74115 9.29566 1.202 9.71746C0.884848 9.96167 0.0919734 10.7387 0 11.2556C0.612099 10.9385 1.58575 9.16245 2.87021 8.83896C2.45474 9.4352 2.1027 9.59378 1.67772 9.99656C1.19565 10.4533 0.685043 10.7228 0.447181 11.0622C1.15125 11.0336 3.07001 9.13074 3.31739 8.56621L2.5372 8.81676C2.57139 8.72621 2.6161 8.63999 2.6704 8.55987" fill="#1A1A18"/>
<path fill-rule="evenodd" clip-rule="evenodd" d="M21.586 12.2642L21.421 11.4428C21.9285 12.261 21.9126 13.2283 22.2012 13.685C22.3137 13.2839 22.3257 12.8613 22.2361 12.4545C22.5533 12.2769 21.919 12.4894 22.3535 12.4545C22.3639 12.4567 22.3747 12.4567 22.3852 12.4545C22.3313 11.6648 22.0871 11.8011 21.6145 11.1446C21.2962 10.687 20.8212 10.362 20.2793 10.2312C20.2983 10.2503 20.3269 10.2534 20.3364 10.2915L20.7455 10.6087C21.3481 11.1161 20.9961 11.8582 21.586 12.2515" fill="#1A1A18"/>
<path fill-rule="evenodd" clip-rule="evenodd" d="M2.6582 8.55987C3.32105 8.34738 3.89826 7.98266 4.65625 7.96363L3.80629 8.81994C3.46225 9.09847 3.19937 9.46431 3.04513 9.87922C3.91094 9.90776 5.55695 8.09049 5.58232 7.88752L5.39203 7.77969C4.65307 7.6338 3.11807 8.2459 2.66137 8.55987H2.6582ZM3.42571 9.53987C3.87078 8.88127 4.50091 8.36922 5.23663 8.06829C4.57062 8.66771 4.06635 9.29249 3.42571 9.53987Z" fill="#1A1A18"/>
<path fill-rule="evenodd" clip-rule="evenodd" d="M8.90252 5.50255C8.14136 4.95071 6.36533 5.22663 5.49316 5.44546C5.69297 5.59135 5.3663 5.55329 5.89594 5.57549C6.84739 5.61672 6.6571 6.02267 8.23334 5.72138C8.76298 5.61989 8.62343 5.72138 9.1277 5.76261C9.02304 5.48352 9.15942 5.62306 8.90252 5.50255Z" fill="#1A1A18"/>
<path fill-rule="evenodd" clip-rule="evenodd" d="M11.5226 12.8097L11.6653 12.8414C11.4274 13.4947 10.9866 14.573 11.4243 15.3564C11.7414 15.3152 11.7414 15.3818 11.8302 14.9473C12.0269 13.9958 11.6019 13.8563 12.0332 12.3593C11.8746 12.4037 11.7382 12.3974 11.6494 12.4735C11.3767 12.7114 11.5321 12.3657 11.5226 12.8097Z" fill="#1A1A18"/>
<path fill-rule="evenodd" clip-rule="evenodd" d="M16.8253 4.38301C17.1203 3.85971 17.2439 2.92095 17.3518 2.30885L17.1805 4.06586C17.6657 3.48864 17.6118 2.79726 17.6499 2.07733C17.6753 1.60795 17.7133 1.62063 17.5421 1.32568C17.2503 1.64283 17.3962 1.59843 17.2757 2.04879C17.041 2.91778 16.8063 2.82897 16.8253 4.38301Z" fill="#1A1A18"/>
<path fill-rule="evenodd" clip-rule="evenodd" d="M16.1052 7.09781C16.2384 6.94241 16.1052 7.22467 16.2574 6.89484C16.4097 6.565 16.2987 6.52694 16.6919 5.74041C16.7268 5.67064 16.7839 5.53426 16.8156 5.45498C16.9028 5.26102 16.9677 5.0578 17.0091 4.84922C16.7216 5.07717 16.5221 5.39772 16.4445 5.75627C16.4445 5.61989 16.4889 5.43912 16.4953 5.32177C16.5031 5.24162 16.5031 5.16089 16.4953 5.08074C16.435 4.83653 16.5207 5.02365 16.3811 4.88094C16.2035 5.35032 16.2194 4.62087 15.9847 5.89581C15.8864 6.42545 15.8483 6.75529 16.1084 7.09781" fill="#1A1A18"/>
<path fill-rule="evenodd" clip-rule="evenodd" d="M8.41448 4.65892L8.65868 4.81116C8.38594 5.06488 8.76652 4.85239 8.2115 4.95387C8.01777 4.97839 7.82927 5.03408 7.65332 5.11879C8.20833 5.09025 8.48108 5.37885 8.90289 5.50254L9.20101 5.53109C9.72748 5.47083 9.31519 5.54694 9.48645 5.33128C9.02658 5.11562 9.08049 4.95387 8.64283 4.7509L8.86166 4.67478C8.80457 4.47815 8.91558 4.55744 8.78872 4.49084C8.63331 4.3164 9.10587 4.31957 8.50645 4.35763L8.44937 4.61135L8.41448 4.65892Z" fill="#1A1A18"/>
<path fill-rule="evenodd" clip-rule="evenodd" d="M22.3498 14.1005C22.9016 13.9419 22.9492 13.4345 22.9175 12.8509C22.8953 12.4006 22.7018 11.8424 22.2578 11.6331C22.8128 13.4503 22.7875 12.4545 22.3498 14.1005Z" fill="#1A1A18"/>
<path fill-rule="evenodd" clip-rule="evenodd" d="M10.4658 36.2534C10.783 36.5452 10.5895 36.5705 10.8305 36.9131L11.3316 36.9702L11.5124 36.5705C11.8581 36.7894 11.7661 36.8877 12.1848 36.7608L11.8327 36.2058C11.5156 36.3549 11.4997 36.523 11.4839 36.4786C11.468 36.4342 11.449 36.523 11.4331 36.542C10.9733 36.3549 11.1382 36.2249 10.4658 36.2534Z" fill="#1A1A18"/>
<path fill-rule="evenodd" clip-rule="evenodd" d="M12.4196 1.868V1.7792C12.2547 1.36374 12.2927 1.37008 11.9026 1.17979C11.6344 1.04778 11.326 1.02284 11.04 1.11002C10.9448 1.52865 10.8719 1.60477 11.04 2.06146C11.3571 1.67454 11.04 1.74432 11.2683 1.40179C11.5665 1.29396 11.947 1.74432 12.4259 1.86166" fill="#1A1A18"/>
<path fill-rule="evenodd" clip-rule="evenodd" d="M22.3812 16.552C21.9435 16.2 21.8833 16.0256 21.601 15.3596C21.4266 14.9409 21.2617 14.0148 21.1316 13.7738C21.0555 14.4969 21.4488 15.5847 21.7976 16.2317C22.0038 16.5964 22.0228 16.6948 22.3812 16.5489" fill="#1A1A18"/>
<path fill-rule="evenodd" clip-rule="evenodd" d="M12.1214 5.69918L12.1404 5.5184L12.3846 5.44546C11.9218 5.10405 11.4021 4.84741 10.8496 4.68747L12.1214 5.69918Z" fill="#1A1A18"/>
<path fill-rule="evenodd" clip-rule="evenodd" d="M16.0127 7.8653H16.2823C16.4662 7.231 16.4916 7.65916 16.8119 7.19929C16.6248 7.19929 16.6565 7.26589 16.6565 7.10732L16.7421 6.99314C16.5138 6.89483 16.6311 7.11366 16.5106 6.75528C16.4282 6.8536 16.5106 6.70454 16.3647 6.94874C16.3194 7.04055 16.2792 7.13478 16.2442 7.231C16.1618 7.43398 16.0856 7.64964 16.0127 7.8653Z" fill="#1A1A18"/>
<path fill-rule="evenodd" clip-rule="evenodd" d="M10.2314 14.849C10.6467 14.3599 10.9169 13.7645 11.0116 13.13C10.5939 13.6175 10.3234 14.2136 10.2314 14.849Z" fill="#1A1A18"/>
<path fill-rule="evenodd" clip-rule="evenodd" d="M12.5328 11.059L12.6248 11.0209C13.0656 10.4659 12.9102 10.9639 13.2178 10.5389L12.9831 10.4913L13.221 10.1742C13.0117 10.2947 12.9958 10.3391 12.7326 10.1424C12.6624 10.143 12.5924 10.1493 12.5233 10.1615C12.2664 10.2344 12.3552 10.2217 12.2949 10.2566C12.5962 10.4057 12.5011 10.3105 12.8721 10.3835C12.701 10.572 12.5837 10.8032 12.5328 11.0527" fill="#1A1A18"/>
<path fill-rule="evenodd" clip-rule="evenodd" d="M24.0114 12.2166C23.8021 11.8138 23.6943 11.7885 22.9648 11.4745C23.2044 11.8481 23.5796 12.1142 24.0114 12.2166Z" fill="#1A1A18"/>
<path fill-rule="evenodd" clip-rule="evenodd" d="M11.3576 3.53939C11.6494 3.40619 11.6177 3.02244 11.6399 2.66089C11.4464 2.77823 11.4655 2.61332 11.3608 3.0161C11.3068 3.18635 11.3068 3.36914 11.3608 3.53939" fill="#1A1A18"/>
<path fill-rule="evenodd" clip-rule="evenodd" d="M15.6865 8.87067L15.9529 9.03559L16.01 9.0895L16.1337 8.65184C15.7595 8.84847 16.083 8.8009 15.8166 8.65184C15.6897 8.72478 15.7278 8.46155 15.7024 8.8675" fill="#1A1A18"/>
<path fill-rule="evenodd" clip-rule="evenodd" d="M26.0068 6.77431L26.2859 6.98046C26.2859 6.96143 26.3303 6.91069 26.3398 6.92654L26.5428 6.77114C26.4932 6.67336 26.4337 6.58091 26.3652 6.49522C26.1305 6.2415 26.3842 6.45399 26.1147 6.34299L26.4064 6.82505L26.0068 6.77431Z" fill="#1A1A18"/>
<path fill-rule="evenodd" clip-rule="evenodd" d="M15.5242 17.0087L15.9396 16.847L15.5146 16.6218L15.5242 17.0087Z" fill="#1A1A18"/>
<path fill-rule="evenodd" clip-rule="evenodd" d="M13.602 12.686C13.9604 12.6479 13.7733 12.686 13.8875 12.5496L13.5703 12.2737L13.602 12.686Z" fill="#1A1A18"/>
<path fill-rule="evenodd" clip-rule="evenodd" d="M13.8185 7.39277C13.8819 7.23736 13.9073 7.33251 13.8693 7.19296C13.7456 6.74261 13.8915 7.14539 13.6885 6.95193L13.7582 7.34519L13.8185 7.39277Z" fill="#1A1A18"/>
</svg>
