<svg width="18" height="14" viewBox="0 0 18 14" fill="none" xmlns="http://www.w3.org/2000/svg">
<path d="M4.01552 13.2547V6.42823L1.89844 4.49142L0 3.41663V12.05C0 12.7165 0.540054 13.2547 1.20468 13.2547H4.01552Z" fill="#4285F4"/>
<path d="M13.6523 13.2546H16.4632C17.1298 13.2546 17.6679 12.7145 17.6679 12.0499V3.41663L15.5176 4.64767L13.6523 6.42816V13.2546Z" fill="#34A853"/>
<path d="M4.01513 6.42826L3.72705 3.76098L4.01513 1.20813L8.83372 4.82211L13.6523 1.20813L13.9746 3.62316L13.6523 6.42826L8.83372 10.0422L4.01513 6.42826Z" fill="#EA4335"/>
<path d="M13.6523 1.20804V6.42818L17.6679 3.41657V1.81035C17.6679 0.32063 15.9673 -0.528619 14.7768 0.3648L13.6523 1.20804Z" fill="#FBBC04"/>
<path d="M0 3.4166L1.84681 4.80177L4.01552 6.42821V1.20808L2.8911 0.364832C1.6985 -0.528656 0 0.320661 0 1.81031V3.41654V3.4166Z" fill="#C5221F"/>
</svg>
