<svg width="15" height="15" viewBox="0 0 15 15" fill="none" xmlns="http://www.w3.org/2000/svg">
<path d="M8.25 1.5C9.64239 1.5 10.9777 2.05312 11.9623 3.03769C12.9469 4.02225 13.5 5.35761 13.5 6.75C13.5 6.94891 13.579 7.13968 13.7197 7.28033C13.8603 7.42098 14.0511 7.5 14.25 7.5C14.4489 7.5 14.6397 7.42098 14.7803 7.28033C14.921 7.13968 15 6.94891 15 6.75C15 4.95979 14.2888 3.2429 13.023 1.97703C11.7571 0.711158 10.0402 0 8.25 0C8.05109 0 7.86032 0.0790176 7.71967 0.21967C7.57902 0.360322 7.5 0.551087 7.5 0.75C7.5 0.948912 7.57902 1.13968 7.71967 1.28033C7.86032 1.42098 8.05109 1.5 8.25 1.5ZM14.8125 10.4325C14.7712 10.3121 14.7 10.2042 14.6056 10.1189C14.5111 10.0336 14.3965 9.97376 14.2725 9.945L9.7725 8.9175C9.65035 8.8898 9.52321 8.89314 9.40269 8.9272C9.28216 8.96126 9.17208 9.02497 9.0825 9.1125C8.9775 9.21 8.97 9.2175 8.4825 10.1475C6.8649 9.40212 5.56874 8.10064 4.83 6.48C5.7825 6 5.79 6 5.8875 5.8875C5.97503 5.79792 6.03873 5.68784 6.0728 5.56731C6.10686 5.44678 6.11019 5.31965 6.0825 5.1975L5.055 0.75C5.02623 0.626022 4.96639 0.511403 4.88111 0.416934C4.79582 0.322464 4.6879 0.251252 4.5675 0.21C4.39235 0.147442 4.21148 0.102225 4.0275 0.0749999C3.83794 0.0310464 3.6445 0.00592451 3.45 0C2.535 0 1.65748 0.363481 1.01048 1.01048C0.363481 1.65748 0 2.535 0 3.45C0.00396894 6.51203 1.22211 9.44751 3.3873 11.6127C5.55248 13.7779 8.48797 14.996 11.55 15C12.0031 15 12.4517 14.9108 12.8703 14.7374C13.2888 14.564 13.6692 14.3099 13.9895 13.9895C14.3099 13.6692 14.564 13.2888 14.7374 12.8703C14.9108 12.4517 15 12.0031 15 11.55C15.0002 11.3591 14.9852 11.1685 14.955 10.98C14.9235 10.7937 14.8758 10.6105 14.8125 10.4325Z" fill="white"/>
</svg>
