<svg width="14" height="20" viewBox="0 0 14 20" fill="none" xmlns="http://www.w3.org/2000/svg">
<path d="M3.8291 14.7475C4.40488 15.4813 4.92892 16.2542 5.39741 17.0607C5.79742 17.8191 5.96417 18.3335 6.25651 19.2473C6.43579 19.7523 6.59782 19.903 6.94619 19.903C7.3258 19.903 7.49804 19.6466 7.6311 19.2501C7.90743 18.387 8.12425 17.7284 8.46633 17.106C9.13757 15.9045 9.97166 14.8367 10.7912 13.8106C11.0131 13.5201 12.4476 11.8281 13.0934 10.4931C13.0934 10.4931 13.8871 9.02656 13.8871 6.97839C13.8871 5.06252 13.1043 3.73376 13.1043 3.73376L10.8507 4.33731L9.48203 7.94201L9.14343 8.43907L9.07573 8.52912L8.98568 8.64184L8.82761 8.82189L8.60173 9.04771L7.38298 10.0406L4.33598 11.7999L3.8291 14.7475Z" fill="#34A853"/>
<path d="M0.684082 10.2467C1.42774 11.9453 2.86179 13.4385 3.83204 14.7488L8.98547 8.6443C8.98547 8.6443 8.25944 9.59382 6.94245 9.59382C5.47548 9.59382 4.29036 8.42238 4.29036 6.94526C4.29036 5.93232 4.89976 5.23645 4.89976 5.23645L1.40149 6.17382L0.684082 10.2466V10.2467Z" fill="#FBBC04"/>
<path d="M9.04317 0.314019C10.7547 0.865865 12.2197 2.0244 13.1058 3.73277L8.98718 8.64085C8.98718 8.64085 9.59658 7.93239 9.59658 6.92575C9.59658 5.41424 8.32381 4.28505 6.94883 4.28505C5.64861 4.28505 4.90186 5.233 4.90186 5.233V2.14097L9.04317 0.313965V0.314019Z" fill="#4285F4"/>
<path d="M1.62842 2.48257C2.65069 1.25949 4.44949 0 6.9294 0C8.13258 0 9.03903 0.315875 9.03903 0.315875L4.8981 5.23562H1.9642L1.62842 2.48263V2.48257Z" fill="#1A73E8"/>
<path d="M0.684152 10.2466C0.684152 10.2466 0 8.90685 0 6.96593C0 5.13149 0.713119 3.52797 1.6282 2.48254L4.90021 5.23602L0.684152 10.2466Z" fill="#EA4335"/>
</svg>
