<svg width="26" height="26" viewBox="0 0 26 26" fill="none" xmlns="http://www.w3.org/2000/svg">
<path d="M13.0029 6.33393C9.31389 6.33393 6.33832 9.31016 6.33832 13C6.33832 16.6898 9.31389 19.6661 13.0029 19.6661C16.6919 19.6661 19.6675 16.6898 19.6675 13C19.6675 9.31016 16.6919 6.33393 13.0029 6.33393ZM13.0029 17.3338C10.619 17.3338 8.67005 15.3903 8.67005 13C8.67005 10.6097 10.6132 8.66618 13.0029 8.66618C15.3926 8.66618 17.3358 10.6097 17.3358 13C17.3358 15.3903 15.3868 17.3338 13.0029 17.3338ZM21.4946 6.06125C21.4946 6.92569 20.7986 7.61609 19.9401 7.61609C19.0759 7.61609 18.3856 6.91989 18.3856 6.06125C18.3856 5.20261 19.0817 4.50641 19.9401 4.50641C20.7986 4.50641 21.4946 5.20261 21.4946 6.06125ZM25.9086 7.6393C25.81 5.55651 25.3344 3.71159 23.8089 2.19157C22.2892 0.671538 20.4447 0.195805 18.3624 0.0913756C16.2163 -0.0304586 9.78372 -0.0304586 7.63759 0.0913756C5.56107 0.190003 3.71656 0.665737 2.19108 2.18576C0.665589 3.70579 0.195761 5.55071 0.0913553 7.63349C-0.0304518 9.7801 -0.0304518 16.2141 0.0913553 18.3607C0.189961 20.4435 0.665589 22.2884 2.19108 23.8084C3.71656 25.3285 5.55527 25.8042 7.63759 25.9086C9.78372 26.0305 16.2163 26.0305 18.3624 25.9086C20.4447 25.81 22.2892 25.3343 23.8089 23.8084C25.3286 22.2884 25.8042 20.4435 25.9086 18.3607C26.0305 16.2141 26.0305 9.7859 25.9086 7.6393ZM23.1361 20.664C22.6837 21.8011 21.8078 22.6771 20.6651 23.1354C18.954 23.8142 14.8938 23.6576 13.0029 23.6576C11.112 23.6576 7.04596 23.8084 5.34066 23.1354C4.20379 22.6829 3.32794 21.8069 2.86972 20.664C2.19108 18.9525 2.34769 14.8913 2.34769 13C2.34769 11.1087 2.19688 7.04173 2.86972 5.33605C3.32214 4.19893 4.19799 3.32288 5.34066 2.86455C7.05176 2.18576 11.112 2.34241 13.0029 2.34241C14.8938 2.34241 18.9598 2.19157 20.6651 2.86455C21.802 3.31708 22.6779 4.19313 23.1361 5.33605C23.8147 7.04753 23.6581 11.1087 23.6581 13C23.6581 14.8913 23.8147 18.9583 23.1361 20.664Z" fill="black"/>
</svg>
