<svg width="161" height="72" viewBox="0 0 161 72" fill="none" xmlns="http://www.w3.org/2000/svg">
<path d="M39.0685 14.1046H37.0015C36.7637 14.1046 36.6518 14.0347 36.7218 13.7829C37.2324 11.6635 37.7709 9.58608 38.8551 7.64157C40.6037 4.54994 43.2792 2.66489 46.8185 1.8745C48.191 1.58451 49.5881 1.42646 50.9908 1.40241C51.3405 1.40241 51.7252 1.3324 52.0855 1.3324C52.4457 1.3324 52.5156 1.37793 52.4352 1.74864C52.2533 2.55652 52.0854 3.37137 51.8546 4.16526C51.4992 5.69041 50.9243 7.15588 50.1479 8.5159C48.8133 10.6977 46.7887 12.3716 44.3949 13.2723C42.6911 13.896 40.8813 14.1787 39.0685 14.1046Z" fill="#75C111"/>
<path d="M34.1299 14.1431C32.3008 12.6743 30.4402 11.2334 29.4819 9.0126C28.7655 7.33096 28.5236 5.48515 28.7825 3.67569C28.9393 2.5816 29.1612 1.49783 29.447 0.430163C29.4823 0.283341 29.5291 0.139518 29.5869 0C29.9838 0.1941 30.34 0.462396 30.6361 0.790398C31.994 1.85509 33.146 3.15883 34.0354 4.63745C35.0473 6.37874 35.4336 8.41358 35.1302 10.4045C34.952 11.4842 34.7114 12.5527 34.4097 13.6045C34.3502 13.7689 34.3502 13.9928 34.1299 14.1431Z" fill="#75C111"/>
<path d="M24.6172 10.0548C26.5477 10.359 28.2544 10.8976 29.1812 12.7337C29.3819 13.1849 29.5083 13.6656 29.5554 14.1571C29.0595 14.2452 28.5506 14.2284 28.0615 14.1079C27.5724 13.9875 27.1139 13.766 26.7156 13.4577C25.9071 12.86 25.2977 12.0324 24.9669 11.083C24.7938 10.7622 24.6756 10.4146 24.6172 10.0548Z" fill="#75C111"/>
<path d="M63.3478 69.4113C63.3478 68.4915 63.3268 67.6626 63.3478 66.8127C63.3478 66.5889 63.2043 66.1973 63.5926 66.1798C63.9808 66.1623 63.8584 66.568 63.8584 66.7918C63.8828 67.876 63.8584 68.9427 63.8584 70.0268C63.8584 70.2122 63.9423 70.4745 63.6521 70.5374C63.3618 70.6004 63.3023 70.3905 63.1659 70.2506C62.5084 69.4497 61.8544 68.6559 61.2004 67.855C61.0536 67.6941 60.9766 67.4458 60.5849 67.3688C60.5849 68.1837 60.6059 68.9811 60.5849 69.7819C60.5849 70.0442 60.7702 70.4814 60.361 70.5164C59.8504 70.5374 60.0742 70.0442 60.0742 69.7819C60.0532 68.8167 60.0532 67.8549 60.0742 66.8966C60.0742 66.6518 59.9344 66.3196 60.2352 66.1972C60.5359 66.0748 60.6898 66.4036 60.8507 66.6099L62.7567 68.9426C62.8984 69.1581 63.1056 69.3225 63.3478 69.4113Z" fill="#75C111"/>
<path d="M88.7699 67.6521C88.5428 67.6671 88.325 67.7478 88.1431 67.8846C87.9612 68.0213 87.823 68.2081 87.7455 68.4221C87.668 68.6361 87.6545 68.868 87.7066 69.0895C87.7588 69.3111 87.8742 69.5126 88.039 69.6695C88.2038 69.8265 88.4108 69.9321 88.6346 69.9733C88.8584 70.0146 89.0894 69.9898 89.2994 69.9019C89.5093 69.8141 89.6891 69.667 89.8168 69.4786C89.9445 69.2902 90.0146 69.0687 90.0185 68.8411C90.0251 68.6781 89.9969 68.5155 89.9357 68.3643C89.8744 68.213 89.7816 68.0765 89.6635 67.9639C89.5453 67.8514 89.4045 67.7654 89.2504 67.7116C89.0963 67.6578 88.9325 67.6375 88.7699 67.6521ZM90.5186 68.9811C90.5186 69.3903 90.5396 69.803 90.5186 70.2121C90.4556 71.3558 89.7212 71.9607 88.5531 71.8069C88.1613 71.7844 87.7813 71.6642 87.4479 71.4571C87.3465 71.3767 87.2626 71.2928 87.3466 71.1704C87.3778 71.1201 87.4271 71.0837 87.4844 71.0687C87.5417 71.0537 87.6025 71.0614 87.6543 71.09C88.0794 71.3288 88.5684 71.429 89.0532 71.3767C89.2321 71.3777 89.4072 71.3259 89.5566 71.2275C89.7059 71.1292 89.8228 70.9889 89.8925 70.8242C89.952 70.6598 90.0325 70.4744 89.9135 70.3345C89.7946 70.1946 89.5848 70.2716 89.4205 70.3345C89.0304 70.4962 88.596 70.516 88.1929 70.3905C87.986 70.3353 87.7922 70.2392 87.623 70.1078C87.4539 69.9764 87.3129 69.8125 87.2082 69.6256C87.1036 69.4388 87.0374 69.2329 87.0137 69.02C86.99 68.8072 87.0093 68.5918 87.0703 68.3865C87.1988 67.9721 87.4847 67.6247 87.8666 67.4187C88.2484 67.2128 88.6958 67.1647 89.1126 67.2849C89.3124 67.3447 89.5049 67.4268 89.6863 67.5296C89.8926 67.6521 89.994 67.6521 90.036 67.4073C90.0432 67.3772 90.0568 67.349 90.076 67.3247C90.0952 67.3004 90.1195 67.2806 90.1471 67.2667C90.1747 67.2527 90.205 67.2449 90.236 67.2438C90.2669 67.2427 90.2977 67.2483 90.3262 67.2603C90.3811 67.2799 90.4281 67.3167 90.4603 67.3653C90.4924 67.4138 90.508 67.4715 90.5046 67.5296C90.5291 68.0018 90.5291 68.4915 90.5291 68.9811H90.5186Z" fill="#75C111"/>
<path d="M131.986 67.6521C131.832 67.6416 131.677 67.6619 131.53 67.7119C131.383 67.7619 131.248 67.8405 131.132 67.9433C131.016 68.046 130.922 68.1708 130.855 68.3104C130.787 68.45 130.749 68.6016 130.74 68.7563C130.732 68.911 130.755 69.0658 130.807 69.2116C130.86 69.3575 130.94 69.4915 131.045 69.6058C131.15 69.7202 131.276 69.8126 131.416 69.8776C131.557 69.9427 131.709 69.9791 131.864 69.9848C132.026 70.0096 132.191 69.9998 132.348 69.9562C132.506 69.9125 132.653 69.836 132.779 69.7316C132.904 69.6272 133.007 69.4972 133.079 69.3504C133.151 69.2035 133.191 69.0431 133.197 68.8797C133.209 68.7167 133.187 68.5528 133.131 68.3992C133.075 68.2456 132.987 68.1059 132.872 67.9894C132.757 67.873 132.619 67.7826 132.466 67.7244C132.313 67.6662 132.15 67.6416 131.986 67.6521ZM133.704 69.023C133.704 69.4322 133.728 69.8414 133.704 70.2506C133.644 71.3557 132.927 71.9468 131.78 71.8244C131.392 71.8006 131.014 71.6894 130.675 71.4991C130.553 71.4152 130.43 71.2928 130.553 71.1494C130.592 71.1026 130.647 71.0721 130.708 71.0637C130.769 71.0553 130.831 71.0696 130.881 71.1039C131.304 71.3489 131.797 71.4438 132.28 71.3732C132.503 71.3746 132.719 71.2905 132.882 71.1384C133.045 70.9863 133.144 70.7775 133.158 70.5549C133.158 70.3695 133.095 70.2051 132.85 70.2681C132.686 70.3101 132.501 70.387 132.34 70.4324C131.99 70.5214 131.622 70.5003 131.285 70.372C130.949 70.2437 130.66 70.0143 130.458 69.7155C130.276 69.4294 130.19 69.093 130.212 68.7547C130.234 68.4165 130.363 68.0941 130.581 67.834C130.824 67.568 131.14 67.3794 131.489 67.2917C131.839 67.204 132.206 67.2211 132.546 67.3408C132.685 67.3892 132.816 67.4588 132.934 67.5472C133.078 67.6276 133.204 67.6906 133.242 67.4632C133.246 67.4268 133.258 67.3919 133.278 67.3613C133.298 67.3307 133.325 67.3054 133.357 67.2876C133.389 67.2697 133.425 67.2598 133.461 67.2587C133.498 67.2577 133.534 67.2654 133.567 67.2814C133.622 67.3038 133.668 67.3437 133.699 67.3948C133.729 67.446 133.742 67.5056 133.735 67.5647C133.735 68.0228 133.735 68.5334 133.735 69.023H133.704Z" fill="#75C111"/>
<path d="M144.378 70.1282C144.54 70.1377 144.702 70.1141 144.855 70.059C145.008 70.0039 145.148 69.9182 145.266 69.8074C145.385 69.6965 145.48 69.5627 145.545 69.4141C145.611 69.2654 145.645 69.105 145.647 68.9426C145.657 68.7809 145.635 68.6188 145.582 68.4658C145.529 68.3128 145.446 68.172 145.337 68.0517C145.228 67.9314 145.097 67.8341 144.95 67.7655C144.803 67.6969 144.644 67.6583 144.482 67.6521C144.314 67.6341 144.144 67.6529 143.983 67.7074C143.823 67.7618 143.676 67.8504 143.553 67.9672C143.43 68.084 143.334 68.2261 143.272 68.3837C143.21 68.5412 143.182 68.7105 143.192 68.8797C143.179 69.0417 143.2 69.2047 143.254 69.358C143.308 69.5113 143.393 69.6515 143.505 69.7694C143.617 69.8873 143.753 69.9801 143.903 70.0419C144.053 70.1038 144.215 70.1332 144.378 70.1282ZM146.126 68.2081V70.2122C146.126 70.436 145.983 70.7227 145.776 70.5164C145.427 70.1912 145.182 70.415 144.874 70.4989C144.574 70.6046 144.25 70.6222 143.94 70.5497C143.63 70.4772 143.348 70.3176 143.126 70.0897C142.899 69.8764 142.74 69.6018 142.666 69.2994C142.593 68.9971 142.609 68.6799 142.713 68.3865C142.772 68.1795 142.871 67.9861 143.004 67.8174C143.138 67.6487 143.304 67.5081 143.492 67.4035C143.68 67.2989 143.887 67.2324 144.101 67.2079C144.314 67.1833 144.531 67.2011 144.738 67.2604C145.577 67.4457 145.556 67.4458 145.619 66.6729C145.64 66.428 145.434 65.9734 145.843 65.9734C146.312 65.9734 146.088 66.463 146.109 66.7288C146.151 67.2219 146.109 67.7325 146.109 68.2256L146.126 68.2081Z" fill="#75C111"/>
<path d="M154.096 68.5334C153.827 67.834 153.564 67.6311 152.931 67.6521C152.298 67.6731 152.11 67.876 151.945 68.5544C152.661 68.628 153.382 68.621 154.096 68.5334ZM153.117 70.1282C153.429 70.1517 153.74 70.0651 153.995 69.8834C154.117 69.8029 154.218 69.8029 154.299 69.9044C154.379 70.0058 154.341 70.1073 154.26 70.2122C153.809 70.6598 152.809 70.7227 152.162 70.3345C151.838 70.151 151.587 69.8623 151.449 69.5163C151.312 69.1703 151.297 68.7877 151.407 68.432C151.503 68.0695 151.719 67.7505 152.02 67.5269C152.321 67.3033 152.689 67.1884 153.064 67.2009C153.423 67.2058 153.769 67.3292 154.05 67.552C154.331 67.7747 154.531 68.0841 154.617 68.432C154.719 68.9006 154.659 69.002 154.145 69.002C153.575 69.023 153.001 69.002 152.428 69.002C152.263 69.002 152.04 68.9636 151.98 69.1874C151.96 69.2709 151.962 69.3583 151.987 69.4406C152.011 69.523 152.057 69.5973 152.12 69.6561C152.233 69.8127 152.383 69.9381 152.557 70.0207C152.732 70.1032 152.924 70.1403 153.117 70.1282Z" fill="#75C111"/>
<path d="M102.787 68.5334C102.518 67.834 102.252 67.6311 101.615 67.6521C100.979 67.6731 100.797 67.876 100.636 68.5544C101.352 68.628 102.073 68.621 102.787 68.5334ZM101.738 67.2044C102.001 67.2119 102.259 67.2787 102.493 67.3998C102.727 67.5209 102.93 67.6932 103.088 67.9039C103.197 68.0233 103.275 68.1678 103.316 68.3245C103.356 68.4813 103.357 68.6455 103.319 68.8027C103.172 69.1525 102.787 68.9671 102.497 68.9881C101.986 69.0091 101.476 68.988 100.961 69.009C100.612 69.009 100.573 69.2119 100.696 69.4812C100.838 69.7268 101.057 69.9184 101.32 70.0259C101.583 70.1335 101.873 70.151 102.147 70.0757C102.318 70.0232 102.483 69.9541 102.64 69.8694C102.787 69.7889 102.927 69.7435 103.011 69.9289C103.095 70.1142 102.948 70.1982 102.826 70.2786C102.504 70.4766 102.132 70.578 101.754 70.5705C101.377 70.5631 101.009 70.4471 100.696 70.2366C100.407 70.0228 100.194 69.7227 100.088 69.3797C99.9811 69.0366 99.9868 68.6685 100.104 68.3289C100.221 67.9894 100.443 67.6959 100.738 67.4912C101.033 67.2864 101.386 67.1811 101.745 67.1904L101.738 67.2044Z" fill="#75C111"/>
<path d="M96.6247 67.5507C96.7577 67.4827 96.8944 67.422 97.034 67.3688C98.3454 66.9142 99.1638 67.4458 99.2023 68.7957C99.2023 69.1874 99.2233 69.5582 99.2023 69.9429C99.1848 70.1667 99.3457 70.5759 98.94 70.5584C98.5343 70.5409 98.7127 70.1492 98.7127 69.9044C98.6917 69.5336 98.7127 69.1489 98.7127 68.7572C98.6707 67.9773 98.4049 67.6766 97.7299 67.6521C97.5811 67.6385 97.4311 67.6569 97.2899 67.706C97.1488 67.7551 97.0198 67.8337 96.9115 67.9367C96.8032 68.0397 96.7182 68.1646 96.6621 68.3031C96.606 68.4416 96.5802 68.5904 96.5863 68.7397C96.5408 69.2259 96.5863 69.719 96.5653 70.2296C96.5653 70.373 96.5408 70.5374 96.3415 70.5584C96.1421 70.5794 96.0547 70.3905 96.0547 70.2087V66.2567C96.0547 66.0748 96.0932 65.907 96.3415 65.907C96.5898 65.907 96.5408 66.0748 96.5653 66.2567C96.5166 66.6885 96.5366 67.1252 96.6247 67.5507Z" fill="#75C111"/>
<path d="M119.725 68.9181V70.2296C119.725 70.4744 119.539 70.6982 119.354 70.4989C119.092 70.2121 118.906 70.373 118.654 70.4535C117.49 70.8452 116.668 70.3136 116.605 69.1245C116.567 68.5719 116.605 68.0228 116.605 67.4668C116.604 67.408 116.625 67.3509 116.663 67.306C116.701 67.261 116.753 67.2312 116.811 67.222C116.848 67.2149 116.886 67.2158 116.922 67.2247C116.958 67.2336 116.992 67.2503 117.022 67.2735C117.051 67.2968 117.075 67.3261 117.092 67.3594C117.108 67.3928 117.118 67.4294 117.119 67.4668C117.119 68.0613 117.098 68.6349 117.119 69.2154C117.118 69.3818 117.161 69.5454 117.243 69.6901C117.325 69.8349 117.444 69.9556 117.587 70.0404C117.73 70.1252 117.893 70.1712 118.059 70.1737C118.226 70.1762 118.39 70.1352 118.536 70.0547C118.73 69.9786 118.897 69.8431 119.01 69.6673C119.124 69.4916 119.179 69.2846 119.169 69.0756C119.169 68.5824 119.169 68.0718 119.169 67.5822C119.169 67.3968 119.19 67.2115 119.438 67.2115C119.686 67.2115 119.7 67.4178 119.7 67.6031C119.7 68.0298 119.7 68.4809 119.7 68.9076L119.725 68.9181Z" fill="#75C111"/>
<path d="M111.109 70.1282C111.276 70.1518 111.446 70.1399 111.608 70.0935C111.77 70.0471 111.921 69.9672 112.05 69.8589C112.141 69.7845 112.209 69.685 112.245 69.5726C112.281 69.4602 112.284 69.3397 112.253 69.2259C112.176 68.9636 111.927 69.023 111.721 69.023C111.419 69.0231 111.118 69.0441 110.819 69.086C110.715 69.1013 110.62 69.1523 110.55 69.2302C110.48 69.308 110.439 69.408 110.434 69.5127C110.414 69.6288 110.437 69.7482 110.497 69.8494C110.557 69.9506 110.651 70.0271 110.763 70.0652C110.877 70.0947 110.992 70.1158 111.109 70.1282ZM112.809 69.3273V69.9429C112.784 70.4745 112.784 70.4989 112.253 70.3345C112.067 70.2716 111.99 70.3905 111.843 70.436C111.455 70.6039 111.017 70.6177 110.619 70.4745C110.419 70.4178 110.243 70.2979 110.117 70.1327C109.991 69.9675 109.922 69.7659 109.92 69.5581C109.927 69.3506 110.004 69.1515 110.137 68.992C110.269 68.8324 110.452 68.7216 110.654 68.6768C111.038 68.5915 111.43 68.5563 111.823 68.5719C111.987 68.5719 112.211 68.5929 112.249 68.3691C112.266 68.2837 112.261 68.1952 112.232 68.1128C112.204 68.0305 112.154 67.9572 112.088 67.9004C111.962 67.7947 111.815 67.7178 111.656 67.6749C111.497 67.632 111.331 67.6242 111.168 67.6521C110.96 67.6562 110.755 67.7127 110.574 67.8165C110.431 67.8759 110.224 68.0019 110.144 67.7535C110.084 67.5927 110.266 67.5087 110.392 67.4457C110.795 67.2385 111.251 67.1604 111.7 67.222C112.4 67.3444 112.749 67.694 112.805 68.3865C112.826 68.6943 112.805 69.0231 112.805 69.3273H112.809Z" fill="#75C111"/>
<path d="M124.736 69.023H124.428C124.079 69.044 123.673 69.065 123.652 69.5581C123.634 69.9079 123.935 70.1492 124.467 70.1283C124.557 70.1317 124.648 70.1246 124.736 70.1072C124.929 70.0941 125.11 70.0087 125.243 69.868C125.376 69.7274 125.451 69.5417 125.453 69.3483C125.415 68.8167 124.96 69.1035 124.736 69.023ZM126.002 69.3274V70.0268C126.002 70.5164 126.002 70.5374 125.471 70.352C125.247 70.2716 125.145 70.415 125.002 70.4745C124.806 70.5534 124.597 70.5922 124.386 70.5886C124.175 70.585 123.967 70.5391 123.774 70.4535C123.591 70.3851 123.434 70.2597 123.327 70.0956C123.22 69.9314 123.168 69.7373 123.179 69.5417C123.191 69.346 123.264 69.1592 123.39 69.0085C123.515 68.8579 123.686 68.7515 123.876 68.7048C124.285 68.614 124.705 68.5798 125.124 68.6034C125.474 68.5824 125.593 68.3586 125.432 68.0718C125.366 67.9559 125.27 67.8594 125.155 67.7919C125.039 67.7244 124.908 67.6882 124.775 67.687C124.415 67.641 124.05 67.7031 123.725 67.8654C123.599 67.9284 123.418 67.9878 123.355 67.785C123.292 67.5821 123.439 67.5192 123.579 67.4563C124.03 67.2167 124.552 67.1448 125.051 67.2534C125.645 67.4178 125.936 67.6871 125.992 68.2747C125.992 68.6244 125.992 68.9916 125.992 69.3239L126.002 69.3274Z" fill="#75C111"/>
<path d="M77.5348 68.9181V70.2296C77.5348 70.4535 77.3495 70.7228 77.1641 70.4989C76.9018 70.1912 76.7584 70.3521 76.5101 70.436C75.3245 70.8662 74.4886 70.3346 74.4117 69.1035C74.3907 68.6174 74.4117 68.1243 74.4117 67.6137C74.4117 67.4283 74.4117 67.222 74.6566 67.222C74.9014 67.222 74.9223 67.4074 74.9433 67.5927V68.9917C74.9643 69.7926 75.2301 70.1177 75.8631 70.1387C76.5626 70.1772 76.9893 69.7891 77.0312 68.9917C77.0487 68.502 77.0312 68.0124 77.0487 67.5018C77.0433 67.4644 77.0464 67.4262 77.0578 67.3902C77.0692 67.3542 77.0885 67.3212 77.1144 67.2936C77.1403 67.2661 77.172 67.2447 77.2072 67.2311C77.2425 67.2175 77.2803 67.212 77.318 67.215C77.5033 67.215 77.5628 67.3548 77.5628 67.5192C77.5418 68.0123 77.5418 68.46 77.5418 68.9181H77.5348Z" fill="#75C111"/>
<path d="M68.3351 68.9636V70.2611C68.3351 70.464 68.1113 70.6703 68.0099 70.5269C67.6846 70.0338 67.3943 70.4255 67.1075 70.5059C66.1283 70.7717 65.3274 70.3031 65.226 69.3379C65.1666 68.7678 65.205 68.1732 65.1875 67.5892C65.1875 67.4038 65.205 67.2185 65.4498 67.2185C65.6946 67.2185 65.6981 67.4213 65.6981 67.6066V69.0055C65.7191 69.8029 66.0058 70.1107 66.6389 70.1317C67.2719 70.1527 67.7231 69.782 67.7651 69.0476C67.786 68.5544 67.765 68.0648 67.786 67.5507C67.786 67.3688 67.8455 67.201 68.0938 67.2255C68.2547 67.2429 68.3176 67.3898 68.3176 67.5507C68.3176 68.0053 68.3176 68.474 68.3176 68.9496L68.3351 68.9636Z" fill="#75C111"/>
<path d="M105.871 68.8797V67.5682C105.871 67.2849 106.014 67.082 106.301 67.3059C106.588 67.5297 106.794 67.3688 107.039 67.3059C108.225 66.9981 108.963 67.5506 109.001 68.7572V70.2611C109.001 70.401 108.984 70.5688 108.777 70.5863C108.571 70.6038 108.491 70.4254 108.491 70.2366V68.7467C108.47 68.0088 108.204 67.722 107.588 67.6975C107.449 67.6735 107.306 67.6796 107.168 67.7153C107.031 67.751 106.903 67.8155 106.793 67.9046C106.683 67.9936 106.593 68.1051 106.529 68.2316C106.466 68.3581 106.43 68.4968 106.424 68.6384C106.381 69.1618 106.368 69.6873 106.385 70.2122C106.385 70.373 106.385 70.5968 106.14 70.5968C105.896 70.5968 105.892 70.394 105.892 70.2471C105.871 69.7575 105.871 69.3098 105.871 68.8797Z" fill="#75C111"/>
<path d="M83.0238 68.8797V67.5682C83.0238 67.2849 83.1846 67.0821 83.4539 67.3234C83.6393 67.5088 83.7407 67.5298 83.9645 67.4073C84.3311 67.2008 84.7626 67.142 85.1711 67.243C85.4042 67.2873 85.6187 67.4006 85.7865 67.5684C85.9542 67.7362 86.0677 67.9506 86.1119 68.1837C86.1895 68.8805 86.2035 69.5828 86.1539 70.2821C86.1602 70.3204 86.1569 70.3596 86.1444 70.3962C86.1318 70.4329 86.1104 70.4658 86.082 70.4922C86.0536 70.5185 86.0191 70.5373 85.9816 70.5471C85.9441 70.5568 85.9047 70.5571 85.8671 70.5479C85.808 70.5417 85.7537 70.5126 85.7158 70.4668C85.6778 70.4211 85.6594 70.3624 85.6643 70.3031C85.6643 69.81 85.6642 69.3204 85.6433 68.8063C85.6223 67.9494 85.3355 67.6416 84.6396 67.6416C83.9436 67.6416 83.5553 68.0333 83.5134 68.8272C83.4924 69.2364 83.5134 69.6456 83.5134 70.0548C83.5134 70.2401 83.5763 70.527 83.2686 70.5479C82.9608 70.5689 83.0063 70.3031 83.0063 70.1003C83.0063 69.7086 83.0063 69.2994 83.0063 68.8902L83.0238 68.8797Z" fill="#75C111"/>
<path d="M150.493 69.3483V70.3135C150.495 70.3725 150.475 70.4301 150.437 70.4752C150.399 70.5203 150.346 70.5499 150.287 70.5584C150.25 70.5645 150.212 70.5619 150.176 70.551C150.14 70.5401 150.107 70.521 150.08 70.4953C150.053 70.4696 150.031 70.438 150.018 70.4029C150.005 70.3677 150 70.33 150.004 70.2926C149.979 70.0058 149.979 69.6981 149.979 69.4113C149.979 69.1245 150.004 68.8797 149.979 68.6349C149.923 67.9599 149.654 67.6766 149.084 67.6521C148.943 67.6283 148.799 67.6344 148.66 67.6699C148.522 67.7054 148.392 67.7696 148.28 67.8582C148.168 67.9469 148.076 68.0581 148.01 68.1847C147.943 68.3112 147.904 68.4503 147.895 68.5929C147.869 68.9747 147.862 69.3575 147.874 69.74V70.2611C147.874 70.4255 147.815 70.5654 147.629 70.5654C147.592 70.5678 147.555 70.5619 147.52 70.5483C147.486 70.5346 147.455 70.5134 147.43 70.4864C147.404 70.4593 147.385 70.427 147.374 70.3917C147.362 70.3564 147.359 70.3189 147.363 70.2821V68.439C147.363 68.1138 147.363 67.806 147.381 67.4808C147.405 67.2499 147.612 67.131 147.731 67.2744C147.954 67.5402 148.119 67.4807 148.381 67.3758C149.63 66.9037 150.479 67.4562 150.507 68.7468C150.507 68.9321 150.507 69.1385 150.507 69.3379L150.493 69.3483Z" fill="#75C111"/>
<path d="M136.232 70.1282C136.393 70.1564 136.557 70.1497 136.715 70.1086C136.873 70.0676 137.02 69.9932 137.146 69.8904C137.272 69.7876 137.375 69.6587 137.447 69.5127C137.52 69.3667 137.56 69.2069 137.565 69.044C137.628 68.2467 137.215 67.6941 136.442 67.6451C136.281 67.6226 136.117 67.6348 135.962 67.6811C135.806 67.7275 135.662 67.8067 135.54 67.9135C135.417 68.0203 135.319 68.1522 135.252 68.3002C135.185 68.4482 135.151 68.6088 135.151 68.7712C135.126 68.9323 135.135 69.0969 135.177 69.2545C135.219 69.4121 135.292 69.5593 135.394 69.6868C135.496 69.8143 135.623 69.9194 135.767 69.9954C135.911 70.0714 136.069 70.1166 136.232 70.1282ZM138.096 68.8797C138.107 69.2257 138.014 69.5671 137.83 69.8598C137.645 70.1525 137.376 70.3831 137.059 70.5217C136.742 70.6603 136.39 70.7005 136.05 70.6373C135.709 70.5741 135.396 70.4103 135.149 70.167C134.903 69.9237 134.735 69.6122 134.668 69.2726C134.6 68.933 134.636 68.581 134.771 68.262C134.906 67.9431 135.133 67.6718 135.423 67.4833C135.714 67.2948 136.054 67.1976 136.4 67.2045C136.622 67.2012 136.842 67.2422 137.048 67.3249C137.254 67.4077 137.441 67.5306 137.599 67.6865C137.757 67.8425 137.882 68.0283 137.968 68.2332C138.053 68.438 138.097 68.6578 138.096 68.8797Z" fill="#75C111"/>
<path d="M141.555 68.9181C141.571 68.756 141.554 68.5922 141.502 68.4375C141.451 68.2828 141.367 68.1409 141.257 68.0211C141.146 67.9013 141.011 67.8064 140.861 67.7428C140.711 67.6792 140.549 67.6483 140.386 67.6521C140.225 67.635 140.063 67.6526 139.909 67.7039C139.755 67.7551 139.615 67.8389 139.496 67.9493C139.378 68.0598 139.285 68.1944 139.223 68.3441C139.161 68.4937 139.132 68.6549 139.138 68.8168C139.116 68.9856 139.131 69.1572 139.182 69.3195C139.234 69.4818 139.32 69.6308 139.436 69.756C139.551 69.8811 139.693 69.9793 139.85 70.0436C140.008 70.108 140.178 70.1369 140.348 70.1282C140.509 70.138 140.671 70.1133 140.822 70.0558C140.973 69.9984 141.11 69.9096 141.224 69.7952C141.338 69.6807 141.427 69.5434 141.484 69.3922C141.541 69.241 141.565 69.0794 141.555 68.9181ZM140.327 67.2045C140.55 67.1956 140.772 67.231 140.981 67.3087C141.19 67.3864 141.381 67.5049 141.544 67.6572C141.706 67.8094 141.837 67.9925 141.928 68.1958C142.02 68.399 142.07 68.6184 142.076 68.8412C142.079 69.0695 142.038 69.2963 141.953 69.5083C141.868 69.7203 141.742 69.9132 141.582 70.076C141.421 70.2387 141.231 70.3681 141.02 70.4563C140.809 70.5445 140.583 70.5899 140.355 70.5898C140.126 70.6016 139.896 70.5667 139.681 70.4874C139.465 70.408 139.268 70.2858 139.101 70.1282C138.934 69.9705 138.801 69.7807 138.709 69.5701C138.618 69.3595 138.57 69.1325 138.568 68.9029C138.567 68.6733 138.612 68.4457 138.701 68.234C138.79 68.0223 138.921 67.8308 139.086 67.6711C139.251 67.5114 139.447 67.3868 139.661 67.3048C139.876 67.2228 140.104 67.185 140.334 67.1939L140.327 67.2045Z" fill="#75C111"/>
<path d="M156.508 67.1834C156.87 67.1997 157.226 67.2827 157.558 67.4282C157.6 67.4405 157.636 67.4681 157.659 67.5055C157.683 67.543 157.691 67.5877 157.683 67.6311C157.679 67.6614 157.668 67.6905 157.652 67.7165C157.636 67.7425 157.614 67.7649 157.589 67.7822C157.564 67.7996 157.535 67.8116 157.505 67.8175C157.475 67.8234 157.444 67.823 157.414 67.8165C157.052 67.6692 156.657 67.621 156.27 67.6766C156.001 67.7151 155.802 67.8165 155.756 68.0823C155.711 68.3481 155.9 68.5089 156.148 68.5719C156.498 68.6768 156.848 68.7397 157.197 68.8412C157.373 68.8635 157.535 68.945 157.658 69.0722C157.78 69.1994 157.856 69.3646 157.872 69.5406C157.88 69.7343 157.825 69.9252 157.713 70.0839C157.602 70.2426 157.442 70.3602 157.257 70.4185C156.946 70.5355 156.615 70.5852 156.284 70.5641C155.952 70.543 155.63 70.4517 155.337 70.2961C155.214 70.2332 155.13 70.1492 155.193 70.0268C155.203 69.9994 155.218 69.9745 155.238 69.9539C155.259 69.9333 155.283 69.9175 155.31 69.9078C155.338 69.898 155.367 69.8946 155.396 69.8976C155.424 69.9007 155.452 69.9102 155.477 69.9254C155.865 70.0882 156.287 70.1588 156.708 70.1317C156.994 70.1107 157.257 70.0093 157.32 69.7225C157.383 69.4357 157.096 69.2714 156.827 69.2084C156.557 69.1455 156.295 69.107 156.033 69.0265C155.438 68.8622 155.172 68.5999 155.193 68.1452C155.214 67.6906 155.501 67.4108 156.054 67.2674C156.202 67.2258 156.355 67.1977 156.508 67.1834Z" fill="#75C111"/>
<path d="M159.614 70.6109C159.208 70.5928 158.81 70.4953 158.442 70.3241C158.415 70.314 158.39 70.2986 158.369 70.2786C158.348 70.2587 158.332 70.2348 158.32 70.2082C158.309 70.1816 158.303 70.153 158.303 70.1241C158.303 70.0952 158.309 70.0666 158.32 70.0401C158.332 70.0135 158.348 69.9896 158.369 69.9696C158.39 69.9497 158.415 69.9342 158.442 69.9241C158.469 69.9141 158.498 69.9096 158.527 69.9111C158.556 69.9125 158.584 69.9197 158.61 69.9324C158.995 70.1039 159.417 70.1748 159.837 70.1387C160.124 70.1177 160.39 70.0163 160.432 69.7085C160.474 69.4008 160.208 69.2819 159.921 69.1979C159.634 69.114 159.285 69.0546 158.959 68.9741C158.783 68.9436 158.621 68.854 158.502 68.72C158.383 68.5859 158.312 68.4154 158.302 68.2362C158.292 68.0421 158.346 67.8502 158.457 67.6906C158.568 67.531 158.729 67.4129 158.914 67.3548C159.179 67.2488 159.464 67.1996 159.75 67.2105C160.035 67.2213 160.315 67.292 160.572 67.4179C160.677 67.4563 160.799 67.5193 160.757 67.6626C160.751 67.7 160.735 67.7351 160.711 67.7646C160.688 67.7941 160.657 67.8169 160.622 67.8309C160.587 67.845 160.548 67.8498 160.511 67.8449C160.473 67.8399 160.438 67.8253 160.407 67.8025C160.076 67.6643 159.712 67.6242 159.358 67.6871C159.238 67.6802 159.12 67.7178 159.026 67.7926C158.931 67.8674 158.868 67.9743 158.848 68.0928C158.809 68.3796 158.991 68.5195 159.257 68.5824C159.523 68.6454 159.851 68.7048 160.138 68.7888C160.754 68.9531 161.016 69.2364 160.998 69.6456C160.981 70.0548 160.691 70.3625 160.114 70.5094C159.95 70.5569 159.783 70.5908 159.614 70.6109Z" fill="#75C111"/>
<path d="M72.9716 70.6109C72.8435 70.6297 72.7128 70.6212 72.5883 70.5858C72.4637 70.5505 72.3481 70.4892 72.249 70.4059C72.1498 70.3227 72.0694 70.2193 72.0131 70.1027C71.9568 69.9861 71.9259 69.8589 71.9224 69.7295C71.8839 69.2993 71.9014 68.8517 71.9014 68.418C71.9014 68.0683 71.9853 67.7186 71.4537 67.6241C71.4162 67.6192 71.3814 67.602 71.3546 67.5752C71.3279 67.5484 71.3109 67.5134 71.3061 67.4759C71.3013 67.4384 71.3091 67.4003 71.3282 67.3676C71.3473 67.335 71.3767 67.3096 71.4118 67.2954C71.716 67.1695 71.9224 67.0296 71.9224 66.6799C71.9234 66.6503 71.9311 66.6213 71.945 66.5951C71.9589 66.5689 71.9785 66.5462 72.0024 66.5287C72.0263 66.5111 72.0538 66.4993 72.083 66.494C72.1121 66.4887 72.1421 66.49 72.1707 66.498C72.2476 66.5155 72.3525 66.5609 72.3525 66.6624C72.3315 67.2324 72.7023 67.2325 73.1324 67.2325C73.1627 67.2276 73.1937 67.2291 73.2234 67.237C73.253 67.2449 73.2805 67.2591 73.3043 67.2785C73.3281 67.2979 73.3475 67.3221 73.3612 67.3495C73.3749 67.377 73.3826 67.407 73.3839 67.4376C73.3851 67.4683 73.3799 67.4988 73.3684 67.5273C73.357 67.5558 73.3396 67.5815 73.3175 67.6028C73.2954 67.624 73.269 67.6404 73.2401 67.6507C73.2112 67.661 73.1805 67.6651 73.1499 67.6626C72.9261 67.7046 72.6393 67.6031 72.4785 67.8025C72.3176 68.0018 72.3945 68.3201 72.3945 68.5649C72.37 68.857 72.37 69.1506 72.3945 69.4427C72.433 70.0373 72.5169 70.1177 73.1499 70.1422C73.2933 70.1422 73.4787 70.0583 73.5207 70.2436C73.5801 70.4884 73.3562 70.513 73.1954 70.5514C73.1197 70.5672 73.045 70.587 72.9716 70.6109Z" fill="#75C111"/>
<path d="M115.16 70.5758C114.506 70.5758 114.135 70.2506 114.111 69.656C114.072 69.1664 114.111 68.6768 114.09 68.1837C114.09 68.0403 114.09 67.7919 114.048 67.7744C113.107 67.4912 113.681 67.2848 114.072 67.0191C114.149 66.9596 114.09 66.7113 114.149 66.6099C114.275 66.428 114.541 66.428 114.558 66.6274C114.604 67.1415 114.866 67.2604 115.321 67.2219C115.356 67.2135 115.393 67.2136 115.429 67.2223C115.464 67.2309 115.497 67.248 115.525 67.2719C115.553 67.2958 115.574 67.3259 115.588 67.3597C115.602 67.3936 115.607 67.4303 115.604 67.4667C115.583 67.6136 115.461 67.6311 115.338 67.6521C114.621 67.8165 114.621 67.8164 114.621 68.4704V69.2504C114.642 70.0058 114.642 70.0268 115.482 70.0897C115.604 70.0897 115.73 70.0897 115.747 70.2296C115.765 70.3695 115.667 70.436 115.545 70.4744C115.424 70.5314 115.293 70.5657 115.16 70.5758Z" fill="#75C111"/>
<path d="M94.4968 70.6108C94.3697 70.6199 94.242 70.6029 94.1217 70.561C94.0014 70.519 93.8909 70.453 93.797 70.367C93.703 70.2809 93.6276 70.1765 93.5753 70.0603C93.5231 69.944 93.4951 69.8185 93.493 69.6911C93.4545 69.177 93.493 68.6419 93.472 68.1103C93.472 67.9704 93.535 67.785 93.3707 67.7255C92.8181 67.5402 92.6152 67.3758 93.3322 67.152C93.472 67.11 93.4545 66.9701 93.472 66.8617C93.493 66.6833 93.493 66.477 93.7413 66.512C93.9896 66.5469 93.9861 66.7357 94.0036 66.9001C94.0491 67.3688 94.4338 67.166 94.7031 67.2289C94.8675 67.2289 94.9934 67.3094 94.9934 67.4912C94.9934 67.6731 94.8675 67.6556 94.7451 67.701C94.0281 67.8619 94.0281 67.8619 94.0281 68.5159V69.5651C94.0281 69.9953 94.2309 70.2226 94.7031 70.1807C94.8675 70.1597 95.1158 70.0373 95.1332 70.3031C95.1507 70.5689 94.8465 70.5304 94.6857 70.6073C94.6231 70.5958 94.5589 70.597 94.4968 70.6108Z" fill="#75C111"/>
<path d="M78.7832 68.9181V67.5192C78.7832 67.3128 78.9686 67.11 79.1085 67.2499C79.4373 67.5996 79.703 67.3338 80.0108 67.2744C80.1716 67.2499 80.378 67.11 80.4794 67.3583C80.5809 67.6066 80.3571 67.6207 80.1717 67.6661C79.9223 67.6993 79.6948 67.8262 79.5356 68.0211C79.3764 68.216 79.2975 68.4643 79.3148 68.7153C79.2763 69.2014 79.2939 69.6946 79.2939 70.2052C79.2939 70.3905 79.2554 70.5759 79.0071 70.5549C78.8217 70.5374 78.8042 70.3696 78.8042 70.2052C78.7832 69.7575 78.7832 69.3239 78.7832 68.8937V68.9181Z" fill="#75C111"/>
<path d="M120.888 68.8622V67.5542C120.888 67.2464 121.074 67.0856 121.336 67.3269C121.668 67.6172 121.892 67.2639 122.158 67.2464C122.34 67.2464 122.546 67.145 122.584 67.3898C122.63 67.5717 122.462 67.6171 122.301 67.6346C121.644 67.736 121.42 68.1872 121.381 68.7607C121.336 69.2539 121.36 69.7435 121.36 70.2541C121.36 70.4185 121.297 70.5619 121.112 70.5409C120.927 70.5199 120.888 70.3765 120.888 70.2331C120.867 69.8064 120.888 69.3308 120.888 68.8622Z" fill="#75C111"/>
<path d="M81.7929 68.9007V70.2997C81.7982 70.3587 81.7825 70.4177 81.7486 70.4663C81.7147 70.515 81.6647 70.5501 81.6075 70.5655C81.4221 70.5829 81.3452 70.4605 81.3452 70.2997V67.5018C81.3388 67.4427 81.3536 67.3831 81.3869 67.3339C81.4202 67.2846 81.4698 67.2487 81.5271 67.2325C81.7089 67.2115 81.7929 67.3339 81.7929 67.5018V68.9007Z" fill="#75C111"/>
<path d="M127.659 68.1837V70.1912C127.659 70.3346 127.62 70.499 127.417 70.4535C127.271 70.436 127.25 70.2926 127.25 70.1912V66.1588C127.246 66.13 127.249 66.1008 127.258 66.0732C127.266 66.0456 127.281 66.0203 127.301 65.999C127.32 65.9777 127.345 65.9609 127.371 65.9498C127.398 65.9388 127.427 65.9337 127.456 65.9349C127.62 65.9349 127.659 66.0574 127.659 66.1588C127.659 66.8582 127.641 67.5088 127.659 68.1837Z" fill="#75C111"/>
<path d="M81.5691 66.526C81.5258 66.5265 81.4828 66.5183 81.4427 66.5019C81.4026 66.4856 81.3662 66.4613 81.3355 66.4307C81.3049 66.4001 81.2807 66.3636 81.2643 66.3235C81.248 66.2834 81.2398 66.2405 81.2403 66.1972C81.2401 66.1606 81.2476 66.1244 81.2623 66.0909C81.277 66.0573 81.2985 66.0272 81.3256 66.0025C81.3526 65.9778 81.3844 65.9591 81.4191 65.9474C81.4538 65.9358 81.4906 65.9315 81.5271 65.9349C81.5686 65.9252 81.6118 65.9246 81.6537 65.9329C81.6956 65.9412 81.7352 65.9583 81.7699 65.9831C81.8046 66.0079 81.8337 66.0399 81.8551 66.0768C81.8765 66.1137 81.8899 66.1547 81.8943 66.1972C81.8943 66.414 81.7544 66.4875 81.5691 66.526Z" fill="#75C111"/>
<path d="M28.5168 49.7983H56.1351L54.4424 56.4152L49.9938 61.8536L45.5872 63.5463L31.493 63.8925L28.4434 63.7421L28.5168 49.7983Z" fill="#F7CE09"/>
<path d="M154.044 51.7812C154.044 54.0685 154.044 56.3523 154.044 58.636C154.065 60.2203 155.117 60.7344 156.544 60.2517C156.803 60.1573 157.055 60.0174 157.307 59.902L157.46 59.8356L157.621 59.8566C157.76 59.877 157.892 59.9319 158.004 60.0162C158.117 60.1005 158.206 60.2115 158.265 60.3392V60.3602V60.3777C158.492 60.8114 158.793 61.3569 158.594 61.8535C158.394 62.3502 157.807 62.553 157.338 62.7104C156.265 63.0817 155.107 63.1328 154.005 62.8573C152.197 62.4027 151.169 61.0701 151.085 59.2166C151.029 57.961 151.064 56.7055 151.064 55.4429V51.7638H148.864L148.812 51.2357C148.759 50.7006 148.612 49.9207 149.018 49.4871C149.424 49.0534 150.067 49.1373 150.571 49.1373H151.064V48.7106C151.064 48.2699 151.085 47.8258 151.064 47.3852C151.032 46.7347 151.414 46.3954 152.047 46.3604C152.554 46.3324 153.253 46.238 153.652 46.6122C154.051 46.9864 154.002 47.6615 154.002 48.1721C153.999 48.3501 153.983 48.5277 153.956 48.7037C153.93 48.8655 153.923 49.0298 153.935 49.1933C154.099 49.2039 154.263 49.1969 154.425 49.1723C154.615 49.1466 154.807 49.1349 154.998 49.1373C155.621 49.1548 156.243 49.1548 156.862 49.1373H156.88C157.579 49.1373 158.02 49.487 157.95 50.2285V50.2565C157.943 50.3589 157.943 50.4617 157.95 50.5642V50.5817C157.987 50.9065 157.895 51.2329 157.695 51.491C157.561 51.5985 157.407 51.678 157.242 51.7249C157.076 51.7718 156.903 51.785 156.733 51.7638H156.715C155.852 51.7778 154.949 51.8127 154.044 51.7812Z" fill="#231F20"/>
<path d="M63.9451 54.7051H71.7686C71.5402 53.756 70.9676 52.9255 70.162 52.3744C69.3563 51.8233 68.3748 51.5908 67.4075 51.7218C65.7463 51.9142 64.2529 53.0159 63.9451 54.7051ZM63.9451 57.1532C64.0937 57.9299 64.4857 58.6391 65.0642 59.1781C66.68 60.696 69.5898 60.7484 71.3315 59.4159C71.5378 59.2271 71.7546 59.0662 71.9679 58.8773L72.3772 58.5276L72.7548 58.9053C72.9052 59.0487 73.0486 59.1991 73.192 59.353C73.4753 59.6643 73.846 60.021 73.811 60.4791C73.776 60.9373 73.3284 61.259 72.9822 61.5283C72.091 62.2403 71.0285 62.7057 69.901 62.8783C67.988 63.1825 66.131 63.0462 64.4138 62.0844C63.4341 61.5681 62.6022 60.8106 61.9964 59.8836C61.3906 58.9566 61.0309 57.8905 60.9514 56.7859C60.789 55.3968 61.0319 53.9903 61.6508 52.736C62.1723 51.6922 62.9586 50.8034 63.9311 50.1585C65.4658 49.1709 67.3203 48.8081 69.1141 49.1444C70.56 49.3649 71.8911 50.0615 72.8964 51.1238C73.9017 52.1861 74.5239 53.5534 74.6644 55.0093C74.7064 55.3905 74.7064 55.7682 74.7239 56.1529C74.7391 56.2855 74.7245 56.4199 74.6811 56.5461C74.6377 56.6723 74.5666 56.7872 74.4731 56.8824C74.3795 56.9776 74.2659 57.0508 74.1404 57.0964C74.015 57.142 73.8809 57.159 73.7481 57.1462H73.7166C73.3948 57.1287 73.0801 57.1462 72.7583 57.1462H63.9521L63.9451 57.1532Z" fill="#231F20"/>
<path d="M82.9037 62.9342C82.8283 62.9237 82.7518 62.9237 82.6764 62.9342C82.3645 62.9972 82.0404 62.9447 81.7644 62.7864C81.4883 62.6281 81.2792 62.3749 81.1761 62.0739C79.3761 58.073 77.5576 54.079 75.7203 50.0921L75.4824 49.578L75.9895 49.3226C76.1229 49.236 76.2753 49.1832 76.4337 49.1687C76.9898 49.1338 77.7207 49.0533 78.2138 49.3506C78.707 49.6479 78.9343 50.2739 79.1546 50.7495C80.4043 53.5101 81.6552 56.2672 82.9072 59.0208C84.2607 56.0865 85.6177 53.1488 86.9361 50.1935C87.2859 49.4171 87.842 48.9904 88.7163 49.1443C88.8175 49.153 88.9193 49.153 89.0205 49.1443C89.2514 49.1347 89.4813 49.1789 89.6921 49.2737L89.9474 49.3926L90.0138 49.6654C90.0541 49.8238 90.0541 49.9897 90.0138 50.148C89.9774 50.27 89.9269 50.3874 89.8634 50.4977C89.8406 50.5328 89.8218 50.5704 89.8074 50.6097C88.0937 54.3763 86.3556 58.1324 84.6454 61.899C84.2922 62.6754 83.7571 63.0846 82.9037 62.9342Z" fill="#231F20"/>
<path d="M100.548 57.1636V57.0867H96.8442C96.4269 57.0887 96.0113 57.1404 95.6062 57.2406C94.6304 57.4784 94.1862 58.0694 94.3506 59.0696C94.4765 59.8216 95.0501 60.1608 95.7181 60.3531C96.5889 60.5987 97.512 60.5866 98.376 60.3182C99.677 59.937 100.548 59.0416 100.548 57.6392V57.1636ZM100.548 61.9549C99.8928 62.4358 99.1349 62.7578 98.3341 62.8957C96.9675 63.179 95.55 63.0921 94.2282 62.6439C92.0949 61.8535 90.9513 59.8461 91.5948 57.6253C91.9865 56.2753 92.9343 55.4499 94.2458 55.0127C95.038 54.7665 95.8644 54.6484 96.6939 54.663H100.541C100.537 54.429 100.519 54.1955 100.488 53.9635V53.9426C100.451 53.4042 100.223 52.8969 99.8445 52.5121C99.4661 52.1273 98.9627 51.8905 98.425 51.8442C96.8436 51.568 95.2165 51.9084 93.8785 52.7955C93.7573 52.9078 93.6134 52.9927 93.4566 53.0446C93.2997 53.0965 93.1334 53.1141 92.9692 53.0962C92.6194 53.0228 92.4586 52.7465 92.2697 52.4772C92.0319 52.1064 91.7136 51.6798 91.8256 51.2182C91.9375 50.7565 92.4411 50.5187 92.8328 50.2809C94.8805 49.1232 97.2885 48.7774 99.5792 49.3122C101.887 49.8298 103.251 51.5294 103.374 53.8796C103.433 54.9777 103.391 56.0725 103.391 57.1706V61.8675C103.391 62.5879 103.017 62.9867 102.286 62.9587C102.013 62.9587 101.73 62.9587 101.461 62.9412C101.323 62.9465 101.186 62.9224 101.059 62.8705C100.932 62.8186 100.817 62.7402 100.723 62.6404C100.575 62.4442 100.51 62.1984 100.541 61.9549H100.548Z" fill="#231F20"/>
<path d="M114.08 54.9463C114.993 56.0515 115.895 57.1636 116.801 58.2758C117.706 59.3879 118.605 60.4861 119.504 61.5947C119.602 61.7206 119.686 61.8675 119.773 62.0039L120.347 62.9062H119.277C118.633 62.9062 117.993 62.9272 117.346 62.9062C117.158 62.9049 116.974 62.8477 116.818 62.7418C116.64 62.6028 116.486 62.435 116.363 62.2452C114.881 60.4371 113.394 58.6395 111.883 56.8558C111.534 57.1461 111.184 57.5063 110.834 57.8036C110.484 58.1009 109.743 58.601 109.509 59.0346C109.497 59.0595 109.488 59.0853 109.481 59.1117C109.423 59.4308 109.423 59.7577 109.481 60.0768C109.502 60.3012 109.509 60.5267 109.502 60.7519C109.512 60.9534 109.512 61.1554 109.502 61.3569C109.497 61.4256 109.497 61.4945 109.502 61.5632C109.554 62.0388 109.537 62.504 109.068 62.7698C108.48 63.1196 107.928 62.9482 107.319 62.9237C107.209 62.9204 107.1 62.8944 107.001 62.8474C106.901 62.8003 106.812 62.7332 106.739 62.6502C106.666 62.5672 106.611 62.47 106.577 62.3649C106.544 62.2597 106.532 62.1488 106.543 62.0389V45.4336C106.543 45.0279 106.477 44.5278 106.791 44.2165C107.106 43.9053 107.645 43.9753 108.061 43.9753H108.456C108.598 43.9546 108.742 43.9677 108.878 44.0134C109.014 44.0592 109.137 44.1363 109.237 44.2386C109.337 44.3408 109.412 44.4653 109.455 44.6019C109.498 44.7384 109.508 44.8832 109.484 45.0245V45.0454C109.475 45.2108 109.475 45.3766 109.484 45.542V55.2995C111.548 53.4856 113.606 51.6612 115.661 49.8263C115.884 49.5931 116.158 49.413 116.46 49.2992C116.763 49.1854 117.087 49.1408 117.409 49.1687C117.888 49.1687 118.374 49.1512 118.861 49.1512H120.354L119.256 50.169L115.79 53.3725C115.199 53.8971 114.66 54.4357 114.08 54.9463Z" fill="#231F20"/>
<path d="M125.959 50.4802C127.029 49.508 128.375 49.1512 129.844 49.0603C129.977 49.0407 130.113 49.0516 130.241 49.092C130.369 49.1324 130.486 49.2013 130.584 49.2935C130.681 49.3857 130.757 49.4989 130.804 49.6245C130.852 49.7501 130.871 49.8849 130.859 50.0187V50.0466C130.841 50.4278 130.859 50.809 130.859 51.1937V51.5224L130.575 51.6938C130.38 51.8114 130.159 51.8776 129.932 51.8862C129.813 51.8862 129.694 51.8862 129.582 51.8862H129.561C127.547 52.0471 126.259 53.1977 126.109 55.2401C126.057 56.02 126.074 56.8034 126.074 57.5868C126.074 58.9857 126.074 60.3847 126.074 61.8116C126.074 62.553 125.7 62.9797 124.931 62.9587C124.647 62.9587 124.36 62.9587 124.074 62.9587C123.933 62.9664 123.792 62.9434 123.661 62.8915C123.53 62.8395 123.412 62.7599 123.315 62.6579C123.155 62.4523 123.082 62.1925 123.112 61.934C123.112 61.6961 123.133 61.4688 123.133 61.2345C123.133 57.6428 123.133 54.051 123.133 50.4592C123.073 50.1415 123.125 49.8128 123.28 49.529C123.546 49.1793 124.025 49.1793 124.427 49.1793H124.514C124.917 49.1793 125.438 49.1163 125.745 49.4345C126.053 49.7528 125.959 50.1165 125.959 50.4802Z" fill="#231F20"/>
<path d="M143.39 61.6821C142.614 62.3011 141.702 62.7245 140.728 62.9167C139.471 63.1726 138.169 63.1015 136.948 62.7103C136.011 62.4377 135.172 61.9002 134.533 61.1626C133.894 60.4249 133.482 59.5184 133.345 58.5521C133.275 58.2065 133.235 57.8554 133.227 57.5029V49.3506L133.685 49.2527C134.334 49.1268 135.001 49.1162 135.654 49.2212L136.168 49.2877V56.9818C136.199 59.0802 137.161 60.2413 139.28 60.3357C141.291 60.4301 142.967 59.3425 143.218 57.2721C143.271 56.8194 143.296 56.3638 143.292 55.9081C143.292 54.023 143.292 52.138 143.292 50.2494C143.271 50.1025 143.284 49.9526 143.329 49.8113C143.375 49.67 143.452 49.541 143.555 49.4338C143.657 49.3267 143.783 49.2443 143.922 49.193C144.062 49.1416 144.211 49.1226 144.358 49.1373C144.852 49.1198 145.516 49.0463 145.897 49.417C146.279 49.7877 146.247 50.4277 146.247 50.9139V62.0774C146.259 62.2742 146.196 62.468 146.07 62.6203C145.945 62.7727 145.767 62.8723 145.572 62.8992H145.548H145.516C145.068 62.9167 144.614 62.9167 144.163 62.8992C144.058 62.893 143.956 62.8645 143.863 62.8157C143.77 62.7668 143.689 62.6987 143.624 62.6159C143.483 62.4232 143.418 62.1854 143.442 61.9479C143.404 61.8675 143.393 61.7696 143.39 61.6821Z" fill="#231F20"/>
<path d="M38.2158 19.5255V15.7799C38.1976 15.662 38.2044 15.5416 38.2357 15.4265C38.2671 15.3114 38.3222 15.2042 38.3977 15.1119C38.4908 15.0358 38.5982 14.9789 38.7135 14.9446C38.8287 14.9104 38.9497 14.8995 39.0692 14.9125C39.4749 14.9125 40.066 14.8426 40.3772 15.1538C40.6885 15.4651 40.643 15.9862 40.643 16.3779V23.432C40.6457 23.5293 40.628 23.6261 40.5911 23.7161C40.5542 23.8061 40.4989 23.8874 40.4288 23.9549C40.3587 24.0224 40.2753 24.0745 40.1839 24.1079C40.0925 24.1413 39.9952 24.1553 39.8981 24.1489C39.6008 24.1489 39.3 24.1314 39.0027 24.1489C38.8949 24.1658 38.7847 24.1572 38.6808 24.1238C38.577 24.0904 38.4824 24.0333 38.4045 23.9568C38.3267 23.8803 38.2678 23.7868 38.2327 23.6835C38.1975 23.5802 38.187 23.4701 38.2019 23.362C38.2089 22.0855 38.2158 20.8055 38.2158 19.5255Z" fill="#231F20"/>
<path d="M29.8915 60.6435C29.8915 60.668 29.8914 60.6959 29.9089 60.7169C29.9264 60.7379 29.9089 60.7169 29.9089 60.7379V60.7763C29.9124 60.7853 29.9124 60.7953 29.9089 60.8043V60.8533C29.867 61.3736 29.867 61.8964 29.9089 62.4166C29.9124 62.428 29.9124 62.4402 29.9089 62.4516V62.4691C29.9085 62.4868 29.9116 62.5044 29.9181 62.521C29.9245 62.5375 29.9343 62.5526 29.9467 62.5653C29.9591 62.578 29.9739 62.5881 29.9902 62.595C30.0066 62.6019 30.0241 62.6055 30.0419 62.6055C34.2387 62.6055 38.4144 62.658 42.5937 62.588C45.8254 62.5781 48.9296 61.326 51.2636 59.0907C53.5971 56.9317 54.9888 53.9422 55.1386 50.7666C55.2885 47.5911 54.1844 44.4838 52.0645 42.1147C50.3183 40.1119 47.9799 38.7167 45.3881 38.1312C44.4538 37.9032 43.496 37.7858 42.5343 37.7815H28.5695C28.4693 37.7762 28.3689 37.7762 28.2687 37.7815C27.7196 37.8339 27.3349 37.5402 27.3874 36.9596C27.3909 36.8956 27.3909 36.8313 27.3874 36.7673C27.3461 36.3681 27.3733 35.9648 27.4678 35.5747L27.5238 35.4033C27.532 35.3795 27.5463 35.3581 27.5653 35.3415C27.5844 35.3249 27.6075 35.3137 27.6323 35.3089L27.8105 35.2809C28.2388 35.2308 28.6708 35.2191 29.1011 35.2459C33.4553 35.2459 37.8024 35.2459 42.1496 35.2459C43.6964 35.2398 45.2364 35.4518 46.7241 35.8754C48.9108 36.4974 50.932 37.5976 52.6415 39.0965C54.9037 41.0025 56.509 43.5719 57.23 46.4408C58.4261 51.3371 57.4399 55.8591 54.1559 59.7306C51.7108 62.6215 48.2725 64.4929 44.5172 64.9766C43.5836 65.0931 42.6424 65.1364 41.702 65.1061C37.2953 65.0851 32.8887 65.1061 28.4786 65.1061H27.7127C27.6898 65.1058 27.6672 65.1 27.6471 65.089C27.627 65.078 27.6099 65.0623 27.5973 65.0431L27.5098 64.8997C27.3807 64.6653 27.3339 64.3944 27.3769 64.1303V50.4278C27.3619 50.3215 27.3727 50.2132 27.4082 50.1119C27.4438 50.0106 27.5031 49.9193 27.5812 49.8457C27.6593 49.772 27.7539 49.7181 27.8571 49.6886C27.9603 49.659 28.069 49.6547 28.1743 49.6758C28.503 49.7073 28.8423 49.6304 29.1851 49.6758C29.3818 49.6915 29.5739 49.7437 29.7516 49.8298L30.1013 49.9942C30.1196 50.0029 30.1358 50.0157 30.1485 50.0316C30.1613 50.0474 30.1704 50.0658 30.1751 50.0856C30.1798 50.1054 30.18 50.126 30.1757 50.1459C30.1714 50.1658 30.1627 50.1844 30.1503 50.2004L29.9334 50.4732C29.9173 50.4918 29.9075 50.5152 29.9055 50.5398C29.9027 50.5863 29.9027 50.633 29.9055 50.6796V60.6575L29.8915 60.6435Z" fill="#231F20"/>
<path d="M28.2444 14.93L28.5171 14.909C28.6909 14.8655 28.8723 14.8608 29.0482 14.8953C29.2241 14.9297 29.3902 15.0025 29.5348 15.1084C29.6008 15.1648 29.6564 15.2323 29.6992 15.3078C29.8199 15.5678 29.8519 15.8602 29.7901 16.1401C29.7901 16.224 29.7691 16.3185 29.7691 16.4024V25.7892C29.7889 26.6645 29.6259 27.5343 29.2905 28.3431C28.9551 29.1518 28.4546 29.8817 27.8211 30.4861C27.1888 31.1123 26.4351 31.6025 25.6063 31.9267C24.7776 32.2509 23.8912 32.4021 23.0018 32.3711C21.6764 32.3366 20.3502 32.374 19.0289 32.4831C16.3035 32.7236 13.6658 33.5673 11.3068 34.9531C8.94774 36.3389 6.92644 38.232 5.38934 40.4954C4.00456 42.5524 3.07784 44.8829 2.67191 47.3292C2.42743 48.734 2.36394 50.1645 2.48305 51.5854C2.75953 55.123 4.1255 58.4878 6.39302 61.217C9.41471 64.8962 13.3282 67.0331 18.0216 67.7885C18.7641 67.9073 19.515 67.967 20.2669 67.9668H56.5691C56.8492 67.9337 57.133 67.9551 57.405 68.0299L57.6988 68.1312V70.3345H56.6496C44.9161 70.3345 33.1825 70.3135 21.449 70.3345C18.6039 70.3802 15.7753 69.8951 13.1079 68.9042C10.6517 67.9649 8.39657 66.5668 6.46304 64.7843C4.76166 63.2184 3.34207 61.3718 2.26626 59.325C0.803689 56.4953 0.0273619 53.3612 0 50.176C0.00809973 47.3601 0.613591 44.5778 1.77658 42.0132C3.31025 38.7283 5.67647 35.9016 8.64033 33.8138C11.6042 31.7261 15.0626 30.4498 18.6721 30.1119C20.1709 30.0005 21.6743 29.9643 23.1767 30.0034C24.1734 30.0045 25.1376 29.649 25.8951 29.0012C26.6526 28.3534 27.1534 27.456 27.307 26.4712C27.3507 26.0799 27.3718 25.6863 27.37 25.2925V15.7799C27.3545 15.6551 27.3651 15.5284 27.4013 15.408C27.4374 15.2876 27.4982 15.176 27.5798 15.0804C27.6739 15.0103 27.7817 14.9606 27.8962 14.9347C28.0106 14.9088 28.1292 14.9073 28.2444 14.93Z" fill="#231F20"/>
<path d="M69.1387 68.8622V67.4632C69.1387 67.2569 69.324 67.054 69.4639 67.1939C69.7926 67.5437 70.055 67.2779 70.3627 67.2149C70.5271 67.194 70.7334 67.0541 70.8348 67.2989C70.9362 67.5437 70.7125 67.5646 70.5271 67.6066C70.2773 67.639 70.0494 67.7658 69.89 67.9609C69.7307 68.1559 69.6521 68.4046 69.6703 68.6558C69.6318 69.1454 69.6493 69.6385 69.6493 70.1492C69.6493 70.331 69.6073 70.4989 69.3625 70.4989C69.1771 70.4814 69.1597 70.3135 69.1597 70.1492C69.1387 69.698 69.1387 69.2678 69.1387 68.8377V68.8622Z" fill="#75C111"/>
</svg>
